<?xml version="1.0" standalone="no"?>
<!DOCTYPE svg PUBLIC "-//W3C//DTD SVG 1.1//EN" "http://www.w3.org/Graphics/SVG/1.1/DTD/svg11.dtd" >
<svg>
<metadata>
Created by FontForge 20090914 at Fri Nov 28 00:51:26 2014
 By www-data
Copyright (c) 2012 by Brian J. Bonislawsky and Jim Lyles for Astigmatic (AOETI) (astigma@astigmatic.com), with ReservedFont Name "Clicker Script"
</metadata>
<defs>
<font id="ClickerScript-Regular" horiz-adv-x="614" >
  <font-face 
    font-family="Clicker Script"
    font-weight="400"
    font-stretch="normal"
    units-per-em="2048"
    panose-1="3 0 5 6 0 0 0 2 0 2"
    ascent="1638"
    descent="-410"
    x-height="639.005"
    cap-height="1415"
    bbox="-290.999 -806.994 2527 1898"
    underline-thickness="41"
    underline-position="-232"
    unicode-range="U+0020-U+FB02"
  />
<missing-glyph horiz-adv-x="512" 
 />
    <glyph glyph-name="fi" unicode="fi" horiz-adv-x="848" 
d="M686 104c-42 0 -76.6729 16.9941 -104.006 50.9941s-41 85.333 -41 154v2c-21.333 -42 -46.166 -80.5 -74.499 -115.5s-60.833 -59.833 -97.5 -74.5c10.667 -28 20.334 -58.167 29.001 -90.5s16.167 -65.5 22.5 -99.5s11.166 -68 14.499 -102s5 -67 5 -99
c0 -42.667 -3.5 -82.334 -10.5 -119.001s-17.333 -68.5 -31 -95.5s-30.667 -48.167 -51 -63.5s-44.166 -23 -71.499 -23c-36.667 0 -67.834 8.83301 -93.501 26.5s-47.167 41.167 -64.5 70.5s-31 62.5 -41 99.5s-17.5 74.833 -22.5 113.5s-8.16699 76.5 -9.5 113.5
s-2 69.833 -2 98.5c0 66 3 140 9 222s14 166 24 252s21.167 171.167 33.5 255.5s24.666 162.333 36.999 234s24.166 134.167 35.499 187.5s21 91.666 29 114.999c5.33301 16.667 12.5 33.667 21.5 51s19.833 33 32.5 47s27.167 25.333 43.5 34s35.166 13 56.499 13
c36.667 0 65.834 -12 87.501 -36s32.5 -57 32.5 -99c0 -50.667 -9.16699 -104.667 -27.5 -162s-42.166 -116.666 -71.499 -177.999s-62.5 -123.833 -99.5 -187.5l-110.5 -189.5c-7.33301 -62 -14.166 -123.667 -20.499 -185s-11.666 -119.5 -15.999 -174.5
s-7.83301 -105.5 -10.5 -151.5s-4 -84.667 -4 -116c0 -64 3.16699 -121.5 9.5 -172.5s16 -94.333 29 -130s29 -63 48 -82s41.5 -28.5 67.5 -28.5c14.667 0 27 4.66699 37 14s18.333 21.333 25 36s11.667 31.334 15 50.001s5.83301 37.334 7.5 56.001
s2.66699 36.334 3 53.001s0.5 30.667 0.5 42c0 74.667 -5 145.834 -15 213.501s-22.333 125.834 -37 174.501h-8c-16 0 -31.167 2.16699 -45.5 6.5s-27.166 10.5 -38.499 18.5s-20.333 17.333 -27 28s-10 22.334 -10 35.001c0 18 5.5 33.333 16.5 46s24.833 19 41.5 19
c20.667 0 40.334 -9.83301 59.001 -29.5s35.667 -45.834 51 -78.501c26 10 49.667 27.5 71 52.5s40.833 52.833 58.5 83.5s33.167 62.334 46.5 95.001l35 88c9.33301 36 22.166 74.833 38.499 116.5s36.5 85.5 60.5 131.5l36 -10c-4 -17.333 -10.333 -41 -19 -71
s-17.5 -63.5 -26.5 -100.5s-16.833 -75.667 -23.5 -116s-10 -79.166 -10 -116.499c0 -31.333 2.16699 -56.833 6.5 -76.5s10.5 -35 18.5 -46s17.167 -18.5 27.5 -22.5s21.5 -6 33.5 -6c18.667 0 36.834 6 54.501 18s34.334 27.833 50.001 47.5s30.167 41.667 43.5 66
s25.5 48.833 36.5 73.5s20.833 48.167 29.5 70.5s15.667 41.5 21 57.5l39 -10l-25.5 -69.5c-9.66699 -26.333 -20.667 -53.5 -33 -81.5s-26.166 -55.333 -41.499 -82s-32.666 -50.5 -51.999 -71.5s-40.833 -38 -64.5 -51s-49.834 -19.5 -78.501 -19.5zM259.994 1144.99
c-3.33301 -17.333 -7.83203 -43.501 -13.499 -78.501s-11.667 -76.333 -18 -124l-20.5 -158l-22 -178.5l102 179.5c31.333 57 58.5 111.333 81.5 163s41.167 100.334 54.5 146.001s20 89.167 20 130.5c0 26.667 -5.83301 49.667 -17.5 69s-30.834 29 -57.501 29
c-19.333 0 -35.5 -6.66699 -48.5 -20s-23.5 -29.333 -31.5 -48s-14.167 -38.167 -18.5 -58.5s-7.83301 -37.5 -10.5 -51.5zM847.995 1035.99c0 -23.333 -8.99902 -41.334 -26.999 -54.001s-40.333 -19 -67 -19c-14.667 0 -28.167 2.16699 -40.5 6.5s-23 10 -32 17
s-16 15.333 -21 25s-7.5 19.834 -7.5 30.501c0 22.667 8.83301 41 26.5 55s38.167 21 61.5 21c16.667 0 31.667 -2.5 45 -7.5s24.666 -11.5 33.999 -19.5s16.333 -16.833 21 -26.5s7 -19.167 7 -28.5zM226.996 198.992c0 -12.667 7.83105 -24.499 23.498 -35.499
s33.834 -17.167 54.501 -18.5c-9.33301 25.333 -18.833 44.666 -28.5 57.999s-19.167 20 -28.5 20c-5.33301 0 -10.166 -2 -14.499 -6s-6.5 -10 -6.5 -18zM794.994 1035.99c0 6.66699 -3 12.833 -9 18.5s-14.667 8.5 -26 8.5c-20.667 0 -31 -7.66699 -31 -23
c0 -7.33301 3.16699 -13.5 9.5 -18.5s14.833 -7.5 25.5 -7.5c10 0 17.667 2.16699 23 6.5s8 9.5 8 15.5z" />
    <glyph glyph-name="fl" unicode="fl" horiz-adv-x="907" 
d="M485 1227c0 -50.667 -9.17188 -104.672 -27.5049 -162.005s-42.166 -116.666 -71.499 -177.999s-62.5 -123.833 -99.5 -187.5l-110.5 -189.5c-7.33301 -62 -14.166 -123.667 -20.499 -185s-11.666 -119.5 -15.999 -174.5s-7.83301 -105.5 -10.5 -151.5
s-4 -84.667 -4 -116c0 -64 3.16699 -121.5 9.5 -172.5s16 -94.333 29 -130s29 -63 48 -82s41.5 -28.5 67.5 -28.5c14.667 0 27 4.66699 37 14s18.333 21.333 25 36s11.667 31.334 15 50.001s5.83301 37.334 7.5 56.001s2.66699 36.334 3 53.001s0.5 30.667 0.5 42
c0 38.667 -1.5 77.667 -4.5 117s-7 77.5 -12 114.5s-10.833 72.333 -17.5 106s-14 64.167 -22 91.5h-4c-16 0 -31.167 2.16699 -45.5 6.5s-27.166 10.5 -38.499 18.5s-20.333 17.333 -27 28s-10 22.334 -10 35.001c0 18 5.5 33.333 16.5 46s24.833 19 41.5 19
c19.333 0 38 -10.167 56 -30.5s34.667 -46.833 50 -79.5c19.333 4.66699 38.333 13.167 57 25.5s36.5 27.166 53.5 44.499s33.167 36.833 48.5 58.5s30 44.167 44 67.5c-4 47.333 -6.33301 93.5 -7 138.5s-1 84.833 -1 119.5c0 60.667 2.5 121 7.5 181
s12.667 117.333 23 172s22.833 105.5 37.5 152.5s31.834 87.667 51.501 122s41.334 61.166 65.001 80.499s49.5 29 77.5 29c20 0 37 -3.33301 51 -10s25.5 -15.667 34.5 -27s15.5 -24.5 19.5 -39.5s6 -30.833 6 -47.5c0 -42 -4.83301 -87.167 -14.5 -135.5
s-22.5 -97.666 -38.5 -147.999s-34 -100.833 -54 -151.5s-40.5 -99.667 -61.5 -147l-61.5 -133.5l-53 -110.5c6 -110 19 -193.5 39 -250.5s48 -85.5 84 -85.5c20 0 39.833 9.33301 59.5 28s39.5 45 59.5 79s40.333 75 61 123s41.667 101.667 63 161l39 -10
c-16 -46 -34 -94.5 -54 -145.5s-42.333 -97.833 -67 -140.5s-51.5 -78 -80.5 -106s-60.167 -42 -93.5 -42c-28 0 -52.333 7.5 -73 22.5s-38.167 35.167 -52.5 60.5s-26.166 55 -35.499 89s-17 69.667 -23 107c-12.667 -19.333 -26.5 -37.666 -41.5 -54.999
s-30.833 -33.333 -47.5 -48s-34 -27.5 -52 -38.5s-36.333 -19.167 -55 -24.5c12 -30.667 22.5 -64.167 31.5 -100.5s16.833 -73.166 23.5 -110.499s11.667 -74.666 15 -111.999s5 -72.333 5 -105c0 -42.667 -3.5 -82.334 -10.5 -119.001s-17.333 -68.5 -31 -95.5
s-30.667 -48.167 -51 -63.5s-44.166 -23 -71.499 -23c-36.667 0 -67.834 8.83301 -93.501 26.5s-47.167 41.167 -64.5 70.5s-31 62.5 -41 99.5s-17.5 74.833 -22.5 113.5s-8.16699 76.5 -9.5 113.5s-2 69.833 -2 98.5c0 66 3 140 9 222s14 166 24 252
s21.167 171.167 33.5 255.5s24.666 162.333 36.999 234s24.166 134.167 35.499 187.5s21 91.666 29 114.999c5.33301 16.667 12.5 33.667 21.5 51s19.833 33 32.5 47s27.167 25.333 43.5 34s35.166 13 56.499 13c36.667 0 65.834 -12 87.501 -36s32.5 -57 32.5 -99z
M628.995 683.995v-41.001v-44c0 -14.667 0.166992 -29 0.5 -43s0.833008 -26.667 1.5 -38l53 111l55.5 127c18.333 44 36 88.667 53 134s31.833 89.5 44.5 132.5s22.834 83.833 30.501 122.5s11.5 73.334 11.5 104.001c0 10 -0.833008 20.667 -2.5 32
s-4.83398 21.833 -9.50098 31.5s-11 17.667 -19 24s-18.333 9.5 -31 9.5c-25.333 0 -49.5 -16.5 -72.5 -49.5s-43 -78.833 -60 -137.5s-30.5 -128.5 -40.5 -209.5s-15 -169.5 -15 -265.5zM259.995 1144.99c-3.33301 -17.333 -7.83203 -43.501 -13.499 -78.501
s-11.667 -76.333 -18 -124l-20.5 -158l-22 -178.5l102 179.5c31.333 57 58.5 111.333 81.5 163s41.167 100.334 54.5 146.001s20 89.167 20 130.5c0 26.667 -5.83301 49.667 -17.5 69s-30.834 29 -57.501 29c-19.333 0 -35.5 -6.66699 -48.5 -20s-23.5 -29.333 -31.5 -48
s-14.167 -38.167 -18.5 -58.5s-7.83301 -37.5 -10.5 -51.5zM226.996 239.993c0 -6 1.99902 -12 5.99902 -18s9.5 -11.667 16.5 -17s14.833 -9.66602 23.5 -12.999s18 -5.33301 28 -6c-9.33301 23.333 -18.5 42.166 -27.5 56.499s-17.5 21.5 -25.5 21.5
c-5.33301 0 -10.166 -2 -14.499 -6s-6.5 -10 -6.5 -18z" />
    <glyph glyph-name="f_j" unicode="fj" horiz-adv-x="887" 
d="M393 -485c0 56.667 14.168 116.007 42.501 178.007s74.833 131 139.5 207c5.33301 102 10.666 188.667 15.999 260s11 132.666 17 183.999c-15.333 -28 -32.5 -55.333 -51.5 -82s-39.667 -50.834 -62 -72.501s-46 -39.834 -71 -54.501s-51.5 -23.334 -79.5 -26.001
c7.33301 -38 12.666 -80.833 15.999 -128.5s5 -97.167 5 -148.5c0 -60 -3.16699 -114.667 -9.5 -164s-15.666 -91.833 -27.999 -127.5s-27.666 -63.167 -45.999 -82.5s-39.166 -29 -62.499 -29c-28 0 -51.667 8.83301 -71 26.5s-35.5 41.167 -48.5 70.5
s-23.333 62.5 -31 99.5s-13.334 74.833 -17.001 113.5s-6 76.5 -7 113.5s-1.5 69.833 -1.5 98.5c0 66 3 140 9 222s14 166 24 252s21.167 171.167 33.5 255.5s24.666 162.333 36.999 234s24.166 134.167 35.499 187.5s21 91.666 29 114.999
c5.33301 16.667 12.5 33.667 21.5 51s19.833 33 32.5 47s27.167 25.333 43.5 34s35.166 13 56.499 13c36.667 0 65.834 -12 87.501 -36s32.5 -57 32.5 -99c0 -50.667 -9.16699 -104.667 -27.5 -162s-42.166 -116.666 -71.499 -177.999s-62.5 -123.833 -99.5 -187.5
l-110.5 -189.5c-7.33301 -62 -14.166 -123.667 -20.499 -185s-11.666 -119.5 -15.999 -174.5s-7.83301 -105.5 -10.5 -151.5s-4 -84.667 -4 -116c0 -128 7.66699 -222 23 -282s38.333 -90 69 -90c13.333 0 26.166 7.5 38.499 22.5s23.166 36.167 32.499 63.5
s16.833 60.166 22.5 98.499s8.5 81.166 8.5 128.499c0 62 -1.83301 116.833 -5.5 164.5s-8.5 88.5 -14.5 122.5c-14 2 -27.833 5.66699 -41.5 11s-25.834 11.666 -36.501 18.999s-19.167 15.833 -25.5 25.5s-9.5 19.834 -9.5 30.501c0 18 5.5 33.333 16.5 46
s24.833 19 41.5 19c22.667 0 41.334 -10.5 56.001 -31.5s26.667 -49.5 36 -85.5c22 1.33301 43.5 8.16602 64.5 20.499s41.333 28.166 61 47.499s38.334 41.166 56.001 65.499s33.834 49 48.501 74s27.667 49.333 39 73s20.666 44.834 27.999 63.501
c8 36.667 16.833 72 26.5 106l32.5 114l37 -13c-1.33301 -10.667 -4.83301 -33.834 -10.5 -69.501s-11.834 -83.5 -18.501 -143.5s-13.5 -132.167 -20.5 -216.5s-12.833 -180.833 -17.5 -289.5c29.333 30 59 64.167 89 102.5s59 79.333 87 123s54.167 89.667 78.5 138
s45.833 97.833 64.5 148.5l39 -10c-21.333 -57.333 -45.833 -113.166 -73.5 -167.499s-57.167 -106 -88.5 -155s-64.166 -94.667 -98.499 -137s-68.5 -80.166 -102.5 -113.499v-39c-3.33301 -90 -8.83301 -166.5 -16.5 -229.5s-18.334 -114.333 -32.001 -154
s-30 -68.667 -49 -87s-40.833 -27.5 -65.5 -27.5c-29.333 0 -53.5 12.167 -72.5 36.5s-28.5 60.833 -28.5 109.5zM260.001 1145.01c-3.33301 -17.333 -7.83203 -43.501 -13.499 -78.501s-11.667 -76.333 -18 -124l-20.5 -158l-22 -178.5l102 179.5
c31.333 57 58.5 111.333 81.5 163s41.167 100.334 54.5 146.001s20 89.167 20 130.5c0 26.667 -5.83301 49.667 -17.5 69s-30.834 29 -57.501 29c-19.333 0 -35.5 -6.66699 -48.5 -20s-23.5 -29.333 -31.5 -48s-14.167 -38.167 -18.5 -58.5s-7.83301 -37.5 -10.5 -51.5z
M567.002 -189.994c-8.66699 -12.667 -20.168 -28.5 -34.501 -47.5s-28.333 -40.833 -42 -65.5s-25.5 -51.667 -35.5 -81s-15 -60.333 -15 -93c0 -32 5.33301 -55.333 16 -70s23.334 -22 38.001 -22c14 0 25.333 11.833 34 35.5s15.834 54 21.501 91s9.66699 77.833 12 122.5
s4.16602 88 5.49902 130zM809.001 1036.01c0 -23.333 -8.99902 -41.334 -26.999 -54.001s-40.333 -19 -67 -19c-14.667 0 -28.167 2.16699 -40.5 6.5s-23 10 -32 17s-16 15.333 -21 25s-7.5 19.834 -7.5 30.501c0 22.667 8.83301 41 26.5 55s38.167 21 61.5 21
c16.667 0 31.667 -2.5 45 -7.5s24.666 -11.5 33.999 -19.5s16.333 -16.833 21 -26.5s7 -19.167 7 -28.5zM756.002 1036c0 6.66699 -3 12.833 -9 18.5s-14.667 8.5 -26 8.5c-20.667 0 -31 -7.66699 -31 -23c0 -7.33301 3.33301 -13.5 10 -18.5s15 -7.5 25 -7.5
s17.667 2.16699 23 6.5s8 9.5 8 15.5zM227.002 199.004c0 -9.33301 6.49902 -18.168 19.499 -26.501s27.833 -15.166 44.5 -20.499c-12 47.333 -26.333 71 -43 71c-5.33301 0 -10.166 -2 -14.499 -6s-6.5 -10 -6.5 -18z" />
    <glyph glyph-name="t_t" unicode="tt" horiz-adv-x="901" 
d="M-117 842c22.667 -9.33301 52.6621 -19.9932 89.9951 -31.9932s83.333 -22.667 138 -32c8.66699 58 20.334 110.333 35.001 157s30.5 86.5 47.5 119.5s34.833 58.333 53.5 76s36.667 26.5 54 26.5c20.667 0 35.334 -8 44.001 -24s13 -37.333 13 -64
c0 -19.333 -2 -40.833 -6 -64.5s-9.5 -48.834 -16.5 -75.501s-15.167 -54.334 -24.5 -83.001s-19.333 -57.334 -30 -86.001h79c61.333 0 121 2 179 6c8.66699 60 20.334 114.167 35.001 162.5s30.5 89.333 47.5 123s35 59.667 54 78s37.5 27.5 55.5 27.5
c20.667 0 35.334 -8 44.001 -24s13 -37.333 13 -64c0 -35.333 -4.66699 -77 -14 -125s-22.333 -100 -39 -156c54 8.66699 104.167 18.167 150.5 28.5s88.5 20.166 126.5 29.499l18 -37c-49.333 -12.667 -98.833 -24.334 -148.5 -35.001s-102.5 -20.334 -158.5 -29.001
c-16.667 -50 -35.834 -101.167 -57.501 -153.5s-44.167 -102.833 -67.5 -151.5c2 -36 5.83301 -72.833 11.5 -110.5s14.167 -72 25.5 -103s26.5 -56.333 45.5 -76s42.833 -29.5 71.5 -29.5c28 0 53.667 11.833 77 35.5s44.833 53.667 64.5 90s37.834 76.166 54.501 119.499
l47 123l39 -10l-30 -81c-10.667 -30 -22.667 -60.5 -36 -91.5s-28 -61 -44 -90s-33.667 -55 -53 -78s-40.666 -41.333 -63.999 -55s-48.666 -20.5 -75.999 -20.5c-23.333 0 -45.333 4 -66 12s-39.667 21.667 -57 41s-32.5 45.5 -45.5 78.5s-23.167 74.5 -30.5 124.5
c-19.333 -31.333 -38.833 -60.166 -58.5 -86.499s-39.334 -49 -59.001 -68s-39 -33.833 -58 -44.5s-37.5 -16 -55.5 -16c-29.333 0 -56.833 5.5 -82.5 16.5s-48 31.667 -67 62s-34 72.5 -45 126.5s-16.5 124.333 -16.5 211c0 39.333 1 77.166 3 113.499
s5.66699 71.5 11 105.5c-55.333 8.66699 -102.5 19 -141.5 31s-70.833 23.667 -95.5 35zM314.995 162.007c18.667 0 36.8291 5.66797 54.4961 17.001s35 27.333 52 48s33.833 45 50.5 73s34 59 52 93c-2 18.667 -3.16699 38.667 -3.5 60s-0.5 43.666 -0.5 66.999
c0 73.333 4 141.666 12 204.999c-28 -2 -56.167 -3.16699 -84.5 -3.5s-58.166 -0.5 -89.499 -0.5h-47c-15.333 0 -30.333 0.666992 -45 2c-16.667 -43.333 -33.667 -84.333 -51 -123s-33.666 -72 -48.999 -100c0.666992 -35.333 3.33398 -72.666 8.00098 -111.999
s12.334 -75.833 23.001 -109.5s25.5 -61.5 44.5 -83.5s43.5 -33 73.5 -33zM605.99 772.008c13.333 2 26.998 3.66602 40.998 4.99902s27.667 3 41 5c18.667 60.667 33.334 116.5 44.001 167.5s16 91.5 16 121.5c0 22 -3.66699 33 -11 33c-6 0 -14.833 -5.83301 -26.5 -17.5
s-24 -30.5 -37 -56.5s-25.667 -60.167 -38 -102.5s-22.166 -94.166 -29.499 -155.499zM175.988 770.007c10.667 -1.33301 21.499 -2.33301 32.499 -3s22.833 -1.66699 35.5 -3c12 32.667 22.5 64.5 31.5 95.5s16.5 59.833 22.5 86.5s10.667 50.667 14 72s5 39 5 53
c0 22 -3.33301 33 -10 33c-6 0 -14.833 -5.83301 -26.5 -17.5s-24 -30.5 -37 -56.5s-25.667 -60.333 -38 -103s-22.166 -95 -29.499 -157zM673.987 739.007c-12.667 -1.33301 -24.667 -2.66895 -36 -4.00195s-23.333 -2.66602 -36 -3.99902
c-4 -45.333 -6 -95.666 -6 -150.999v-41c14.667 32.667 28.5 66 41.5 100s25.167 67.333 36.5 100zM228.987 725.004c-10 0 -19.668 0.333008 -29.001 1s-18.666 1.66699 -27.999 3c-4 -45.333 -6 -95 -6 -149v-2l33 73.5c10.667 24.333 20.667 48.833 30 73.5z" />
    <glyph glyph-name=".notdef" horiz-adv-x="512" 
 />
    <glyph glyph-name="space" unicode=" " horiz-adv-x="451" 
 />
    <glyph glyph-name="exclam" unicode="!" horiz-adv-x="430" 
d="M414 1315c-30.667 -70.667 -57.667 -156.666 -81 -257.999c-20.667 -86.667 -39.334 -195.334 -56.001 -326.001s-25 -283.667 -25 -459l-35 4c-2 68.667 -2.66699 137 -2 205s2.33398 133.833 5.00098 197.5s6.16699 124.667 10.5 183s8.83301 112.5 13.5 162.5
c11.333 118 25 229.333 41 334zM311 63.001c0 -20 -7 -37.167 -21 -51.5s-31.333 -21.5 -52 -21.5c-19.333 0 -36.5 7.16699 -51.5 21.5s-22.5 31.5 -22.5 51.5c0 19.333 7.5 36.166 22.5 50.499s32.167 21.5 51.5 21.5c20.667 0 38 -7.16699 52 -21.5
s21 -31.166 21 -50.499z" />
    <glyph glyph-name="quotedbl" unicode="&#x22;" horiz-adv-x="328" 
d="M137 1001h-39l25 357h92zM301 1001h-39l25 357h92z" />
    <glyph glyph-name="numbersign" unicode="#" horiz-adv-x="793" 
d="M223 457h-157v39h159l23 262h-158v39h162l29 329h41l-31 -329h246l30 329h39l-28 -329h157v-39h-162l-22 -262h160v-39h-162l-29 -332h-41l29 332h-246l-29 -332h-38zM264 496h246l25 262h-246z" />
    <glyph glyph-name="dollar" unicode="$" horiz-adv-x="776" 
d="M715 395c0 -40 -7.49805 -76.335 -22.498 -109.002s-35.667 -61.334 -62 -86.001s-57.333 -44.834 -93 -60.501s-74.167 -25.834 -115.5 -30.501c0 -70 2 -140.333 6 -211h-35c-0.666992 6.66699 -1.5 15.667 -2.5 27s-2.33301 25.333 -4 42
s-3.33398 36.334 -5.00098 59.001s-3.16699 49.334 -4.5 80.001h-12c-40 0 -78.333 4 -115 12s-69 20.5 -97 37.5s-50.333 38.667 -67 65s-25 57.833 -25 94.5c0 28 5 52.333 15 73s21.333 37.834 34 51.501s24.167 23.834 34.5 30.501s16.166 10.334 17.499 11.001l18 -35
c-6 -3.33301 -13.333 -8.66602 -22 -15.999s-17 -16.333 -25 -27s-14.833 -23.334 -20.5 -38.001s-8.5 -31.334 -8.5 -50.001c0 -28 7.33301 -52.333 22 -73s34 -37.834 58 -51.501s51.5 -23.834 82.5 -30.501s62.833 -10 95.5 -10h11c-2 50 -3.83301 110.5 -5.5 181.5
s-2.5 154.5 -2.5 250.5c-28 14 -54.5 28.833 -79.5 44.5s-47.167 33.667 -66.5 54s-34.666 43.333 -45.999 69s-17 55.167 -17 88.5c0 36.667 5.83301 70.834 17.5 102.501s27.667 59.667 48 84s44.666 44.166 72.999 59.499s59.166 25.333 92.499 30
c6 56 12.167 97.833 18.5 125.5s10.5 44.5 12.5 50.5h31c-2.66699 -32.667 -4.5 -63.167 -5.5 -91.5s-2.16699 -55.166 -3.5 -80.499c36 -1.33301 67.833 -6.66602 95.5 -15.999s51 -22.166 70 -38.499s33.5 -35.666 43.5 -57.999s15 -46.833 15 -73.5
c0 -22 -2.83301 -44 -8.5 -66s-12 -41.833 -19 -59.5s-13.667 -32.334 -20 -44.001s-9.83301 -18.167 -10.5 -19.5l-28 23c2 4 5.5 11.667 10.5 23s10.333 24.5 16 39.5s10.5 31.333 14.5 49s6 35.167 6 52.5c0 18.667 -3.66699 36.667 -11 54s-18.666 32.833 -33.999 46.5
s-34.833 24.5 -58.5 32.5s-51.5 12.667 -83.5 14c-1.33301 -32.667 -2.83301 -64.5 -4.5 -95.5s-3 -62.333 -4 -94s-1.83301 -64.5 -2.5 -98.5s-1 -70.333 -1 -109l102.5 -49.5c34.333 -16.333 65.333 -35.333 93 -57s50.167 -46.667 67.5 -75s26 -62.833 26 -103.5z
M426.002 550.998c-1.33301 -66 -2.33203 -132 -2.99902 -198s-1 -132.333 -1 -199c34 4.66699 64.333 12.667 91 24s49.334 25.5 68.001 42.5s33 36.167 43 57.5s15 44 15 68c0 26 -5.83301 48.667 -17.5 68s-27.334 37 -47.001 53s-42.334 30.667 -68.001 44z
M365.003 710.998c1.33301 78 3.66699 146.83 7 206.497s7 111.5 11 155.5c-32 -4.66699 -58.333 -14 -79 -28s-37.167 -29.667 -49.5 -47s-21 -35.166 -26 -53.499s-7.5 -34.166 -7.5 -47.499c0 -22.667 3.66699 -43 11 -61s17.5 -34.333 30.5 -49s28.333 -28.167 46 -40.5
s36.5 -24.166 56.5 -35.499z" />
    <glyph glyph-name="percent" unicode="%" horiz-adv-x="1296" 
d="M416 1294c15.333 0 27.3359 -1.33105 36.0029 -3.99805s13.667 -4 15 -4l-8 -26c-1.33301 0 -5.83301 1.33301 -13.5 4s-17.5 4 -29.5 4c-64 0 -114.167 -25 -150.5 -75s-54.5 -120.667 -54.5 -212c0 -85.333 17.667 -150 53 -194s83.333 -66 144 -66
c26.667 0 52.167 6.66699 76.5 20s45.666 32.5 63.999 57.5s32.833 55.5 43.5 91.5s16 76.667 16 122c0 38 -4.33301 70.333 -13 97s-19.5 48.334 -32.5 65.001s-27.5 28.667 -43.5 36s-31.333 11 -46 11c-24.667 0 -43.834 -6 -57.501 -18s-24.5 -32 -32.5 -60l-33 8
c10.667 32 26.334 56.333 47.001 73s45.334 25 74.001 25c19.333 0 39.166 -4.5 59.499 -13.5s38.666 -23 54.999 -42s29.666 -43.5 39.999 -73.5s15.5 -66 15.5 -108c0 -38.667 -5.16699 -77.5 -15.5 -116.5s-26 -74.167 -47 -105.5s-48 -56.833 -81 -76.5
s-71.833 -29.5 -116.5 -29.5c-32 0 -63.5 6 -94.5 18s-58.667 29.667 -83 53s-43.833 52.166 -58.5 86.499s-22 74.166 -22 119.499c0 41.333 7 81.833 21 121.5s33.833 75.167 59.5 106.5s56.5 56.666 92.5 75.999s76 29 120 29zM223.003 -7.99805l428 655l459 680l33 -24
l-240 -353l-227.5 -342l-214 -328l-199.5 -309zM989.003 598.002c15.333 0 27.335 -1.33105 36.002 -3.99805s13.667 -4 15 -4l-8 -27c-1.33301 0 -5.66602 1.33301 -12.999 4s-17.333 4 -30 4c-64 0 -114.167 -24.833 -150.5 -74.5s-54.5 -120.167 -54.5 -211.5
c0 -85.333 17.667 -150 53 -194s83.333 -66 144 -66c27.333 0 53.166 6.66699 77.499 20s45.666 32.5 63.999 57.5s32.833 55.333 43.5 91s16 76.167 16 121.5c0 38.667 -4.33301 71.167 -13 97.5s-19.5 47.833 -32.5 64.5s-27.5 28.667 -43.5 36s-31.333 11 -46 11
c-25.333 0 -44.666 -6 -57.999 -18s-24.333 -32 -33 -60l-32 9c10 32 25.333 56.333 46 73s45.334 25 74.001 25c19.333 0 39.166 -4.5 59.499 -13.5s38.666 -23.167 54.999 -42.5s29.666 -44 39.999 -74s15.5 -66 15.5 -108c0 -38 -5 -76.5 -15 -115.5
s-25.667 -74.167 -47 -105.5s-48.333 -56.833 -81 -76.5s-71.667 -29.5 -117 -29.5c-32 0 -63.5 6 -94.5 18s-58.667 29.5 -83 52.5s-43.833 51.667 -58.5 86s-22 74.166 -22 119.499c0 41.333 7 82 21 122s33.833 75.667 59.5 107s56.5 56.666 92.5 75.999s76 29 120 29z
" />
    <glyph glyph-name="ampersand" unicode="&#x26;" horiz-adv-x="1509" 
d="M1489 313c-8 -24 -20.834 -50.665 -38.501 -79.998s-41.667 -57 -72 -83s-68 -47.667 -113 -65s-98.833 -26 -161.5 -26c-46 0 -89.5 6 -130.5 18s-79.5 28.667 -115.5 50c-58 -34 -119.167 -61.667 -183.5 -83s-131.5 -32 -201.5 -32c-66.667 0 -124 9.16699 -172 27.5
s-87.5 42.5 -118.5 72.5s-53.833 64 -68.5 102s-22 76.667 -22 116c0 60 11.667 112.667 35 158s54 85.166 92 119.499s81.5 64.666 130.5 90.999s99.167 50.833 150.5 73.5c-5.33301 31.333 -9.16602 62.333 -11.499 93s-3.5 61 -3.5 91c0 60.667 8 115 24 163
s38.167 88.667 66.5 122s62 58.666 101 75.999s81.167 26 126.5 26c30 0 56.167 -5.16699 78.5 -15.5s40.833 -23.833 55.5 -40.5s25.667 -35.167 33 -55.5s11 -40.5 11 -60.5c0 -53.333 -11 -100.333 -33 -141s-50.833 -76.834 -86.5 -108.501
s-76.167 -59.834 -121.5 -84.501s-91.333 -47.667 -138 -69c10.667 -57.333 25 -113.666 43 -168.999s39.5 -107.666 64.5 -156.999s53.333 -94.833 85 -136.5s67.167 -77.167 106.5 -106.5c42.667 30.667 81.667 64.334 117 101.001s65.666 73.834 90.999 111.501
s44.833 74.167 58.5 109.5s20.5 67 20.5 95c0 20.667 -2.33301 38 -7 52s-11 25.333 -19 34s-17.333 15 -28 19s-22 6 -34 6c-10 0 -20.333 -2 -31 -6s-20.167 -9.83301 -28.5 -17.5s-15.166 -17.334 -20.499 -29.001s-8 -25.5 -8 -41.5c0 -12.667 3.5 -26.5 10.5 -41.5
s19.833 -26.5 38.5 -34.5l-17 -33c-13.333 6 -24.333 13.167 -33 21.5s-15.667 17.5 -21 27.5s-9.16602 20.167 -11.499 30.5s-3.5 20.166 -3.5 29.499c0 22 4.5 41.167 13.5 57.5s20.333 30 34 41s28.5 19.167 44.5 24.5s31 8 45 8c40 0 72.167 -12.333 96.5 -37
s36.5 -60 36.5 -106c0 -29.333 -7.5 -62.666 -22.5 -99.999s-36.167 -76 -63.5 -116s-60.333 -80 -99 -120s-81.334 -77 -128.001 -111c34 -21.333 69.833 -38 107.5 -50s78.167 -18 121.5 -18c42.667 0 80.5 7.33301 113.5 22s61.5 33 85.5 55s43.667 45.833 59 71.5
s26.333 49.5 33 71.5zM523.999 70.002c54 0 106 7.00098 156 21.001s97.667 33.667 143 59c-42 30.667 -80 67.167 -114 109.5s-64.167 88.5 -90.5 138.5s-48.666 102.833 -66.999 158.5s-32.833 111.834 -43.5 168.501c-45.333 -22 -86.5 -45.167 -123.5 -69.5
s-68.5 -51.333 -94.5 -81s-46 -62.834 -60 -99.501s-21 -78.334 -21 -125.001c0 -49.333 9.5 -91.5 28.5 -126.5s43.5 -64 73.5 -87s63.667 -39.833 101 -50.5s74.666 -16 111.999 -16zM577.999 1022c0 -34 1.16797 -68.4971 3.50098 -103.497s6.5 -70.167 12.5 -105.5
c44.667 20 88 41.167 130 63.5s79.333 47.333 112 75s58.834 58.667 78.501 93s29.5 73.166 29.5 116.499c0 18 -2.83301 35.667 -8.5 53s-14.334 33 -26.001 47s-26.334 25.167 -44.001 33.5s-38.5 12.5 -62.5 12.5c-32 0 -61.833 -7.33301 -89.5 -22
s-51.5 -34.834 -71.5 -60.501s-35.667 -55.834 -47 -90.501s-17 -72 -17 -112z" />
    <glyph glyph-name="quotesingle" unicode="'" horiz-adv-x="164" 
d="M137 1001h-39l25 357h92z" />
    <glyph glyph-name="parenleft" unicode="(" horiz-adv-x="608" 
d="M567 1430c-0.666992 -0.666992 -10.1689 -9.00293 -28.502 -25.0029s-41 -39.833 -68 -71.5s-56.167 -71.167 -87.5 -118.5s-60 -102.833 -86 -166.5s-47.333 -135.5 -64 -215.5s-24 -168 -22 -264c1.33301 -96 10.5 -182.667 27.5 -260s37.5 -145.833 61.5 -205.5
s50 -111.167 78 -154.5s53.833 -78.833 77.5 -106.5s43.334 -48.167 59.001 -61.5s23.834 -20.333 24.501 -21l-25 -30c-2 1.33301 -13.167 9.33301 -33.5 24s-45.333 36.334 -75 65.001s-61.667 65.334 -96 110.001s-66.333 97.667 -96 159s-54.834 132 -75.501 212
s-32 169.667 -34 269s7.33301 190.5 28 273.5s47.334 157.333 80.001 223s68.167 123.167 106.5 172.5s74.166 90.5 107.499 123.5s61.333 57.833 84 74.5s34.334 25.334 35.001 26.001z" />
    <glyph glyph-name="parenright" unicode=")" horiz-adv-x="608" 
d="M96 1462c0.666992 -0.666992 12.334 -9.33301 35.001 -26s50.667 -41.5 84 -74.5s69.166 -74.167 107.499 -123.5s73.833 -106.833 106.5 -172.5s59.334 -140 80.001 -223s30 -174.167 28 -273.5c-2 -100 -13.333 -189.833 -34 -269.5s-45.834 -150.167 -75.501 -211.5
s-61.667 -114.333 -96 -159s-66.333 -81.334 -96 -110.001s-54.667 -50.167 -75 -64.5s-31.5 -22.5 -33.5 -24.5l-25 30l24 20.5c16 13.667 35.833 34.334 59.5 62.001s49.5 63.167 77.5 106.5s54 94.833 78 154.5s44.333 128.167 61 205.5s26 164 28 260
s-5.33301 184 -22 264s-38 151.833 -64 215.5s-54.667 119.167 -86 166.5s-60.5 86.833 -87.5 118.5s-49.667 55.5 -68 71.5s-27.833 24.333 -28.5 25z" />
    <glyph glyph-name="asterisk" unicode="*" horiz-adv-x="819" 
d="M485 1092c-19.333 -31.333 -40.1631 -62.5 -62.4961 -93.5l-64.5 -93.5c-8 7.33301 -17.167 14.833 -27.5 22.5s-19.5 15.167 -27.5 22.5l154 154c-33.333 10 -67 21.167 -101 33.5s-68 23.5 -102 33.5c5.33301 11.333 10.166 22.333 14.499 33s9.16602 21.667 14.499 33
l186 -104c-3.33301 34.667 -6 71 -8 109s-4.66699 74.667 -8 110h69l-20 -219l94 51.5l96 52.5c5.33301 -11.333 10.166 -22.333 14.499 -33s9.16602 -21.667 14.499 -33l-203 -67l77 -77l77 -77l-28 -23l-28 -22z" />
    <glyph glyph-name="plus" unicode="+" horiz-adv-x="819" 
d="M401 276c-4 84 -6 174.333 -6 271c-83.333 0 -174 2 -272 6v41c46 1.33301 91.5 2.33301 136.5 3s90.167 1 135.5 1c0 43.333 0.5 87.166 1.5 131.499s2.5 90.5 4.5 138.5h41c1.33301 -46 2.33301 -91.167 3 -135.5s1 -89.166 1 -134.499
c46.667 0 92.167 -0.166992 136.5 -0.5s88.5 -1.5 132.5 -3.5v-41c-82 -4 -171.667 -6 -269 -6c0 -46 -0.166992 -91.5 -0.5 -136.5s-1.5 -89.833 -3.5 -134.5h-41z" />
    <glyph glyph-name="comma" unicode="," horiz-adv-x="307" 
d="M121 -152c17.333 23.333 32.8281 47.999 46.4951 73.999s21.167 49.333 22.5 70c-3.33301 -1.33301 -6.66602 -2 -9.99902 -2h-10c-22.667 0 -39.667 7.5 -51 22.5s-17 30.5 -17 46.5c0 20.667 6.83301 37.834 20.5 51.501s30.834 20.5 51.501 20.5
c24.667 0 43.834 -8.66699 57.501 -26s20.5 -39.333 20.5 -66c0 -18 -2.66699 -36.667 -8 -56s-12.666 -38.333 -21.999 -57s-20.166 -36.5 -32.499 -53.5s-25.5 -32.5 -39.5 -46.5z" />
    <glyph glyph-name="hyphen" unicode="-" horiz-adv-x="676" 
d="M633 422c-27.333 -1.33301 -51.4961 -2.33203 -72.4961 -2.99902s-40.833 -1.33398 -59.5 -2.00098s-37.334 -1 -56.001 -1s-39.334 0.166992 -62.001 0.5s-48.334 0.833008 -77.001 1.5s-62.334 2 -101.001 4v70c34 0.666992 63.667 1.33398 89 2.00098
s48.5 1.16699 69.5 1.5s41 0.666016 60 0.999023s38.667 0.333008 59 0s42.5 -0.833008 66.5 -1.5s52 -1.66699 84 -3v-70z" />
    <glyph glyph-name="period" unicode="." horiz-adv-x="307" 
d="M248 63c0 -20 -7.16699 -37.167 -21.5 -51.5s-31.833 -21.5 -52.5 -21.5c-19.333 0 -36.166 7.16699 -50.499 21.5s-21.5 31.5 -21.5 51.5c0 19.333 7.16699 36.166 21.5 50.499s31.166 21.5 50.499 21.5c20.667 0 38.167 -7.16699 52.5 -21.5s21.5 -31.166 21.5 -50.499
z" />
    <glyph glyph-name="slash" unicode="/" horiz-adv-x="717" 
d="M23 -39l336 699l339 698l37 -17l-354 -735l-322 -661z" />
    <glyph glyph-name="zero" unicode="0" horiz-adv-x="1114" 
d="M639 1300c28.667 0 51.335 -2.66699 68.002 -8s26 -8 28 -8l-16 -35c-2 0 -10 2.5 -24 7.5s-32.667 7.5 -56 7.5c-70.667 0 -133.834 -17.333 -189.501 -52s-102.667 -81.667 -141 -141s-67.666 -129 -87.999 -209s-30.5 -165.333 -30.5 -256
c0 -92 10.167 -174.5 30.5 -247.5s49 -134.833 86 -185.5s81.667 -89.5 134 -116.5s110.833 -40.5 175.5 -40.5c58.667 0 114 16.667 166 50s97.167 79.666 135.5 138.999s68.666 129.833 90.999 211.5s33.5 170.834 33.5 267.501c0 84.667 -8.83301 157.5 -26.5 218.5
s-40.5 111.167 -68.5 150.5s-59.333 68.5 -94 87.5s-69 28.5 -103 28.5c-48.667 0 -90.667 -15.833 -126 -47.5s-61.666 -78.5 -78.999 -140.5l-39 10c20.667 70 52 123.333 94 160s91.333 55 148 55c38 0 76.833 -9.83301 116.5 -29.5s75.5 -50.667 107.5 -93
s58.167 -96.5 78.5 -162.5s30.5 -145 30.5 -237c0 -56.667 -4.33301 -113.834 -13 -171.501s-21.834 -113 -39.501 -166s-40.334 -102.833 -68.001 -149.5s-60.667 -87.167 -99 -121.5s-81.833 -61.333 -130.5 -81s-103.334 -29.5 -164.001 -29.5
c-62 0 -122.833 12.667 -182.5 38s-112.667 63 -159 113s-83.833 112.167 -112.5 186.5s-43 160.5 -43 258.5c0 60.667 5.83301 121 17.5 181s28.834 117.333 51.501 172s50.5 105.5 83.5 152.5s70.5 87.833 112.5 122.5s88.5 61.834 139.5 81.501s105.833 29.5 164.5 29.5z
" />
    <glyph glyph-name="one" unicode="1" horiz-adv-x="401" 
d="M223 14l-123 6.00098l193 1137c-19.333 -34 -39.5 -66.167 -60.5 -96.5s-40.333 -56.833 -58 -79.5s-32.5 -40.834 -44.5 -54.501s-18.333 -20.834 -19 -21.501l-29 27c28.667 32.667 56.334 67.334 83.001 104.001c23.333 32 47.666 68 72.999 108s47 82 65 126l37 -10z
" />
    <glyph glyph-name="two" unicode="2" horiz-adv-x="1044" 
d="M238 4c-52.667 0 -95.334 9.33203 -128.001 27.999s-49 43.334 -49 74.001c0 32 15.833 56.833 47.5 74.5s73.167 26.5 124.5 26.5c45.333 0 90.5 -8.16699 135.5 -24.5s89.5 -34.166 133.5 -53.499c56.667 37.333 109 84.333 157 141s89.5 118.167 124.5 184.5
s62.333 135.333 82 207s29.5 141.167 29.5 208.5c0 52 -5.5 97.833 -16.5 137.5s-26 73.834 -45 102.501s-41.167 52.5 -66.5 71.5s-52 34 -80 45s-56.667 18.833 -86 23.5s-57.666 7 -84.999 7c-54 0 -104.667 -9.16699 -152 -27.5s-88.333 -43.5 -123 -75.5
s-62 -69.5 -82 -112.5s-30 -89.167 -30 -138.5c0 -28.667 4 -58.5 12 -89.5s21.667 -61.833 41 -92.5l-20 -13l-23 -15c-8.66699 -6 -18 -11.667 -28 -17c-15.333 28 -27.166 57.833 -35.499 89.5s-12.5 63.834 -12.5 96.501c0 58 11.333 113.167 34 165.5
s54.167 98.166 94.5 137.499s88.166 70.666 143.499 93.999s115.666 35 180.999 35c36 0 73 -3 111 -9s75 -16 111 -30s70.167 -32.167 102.5 -54.5s60.666 -49.833 84.999 -82.5s43.5 -70.834 57.5 -114.501s21 -93.5 21 -149.5c0 -70 -11.667 -141 -35 -213
s-55.333 -141.167 -96 -207.5s-88.167 -128 -142.5 -185s-112.833 -105.167 -175.5 -144.5c43.333 -19.333 86.833 -36.333 130.5 -51s88.167 -22 133.5 -22c30 0 60 4 90 12l13 -37c-17.333 -5.33301 -34.666 -9 -51.999 -11s-34.333 -3 -51 -3
c-26 0 -51.833 2.5 -77.5 7.5s-51.167 11.833 -76.5 20.5s-50.666 18.334 -75.999 29.001l-75 33c-44 -24.667 -89.5 -43.834 -136.5 -57.501s-93.5 -20.5 -139.5 -20.5zM240 42.999c38.667 0 76.667 5.33203 114 15.999s73.666 25.667 108.999 45
c-39.333 17.333 -78.166 32.333 -116.499 45s-76.166 19 -113.499 19c-25.333 0 -47 -5.66699 -65 -17s-27 -26.333 -27 -45c0 -15.333 8.16699 -29.666 24.5 -42.999s41.166 -20 74.499 -20z" />
    <glyph glyph-name="three" unicode="3" horiz-adv-x="1028" 
d="M41 313l39.001 2.00098c2.66699 -36.667 12.834 -73 30.501 -109s42.167 -68.167 73.5 -96.5s69.666 -51.333 114.999 -69s96.666 -26.5 153.999 -26.5c26 0 54 2 84 6s60 11.167 90 21.5s58.833 24.166 86.5 41.499s52.334 39.333 74.001 66s38.834 58.167 51.501 94.5
s19 78.833 19 127.5c0 54 -9.5 102.833 -28.5 146.5s-46 80.834 -81 111.501s-77.5 54.334 -127.5 71.001s-106 25 -168 25c-42.667 0 -86.334 -4 -131.001 -12l-15 32c36.667 28 74.334 59.667 113.001 95s77 73.5 115 114.5s74.5 84.833 109.5 131.5
s67.167 95.667 96.5 147c-27.333 -7.33301 -60 -14.5 -98 -21.5s-80 -13.333 -126 -19s-94.667 -10.167 -146 -13.5s-104 -5 -158 -5l-16 102c0.666992 -0.666992 8 -1.66699 22 -3s33 -2.66602 57 -3.99902s52 -2.5 84 -3.5s66.333 -1.5 103 -1.5c30 0 61 0.5 93 1.5
s63.667 3 95 6s61.833 6.66699 91.5 11s57.167 10.166 82.5 17.499l23 -26c-28.667 -53.333 -63.667 -105.833 -105 -157.5s-83.833 -100 -127.5 -145s-85.834 -85.5 -126.501 -121.5l-102 -88c17.333 6 37.5 10.5 60.5 13.5s47.833 4.5 74.5 4.5
c32 0 65.167 -2.5 99.5 -7.5s67.833 -13.5 100.5 -25.5s63.667 -27.667 93 -47s55.166 -43 77.499 -71s40 -61 53 -99s19.5 -81.667 19.5 -131c0 -66.667 -12.167 -126.667 -36.5 -180s-58 -98.833 -101 -136.5s-94 -66.667 -153 -87s-122.833 -30.5 -191.5 -30.5
c-54 0 -106.667 7.33301 -158 22s-97.333 36.667 -138 66s-74.167 65.666 -100.5 108.999s-41.5 93.666 -45.5 150.999z" />
    <glyph glyph-name="four" unicode="4" horiz-adv-x="1014" 
d="M795 8l-147.998 5.99609c16.667 68.667 31.5 137 44.5 205s25.5 137 37.5 207c-31.333 0.666992 -61.833 2.83398 -91.5 6.50098s-58.667 7.66699 -87 12s-56.166 8.16602 -83.499 11.499s-54 5 -80 5c-41.333 0 -81.5 -3.66699 -120.5 -11s-76.5 -20.666 -112.5 -39.999
c-6.66699 6.66699 -14.5 15 -23.5 25l-26 30l-22 26c-6.33301 7.33301 -9.83301 11.666 -10.5 12.999c22 26.667 43.667 58 65 94s41.833 74.333 61.5 115s38.334 82.334 56.001 125.001s34.167 84.334 49.5 125.001c35.333 95.333 68.333 194.333 99 297l39 -7l-8 -39
c-4.66699 -22.667 -11.5 -52.5 -20.5 -89.5l-32 -126.5c-12.333 -47.333 -26.5 -97 -42.5 -149s-33.667 -104.667 -53 -158s-40.333 -104 -63 -152c4.66699 0.666992 11.167 1.33398 19.5 2.00098l26 2c9 0.666992 18 1.16699 27 1.5s16.833 0.5 23.5 0.5
c39.333 0 77.166 -2.5 113.499 -7.5s71.5 -11.333 105.5 -19s67.5 -15.667 100.5 -24s65.833 -15.5 98.5 -21.5c19.333 124 34.5 247.333 45.5 370s19.167 247.334 24.5 374.001l39 -3l-33 -747c26.667 2 53.667 5.16699 81 9.5s53.666 10.833 78.999 19.5l10 -39
c-28.667 -8.66699 -57.334 -15.167 -86.001 -19.5s-57.334 -7.5 -86.001 -9.5z" />
    <glyph glyph-name="five" unicode="5" horiz-adv-x="1038" 
d="M467 -18c-52 0 -102.496 8.5 -151.496 25.5s-92.333 41.333 -130 73s-67.834 69.667 -90.501 114s-34 93.5 -34 147.5c0 9.33301 0.666992 18 2 26s3.66602 15.667 6.99902 23l36 -12c-4 -10 -6 -21.667 -6 -35c0 -52 11 -98 33 -138s50.5 -73.833 85.5 -101.5
s74.167 -48.667 117.5 -63s86.333 -21.5 129 -21.5c64 0 122.167 10.833 174.5 32.5s97.166 52.5 134.499 92.5s66.166 88.333 86.499 145s30.5 119.667 30.5 189c0 65.333 -9.83301 125.166 -29.5 179.499s-47.5 101 -83.5 140s-79.667 69.333 -131 91
s-108.666 32.5 -171.999 32.5c-36.667 0 -70.5 -4.83301 -101.5 -14.5s-58.833 -21.667 -83.5 -36s-46.334 -29.833 -65.001 -46.5s-34.167 -32.167 -46.5 -46.5s-21.666 -26.5 -27.999 -36.5l-9.5 -15l-37 16l8.5 25l21.5 65.5c8.66699 27 18 57.833 28 92.5
s19.667 70.667 29 108s17.666 74.333 24.999 111s12.333 70.667 15 102l23 17c26.667 -3.33301 52.167 -5.66602 76.5 -6.99902s47.833 -2 70.5 -2c55.333 0 104.166 3.83301 146.499 11.5s77.666 16 105.999 25s49.833 17.333 64.5 25s22.334 11.834 23.001 12.501l27 -100
c-1.33301 -0.666992 -8.83301 -2.5 -22.5 -5.5s-31.834 -6.33301 -54.501 -10s-48.667 -6.83398 -78 -9.50098s-60.333 -4 -93 -4c-37.333 0 -76.333 2.5 -117 7.5l-131 15.5c0 -10 -0.333008 -25.667 -1 -47s-2 -47 -4 -77s-5.33301 -63.167 -10 -99.5
s-11 -74.5 -19 -114.5c50 32.667 101 55.5 153 68.5s105.333 19.5 160 19.5c24.667 0 52.834 -2.83301 84.501 -8.5s64 -15.5 97 -29.5s65.333 -32.5 97 -55.5s60 -51.667 85 -86s45 -75 60 -122s22.5 -101.5 22.5 -163.5c0 -75.333 -14.167 -145 -42.5 -209
s-66.666 -119.5 -114.999 -166.5s-104.5 -83.833 -168.5 -110.5s-132 -40 -204 -40z" />
    <glyph glyph-name="six" unicode="6" horiz-adv-x="1024" 
d="M649 1300c38.667 0 73.1592 -4.49902 103.492 -13.499s57 -20.167 80 -33.5s42.5 -28 58.5 -44s29.167 -31 39.5 -45s17.833 -25.833 22.5 -35.5l8 -16.5l-35 -18c-0.666992 0.666992 -3 5.5 -7 14.5s-10.5 19.667 -19.5 32s-20.667 25.666 -35 39.999
s-31.833 27.5 -52.5 39.5s-44.667 22 -72 30s-58.333 12 -93 12c-72 0 -136.167 -18.167 -192.5 -54.5s-103.833 -85.333 -142.5 -147s-68.167 -133.5 -88.5 -215.5s-30.5 -168.333 -30.5 -259c0 -101.333 10.5 -188.166 31.5 -260.499s49.833 -131.5 86.5 -177.5
s79.334 -79.833 128.001 -101.5s101 -32.5 157 -32.5c42 0 80 7.16699 114 21.5s64.333 33.666 91 57.999s49.667 52.5 69 84.5s35.333 65.833 48 101.5s21.834 71.834 27.501 108.501s8.5 72 8.5 106c-0.666992 53.333 -9.5 102.833 -26.5 148.5
s-40.833 85.167 -71.5 118.5s-67.167 59.5 -109.5 78.5s-89.166 28.5 -140.499 28.5c-54 0 -100 -9.5 -138 -28.5s-69 -46 -93 -81s-41.667 -77.167 -53 -126.5s-17 -104.333 -17 -165h-39c0 64.667 6.33301 124 19 178s32.834 100.5 60.501 139.5s63 69.167 106 90.5
s94.5 32 154.5 32c58.667 0 111.834 -10.833 159.501 -32.5s88.334 -51.667 122.001 -90s59.667 -83.833 78 -136.5s27.5 -109.667 27.5 -171c0 -64 -10.167 -127 -30.5 -189s-49.333 -117.333 -87 -166s-83.167 -88 -136.5 -118s-112.666 -45 -177.999 -45
c-36.667 0 -74.167 4.66699 -112.5 14s-75.5 24 -111.5 44s-70.167 45.167 -102.5 75.5s-60.5 66.666 -84.5 108.999s-43 90.5 -57 144.5s-21 114.667 -21 182c0 84.667 8.16699 162.667 24.5 234s38.666 135.666 66.999 192.999s61.333 107.5 99 150.5
s77.834 78.833 120.501 107.5s86.834 50.334 132.501 65.001s90.167 22 133.5 22z" />
    <glyph glyph-name="seven" unicode="7" horiz-adv-x="803" 
d="M328 -6l-121 15.999c24.667 120.667 54.667 235 90 343s75.333 212.333 120 313s94 199.167 148 295.5s112.667 193.5 176 291.5c-38.667 -9.33301 -80.834 -16 -126.501 -20s-91.5 -6 -137.5 -6c-56.667 0 -112.167 2.16699 -166.5 6.5s-103 9 -146 14
s-77.667 9.66699 -104 14s-39.833 6.5 -40.5 6.5l7 39c0.666992 0 14.167 -2.16699 40.5 -6.5s60.5 -9 102.5 -14s89.5 -9.66699 142.5 -14s107.167 -6.5 162.5 -6.5c56.667 0 111.334 3 164.001 9s99.667 16.667 141 32l23 -31c-72 -103.333 -134.667 -211.333 -188 -324
s-98.833 -225 -136.5 -337s-68.667 -221.167 -93 -327.5s-43.5 -204.166 -57.5 -293.499z" />
    <glyph glyph-name="eight" unicode="8" horiz-adv-x="958" 
d="M324 182c0 54 11.999 102.836 35.999 146.503s55 85.167 93 124.5l-135.5 107c-46.333 36 -88.5 73.833 -126.5 113.5s-69.167 81.5 -93.5 125.5s-36.5 91.667 -36.5 143c0 56.667 13.167 108.334 39.5 155.001s60.833 86.5 103.5 119.5s91.334 58.667 146.001 77
s110 27.5 166 27.5c44.667 0 84.834 -5.66699 120.501 -17s66 -27.166 91 -47.499s44.167 -45 57.5 -74s20 -60.833 20 -95.5c0 -35.333 -5.66699 -65.5 -17 -90.5s-25.666 -46.167 -42.999 -63.5s-36 -31.333 -56 -42s-38.667 -18.834 -56 -24.501s-32 -9.5 -44 -11.5
l-18 -3l-4 39c1.33301 0 7.16602 1 17.499 3s22.833 5.33301 37.5 10s30.5 11.5 47.5 20.5s32.667 20.667 47 35s26.166 31.833 35.499 52.5s14 45.667 14 75c0 42 -8.66699 75.833 -26 101.5s-38.833 45.334 -64.5 59.001s-53 22.834 -82 27.501s-54.833 7 -77.5 7
c-56 0 -106.167 -8.83301 -150.5 -26.5s-81.666 -40.834 -111.999 -69.501s-53.5 -61 -69.5 -97s-24 -72 -24 -108c0 -46 11.5 -88.833 34.5 -128.5s52.667 -77.834 89 -114.501s76.666 -72.167 120.999 -106.5l130.5 -103.5l132.5 108.5
c45.667 35.667 87.167 72.5 124.5 110.5s68 78.167 92 120.5s36 89.166 36 140.499c0 21.333 -3 43.666 -9 66.999s-14.667 47.333 -26 72l35 16c25.333 -55.333 38 -107.666 38 -156.999c0 -34.667 -5.66699 -67.5 -17 -98.5s-26.833 -60.833 -46.5 -89.5
s-42.5 -56.334 -68.5 -83.001s-53.667 -52.834 -83 -78.501l-90.5 -75.5c-31 -24.667 -60.833 -49.667 -89.5 -75c28 -23.333 54 -46.833 78 -70.5s45 -48.167 63 -73.5s32.167 -51.5 42.5 -78.5s15.5 -55.167 15.5 -84.5c0 -34 -5.83301 -65.167 -17.5 -93.5
s-27.5 -52.5 -47.5 -72.5s-43.5 -35.667 -70.5 -47s-56.167 -17 -87.5 -17c-32 0 -61.167 5 -87.5 15s-49 24.167 -68 42.5s-33.667 40.666 -44 66.999s-15.5 55.833 -15.5 88.5zM681.999 141.003c0 26 -5.16797 51.4971 -15.501 76.4971s-24.5 49.333 -42.5 73
s-39 46.834 -63 69.501s-50 45.334 -78 68.001c-36 -37.333 -65.167 -76.5 -87.5 -117.5s-33.5 -84.5 -33.5 -130.5c0 -53.333 16.333 -95.333 49 -126s76 -46 130 -46c24.667 0 45.834 3.83301 63.501 11.5s32.167 17.834 43.5 30.501s19.833 27 25.5 43s8.5 32 8.5 48z
" />
    <glyph glyph-name="nine" unicode="9" horiz-adv-x="1030" 
d="M471 14c49.333 0 96.9932 11.8291 142.993 35.4961s87.333 59.5 124 107.5s67.334 108.167 92.001 180.5s40.334 157.166 47.001 254.499c-21.333 -48 -48.166 -88 -80.499 -120s-67.166 -57.833 -104.499 -77.5s-75.833 -33.667 -115.5 -42s-77.5 -12.5 -113.5 -12.5
c-44 0 -89.667 7.33301 -137 22s-90.666 38.334 -129.999 71.001s-71.666 75.5 -96.999 128.5s-38 117.833 -38 194.5c0 48.667 6 95.834 18 141.501s28.667 88.834 50 129.501s46.833 77.834 76.5 111.501s62.167 62.667 97.5 87s73 43.333 113 57s81 20.5 123 20.5
c54 0 102.5 -8.5 145.5 -25.5s81.167 -40 114.5 -69s62 -63.167 86 -102.5s43.667 -81.166 59 -125.499s26.666 -90 33.999 -137s11 -93.167 11 -138.5c0 -63.333 -5.5 -125.333 -16.5 -186s-27 -118 -48 -172s-46.667 -103.667 -77 -149s-64.833 -84.5 -103.5 -117.5
s-81 -58.833 -127 -77.5s-95.333 -28 -148 -28c-38.667 0 -73.5 4.5 -104.5 13.5s-58.667 20.333 -83 34s-45.333 28.667 -63 45s-32.167 31.5 -43.5 45.5s-20 26 -26 36s-9.33301 15.667 -10 17l35 18c0.666992 -1.33301 3.66699 -6.33301 9 -15s13.333 -19.334 24 -32.001
s23.834 -26.167 39.501 -40.5s34.5 -27.666 56.5 -39.999s46.833 -22.5 74.5 -30.5s58.834 -12 93.501 -12zM153.993 783.996c0 -54.667 9.16602 -105.34 27.499 -152.007s43.833 -87.167 76.5 -121.5s71 -61.166 115 -80.499s91.667 -29 143 -29
c36 0 73.833 5.66699 113.5 17s76.834 30.833 111.501 58.5s64.667 64.334 90 110.001s41.333 102.834 48 171.501c-4 100.667 -17.333 183.667 -40 249s-50.334 117 -83.001 155s-68 64.5 -106 79.5s-75 22.5 -111 22.5c-44 0 -84 -6.66699 -120 -20
s-68.167 -31.666 -96.5 -54.999s-53.166 -50.666 -74.499 -81.999s-38.833 -64.666 -52.5 -99.999s-24 -72.166 -31 -110.499s-10.5 -75.833 -10.5 -112.5z" />
    <glyph glyph-name="colon" unicode=":" horiz-adv-x="432" 
d="M309 63c0 -20 -7.16699 -37.167 -21.5 -51.5s-31.5 -21.5 -51.5 -21.5c-19.333 0 -36.166 7.16699 -50.499 21.5s-21.5 31.5 -21.5 51.5c0 19.333 7.16699 36.166 21.5 50.499s31.166 21.5 50.499 21.5c20 0 37.167 -7.16699 51.5 -21.5s21.5 -31.166 21.5 -50.499z
M330 555c0 -20.667 -7.16699 -38.167 -21.5 -52.5s-31.833 -21.5 -52.5 -21.5c-19.333 0 -36.166 7.16699 -50.499 21.5s-21.5 31.833 -21.5 52.5c0 19.333 7.16699 36.166 21.5 50.499s31.166 21.5 50.499 21.5c20.667 0 38.167 -7.16699 52.5 -21.5
s21.5 -31.166 21.5 -50.499z" />
    <glyph glyph-name="semicolon" unicode=";" horiz-adv-x="432" 
d="M182 -152c17.333 23.333 32.9971 47.999 46.9971 73.999s21.667 49.333 23 70c-3.33301 -1.33301 -6.83301 -2 -10.5 -2h-10.5c-22.667 0 -39.5 7.5 -50.5 22.5s-16.5 30.5 -16.5 46.5c0 20.667 6.83301 37.834 20.5 51.501s30.834 20.5 51.501 20.5
c24.667 0 43.667 -8.66699 57 -26s20 -39.333 20 -66c0 -18 -2.66699 -36.667 -8 -56s-12.666 -38.333 -21.999 -57s-20.166 -36.5 -32.499 -53.5s-25.5 -32.5 -39.5 -46.5zM329.997 554.999c0 -20.667 -7.16699 -38.167 -21.5 -52.5s-31.833 -21.5 -52.5 -21.5
c-19.333 0 -36.166 7.16699 -50.499 21.5s-21.5 31.833 -21.5 52.5c0 19.333 7.16699 36.166 21.5 50.499s31.166 21.5 50.499 21.5c20.667 0 38.167 -7.16699 52.5 -21.5s21.5 -31.166 21.5 -50.499z" />
    <glyph glyph-name="less" unicode="&#x3c;" horiz-adv-x="819" 
d="M225 629l357 377l39 -39l-320 -338l320 -338l-39 -39z" />
    <glyph glyph-name="equal" unicode="=" horiz-adv-x="819" 
d="M694 688l-122.498 -4c-40.333 -1.33301 -82.5 -2 -126.5 -2s-90.667 0.333008 -140 1s-103.333 2.33398 -162 5.00098v41c50.667 0.666992 99 1.5 145 2.5s91.167 1.66699 135.5 2s88.666 0.166016 132.999 -0.500977s90.166 -2 137.499 -4v-41zM694.002 428l-122.498 -4
c-40.333 -1.33301 -82.5 -2 -126.5 -2s-90.667 0.333008 -140 1s-103.333 2.33398 -162 5.00098v41c50.667 0.666992 99 1.5 145 2.5s91.167 1.66699 135.5 2s88.666 0.166016 132.999 -0.500977s90.166 -2 137.499 -4v-41z" />
    <glyph glyph-name="greater" unicode="&#x3e;" horiz-adv-x="819" 
d="M264 252l-39 39l320 338l-320 338l39 39l357 -377z" />
    <glyph glyph-name="question" unicode="?" horiz-adv-x="961" 
d="M412 254c-19.333 28.667 -33.166 55.0029 -41.499 79.0029s-12.5 46.667 -12.5 68c0 38 7.16699 72 21.5 102s33.166 57.5 56.499 82.5s50 48.5 80 70.5l92 65.5l92 66.5c30 22.667 56.667 47.667 80 75s42.166 57.666 56.499 90.999s21.5 71 21.5 113
c0 50 -9.83301 91.833 -29.5 125.5s-44.167 61 -73.5 82s-61 36 -95 45s-65.667 13.5 -95 13.5c-57.333 0 -109.333 -7.83301 -156 -23.5s-86.667 -37.167 -120 -64.5s-59.166 -59.333 -77.499 -96s-27.5 -75.667 -27.5 -117c0 -57.333 18.667 -101 56 -131
s90.333 -45 159 -45c31.333 0 59.333 4 84 12s45.334 15.667 62.001 23l16 -35c-20.667 -9.33301 -46 -18.166 -76 -26.499s-64 -12.5 -102 -12.5c-30.667 0 -60.5 4.5 -89.5 13.5s-54.667 22.5 -77 40.5s-40.166 40.667 -53.499 68s-20 59.666 -20 96.999
c0 47.333 10.833 91.5 32.5 132.5s51.334 76.5 89.001 106.5s82.167 53.667 133.5 71s107 26 167 26c49.333 0 97.666 -6.5 144.999 -19.5s89.666 -32.5 126.999 -58.5s67.333 -58.667 90 -98s34 -85.666 34 -138.999c0 -45.333 -8 -86.5 -24 -123.5s-37.167 -71 -63.5 -102
s-56.333 -59.5 -90 -85.5s-68.167 -50.667 -103.5 -74l-103.5 -67.5c-33.667 -21.667 -63.667 -43.834 -90 -66.501s-47.5 -46 -63.5 -70s-24 -50.333 -24 -79c0 -22.667 4.66699 -42.834 14 -60.501s19.666 -35.834 30.999 -54.501zM496 63.0029
c0 -20 -7.16699 -37.167 -21.5 -51.5s-31.833 -21.5 -52.5 -21.5c-19.333 0 -36.5 7.16699 -51.5 21.5s-22.5 31.5 -22.5 51.5c0 19.333 7.5 36.166 22.5 50.499s32.167 21.5 51.5 21.5c20.667 0 38.167 -7.16699 52.5 -21.5s21.5 -31.166 21.5 -50.499z" />
    <glyph glyph-name="at" unicode="@" horiz-adv-x="1470" 
d="M1321 668c-0.666992 56 -11.1631 110.338 -31.4961 163.005s-50.833 99.167 -91.5 139.5s-91.5 72.666 -152.5 96.999s-132.5 36.5 -214.5 36.5c-81.333 0 -157 -15.667 -227 -47s-130.5 -75 -181.5 -131s-90.667 -122.833 -119 -200.5s-41.5 -162.5 -39.5 -254.5
c1.33301 -61.333 13.666 -120.5 36.999 -177.5s56.5 -107.833 99.5 -152.5s95 -80.334 156 -107.001s130.167 -40 207.5 -40c56.667 0 112 4.16699 166 12.5s107.333 25.833 160 52.5l16 -32c-54.667 -29.333 -111.334 -50.333 -170.001 -63s-117.334 -19 -176.001 -19
c-102.667 0 -191 14.167 -265 42.5s-135.167 66 -183.5 113s-84.333 100.833 -108 161.5s-36.167 123.667 -37.5 189c-1.33301 68.667 6.16699 133.667 22.5 195s39.666 117.833 69.999 169.5s66.5 98.167 108.5 139.5s87.833 76.333 137.5 105s102.334 50.667 158.001 66
s111.834 23 168.501 23c82.667 0 157 -12 223 -36s122 -57.333 168 -100s81.333 -93 106 -151s37.334 -121.333 38.001 -190c0.666992 -64.667 -6.66602 -122.5 -21.999 -173.5s-36.5 -94.333 -63.5 -130s-58.667 -63 -95 -82s-75.166 -28.5 -116.499 -28.5
c-30 0 -55.667 3.83301 -77 11.5s-39.333 17.834 -54 30.501s-25.834 27.167 -33.501 43.5s-12.834 33.5 -15.501 51.5c-17.333 -38 -39.833 -68.667 -67.5 -92s-62.5 -35 -104.5 -35c-22.667 0 -44.5 4.16699 -65.5 12.5s-39.667 21.166 -56 38.499s-29.5 39 -39.5 65
s-15 57 -15 93c0 54 10 103.167 30 147.5s44.667 82.333 74 114s60.666 56.167 93.999 73.5s63.333 26 90 26c16 0 31.333 -2.33301 46 -7s27.5 -11.834 38.5 -21.501s19.833 -21.834 26.5 -36.501s10 -32 10 -52c0 -25.333 -5 -47.166 -15 -65.499s-22 -34 -36 -47
s-28.333 -23.333 -43 -31s-26.334 -13.167 -35.001 -16.5l-10 37c2 0 8.33301 2 19 6s22 10.667 34 20s22.833 22 32.5 38s14.5 35.667 14.5 59c0 25.333 -7.5 45 -22.5 59s-34.167 21 -57.5 21c-19.333 0 -40.833 -6.33301 -64.5 -19s-46 -32.334 -67 -59.001
s-38.667 -60.5 -53 -101.5s-21.5 -89.833 -21.5 -146.5s10.167 -99.167 30.5 -127.5s46.833 -42.5 79.5 -42.5c17.333 0 33.5 4.66699 48.5 14s28.667 21.833 41 37.5s23.5 33.667 33.5 54s19 41.833 27 64.5c1.33301 20.667 4.66602 42.167 9.99902 64.5
s12 45.166 20 68.499l52 -16c-2.66699 -7.33301 -5.66699 -16.666 -9 -27.999s-6.33301 -23.833 -9 -37.5s-4.83398 -27.834 -6.50098 -42.501s-2.5 -28.667 -2.5 -42c0 -15.333 1.5 -31.5 4.5 -48.5s9.16699 -32.667 18.5 -47s23.166 -26.166 41.499 -35.499
s42.5 -14 72.5 -14c24.667 0 51.334 6.33301 80.001 19s55.334 33.5 80.001 62.5s45 67.167 61 114.5s23.667 105.666 23 174.999z" />
    <glyph glyph-name="A" unicode="A" horiz-adv-x="1167" 
d="M96 414l243.998 0.000976562l105 214l100.5 203l91.5 182l76.5 151l57 110c15.667 29.333 26.5 49 32.5 59c8 14.667 16.5 24.834 25.5 30.501s20.167 8.5 33.5 8.5c15.333 0 27.666 -4.83301 36.999 -14.5s14 -23.834 14 -42.501c0 -7.33301 -0.666992 -25 -2 -53
l-5 -105l-7 -141c-2.66699 -52 -5 -105.5 -7 -160.5s-3.66699 -109.667 -5 -164s-2 -104.5 -2 -150.5v-64c0 -21.333 0.666992 -41.666 2 -60.999h118.5c37 0 67.167 0.666992 90.5 2v-39c-36 -1.33301 -71 -2 -105 -2h-102c4.66699 -86.667 14.5 -165.334 29.5 -236.001
s38 -131.167 69 -181.5s71.167 -89.333 120.5 -117s110.666 -41.5 183.999 -41.5c29.333 0 60.666 3.66699 93.999 11l7 -41c-34 -10.667 -64.833 -18.5 -92.5 -23.5s-54.167 -7.5 -79.5 -7.5c-61.333 0 -114.5 7.66699 -159.5 23s-83.333 37 -115 65
s-57.5 61.5 -77.5 100.5s-35.667 82 -47 129s-19.333 97.333 -24 151s-7 109.167 -7 166.5h-408c-4 -9.33301 -8 -18.166 -12 -26.499l-13 -26.5c-33.333 -73.333 -65.333 -136.833 -96 -190.5s-60.167 -99.5 -88.5 -137.5s-55.166 -69.333 -80.499 -94
s-49.666 -44.834 -72.999 -60.501s-45.5 -28 -66.5 -37s-40.833 -16.833 -59.5 -23.5l-17 35l19 12.5c12.667 8.33301 29.667 21.5 51 39.5s46.333 41.667 75 71s59.334 64.666 92.001 105.999s66.834 89.5 102.501 144.5s70.834 117.5 105.501 187.5h-226v39zM855.998 1329
c-7.33301 0 -23.667 -22.5 -49 -67.5s-57.833 -107.833 -97.5 -188.5l-138.5 -289l-172 -370h392c0 60.667 2 121.834 6 183.501s8.83301 122 14.5 181s11.667 115.667 18 170l17.5 150c5.33301 45.667 9.83301 86.167 13.5 121.5s5.5 63.666 5.5 84.999
c0 10 -0.833008 16.5 -2.5 19.5s-4.16699 4.5 -7.5 4.5z" />
    <glyph glyph-name="B" unicode="B" horiz-adv-x="1360" 
d="M545 49c-38 94 -64.665 184.012 -79.998 270.012s-23 167.333 -23 244v34c0 11.333 0.666992 22.666 2 33.999c-44 5.33301 -77.5 14.5 -100.5 27.5s-34.5 29.167 -34.5 48.5s13.5 35.333 40.5 48s64.167 21.667 111.5 27c10.667 65.333 24.667 124.333 42 177
s34.166 97.5 50.499 134.5s30.5 65.667 42.5 86s18 31.166 18 32.499l37 -12l-14.5 -43.5c-7 -21 -15 -48.667 -24 -83s-18.167 -75.333 -27.5 -123s-17.333 -101.834 -24 -162.501h2c50.667 0 100.667 -2.5 150 -7.5s97 -13.167 143 -24.5
c31.333 17.333 60.666 37.166 87.999 59.499s51.166 47 71.499 74s36.333 56.333 48 88s17.5 65.5 17.5 101.5c0 50 -8.66699 93.333 -26 130s-39.5 68.167 -66.5 94.5s-57.5 47.833 -91.5 64.5s-67.5 29.667 -100.5 39s-63.833 15.833 -92.5 19.5s-51.667 5.5 -69 5.5
c-64.667 0 -123.667 -5.83301 -177 -17.5s-101.166 -26.334 -143.499 -44.001s-79.166 -36.667 -110.499 -57s-57.333 -39.333 -78 -57s-36.167 -32.334 -46.5 -44.001s-15.833 -17.834 -16.5 -18.501l-30 25c1.33301 2 7.83301 9.66699 19.5 23s28.667 29.166 51 47.499
s49.833 38.166 82.5 59.499s70.667 40.833 114 58.5s91.833 32.5 145.5 44.5s112.834 18 177.501 18c43.333 0 87.833 -2.83301 133.5 -8.5s90 -14.834 133 -27.501s83.833 -29 122.5 -49s72.334 -44.333 101.001 -73s51.334 -62 68.001 -100s25 -81 25 -129
c0 -32 -6.33301 -64 -19 -96s-30.667 -63.333 -54 -94s-51.333 -59.667 -84 -87s-69 -52.333 -109 -75c44.667 -16 86 -35.5 124 -58.5s70.667 -50 98 -81s48.666 -66.167 63.999 -105.5s23 -83.333 23 -132c0 -52 -9.33301 -101.333 -28 -148s-44.834 -89.667 -78.501 -129
s-73.834 -74.833 -120.501 -106.5s-98 -58.5 -154 -80.5s-115.833 -38.833 -179.5 -50.5s-129.167 -17.5 -196.5 -17.5c-84.667 0 -157.834 9.83301 -219.501 29.5s-112.667 45.834 -153 78.501s-70.333 70.167 -90 112.5s-29.5 86.166 -29.5 131.499
c0 29.333 4.5 57.166 13.5 83.499s21.667 50.666 38 72.999s36.166 42 59.499 59s49.666 30.5 78.999 40.5l13 -31c-25.333 -9.33301 -46.5 -23.333 -63.5 -42s-30.667 -39 -41 -61s-17.666 -44.333 -21.999 -67s-6.5 -42.334 -6.5 -59.001c0 -20 2.66699 -41.667 8 -65
s14.333 -46.333 27 -69s29.5 -44.667 50.5 -66s47.167 -40 78.5 -56s68.333 -28.833 111 -38.5s91.667 -14.5 147 -14.5c42.667 0 88.334 4.5 137.001 13.5s96.667 22.5 144 40.5s92.666 40.333 135.999 67s81.666 58 114.999 94s59.833 76.333 79.5 121
s29.5 93.667 29.5 147c0 48 -6.66699 90.667 -20 128s-31.833 70.333 -55.5 99s-51.167 53.167 -82.5 73.5s-65 37.5 -101 51.5c-49.333 -21.333 -101.166 -38.166 -155.499 -50.499s-110.833 -18.5 -169.5 -18.5c-1.33301 -23.333 -2.33301 -47.5 -3 -72.5
s-1 -50.833 -1 -77.5c0 -64 3.33301 -131 10 -201s16.334 -143.667 29.001 -221zM551.002 668.012c35.333 1.33301 73.499 6.50098 114.499 15.501s81.833 22.167 122.5 39.5c-38 9.33301 -76.167 16.166 -114.5 20.499s-75.166 6.5 -110.499 6.5h-6
c-1.33301 -13.333 -2.33301 -26.833 -3 -40.5s-1.66699 -27.5 -3 -41.5zM350.001 705.013c0 -4.66699 7.33203 -10.333 21.999 -17s39.334 -12 74.001 -16l4 36c1.33301 12 3 23.667 5 35c-38 -5.33301 -65 -12 -81 -20s-24 -14 -24 -18z" />
    <glyph glyph-name="C" unicode="C" horiz-adv-x="1384" 
d="M1147 1409c-20.667 -7.33301 -41.002 -15.4922 -61.002 -24.4922s-39.333 -18.5 -58 -28.5c37.333 -32 67.5 -71.667 90.5 -119s34.5 -102 34.5 -164c0 -50.667 -6.5 -97.334 -19.5 -140.001s-31.167 -79.334 -54.5 -110.001s-50.833 -54.667 -82.5 -72
s-66.167 -26 -103.5 -26c-27.333 0 -54.333 4.66699 -81 14s-50.5 23.666 -71.5 42.999s-38 43.5 -51 72.5s-19.5 63.5 -19.5 103.5c0 44.667 7.33301 87.167 22 127.5s34.5 77.666 59.5 111.999s54.167 65.666 87.5 93.999s68.333 53.166 105 74.499
c-19.333 9.33301 -40.166 16.833 -62.499 22.5s-45.166 8.5 -68.499 8.5c-40.667 0 -84 -7.66699 -130 -23s-91.5 -38.333 -136.5 -69s-88 -68.5 -129 -113.5s-77.333 -97.5 -109 -157.5s-56.834 -127 -75.501 -201s-28 -155 -28 -243c0 -89.333 13 -174 39 -254
s64 -150.333 114 -211s111.5 -108.667 184.5 -144s156.5 -53 250.5 -53c54.667 0 108.167 8.16699 160.5 24.5s101.833 39 148.5 68s89.667 63.667 129 104s73.333 84.166 102 131.499l31 -18c-32 -59.333 -70.5 -112.333 -115.5 -159s-94.833 -86.334 -149.5 -119.001
s-113 -57.667 -175 -75s-125.667 -26 -191 -26c-94 0 -180.667 16.5 -260 49.5s-147.833 79.833 -205.5 140.5s-102.667 133.834 -135 219.501s-48.5 181.167 -48.5 286.5c0 95.333 10.333 183.166 31 263.499s49 153.166 85 218.499s77.833 122.833 125.5 172.5
s98.5 91.334 152.5 125.001s109.667 59 167 76s113.333 25.5 168 25.5c30 0 59.5 -4.5 88.5 -13.5s56.167 -21.167 81.5 -36.5c26.667 12.667 53.334 23 80.001 31s52.667 14.333 78 19zM1114 1075.01c0 54.667 -10.833 104.17 -32.5 148.503s-51.167 80.833 -88.5 109.5
c-32.667 -21.333 -63.167 -45.833 -91.5 -73.5s-52.833 -58.334 -73.5 -92.001s-36.834 -70.334 -48.501 -110.001s-17.5 -82.167 -17.5 -127.5c0 -24 3.16699 -46.167 9.5 -66.5s15.5 -37.833 27.5 -52.5s26.667 -26.167 44 -34.5s36.666 -12.5 57.999 -12.5
c36 0 67.333 10.333 94 31s48.834 46.5 66.501 77.5s30.834 64.667 39.501 101s13 70.166 13 101.499z" />
    <glyph glyph-name="D" unicode="D" horiz-adv-x="1446" 
d="M408 -98c-51.333 0 -98.335 6.33203 -141.002 18.999s-79.167 31 -109.5 55s-54 53.333 -71 88s-25.5 74 -25.5 118c0 45.333 10.5 91.5 31.5 138.5s51.5 90.5 91.5 130.5l19 -19c-20.667 -26.667 -37.834 -58.667 -51.501 -96s-20.5 -77 -20.5 -119
c0 -34 5.16699 -67.5 15.5 -100.5s26.5 -62.5 48.5 -88.5s50.5 -47 85.5 -63s77.5 -24 127.5 -24c4 0 8 0.333008 12 1s8 1 12 1c-20.667 62.667 -39.167 139.334 -55.5 230.001s-24.5 196 -24.5 316c0 112 6.66699 210.667 20 296s29 159 47 221s36.5 113.167 55.5 153.5
s34.167 71.5 45.5 93.5l29 -6c-6 -28.667 -13.667 -67.834 -23 -117.501s-18.5 -110.667 -27.5 -183s-16.833 -156.833 -23.5 -253.5s-10 -206 -10 -328c0 -68.667 2 -137.834 6 -207.501s10 -139.834 18 -210.501c80.667 8.66699 156 29 226 61s133.833 72.333 191.5 121
s108.834 104 153.501 166s82.5 127.333 113.5 196s54.5 139 70.5 211s24 142.333 24 211c0 90.667 -14 168.334 -42 233.001s-64.333 117.5 -109 158.5s-95.167 71 -151.5 90s-112.5 28.5 -168.5 28.5c-55.333 0 -106.666 -3.66699 -153.999 -11s-90.833 -17 -130.5 -29
s-75.667 -25.5 -108 -40.5s-61.166 -30.5 -86.499 -46.5c-60 -37.333 -109.333 -79.666 -148 -126.999l-33 23c0.666992 1.33301 6.83398 9 18.501 23s29.167 31 52.5 51s52.833 41.333 88.5 64s77.667 43.834 126 63.501s103.666 36 165.999 49s131.833 19.5 208.5 19.5
c92 0 174.333 -12 247 -36s134.167 -59.5 184.5 -106.5s88.833 -105 115.5 -174s40 -148.5 40 -238.5c0 -105.333 -13.667 -202.166 -41 -290.499s-64 -168.333 -110 -240s-99 -134.834 -159 -189.501s-123 -101.5 -189 -140.5s-132.667 -70 -200 -93
s-131 -38.167 -191 -45.5c2 -12.667 4 -24.667 6 -36s4 -23.333 6 -36l-33 -4c-4 10.667 -8.5 22 -13.5 34l-15.5 38c-6 -1.33301 -12 -2 -18 -2h-18z" />
    <glyph glyph-name="E" unicode="E" horiz-adv-x="1300" 
d="M346 1049c0 66 12.6641 123.833 37.9971 173.5s58.666 91 99.999 124s88.833 57.833 142.5 74.5s109.167 25 166.5 25c62.667 0 115.334 -9.83301 158.001 -29.5s77 -44.667 103 -75s44.5 -63.833 55.5 -100.5s16.5 -72 16.5 -106c0 -18.667 -1 -33.667 -3 -45
s-3 -17.666 -3 -18.999l-39 4c0.666992 5.33301 1.33398 11.333 2.00098 18c0.666992 5.33301 1.16699 11.666 1.5 18.999s0.5 15.666 0.5 24.999c0 30 -4.5 61 -13.5 93s-24.5 61 -46.5 87s-51.833 47.5 -89.5 64.5s-85.167 25.5 -142.5 25.5
c-50 0 -96.333 -8.5 -139 -25.5s-79.334 -40.333 -110.001 -70s-54.667 -64.334 -72 -104.001s-26 -82.5 -26 -128.5s7.83301 -88.167 23.5 -126.5s37.5 -71.833 65.5 -100.5c30 10 60 18 90 24s60.667 9 92 9c22.667 0 43.5 -1.83301 62.5 -5.5s35.5 -9.16699 49.5 -16.5
s25 -16.166 33 -26.499s12 -22.166 12 -35.499c0 -18.667 -6.16699 -33.334 -18.5 -44.001s-27 -18.667 -44 -24s-34.667 -8.66602 -53 -9.99902s-33.5 -2 -45.5 -2c-43.333 0 -84.5 5.83301 -123.5 17.5s-74.5 28.167 -106.5 49.5
c-38.667 -19.333 -75.167 -43.666 -109.5 -72.999s-64.166 -63.5 -89.499 -102.5s-45.5 -82.5 -60.5 -130.5s-22.5 -100 -22.5 -156c0 -54.667 7.5 -102.667 22.5 -144s34.667 -76.833 59 -106.5s52.333 -54.5 84 -74.5s64.167 -35.833 97.5 -47.5
s66.166 -19.834 98.499 -24.501s61.833 -7 88.5 -7c86.667 0 164.334 13.833 233.001 41.5s127.334 65 176.001 112s86.667 101.833 114 164.5s43 128.667 47 198l39 -2c-2 -58 -12.5 -112.833 -31.5 -164.5s-44.5 -99.5 -76.5 -143.5s-69.333 -83.5 -112 -118.5
s-89 -64.833 -139 -89.5s-102.667 -43.5 -158 -56.5s-111.333 -19.5 -168 -19.5c-65.333 0 -127.833 9.16699 -187.5 27.5s-112.167 45.5 -157.5 81.5s-81.333 80.5 -108 133.5s-40 114.167 -40 183.5c0 59.333 9.66699 116.5 29 171.5s45.5 106.167 78.5 153.5
s71.833 89.833 116.5 127.5s92.334 69.167 143.001 94.5c-32 28.667 -57.167 62.5 -75.5 101.5s-27.5 82.5 -27.5 130.5zM716.997 846c-48.667 0 -98.001 -7.66602 -148.001 -22.999c24.667 -18.667 53 -32.834 85 -42.501s66.667 -14.5 104 -14.5
c24.667 0 43.834 3.5 57.501 10.5s20.5 15.167 20.5 24.5c0 10 -10.5 20 -31.5 30s-50.167 15 -87.5 15z" />
    <glyph glyph-name="F" unicode="F" horiz-adv-x="1407" 
d="M571 709c2 0.666992 9.8291 2.66406 23.4961 5.99707s31.834 7.5 54.501 12.5s48.834 10.333 78.501 16s61.5 10.5 95.5 14.5c4 110 19.833 205.333 47.5 286s62.5 149.667 104.5 207l-135.5 41c-46.333 14 -92.5 26.667 -138.5 38s-91.5 20.5 -136.5 27.5
s-87.833 10.5 -128.5 10.5c-48.667 0 -90.5 -4.5 -125.5 -13.5s-64.5 -21 -88.5 -36s-43.5 -32.167 -58.5 -51.5s-26.5 -39.166 -34.5 -59.499s-13.333 -40.333 -16 -60s-4 -37.5 -4 -53.5c0 -14.667 0.666992 -26.334 2 -35.001s2 -13.667 2 -15l-39 -8
c-0.666992 4 -1.33398 9 -2.00098 15c-0.666992 5.33301 -1.16699 11.166 -1.5 17.499s-0.5 13.5 -0.5 21.5c0 18 1.5 38.333 4.5 61s9 45.667 18 69s21.667 46.333 38 69s38 42.667 65 60s60 31.333 99 42s85.5 16 139.5 16c50 0 99.833 -3.83301 149.5 -11.5
s98.334 -17.334 146.001 -29.001s94.5 -24.667 140.5 -39l134 -41.5c30.667 38 63.834 70.333 99.501 97s71.5 48.167 107.5 64.5s71.167 28.333 105.5 36s65.833 11.5 94.5 11.5c22.667 0 43.667 -2.66699 63 -8s36.166 -13.333 50.499 -24s25.666 -23.5 33.999 -38.5
s12.5 -31.833 12.5 -50.5c0 -19.333 -5.83301 -40 -17.5 -62s-29.167 -42.167 -52.5 -60.5s-52.666 -33.5 -87.999 -45.5s-77 -18 -125 -18c-32.667 0 -68.667 4 -108 12s-81 17.667 -125 29c-33.333 -60 -59.166 -128.833 -77.499 -206.5s-30.166 -163.167 -35.499 -256.5
c7.33301 0 14.833 0.333008 22.5 1s15.167 1 22.5 1c45.333 0 84.833 -1.5 118.5 -4.5s63.5 -6.66699 89.5 -11s48.833 -9.33301 68.5 -15l55.5 -16.5l-6 -33c-38 6 -80.167 10.333 -126.5 13s-93.833 4 -142.5 4c-17.333 0 -34.833 -0.166992 -52.5 -0.5
s-34.834 -1.16602 -51.501 -2.49902v-38c0 -37.333 0.666992 -70.833 2 -100.5s2.66602 -57.5 3.99902 -83.5l4 -76.5c1.33301 -25 2 -51.5 2 -79.5c0 -68 -10.833 -129.5 -32.5 -184.5s-52 -102.167 -91 -141.5s-85.667 -69.666 -140 -90.999s-114.5 -32 -180.5 -32
c-70 0 -132.667 9.16699 -188 27.5s-102.166 45.833 -140.499 82.5s-67.666 82.334 -87.999 137.001s-30.5 118.334 -30.5 191.001c0 52 7 106.667 21 164l39 -10c-3.33301 -13.333 -6.33301 -27.666 -9 -42.999c-2 -13.333 -3.83301 -28.333 -5.5 -45
s-2.5 -33.667 -2.5 -51c0 -132.667 33.5 -234.834 100.5 -306.501s168.167 -107.5 303.5 -107.5c56 0 105.667 7.66699 149 23s79.833 37.333 109.5 66s52.334 63.667 68.001 105s23.5 88 23.5 140c0 31.333 -1.83301 64.166 -5.5 98.499l-12 108
c-4.33301 37.667 -8.33301 76.834 -12 117.501s-5.5 82.667 -5.5 126c-35.333 -2 -67.833 -4.16699 -97.5 -6.5s-55.834 -4.16602 -78.501 -5.49902c-26.667 -2.66699 -50.667 -4.66699 -72 -6zM1288 1229c36.667 0 70.001 4.16602 100.001 12.499s55.667 19.333 77 33
s37.833 29 49.5 46s17.5 34.167 17.5 51.5c0 24.667 -11.333 44.834 -34 60.501s-51 23.5 -85 23.5c-74 0 -139 -16.5 -195 -49.5s-103.667 -79.833 -143 -140.5c39.333 -11.333 76.666 -20.333 111.999 -27s69 -10 101 -10z" />
    <glyph glyph-name="G" unicode="G" horiz-adv-x="1315" 
d="M477 -2c-125.333 0 -221.175 32.8242 -287.508 98.4912s-99.5 167.167 -99.5 304.5c0 52.667 7.66699 107 23 163s36.666 111.5 63.999 166.5s59.833 108.667 97.5 161s79 102 124 149s92.667 90.167 143 129.5s102 73.166 155 101.499s106.333 50.5 160 66.5
s106.167 24 157.5 24c36 0 68.667 -4.66699 98 -14s54.5 -22.666 75.5 -39.999s37.167 -38.833 48.5 -64.5s17 -54.5 17 -86.5s-5.66699 -64.333 -17 -97s-26.833 -64.5 -46.5 -95.5s-43 -60.167 -70 -87.5s-56.167 -51.166 -87.5 -71.499s-64.5 -36.5 -99.5 -48.5
s-70.167 -18 -105.5 -18c-62.667 0 -111.667 16 -147 48s-53 74.667 -53 128c0 26 3 48.5 9 67.5s12.833 35.167 20.5 48.5s15.334 24 23.001 32s13.167 14.667 16.5 20l27 -28c-0.666992 -0.666992 -4 -3.66699 -10 -9s-12.5 -13.666 -19.5 -24.999
s-13.333 -25.833 -19 -43.5s-8.5 -38.5 -8.5 -62.5c0 -18 3.16699 -35.167 9.5 -51.5s16.166 -30.666 29.499 -42.999s30.166 -22.166 50.499 -29.499s44.166 -11 71.499 -11c48.667 0 96.167 11.5 142.5 34.5s87.666 52.833 123.999 89.5s65.5 77.5 87.5 122.5
s33 89.167 33 132.5c0 54 -17.167 94.5 -51.5 121.5s-84.5 40.5 -150.5 40.5c-74 0 -145 -13.333 -213 -40s-131.5 -63 -190.5 -109s-112.667 -99.333 -161 -160s-89.666 -124.834 -123.999 -192.501s-61 -137 -80 -208s-28.5 -139.5 -28.5 -205.5c0 -64 9 -118 27 -162
s42.167 -79.5 72.5 -106.5s65.5 -46.5 105.5 -58.5s82.333 -18 127 -18c36 0 73.333 5.66699 112 17s77.167 27.166 115.5 47.499s75.5 44.5 111.5 72.5s69.667 58.333 101 91c1.33301 76.667 7.83301 142.5 19.5 197.5s25.834 100 42.501 135s34.5 60.667 53.5 77
s36.5 24.5 52.5 24.5c4.66699 0 10 -0.833008 16 -2.5s11.833 -4.83398 17.5 -9.50098s10.334 -11.167 14.001 -19.5s5.5 -19.166 5.5 -32.499c0 -25.333 -4 -52.5 -12 -81.5s-19.333 -59 -34 -90s-32.5 -62.5 -53.5 -94.5s-44.5 -63.333 -70.5 -94
c2.66699 -39.333 6.66699 -75.666 12 -108.999l15.5 -95c5 -30 9.5 -59.167 13.5 -87.5s6 -56.833 6 -85.5c0 -53.333 -6.83301 -106.333 -20.5 -159s-37.167 -100 -70.5 -142s-78.166 -76 -134.499 -102s-127.166 -39 -212.499 -39c-37.333 0 -70 5.83301 -98 17.5
s-51.5 26.834 -70.5 45.501s-33.167 39.834 -42.5 63.501s-14 47.5 -14 71.5c0 23.333 2.83301 46.166 8.5 68.499s15.5 42.5 29.5 60.5s32.5 33 55.5 45s51.833 19 86.5 21l4 -39c-27.333 -1.33301 -50.166 -6.33301 -68.499 -15s-33.166 -20.167 -44.499 -34.5
s-19.5 -30.666 -24.5 -48.999s-7.5 -37.5 -7.5 -57.5c0 -13.333 2.66699 -29.166 8 -47.499s14.833 -35.666 28.5 -51.999s32.334 -30.333 56.001 -42s54.167 -17.5 91.5 -17.5c48 0 89.833 7.83301 125.5 23.5s66.334 37.167 92.001 64.5s46.834 59.5 63.501 96.5
s29.834 76.833 39.501 119.5s16.334 87.334 20.001 134.001s5.5 93 5.5 139c0 22.667 -0.666992 45.834 -2 69.501s-2 48.5 -2 74.5c-34 -34 -70.5 -65.667 -109.5 -95s-80.167 -55 -123.5 -77s-88.333 -39.167 -135 -51.5s-94 -18.5 -142 -18.5zM1035.99 345.991
c40 49.333 72.167 101.001 96.5 155.001s36.5 106.667 36.5 158c0 15.333 -4.66699 23 -14 23c-10 0 -21.833 -8.83301 -35.5 -26.5s-26.667 -40.834 -39 -69.501s-22.833 -61.167 -31.5 -97.5s-13 -72.833 -13 -109.5v-33z" />
    <glyph glyph-name="H" unicode="H" horiz-adv-x="1556" 
d="M289 481c0.666992 0.666992 5.66699 3.33203 15 7.99902s22.333 10.5 39 17.5s37 14.5 61 22.5s51.667 16 83 24c-3.33301 50 -5.5 100.167 -6.5 150.5s-1.5 98.5 -1.5 144.5c0 95.333 6.5 179.166 19.5 251.499s29.833 135.166 50.5 188.499h-4
c-73.333 -10 -139 -20.333 -197 -31s-109.667 -24.5 -155 -41.5s-84.833 -38.167 -118.5 -63.5s-62.5 -57.666 -86.5 -96.999l-37 14c29.333 52 65.666 92.833 108.999 122.5s91 53.167 143 70.5s107.333 30.333 166 39s118 18 178 28c3.33301 0 6.66602 0.333008 9.99902 1
s6.66602 1.66699 9.99902 3c24 50 49.833 91.5 77.5 124.5s54.667 59.333 81 79s50.333 33.334 72 41.001s38.5 11.5 50.5 11.5c25.333 0 44.666 -7.16699 57.999 -21.5s20 -29.5 20 -45.5c0 -30 -9.16699 -56.667 -27.5 -80s-41.5 -43.666 -69.5 -60.999
s-58.5 -32.166 -91.5 -44.499s-64.5 -22.166 -94.5 -29.499c-16.667 -45.333 -29.667 -96 -39 -152s-14 -116 -14 -180c0 -60.667 2 -124.5 6 -191.5s8.66699 -135.5 14 -205.5c27.333 3.33301 56.166 6.16602 86.499 8.49902s62.5 3.5 96.5 3.5
c17.333 0 40.166 -0.5 68.499 -1.5s57.5 -2.16699 87.5 -3.5s58.333 -2.5 85 -3.5s47.334 -1.5 62.001 -1.5c24.667 0 48.167 0.333008 70.5 1s43.166 1.66699 62.499 3c1.33301 138 19.666 270.5 54.999 397.5s84 252.5 146 376.5l32 -15
c-0.666992 -0.666992 -4 -10.667 -10 -30s-13.5 -45.833 -22.5 -79.5s-18.833 -73.667 -29.5 -120s-20.5 -96.833 -29.5 -151.5s-16.5 -112.667 -22.5 -174s-9 -124 -9 -188v-8c29.333 3.33301 54.333 7 75 11s37.5 7.83301 50.5 11.5s22.5 6.66699 28.5 9
s9.33301 3.5 10 3.5l13 -37c-3.33301 -2 -19.166 -7.16699 -47.499 -15.5s-71.5 -16.166 -129.5 -23.499c0.666992 -30.667 2 -64.667 4 -102s4.5 -75.666 7.5 -114.999s6.83301 -78.833 11.5 -118.5s10 -77.334 16 -113.001s13 -68 21 -97s16.667 -52.833 26 -71.5l-30 -16
c0 -0.666992 -3.83301 5.33301 -11.5 18s-17.5 31.334 -29.5 56.001s-25 55 -39 91s-27.167 77.167 -39.5 123.5s-22.833 97.5 -31.5 153.5s-13.667 116.333 -15 181c-22.667 -2 -46.167 -3.16699 -70.5 -3.5s-50.166 -0.5 -77.499 -0.5c-16 0 -34.667 0.5 -56 1.5
s-43.5 2.16699 -66.5 3.5s-46 2.5 -69 3.5s-43.833 1.5 -62.5 1.5c-40 0 -77.667 -1.33301 -113 -4s-68.666 -6.33398 -99.999 -11.001c4.66699 -57.333 8.33398 -113.833 11.001 -169.5s4 -110.167 4 -163.5c0 -63.333 -3 -124 -9 -182s-16.167 -112.333 -30.5 -163
s-33.5 -96.667 -57.5 -138s-54 -76.833 -90 -106.5s-78.667 -52.5 -128 -68.5s-106.333 -24 -171 -24c-70.667 0 -138.167 13.667 -202.5 41s-119.5 66.666 -165.5 117.999l28 27c43.333 -47.333 94.333 -83.666 153 -108.999s120.334 -38 185.001 -38
c51.333 0 96.333 7.16699 135 21.5s71.834 34 99.501 59s50.5 54.5 68.5 88.5s32.167 71.167 42.5 111.5s17.5 82.666 21.5 126.999s6 89.166 6 134.499c0 14.667 -0.833008 35.667 -2.5 63l-6 95l-8 118.5c-3 43 -5.83301 87.5 -8.5 133.5
c-30.667 -7.33301 -57.667 -14.833 -81 -22.5s-42.666 -14.834 -57.999 -21.501c-18 -7.33301 -33.667 -14.666 -47 -21.999zM854 1550c-33.333 0 -67.001 -17.332 -101.001 -51.999s-64.333 -83.334 -91 -146.001c28.667 8 56.667 17.333 84 28s51.333 22.667 72 36
s37.334 28.333 50.001 45s19 35 19 55c0 8 -3 15.667 -9 23s-14 11 -24 11z" />
    <glyph glyph-name="I" unicode="I" horiz-adv-x="1294" 
d="M303 59l34.998 19c2.66699 -6 8.5 -16.667 17.5 -32s22.833 -31 41.5 -47s43.334 -30 74.001 -42s69.667 -18 117 -18c59.333 0 119 16.167 179 48.5s114.333 82.166 163 149.499s88.167 152.5 118.5 255.5s45.5 225.5 45.5 367.5c0 50 -4.5 99.833 -13.5 149.5
s-22.667 97.167 -41 142.5s-40.833 87.5 -67.5 126.5s-57.667 72.833 -93 101.5s-74.833 51.167 -118.5 67.5s-91.167 24.5 -142.5 24.5c-45.333 0 -93.333 -8.83301 -144 -26.5s-97.167 -45 -139.5 -82s-77.333 -84.333 -105 -142s-41.5 -126.5 -41.5 -206.5
c0 -63.333 6.16699 -118.333 18.5 -165s28.666 -86.834 48.999 -120.501s44 -61.334 71 -83.001s55.167 -38.834 84.5 -51.501s59 -21.5 89 -26.5s58 -7.5 84 -7.5c36.667 0 70.834 5.33301 102.501 16s59.667 22.834 84 36.501s44.5 27 60.5 40l33 26.5l27 -29
c-54.667 -45.333 -110.334 -79.166 -167.001 -101.499s-119 -33.5 -187 -33.5c-58 0 -114.333 8.83301 -169 26.5s-103.167 45.667 -145.5 84s-76.333 87.5 -102 147.5s-38.5 132.333 -38.5 217c0 50.667 7.16699 98.834 21.5 144.501s34 88 59 127s54.5 74 88.5 105
s70.667 57.5 110 79.5s80.333 38.833 123 50.5s85.334 17.5 128.001 17.5c35.333 0 74.833 -3.5 118.5 -10.5s87.667 -20 132 -39s87.5 -45.333 129.5 -79s79.333 -76.667 112 -129s58.834 -115.666 78.501 -189.999s29.5 -161.833 29.5 -262.5
c0 -82.667 -8.5 -160 -25.5 -232s-40 -138 -69 -198s-63.333 -113.5 -103 -160.5s-82.167 -86.667 -127.5 -119s-92.5 -57 -141.5 -74s-97.5 -25.5 -145.5 -25.5c-26 0 -53.333 2.33301 -82 7s-56.5 13 -83.5 25s-52 28.5 -75 49.5s-41.833 48.167 -56.5 81.5z" />
    <glyph glyph-name="J" unicode="J" horiz-adv-x="1090" 
d="M1180 1604c18.667 0 32.1758 -5.99609 40.5088 -17.9961s12.5 -25.333 12.5 -40c0 -20.667 -7.5 -43.5 -22.5 -68.5s-35.167 -49.833 -60.5 -74.5s-55 -48.167 -89 -70.5s-70.333 -41.166 -109 -56.499c-22.667 -64.667 -40.834 -141.5 -54.501 -230.5
s-20.5 -192.5 -20.5 -310.5c0 -71.333 2.66699 -142.166 8 -212.499s11.166 -139.166 17.499 -206.499s12.166 -133.333 17.499 -198s8 -127.334 8 -188.001c0 -55.333 -3.83301 -112 -11.5 -170s-19.834 -114.333 -36.501 -169s-38.334 -106.167 -65.001 -154.5
s-59 -90.5 -97 -126.5s-82 -64.5 -132 -85.5s-106.667 -31.5 -170 -31.5c-56.667 0 -109.334 9.33301 -158.001 28s-91.334 44.334 -128.001 77.001s-66.334 71.167 -89.001 115.5s-36.334 91.833 -41.001 142.5l66 20c4 -45.333 14.833 -88.833 32.5 -130.5
s41.5 -78.334 71.5 -110.001s65.667 -56.834 107 -75.501s87.666 -28 138.999 -28c50 0 94.833 6.83301 134.5 20.5s74.834 32.167 105.501 55.5s56.834 50.833 78.501 82.5s39.5 65.334 53.5 101.001s24.333 72.667 31 111s10 75.833 10 112.5
c0 81.333 -4.33301 161.666 -13 240.999s-18.334 158 -29.001 236s-20.334 155.5 -29.001 232.5s-13 154.5 -13 232.5c0 116.667 12.333 225.167 37 325.5s55.334 189.833 92.001 268.5c-102 -28.667 -192.5 -57.667 -271.5 -87s-145.5 -64.666 -199.5 -105.999
s-95 -91 -123 -149s-42 -129.667 -42 -215c0 -52 6 -97.667 18 -137s27.833 -73.5 47.5 -102.5s42 -53.333 67 -73s50.167 -35.834 75.5 -48.501s50 -22.334 74 -29.001s44.667 -11.667 62 -15l-7 -25c-56 2.66699 -111.667 14.167 -167 34.5s-104.833 49.166 -148.5 86.499
s-79 83.166 -106 137.499s-40.5 117.166 -40.5 188.499c0 78 15.5 146.667 46.5 206s77 111.666 138 156.999s136.833 84.833 227.5 118.5s195.667 64.167 315 91.5c10 2 19.833 4.33301 29.5 7s19.5 5.66699 29.5 9c24 47.333 49.167 89.833 75.5 127.5s52 69.5 77 95.5
s48.667 46 71 60s41.5 21 57.5 21zM1180.01 1565c-13.333 0 -28.3281 -4.50195 -44.9951 -13.502s-34.334 -23 -53.001 -42s-37.334 -43.5 -56.001 -73.5s-36.334 -65.667 -53.001 -107c35.333 16.667 66.666 34.834 93.999 54.501s50.166 39.334 68.499 59.001
s32.333 38.5 42 56.5s14.5 33.667 14.5 47c0 4 -0.5 8.16699 -1.5 12.5s-4.5 6.5 -10.5 6.5z" />
    <glyph glyph-name="K" unicode="K" horiz-adv-x="1595" 
d="M944 1511c18.667 0 33.999 -5.16699 45.999 -15.5s18 -24.833 18 -43.5c0 -26 -9.5 -49.667 -28.5 -71s-42.667 -40.333 -71 -57s-59.166 -31 -92.499 -43s-64.333 -21.333 -93 -28c-16.667 -42 -30 -91.333 -40 -148s-15 -123.334 -15 -200.001
c0 -49.333 0.666992 -101 2 -155l4 -166c37.333 -14.667 71.666 -32.834 102.999 -54.501s61 -46.5 89 -74.5c67.333 15.333 127.833 38.666 181.5 69.999s100.667 69 141 113s74.166 93 101.499 147s48.666 111 63.999 171c19.333 78.667 41.666 146.667 66.999 204
s51.833 106.333 79.5 147s55.834 74 84.501 100s55.834 46.833 81.501 62.5s49.167 27 70.5 34s38.333 11.833 51 14.5l12 -27c-49.333 -12 -91.833 -35.333 -127.5 -70s-66.334 -76 -92.001 -124s-47 -100.167 -64 -156.5s-31.5 -111.5 -43.5 -165.5
c-22 -96 -52.167 -177.5 -90.5 -244.5s-82.166 -122.667 -131.499 -167s-103 -78.833 -161 -103.5s-118.333 -42 -181 -52c39.333 -46 76 -95.833 110 -149.5l98 -161l94 -155.5c31.333 -50 64.333 -94.167 99 -132.5s71.834 -69 111.501 -92s83.834 -34.5 132.501 -34.5
c15.333 0 31.333 1.16699 48 3.5s34.334 6.5 53.001 12.5l12 -29c-0.666992 -0.666992 -6 -3.5 -16 -8.5s-23.5 -10.5 -40.5 -16.5s-36.833 -11.5 -59.5 -16.5s-47.334 -7.5 -74.001 -7.5c-68 0 -126.667 13.833 -176 41.5s-92.333 64.334 -129 110.001
s-69.167 98 -97.5 157s-55.5 120.167 -81.5 183.5c-25.333 59.333 -50.5 112.666 -75.5 159.999s-51.5 89.333 -79.5 126c-18.667 -2 -37.167 -3.16699 -55.5 -3.5s-36.833 -0.5 -55.5 -0.5h-49v-12c0 -60 -2.66699 -118.167 -8 -174.5s-14.5 -109.166 -27.5 -158.499
s-30.833 -94.666 -53.5 -135.999s-51.167 -76.666 -85.5 -105.999s-75.333 -52.166 -123 -68.499s-103.5 -24.5 -167.5 -24.5c-54 0 -106.167 8.16699 -156.5 24.5s-96.5 41.166 -138.5 74.499l25 30c36.667 -30 78.167 -52.5 124.5 -67.5s93.5 -22.5 141.5 -22.5
c54.667 0 101.334 9 140.001 27s70.834 42.167 96.501 72.5s46.167 65.5 61.5 105.5s26.833 82.167 34.5 126.5s12.5 89.5 14.5 135.5s3 89.667 3 131v54c-43.333 6.66699 -77.833 15.667 -103.5 27s-45.167 23 -58.5 35s-22 23.5 -26 34.5s-6 20.167 -6 27.5
c0 15.333 3.5 28.666 10.5 39.999s16.333 20.5 28 27.5s25.5 12.167 41.5 15.5s33 5 51 5c10 0 20.167 -0.333008 30.5 -1s20.5 -1.66699 30.5 -3v54c0 130.667 9.66699 243 29 337s43.666 172.667 72.999 236c-47.333 -5.33301 -94 -8.5 -140 -9.5
s-91.333 -5.16699 -136 -12.5s-88.334 -20.166 -131.001 -38.499s-83.667 -47.166 -123 -86.499l-31 24c38.667 40 78.167 70.333 118.5 91s81.833 35.5 124.5 44.5s86.834 14.5 132.501 16.5s93.834 4.66699 144.501 8c9.33301 0 19.166 0.666992 29.499 2l32.5 4
c24 44.667 49.167 81.667 75.5 111s51.666 52.666 75.999 69.999s46.5 29.333 66.5 36s35.333 10 46 10zM943.999 1473c-7.33301 0 -18.5 -2.5 -33.5 -7.5s-32 -14 -51 -27s-38.667 -31 -59 -54s-39.5 -52.5 -57.5 -88.5c28 7.33301 55.5 16 82.5 26s51.167 21.5 72.5 34.5
s38.5 27.333 51.5 43s19.5 32.5 19.5 50.5c0 5.33301 -1.83301 10.5 -5.5 15.5s-10.167 7.5 -19.5 7.5zM493.999 580c-34 0 -57.167 -5.16992 -69.5 -15.5029s-18.5 -21.166 -18.5 -32.499c0 -17.333 13.5 -34.166 40.5 -50.499s64.5 -28.833 112.5 -37.5
c0 22.667 -0.333008 44.834 -1 66.501s-1 43.167 -1 64.5c-10 1.33301 -20.5 2.5 -31.5 3.5s-21.5 1.5 -31.5 1.5zM800.999 441.997c-19.333 20.667 -39.332 39.168 -59.999 55.501s-42.334 30.166 -65.001 41.499c0 -17.333 0.333008 -34.833 1 -52.5s1 -35.167 1 -52.5h2
c21.333 0 42 0.5 62 1.5s39.667 3.16699 59 6.5z" />
    <glyph glyph-name="L" unicode="L" horiz-adv-x="1583" 
d="M213 -92c-32 0 -61.0029 4.49512 -87.0029 13.4951s-48.333 21.5 -67 37.5s-33.167 34.833 -43.5 56.5s-15.5 45.167 -15.5 70.5c0 58 20.167 103.5 60.5 136.5s95.833 49.5 166.5 49.5c50.667 0 97 -6.83301 139 -20.5s81 -31.167 117 -52.5
c8.66699 35.333 13 75.333 13 120c0 46 -2 91.167 -6 135.5s-8.5 88.333 -13.5 132s-9.5 86.834 -13.5 129.501s-6 85.334 -6 128.001c0 96 9.33301 179.167 28 249.5s43.167 130.166 73.5 179.499s65 89.333 104 120s78.833 54.667 119.5 72s80.5 29 119.5 35
s73.833 9 104.5 9c46 0 87.5 -7.66699 124.5 -23s68.667 -35.666 95 -60.999s46.5 -54.166 60.5 -86.499s21 -65.5 21 -99.5c0 -30.667 -3.66699 -59.667 -11 -87s-15.5 -51.5 -24.5 -72.5s-17.5 -37.833 -25.5 -50.5s-12.333 -19.667 -13 -21l-31 22c12 18 23 38 33 60
c8 18.667 15.5 40 22.5 64s10.5 49.667 10.5 77c0 33.333 -6.16699 64.5 -18.5 93.5s-29.666 54.333 -51.999 76s-49.5 38.667 -81.5 51s-68 18.5 -108 18.5c-70 0 -132.333 -14.5 -187 -43.5s-100.667 -66.667 -138 -113s-65.666 -98.333 -84.999 -156
s-29 -115.167 -29 -172.5c0 -38 1.66699 -77.667 5 -119l10.5 -127.5c3.66699 -43.667 7.16699 -88.167 10.5 -133.5s5 -90.666 5 -135.999c0 -60.667 -4.16699 -117.167 -12.5 -169.5s-21.166 -100.166 -38.499 -143.499c36.667 -27.333 72.334 -55.666 107.001 -84.999
s70.167 -56.333 106.5 -81s74.666 -44.834 114.999 -60.501s84.5 -23.5 132.5 -23.5c62 0 118.833 13.167 170.5 39.5s96.167 60.5 133.5 102.5s66.333 89 87 141s31 103.667 31 155c0 18.667 -2.66699 40.667 -8 66s-15 48.333 -29 69l24 19
c0.666992 -1.33301 5.33398 -7.5 14.001 -18.5s18 -26.333 28 -46s19.167 -43.167 27.5 -70.5s12.5 -58.333 12.5 -93c0 -49.333 -9 -98.166 -27 -146.499s-45.667 -91.666 -83 -129.999s-84.833 -69.333 -142.5 -93s-125.834 -35.5 -204.501 -35.5
c-62 0 -116.667 8.16699 -164 24.5s-90.5 37.166 -129.5 62.499s-75.667 53 -110 83s-69.5 58.667 -105.5 86c-32 -66.667 -74.5 -118.834 -127.5 -156.501s-117.833 -56.5 -194.5 -56.5zM224.997 -53.0049c64.667 0 117.832 19.334 159.499 58.001s71.834 91 90.501 157
c-34 20.667 -70.667 37.667 -110 51s-84 20 -134 20c-10 0 -23.5 -1.66699 -40.5 -5s-33.667 -10 -50 -20s-30.5 -24.5 -42.5 -43.5s-18 -44.5 -18 -76.5c0 -21.333 3.83301 -40.5 11.5 -57.5s18 -31.833 31 -44.5s28.333 -22.334 46 -29.001s36.5 -10 56.5 -10z" />
    <glyph glyph-name="M" unicode="M" horiz-adv-x="1372" 
d="M1407 -264c-0.666992 0 -11.1719 1.5 -31.5049 4.5s-45.666 11 -75.999 24s-63 32.333 -98 58s-67.5 61.167 -97.5 106.5s-55 102.166 -75 170.499s-30 151.166 -30 248.499c0 36.667 2 80.5 6 131.5s9.5 105.5 16.5 163.5s14.667 118 23 180s17 122.333 26 181l26 167
l21.5 138l-26.5 -104.5l-30.5 -119l-32.5 -128.5l-33.5 -132c-11.333 -45.333 -24 -92.5 -38 -141.5s-29.667 -97.333 -47 -145s-36.333 -93 -57 -136s-43.667 -80.833 -69 -113.5s-52.666 -58.667 -81.999 -78s-61.333 -29 -96 -29c-19.333 0 -37.666 3.66699 -54.999 11
s-32.5 19.833 -45.5 37.5s-23.333 41.334 -31 71.001s-11.5 67.167 -11.5 112.5c0 26.667 1.16699 59.167 3.5 97.5s5.33301 80.333 9 126s8 94.167 13 145.5l15.5 155.5l16 155.5l15 147l-62 -264l-80 -354c-24.667 -110 -50.5 -207.5 -77.5 -292.5
s-53.667 -159.333 -80 -223s-51.5 -117.334 -75.5 -161.001s-45.167 -79 -63.5 -106s-33.166 -46.667 -44.499 -59s-17 -18.833 -17 -19.5l-35 19c0 0.666992 5.83301 11.167 17.5 31.5s26.834 48.833 45.501 85.5s40 80.834 64 132.501s48.667 108.834 74 171.501
s50.666 130.334 75.999 203.001s48.333 148.667 69 228l80.5 311l60.5 247.5l38.5 163.5c9 39.333 13.5 59.333 13.5 60l39 -4c0 -1.33301 -0.166992 -17 -0.5 -47s-0.666016 -69 -0.999023 -117s-0.666016 -102.167 -0.999023 -162.5l-1 -182.5l-1 -176.5
c-0.333008 -56.333 -0.5 -104.833 -0.5 -145.5c0 -46.667 1.83301 -89.167 5.5 -127.5s9.66699 -71 18 -98s18.833 -47.833 31.5 -62.5s28 -22 46 -22c14.667 0 32.167 9.83301 52.5 29.5s42.666 51.667 66.999 96s50 102.5 77 174.5s54.833 160.667 83.5 266l33.5 120
l40.5 149.5l47.5 186.5l54.5 230l39 -6c-13.333 -160 -25.833 -319.167 -37.5 -477.5s-17.5 -317.5 -17.5 -477.5c0 -120.667 6.66699 -225.667 20 -315s33 -165.5 59 -228.5s58.167 -114.333 96.5 -154s82.833 -69.834 133.5 -90.501z" />
    <glyph glyph-name="N" unicode="N" horiz-adv-x="1380" 
d="M-20 -219l30.502 40.0049c15.667 20.667 34 48.334 55 83.001s43.5 76.167 67.5 124.5s46.667 103.166 68 164.499s40.166 129 56.499 203s27.5 153.667 33.5 239c9.33301 125.333 16.833 239.333 22.5 342s10 190.667 13 264s5 130.166 6 170.499s1.5 60.833 1.5 61.5
l39 4l51 -263l51.5 -269l54.5 -262.5c18.667 -85.667 39 -166.667 61 -243s45.667 -146.666 71 -210.999s53.166 -119.833 83.499 -166.5s63.666 -83 99.999 -109s76.166 -39 119.499 -39c28 0 57 9.66699 87 29s57.333 50.666 82 93.999s45 99.666 61 168.999
s24 153.666 24 252.999c0 59.333 -3.16699 123.666 -9.5 192.999s-16.166 140.833 -29.499 214.5s-29.833 147.5 -49.5 221.5s-43 145.167 -70 213.5s-57.5 132.5 -91.5 192.5s-71.667 112.333 -113 157l27 28c44 -47.333 83.833 -101.333 119.5 -162
s67.334 -125.667 95.001 -195s51.5 -141.333 71.5 -216s36.5 -149.334 49.5 -224.001s22.667 -148 29 -220s9.5 -139.667 9.5 -203c0 -83.333 -7 -163.333 -21 -240s-35.5 -144.334 -64.5 -203.001s-65.5 -105.334 -109.5 -140.001s-96.333 -52 -157 -52
c-48 0 -91.833 11.833 -131.5 35.5s-75.834 56.5 -108.501 98.5s-61.834 91.833 -87.501 149.5s-48.5 120.334 -68.5 188.001s-37.667 139 -53 214s-28.666 151.167 -39.999 228.5s-21.166 154.333 -29.499 231s-15.5 150.334 -21.5 221.001
c-3.33301 -72 -8.5 -154.833 -15.5 -248.5s-13.5 -196.5 -19.5 -308.5c-6.66699 -114.667 -18.5 -217.667 -35.5 -309s-39.333 -172.666 -67 -243.999s-60.167 -133.833 -97.5 -187.5s-80 -99.834 -128 -138.501z" />
    <glyph glyph-name="O" unicode="O" horiz-adv-x="1485" 
d="M1395 639c-0.666992 -125.333 -17.001 -237.168 -49.001 -335.501s-77.167 -181.833 -135.5 -250.5s-128.666 -121 -210.999 -157s-173.833 -54 -274.5 -54c-94.667 0 -181.334 18.333 -260.001 55s-146.167 87 -202.5 151s-100.166 139.667 -131.499 227
s-47 182 -47 284c0 86.667 8.66699 166.334 26 239.001s40.166 139 68.499 199s61.166 114 98.499 162s75.833 90.5 115.5 127.5s79.5 69.167 119.5 96.5s76.833 50.333 110.5 69s63 33.334 88 44.001s42.833 18 53.5 22l12 -33c-20.667 -8.66699 -49 -22.667 -85 -42
s-75 -44.833 -117 -76.5s-84.667 -70.334 -128 -116.001s-82.5 -98.667 -117.5 -159s-63.667 -128.833 -86 -205.5s-33.5 -162.334 -33.5 -257.001c0 -99.333 11.833 -193.666 35.5 -282.999s59.167 -167.666 106.5 -234.999s106.5 -120.833 177.5 -160.5
s154.167 -59.5 249.5 -59.5c27.333 0 60.5 4.16699 99.5 12.5s79.833 23.166 122.5 44.499s85.167 50 127.5 86s80.166 81.667 113.499 137s60.5 121.5 81.5 198.5s31.5 166.833 31.5 269.5c0 28.667 -1.16699 58.5 -3.5 89.5s-6.16602 61.833 -11.499 92.5
c-59.333 -50 -123.833 -89.833 -193.5 -119.5s-143.5 -44.5 -221.5 -44.5c-51.333 0 -99.333 7.16699 -144 21.5s-83.5 34.666 -116.5 60.999s-59 57.666 -78 93.999s-28.5 76.5 -28.5 120.5c0 56 10.833 105.833 32.5 149.5s50.167 80.334 85.5 110.001
s75.5 52.334 120.5 68.001s91.167 23.5 138.5 23.5c64.667 0 121.334 -11.167 170.001 -33.5s90.334 -52.166 125.001 -89.499s63.167 -80.333 85.5 -129s39.5 -99.334 51.5 -152.001c32 31.333 61.667 66.333 89 105s52.333 83 75 133l37 -15
c-49.333 -102.667 -113.666 -192.667 -192.999 -270c7.33301 -37.333 12.666 -74 15.999 -110s5 -71 5 -105zM953.999 732.998c66 0 131.165 10.668 195.498 32.001s124.833 55.666 181.5 102.999c-11.333 52 -27.166 101.833 -47.499 149.5s-46.333 90 -78 127
s-69.667 66.5 -114 88.5s-96.166 33 -155.499 33c-48 0 -89.833 -7.33301 -125.5 -22s-65.5 -34.334 -89.5 -59.001s-42 -53.167 -54 -85.5s-18 -65.833 -18 -100.5c0 -29.333 5.16699 -59.666 15.5 -90.999s27.5 -60 51.5 -86s55.5 -47.333 94.5 -64s86.833 -25 143.5 -25z
" />
    <glyph glyph-name="P" unicode="P" horiz-adv-x="1434" 
d="M537 -96c-15.333 22.667 -30.8281 53.998 -46.4951 93.998s-30.334 84 -44.001 132s-25.667 97.667 -36 149s-18.166 99.666 -23.499 144.999c-26.667 5.33301 -48.167 12 -64.5 20s-29 16.5 -38 25.5s-15 18.167 -18 27.5s-4.5 17.666 -4.5 24.999c0 22.667 11 45 33 67
s52 40.667 90 56c5.33301 65.333 14.333 126.166 27 182.499s26.834 107.666 42.501 153.999s31.834 87.333 48.501 123s32 65.834 46 90.501s25.667 43.5 35 56.5s14 19.833 14 20.5l35 -17c-6 -13.333 -15.333 -35.666 -28 -66.999s-25.834 -71.333 -39.501 -120
s-26.667 -105.667 -39 -171s-21.166 -138.333 -26.499 -219c11.333 2 22.666 3.83301 33.999 5.5s23 3.16699 35 4.5l4 -39c-14 -1.33301 -27.333 -2.83301 -40 -4.5s-25 -3.5 -37 -5.5c-1.33301 -19.333 -2 -39.333 -2 -60v-63v-65h65c53.333 0 108.166 5 164.499 15
s111.166 25.5 164.499 46.5s103.5 48 150.5 81s88.167 72.5 123.5 118.5s63.166 99 83.499 159s30.5 127.333 30.5 202c0 60.667 -9.5 112.834 -28.5 156.501s-43.833 80.834 -74.5 111.501s-65.667 55.334 -105 74.001s-79.166 33.167 -119.499 43.5
s-79.5 17.333 -117.5 21s-71.333 5.5 -100 5.5c-58 0 -119.333 -7.5 -184 -22.5s-128.5 -34.333 -191.5 -58s-123.333 -50.167 -181 -79.5s-108.167 -58 -151.5 -86l-23 33c2.66699 1.33301 14.5 8.66602 35.5 21.999s49.167 29.5 84.5 48.5s77.166 39.333 125.499 61
s101.333 41.667 159 60s119.167 33.666 184.5 45.999s132.666 18.5 201.999 18.5c81.333 0 159 -10.167 233 -30.5s139 -51 195 -92s100.667 -92.667 134 -155s50 -135.833 50 -220.5c0 -69.333 -11.5 -132.666 -34.5 -189.999s-54.667 -108.833 -95 -154.5
s-87.833 -85.667 -142.5 -120s-113.667 -62.833 -177 -85.5s-129.333 -39.667 -198 -51s-137 -17 -205 -17h-55c3.33301 -75.333 11.166 -154.666 23.499 -237.999s30.166 -170.666 53.499 -261.999zM303.005 521.998c0 -10 5.83301 -19.833 17.5 -29.5
s32.5 -18.167 62.5 -25.5c-1.33301 9.33301 -2 18.5 -2 27.5v27.5v39.5c0 13 0.666992 25.833 2 38.5c-53.333 -27.333 -80 -53.333 -80 -78z" />
    <glyph glyph-name="Q" unicode="Q" horiz-adv-x="1659" 
d="M481 -240c-54 0 -106.338 5.16895 -157.005 15.502s-95.5 25.5 -134.5 45.5s-70.167 45 -93.5 75s-35 64.667 -35 104c0 36.667 8.83301 68.334 26.5 95.001s40.834 49 69.501 67s60.667 31.667 96 41s71 15.333 107 18c-66 72.667 -116.5 153 -151.5 241
s-52.5 186 -52.5 294c0 72 8.66699 140.167 26 204.5s41.833 123.5 73.5 177.5s69.667 102.833 114 146.5s93.5 80.5 147.5 110.5s112.167 53.167 174.5 69.5s126.833 24.5 193.5 24.5c103.333 0 197.5 -16.833 282.5 -50.5s158 -81.167 219 -142.5
s108.333 -135.166 142 -221.499s50.5 -181.833 50.5 -286.5c0 -98 -13.833 -192.333 -41.5 -283s-66.667 -174.834 -117 -252.501s-110.666 -148 -180.999 -211s-148.166 -115.833 -233.499 -158.5l143 -149c47.333 -49.333 96.166 -93.833 146.499 -133.5
s103.333 -71.667 159 -96s116.167 -36.5 181.5 -36.5c41.333 0 80.833 6.5 118.5 19.5s73.5 33.5 107.5 61.5l22 -24c-0.666992 -0.666992 -4.16699 -4.66699 -10.5 -12s-15.833 -16.5 -28.5 -27.5s-28.167 -22.667 -46.5 -35s-39.5 -23.833 -63.5 -34.5
s-50.667 -19.5 -80 -26.5s-61.333 -10.5 -96 -10.5c-48 0 -92.167 6.66699 -132.5 20s-78.166 31.666 -113.499 54.999s-68.666 50.666 -99.999 81.999s-61.666 64.666 -90.999 99.999l-87 109.5l-87 111.5c-70.667 -31.333 -145 -55.333 -223 -72s-159.333 -25 -244 -25z
M255.995 756.002c0 -118 14.168 -219.836 42.501 -305.503s70.833 -162.167 127.5 -229.5c56 -2 108.667 -11.667 158 -29s96.333 -39.666 141 -66.999s87.167 -59 127.5 -95s79.833 -73.333 118.5 -112c76 41.333 143.667 92.5 203 153.5s109.666 129.333 150.999 205
s72.833 157.334 94.5 245.001s32.5 178.834 32.5 273.501c0 104 -14.333 196.667 -43 278s-68.334 150 -119.001 206s-110.5 98.5 -179.5 127.5s-143.5 43.5 -223.5 43.5c-94 0 -179.833 -16.5 -257.5 -49.5s-144.167 -79.833 -199.5 -140.5s-98.166 -133.667 -128.499 -219
s-45.5 -180.333 -45.5 -285zM617.996 9.99902c-74.667 46.667 -142.004 98 -202.004 154c-43.333 -0.666992 -80 -6.16699 -110 -16.5s-54.5 -23.5 -73.5 -39.5s-32.833 -33.833 -41.5 -53.5s-13 -39.167 -13 -58.5c0 -25.333 7.83301 -49.666 23.5 -72.999
s37.834 -43.833 66.501 -61.5s63.5 -31.834 104.5 -42.501s86.833 -16 137.5 -16c76.667 0 149 7.5 217 22.5s132.333 36.833 193 65.5c-28.667 33.333 -58.5 65 -89.5 95s-64.167 57 -99.5 81s-73.166 44 -113.499 60s-84.5 27 -132.5 33
c22.667 -21.333 46.834 -42 72.501 -62s52.834 -39.667 81.501 -59z" />
    <glyph glyph-name="R" unicode="R" horiz-adv-x="1583" 
d="M799 436c-25.333 0 -54.6631 1.16406 -87.9961 3.49707s-67 6.16602 -101 11.499c1.33301 -17.333 2.33301 -34.666 3 -51.999s1 -34.333 1 -51c0 -75.333 -6.66699 -144 -20 -206s-33.333 -115 -60 -159s-59.834 -78.167 -99.501 -102.5s-85.5 -36.5 -137.5 -36.5
c-39.333 0 -83.5 7.33301 -132.5 22s-103.833 41 -164.5 79l20 32c52 -32 101.167 -55.667 147.5 -71s89.5 -23 129.5 -23c43.333 0 79 7.83301 107 23.5s50.167 36.334 66.5 62.001s27.666 54.834 33.999 87.501s9.5 66 9.5 100c0 47.333 -3.16699 98 -9.5 152
s-12.166 111 -17.499 171c-30.667 10.667 -55.667 23.167 -75 37.5s-29 31.166 -29 50.499c0 18.667 8.83301 34.834 26.5 48.501s40.834 24.167 69.501 31.5c0 57.333 4.33301 113.5 13 168.5s19.5 106.833 32.5 155.5s27 93.667 42 135s29.167 76.833 42.5 106.5
s24.5 52.834 33.5 69.501s13.833 25 14.5 25l35 -17c0 -0.666992 -5.33301 -13.834 -16 -39.501s-22.334 -61.834 -35.001 -108.501s-24.334 -102.667 -35.001 -168s-16 -138 -16 -218v-48.5c0 -17 0.666992 -33.833 2 -50.5c74 -3.33301 136.833 -20 188.5 -50
s96.5 -71.333 134.5 -124c57.333 12 112.5 32.5 165.5 61.5s99.667 65.833 140 110.5s72.666 96.667 96.999 156s36.5 125 36.5 197c0 57.333 -8.5 108.5 -25.5 153.5s-39.667 84.333 -68 118s-61 62.167 -98 85.5s-75.167 42.166 -114.5 56.499s-78.5 24.666 -117.5 30.999
s-74.833 9.5 -107.5 9.5c-92 0 -174.833 -7 -248.5 -21s-138.834 -31.667 -195.501 -53s-105.5 -44.333 -146.5 -69s-74.833 -47.667 -101.5 -69s-46.334 -39.333 -59.001 -54l-19 -22l-33 22c2 2 10 11 24 27s34.833 35.167 62.5 57.5s62.667 46.5 105 72.5
s93 49.833 152 71.5s126.5 39.834 202.5 54.501s161.667 22 257 22c54.667 0 109 -4.16699 163 -12.5s105.333 -21 154 -38s93.834 -38.833 135.501 -65.5s77.667 -58.167 108 -94.5s54.166 -78 71.499 -125s26 -99.5 26 -157.5c0 -83.333 -15.167 -157.166 -45.5 -221.499
s-70.666 -119.666 -120.999 -165.999s-108 -84 -173 -113s-132.167 -49.5 -201.5 -61.5c23.333 -36 43.666 -76 60.999 -120c20.667 -49.333 39.5 -100.5 56.5 -153.5s34.833 -104.833 53.5 -155.5s39.167 -98.667 61.5 -144s48.666 -85.166 78.999 -119.499
s66 -61.5 107 -81.5s89.833 -30 146.5 -30c40 0 80.833 8.83301 122.5 26.5s84.167 46.167 127.5 85.5l25 -28c-24.667 -24 -50 -46.833 -76 -68.5s-53.167 -40.667 -81.5 -57s-58.166 -29.333 -89.499 -39s-65 -14.5 -101 -14.5c-54 0 -100.833 7.5 -140.5 22.5
s-74.167 36 -103.5 63s-54 58.833 -74 95.5s-37.333 76.5 -52 119.5s-27.5 88.667 -38.5 137l-32.5 146.5c-13.333 60.667 -28.166 117 -44.499 169s-36.833 98.667 -61.5 140c-14.667 -2 -29.167 -3.16699 -43.5 -3.5s-28.5 -0.5 -42.5 -0.5zM596.003 617.997
c1.33301 -21.333 3.16699 -43.168 5.5 -65.501s4.5 -44.166 6.5 -65.499c25.333 -5.33301 54.333 -9 87 -11s68.667 -3 108 -3h29c10 0 20 0.666992 30 2c-30.667 42 -67.167 75.5 -109.5 100.5s-94.5 39.167 -156.5 42.5zM483.004 521.995
c-1.33301 13.333 -2.33398 27.165 -3.00098 41.498s-1 28.5 -1 42.5c-17.333 -4 -31.166 -9.33301 -41.499 -16s-15.5 -13.667 -15.5 -21c0 -5.33301 4.83301 -12.166 14.5 -20.499s25.167 -17.166 46.5 -26.499z" />
    <glyph glyph-name="S" unicode="S" horiz-adv-x="1206" 
d="M295 1038c0 -37.333 7.66797 -70.8359 23.001 -100.503s36 -56.667 62 -81s56.5 -46.666 91.5 -66.999s72.167 -40 111.5 -59l121.5 -56c41.667 -18.333 82.167 -37.666 121.5 -57.999s76.5 -42.333 111.5 -66s65.5 -50 91.5 -79s46.667 -61.333 62 -97
s23 -75.834 23 -120.501c0 -81.333 -15.333 -151.833 -46 -211.5s-71.667 -109 -123 -148s-111 -68 -179 -87s-139 -28.5 -213 -28.5c-65.333 0 -127 8.5 -185 25.5s-109 40.667 -153 71s-78.833 66.666 -104.5 108.999s-38.5 88.5 -38.5 138.5
c0 44 6.83301 81.5 20.5 112.5s28.667 56.5 45 76.5s31.833 34.667 46.5 44s23 14.333 25 15l22 -47c-1.33301 -0.666992 -7.66602 -4.83398 -18.999 -12.501s-23.5 -19.5 -36.5 -35.5s-25 -36.5 -36 -61.5s-16.5 -55.5 -16.5 -91.5s6.83301 -68.167 20.5 -96.5
s32 -53.166 55 -74.499s49.333 -39.666 79 -54.999s60.5 -27.833 92.5 -37.5s64 -16.667 96 -21s61.667 -6.5 89 -6.5c70.667 0 134.667 8.83301 192 26.5s106.166 42 146.499 73s71.5 67 93.5 108s33 85.167 33 132.5c0 53.333 -11.333 99.333 -34 138
s-52.667 72.834 -90 102.501s-79.833 56.334 -127.5 80.001l-146 69.5c-49.667 22.667 -98.334 46.5 -146.001 71.5s-90.167 53.833 -127.5 86.5s-67.333 70.5 -90 113.5s-34 94.167 -34 153.5c0 66 11.167 126.333 33.5 181s53 101.834 92 141.501
s84.833 70.334 137.5 92.001s109.667 32.5 171 32.5c62 0 116.333 -7.16699 163 -21.5s85.834 -34.333 117.501 -60s55.334 -56.5 71.001 -92.5s23.5 -75.667 23.5 -119c0 -35.333 -4.16699 -69.833 -12.5 -103.5s-17.5 -63.834 -27.5 -90.501s-19.333 -48.334 -28 -65.001
s-13.334 -26 -14.001 -28l-45 25c0 0.666992 3.83301 8.66699 11.5 24s16.167 35.333 25.5 60s17.833 52.5 25.5 83.5s11.5 62.5 11.5 94.5c0 36 -6.5 68.833 -19.5 98.5s-32.833 54.834 -59.5 75.501s-60.334 36.667 -101.001 48s-88.667 17 -144 17
c-51.333 0 -99 -8.5 -143 -25.5s-82.167 -40.833 -114.5 -71.5s-57.833 -66.834 -76.5 -108.501s-28 -87.167 -28 -136.5z" />
    <glyph glyph-name="T" unicode="T" horiz-adv-x="1552" 
d="M641 -166c-72 0 -137.005 9.16895 -195.005 27.502s-107.667 43.666 -149 75.999s-73.166 70.5 -95.499 114.5s-33.5 91.667 -33.5 143v19c0 6.66699 0.666992 13 2 19l39 -4c-1.33301 -6 -2 -11.5 -2 -16.5v-15.5c0 -46 10.333 -88.667 31 -128s49.5 -73.5 86.5 -102.5
s81.333 -51.833 133 -68.5s108.834 -25 171.501 -25c57.333 0 107.5 8.33301 150.5 25s79.833 39.334 110.5 68.001s56.167 62.667 76.5 102s36.666 81.333 48.999 126s21.5 91.334 27.5 140.001s10 97 12 145s3 94.667 3 140s0.333008 87.333 1 126
c1.33301 95.333 13.5 179.666 36.5 252.999s51.167 138 84.5 194c-46.667 15.333 -93.667 35.166 -141 59.499l-142 71.5c-47.333 23.333 -95.166 43.5 -143.499 60.5s-96.833 25.5 -145.5 25.5c-79.333 0 -146.666 -10.667 -201.999 -32s-100.333 -48.833 -135 -82.5
s-59.834 -71.167 -75.501 -112.5s-23.5 -82.333 -23.5 -123c0 -47.333 7.83301 -91 23.5 -131s37.667 -74.667 66 -104s61.833 -52.166 100.5 -68.499s81 -24.5 127 -24.5c44 0 83.833 8.16699 119.5 24.5s66 34.5 91 54.5s44.167 38.333 57.5 55s20.333 25.334 21 26.001
l31 -23c0 -0.666992 -3.66699 -5.83398 -11 -15.501s-18.166 -21.5 -32.499 -35.5s-32.166 -29.167 -53.499 -45.5s-46.166 -31.333 -74.499 -45s-59.666 -25.167 -93.999 -34.5s-72.166 -14 -113.499 -14c-42 0 -84.833 7.16699 -128.5 21.5s-83.334 36 -119.001 65
s-64.834 65.5 -87.501 109.5s-34 95.333 -34 154c0 57.333 11.333 111.5 34 162.5s55.667 95.5 99 133.5s97 68.167 161 90.5s137.333 33.5 220 33.5c42 0 82.5 -4.16699 121.5 -12.5s76.5 -19.166 112.5 -32.499s70.833 -28.333 104.5 -45l99 -50l95 -47
c31 -14.667 61.833 -26.667 92.5 -36c24.667 36.667 49.334 68.667 74.001 96s47.167 50 67.5 68s36.833 31.667 49.5 41s19.334 14.666 20.001 15.999l23 -33c-4.66699 -2.66699 -13.167 -8.66699 -25.5 -18s-26.666 -22.5 -42.999 -39.5s-33.666 -37.5 -51.999 -61.5
s-36.166 -52 -53.499 -84c10 -1.33301 19.667 -2.33301 29 -3s19.333 -1 30 -1c48.667 0 92.167 6.16699 130.5 18.5s72 28 101 47s53.833 39.667 74.5 62s37.5 43.333 50.5 63s22.667 36.334 29 50.001s10.166 21.5 11.499 23.5l37 -12
c-0.666992 -0.666992 -4.33398 -8.33398 -11.001 -23.001s-17.167 -32.834 -31.5 -54.501s-32.833 -44.834 -55.5 -69.501s-50 -47.667 -82 -69s-69.167 -39.166 -111.5 -53.499s-90.5 -21.5 -144.5 -21.5c-12.667 0 -25.334 0.666992 -38.001 2
s-25.334 3.66602 -38.001 6.99902c-20.667 -43.333 -37.834 -92.833 -51.501 -148.5s-20.5 -117.5 -20.5 -185.5c0 -56 2.5 -114.167 7.5 -174.5s7.5 -120.5 7.5 -180.5c0 -92.667 -10.167 -178.834 -30.5 -258.501s-52.5 -148.667 -96.5 -207
s-100.333 -104.166 -169 -137.499s-151 -50 -247 -50z" />
    <glyph glyph-name="U" unicode="U" horiz-adv-x="1403" 
d="M709 -213c-76 0 -149.667 9.66699 -221 29s-134.833 52.166 -190.5 98.499s-100.334 107.833 -134.001 184.5s-50.5 172 -50.5 286c0 82.667 7.16699 161.5 21.5 236.5s32.833 145 55.5 210s47.667 124.833 75 179.5s54 103.5 80 146.5s49.833 79.833 71.5 110.5
s37.834 54.334 48.501 71.001l33 -20l-27 -47.5c-14 -24.333 -30.333 -56.333 -49 -96s-38.5 -85.834 -59.5 -138.501s-40.333 -111.167 -58 -175.5s-32.167 -133.333 -43.5 -207s-17 -151.167 -17 -232.5c0 -98 10.667 -184 32 -258s51.666 -135.833 90.999 -185.5
s87.166 -87.167 143.499 -112.5s119.5 -38 189.5 -38c55.333 0 105.166 10.167 149.499 30.5s84 48.166 119 83.499s65.5 76.666 91.5 123.999s48.5 98 67.5 152s34.667 110.167 47 168.5s22 115.833 29 172.5s12 111.167 15 163.5s4.5 100.166 4.5 143.499
c0 96.667 -4.83301 185.667 -14.5 267s-20.5 153 -32.5 215s-23.667 113.833 -35 155.5s-19 71.5 -23 89.5l37 13c23.333 -82 43.5 -160.667 60.5 -236s31 -151.666 42 -228.999s19.167 -157.5 24.5 -240.5s8 -173.5 8 -271.5c0 -73.333 -4.5 -145.166 -13.5 -215.499
s-23.167 -136.666 -42.5 -198.999s-44.166 -119.666 -74.499 -171.999s-67.166 -97.5 -110.499 -135.5s-93.166 -67.5 -149.499 -88.5s-119.833 -31.5 -190.5 -31.5z" />
    <glyph glyph-name="V" unicode="V" horiz-adv-x="1153" 
d="M594 -152c-20 0 -35.6699 7.33203 -47.0029 21.999s-20.5 37 -27.5 67s-13.167 67.5 -18.5 112.5s-12 98 -20 159s-18.333 129.833 -31 206.5s-30.334 161.667 -53.001 255c-16 65.333 -36.667 128.166 -62 188.499s-52.666 116.833 -81.999 169.5s-59 100.667 -89 144
s-57 80.5 -81 111.5s-43.833 55 -59.5 72s-23.5 25.833 -23.5 26.5l82 82c0.666992 -1.33301 7.33398 -9.16602 20.001 -23.499s28.834 -35.5 48.501 -63.5s41.834 -63.333 66.501 -106s50 -92.834 76 -150.501s51.667 -123.334 77 -197.001s48 -155.5 68 -245.5
c28 -125.333 49 -237 63 -335s25.167 -180.667 33.5 -248s16.5 -118.5 24.5 -153.5s20.333 -52.5 37 -52.5c24.667 26.667 46.334 60.834 65.001 102.501s35.5 88.5 50.5 140.5s28.333 107.833 40 167.5s22.167 120.834 31.5 183.501s18.166 125.667 26.499 189l25 183
c8.33301 58.667 17 113.834 26 165.501s19.167 97.167 30.5 136.5c22 78 49.167 147.333 81.5 208s66.666 114 102.999 160s73.166 85.333 110.499 118s71.833 59.5 103.5 80.5s59.334 36.833 83.001 47.5s39.834 17.667 48.501 21l19 -35
c-0.666992 -0.666992 -10 -6.16699 -28 -16.5s-41 -27.5 -69 -51.5s-59.5 -55.667 -94.5 -95s-69.667 -88.333 -104 -147s-66.833 -127.5 -97.5 -206.5s-56 -170.167 -76 -273.5l-20.5 -102c-9 -44.667 -19.833 -95.5 -32.5 -152.5l-42 -182.5
c-15.333 -64.667 -31.833 -129 -49.5 -193s-36.167 -125.5 -55.5 -184.5s-38.833 -111 -58.5 -156s-39.5 -81 -59.5 -108s-39.667 -40.5 -59 -40.5z" />
    <glyph glyph-name="W" unicode="W" horiz-adv-x="1409" 
d="M922 -188l0.00390625 -2.00098c-0.666992 0 -4.83398 6.5 -12.501 19.5s-17.334 31.833 -29.001 56.5s-24.167 54.5 -37.5 89.5s-25.666 74.667 -36.999 119s-20.833 92.666 -28.5 144.999s-11.5 107.833 -11.5 166.5c0 34.667 1.16699 69.667 3.5 105
s4.83301 69.333 7.5 102l7.5 92.5c2.33301 29 3.5 54.5 3.5 76.5c0 22.667 -2 40.334 -6 53.001s-12.667 19 -26 19c-14 0 -33 -15.667 -57 -47s-50.833 -73.166 -80.5 -125.499s-61.334 -112.833 -95.001 -181.5s-67 -140.667 -100 -216l-96 -228.5
c-31 -77 -58.833 -149.5 -83.5 -217.5l-33 21l5 15c2.66699 8 6 21.833 10 41.5s8 46.5 12 80.5s7.83301 78.5 11.5 133.5s6.66699 122 9 201s3.5 172.833 3.5 281.5c0 106 -5.33301 200.333 -16 283s-24.167 155 -40.5 217s-34 114.667 -53 158s-36.667 78.666 -53 105.999
s-30.166 47 -41.499 59s-17 18.333 -17 19l20 25c4 -2 14.167 -8.16699 30.5 -18.5s35.5 -26 57.5 -47s45.333 -48.167 70 -81.5s47.5 -73.833 68.5 -121.5s38.333 -103.167 52 -166.5s20.5 -135.666 20.5 -216.999c0 -64.667 -2.33301 -133.334 -7 -206.001
s-10.834 -144 -18.501 -214s-15.834 -135.333 -24.501 -196s-17 -111.334 -25 -152.001l73.5 180c27.667 66 57.5 133 89.5 201s65.5 133.833 100.5 197.5s70.167 120.5 105.5 170.5s70.333 90 105 120s67.667 45 99 45c13.333 0 25.166 -10.5 35.499 -31.5
s15.5 -51.5 15.5 -91.5c0 -27.333 -1.66699 -59.833 -5 -97.5l-11 -126.5c-4 -46.667 -7.66699 -97.5 -11 -152.5s-5 -113.833 -5 -176.5c0 -58 3.33301 -118.333 10 -181s20.334 -127.334 41.001 -194.001c8 40.667 18.667 91.334 32 152.001s29.333 128 48 202
s39.834 152.833 63.501 236.5s50 169 79 256s60.667 174 95 261s71.333 170.833 111 251.5s82.167 156.334 127.5 227.001s93.333 133.5 144 188.5s104.167 100 160.5 135s115.5 57.167 177.5 66.5l16 -83c-72 -11.333 -139.833 -39 -203.5 -83s-123.5 -99.5 -179.5 -166.5
s-108.167 -143.333 -156.5 -229s-93 -175.5 -134 -269.5s-78.333 -190 -112 -288s-63.834 -193.167 -90.501 -285.5s-49.834 -179.333 -69.501 -261s-36 -153.167 -49 -214.5s-22.833 -110.166 -29.5 -146.499s-10 -55.5 -10 -57.5z" />
    <glyph glyph-name="X" unicode="X" horiz-adv-x="1092" 
d="M1106 -471c-69.333 44 -132.165 97.6719 -188.498 161.005s-107 138.5 -152 225.5s-84.833 187 -119.5 300s-65 241.167 -91 384.5c-66.667 -112.667 -127.834 -210.667 -183.501 -294s-106 -155.5 -151 -216.5s-84.833 -112.333 -119.5 -154l-89 -107.5l-73 80l67.5 70
l79 83l92 104c33 38.667 68.333 82.834 106 132.501s77.834 106 120.501 169s88.334 134.167 137.001 213.5v8c-17.333 104.667 -39.333 195.167 -66 271.5s-55.667 141.166 -87 194.499s-63.833 97 -97.5 131s-65.834 61.167 -96.501 81.5s-59 35.5 -85 45.5l-62 24l8 34
c4.66699 -1.33301 18.334 -4.33301 41.001 -9s50.5 -14.5 83.5 -29.5s69.667 -36.333 110 -64s80.833 -64.834 121.5 -111.501s79.667 -104.167 117 -172.5s69.666 -150.833 96.999 -247.5c0 -2.66699 0.333008 -4.83398 1 -6.50098s1 -3.16699 1 -4.5l56.5 100l59.5 109
c67.333 125.333 134.5 232.5 201.5 321.5s130.833 163.667 191.5 224s117.167 108 169.5 143s98.166 61.667 137.499 80s70.666 30.166 93.999 35.499s36.666 8.33301 39.999 9l6 -39c-0.666992 0 -11.667 -2.33301 -33 -7s-50.5 -15.834 -87.5 -33.501
s-80.833 -43.834 -131.5 -78.501s-105.667 -82 -165 -142s-122 -134.833 -188 -224.5s-132.667 -198.167 -200 -325.5l-68 -126l-65 -115c22 -84.667 41.5 -166.834 58.5 -246.501l51.5 -230.5c17.333 -74 36.333 -145 57 -213s45.167 -132.333 73.5 -193
s61.833 -117.167 100.5 -169.5s85.334 -100.166 140.001 -143.499z" />
    <glyph glyph-name="Y" unicode="Y" horiz-adv-x="1317" 
d="M539 -29c41.333 0 81.667 8.16113 121 24.4941s77.333 38.833 114 67.5s71.834 62.667 105.501 102s65.5 82 95.5 128c12 120 26.5 225.333 43.5 316s35 168.834 54 234.501s38.333 120.167 58 163.5s38.667 77.833 57 103.5s35.333 43.667 51 54
s28.834 15.5 39.501 15.5c2.66699 0 6.33398 -0.5 11.001 -1.5s9 -3.66699 13 -8s7.5 -10.833 10.5 -19.5s4.5 -20.334 4.5 -35.001c0 -25.333 -4.66699 -62.5 -14 -111.5s-23.333 -105 -42 -168s-41.834 -130.5 -69.501 -202.5s-59.5 -143.333 -95.5 -214
c-2 -40 -3.83301 -87.167 -5.5 -141.5s-4.66699 -112.5 -9 -174.5s-10.666 -126 -18.999 -192s-20.166 -130.5 -35.499 -193.5s-35.333 -122.5 -60 -178.5s-55.167 -105.167 -91.5 -147.5s-79.5 -75.833 -129.5 -100.5s-108.333 -37 -175 -37
c-66 0 -122.333 9.16699 -169 27.5s-84.667 42.833 -114 73.5s-50.833 66.167 -64.5 106.5s-20.5 82.166 -20.5 125.499c0 35.333 2.33301 65.166 7 89.499s7.66699 37.5 9 39.5l39 -12c-2.66699 -10.667 -5 -22 -7 -34c-2 -10.667 -3.66699 -23.167 -5 -37.5
s-2 -30.166 -2 -47.499c0 -39.333 6 -76.666 18 -111.999s31.167 -66.5 57.5 -93.5s60.166 -48.333 101.499 -64s91.333 -23.5 150 -23.5c63.333 0 116.166 11 158.499 33s77 52.667 104 92s47.833 86.166 62.5 140.499s25.834 113.833 33.501 178.5
s13.667 133.334 18 206.001s9.5 147 15.5 223c0 6 0.333008 12.5 1 19.5s1 13.5 1 19.5c-32 -43.333 -65.833 -83.166 -101.5 -119.499s-73.5 -67.833 -113.5 -94.5s-82.167 -47.5 -126.5 -62.5s-90.5 -22.5 -138.5 -22.5c-52.667 0 -103.334 10 -152.001 30
s-91.5 51.167 -128.5 93.5s-66.667 96.333 -89 162s-33.5 143.834 -33.5 234.501c0 100.667 11.667 195.334 35 284.001s53.166 170.667 89.499 246s76.5 143.5 120.5 204.5s86.833 114.5 128.5 160.5s79.667 84.167 114 114.5l75.5 65.5l27 -28l-36 -34.5
c-23.333 -22.333 -52.333 -54 -87 -95s-72.334 -90.167 -113.001 -147.5s-78.167 -121.666 -112.5 -192.999s-63 -148.666 -86 -231.999s-34.5 -171 -34.5 -263c0 -173.333 28 -306.166 84 -398.499s140 -138.5 252 -138.5zM1278 1117.99
c0 6 -0.166016 11.334 -0.499023 16.001s-2.16602 7 -5.49902 7c-12.667 0 -26.834 -13.333 -42.501 -40s-31.167 -65.834 -46.5 -117.501s-29.833 -115.5 -43.5 -191.5s-24.834 -163.333 -33.501 -262c26.667 58.667 50.667 117 72 175s39.5 113 54.5 165
s26.333 99.333 34 142s11.5 78 11.5 106z" />
    <glyph glyph-name="Z" unicode="Z" horiz-adv-x="1477" 
d="M981 -156c-36 0 -73.665 4.33398 -112.998 13.001s-79.166 19.834 -119.499 33.501s-80.666 28.834 -120.999 45.501s-79 33.5 -116 50.5l-105.5 47.5c-33.333 14.667 -63 26.667 -89 36c-32 -34 -60.5 -60.333 -85.5 -79s-50.833 -28 -77.5 -28
c-17.333 0 -30.833 2.66699 -40.5 8s-16.834 11.5 -21.501 18.5s-7.5 14 -8.5 21s-1.5 11.833 -1.5 14.5c0 11.333 3.33301 23 10 35s16.667 23 30 33s30.166 18.167 50.499 24.5s44.166 9.5 71.499 9.5c10 0 20.5 -0.5 31.5 -1.5s22.167 -3.16699 33.5 -6.5
c36.667 40 76.5 88.833 119.5 146.5l134 187l142 208.5l144 212.5l140 199c45.667 63 88.834 118.5 129.501 166.5c-47.333 8 -95.666 18.5 -144.999 31.5l-149.5 38.5c-50.333 12.667 -100.666 23.667 -150.999 33s-100.5 14 -150.5 14
c-60 0 -111.833 -7.16699 -155.5 -21.5s-80.834 -32.5 -111.501 -54.5s-55.834 -46.167 -75.501 -72.5s-35.834 -51.166 -48.501 -74.499l-29 12c37.333 108 93 187.5 167 238.5s162.667 76.5 266 76.5c62.667 0 122 -7.33301 178 -22s109.333 -32 160 -52l145.5 -60
c46.333 -20 91.166 -35.333 134.499 -46c1.33301 1.33301 2.66602 2.5 3.99902 3.5s2.66602 2.5 3.99902 4.5c36 39.333 71.167 68.333 105.5 87s64.833 28 91.5 28c23.333 0 42.166 -7.33301 56.499 -22s21.5 -31.334 21.5 -50.001c0 -17.333 -5 -32.333 -15 -45
s-23.5 -23.334 -40.5 -32.001s-37.167 -15 -60.5 -19s-48.333 -6 -75 -6c-13.333 0 -26.666 0.166992 -39.999 0.5s-26.666 1.5 -39.999 3.5c-43.333 -48 -86.833 -102 -130.5 -162l-132.5 -189.5l-135 -204l-137 -205.5l-138 -194c-46 -62 -92 -118.333 -138 -169
c42.667 -11.333 89.334 -26.333 140.001 -45s103 -36.834 157 -54.501s108.833 -32.834 164.5 -45.501s110.167 -19 163.5 -19c48 0 91.5 6.33301 130.5 19s72.333 30.667 100 54s49 51.833 64 85.5s22.5 71.5 22.5 113.5c0 18 -2.33301 36.167 -7 54.5
s-11.5 35.833 -20.5 52.5s-19.667 32.334 -32 47.001s-26.5 27 -42.5 37l20 28c25.333 -16.667 48 -34.334 68 -53.001s37 -39 51 -61s24.667 -46.167 32 -72.5s11 -55.5 11 -87.5c0 -39.333 -7.5 -78 -22.5 -116s-38.5 -72 -70.5 -102s-72.833 -54.167 -122.5 -72.5
s-109.5 -27.5 -179.5 -27.5zM1200 1270c8.66699 -1.33301 17 -1.99902 25 -1.99902h24c52 0 89.667 6.66699 113 20s35 27.666 35 42.999c0 8.66699 -3.33301 16 -10 22s-17 9 -31 9c-16.667 0 -39 -7.33301 -67 -22s-55.667 -36 -83 -64zM274.002 82.002
c-12 4 -22 5.99805 -30 5.99805c-20.667 0 -38.667 -2.16699 -54 -6.5s-28.166 -9.66602 -38.499 -15.999s-18 -13.166 -23 -20.499s-7.5 -14 -7.5 -20c0 -6.66699 2.66699 -12.167 8 -16.5s13.666 -6.5 24.999 -6.5c20.667 0 40 6.83301 58 20.5s37.333 32.167 58 55.5z
" />
    <glyph glyph-name="bracketleft" unicode="[" horiz-adv-x="590" 
d="M467 -244l-2 -39l-315 17l-17 1718l332 8v-39l-223 -8l16 -1644z" />
    <glyph glyph-name="backslash" unicode="\" horiz-adv-x="717" 
d="M680 -55l-322 661l-354 735l37 17l339.5 -698l336.5 -699z" />
    <glyph glyph-name="bracketright" unicode="]" horiz-adv-x="590" 
d="M164 1421l2 39l315 -16l17 -1718l-332 -9l-2 39l225 6l-16 1647z" />
    <glyph glyph-name="asciicircum" unicode="^" horiz-adv-x="512" 
d="M416 940l-135 266l-138 -266h-41l156 340h45l156 -340h-43z" />
    <glyph glyph-name="underscore" unicode="_" 
d="M0 -246v76h614v-76h-614z" />
    <glyph glyph-name="grave" unicode="`" 
d="M217 1042l219 -180l-18 -24l-240 145z" />
    <glyph glyph-name="a" unicode="a" horiz-adv-x="731" 
d="M864 479c-27.333 -74 -52.165 -135.996 -74.498 -185.996s-44 -90.333 -65 -121s-41.833 -52.667 -62.5 -66s-43.334 -20 -68.001 -20c-30 0 -55.667 10.5 -77 31.5s-34.666 53.5 -39.999 97.5c-21.333 -46 -49 -83.5 -83 -112.5s-76.667 -43.5 -128 -43.5
c-27.333 0 -53.5 5 -78.5 15s-47.167 25.5 -66.5 46.5s-34.833 47.5 -46.5 79.5s-17.5 69.667 -17.5 113c0 44 5.5 85.333 16.5 124s25.5 74.167 43.5 106.5s38.833 61.166 62.5 86.499s48.167 46.666 73.5 63.999s50.666 30.666 75.999 39.999s48.666 14 69.999 14
c18.667 0 36.667 -2.33301 54 -7s32.833 -12.167 46.5 -22.5s24.667 -24.166 33 -41.499s12.5 -39 12.5 -65c0 -30.667 -5.83301 -57.334 -17.5 -80.001s-25.667 -41.667 -42 -57s-33 -27.666 -50 -36.999s-30.5 -16 -40.5 -20l-12 39c2 0 9.5 2.66699 22.5 8
s26.667 14.166 41 26.499s27.5 28.166 39.5 47.499s18 43 18 71c0 32 -9 56.5 -27 73.5s-41 25.5 -69 25.5c-21.333 0 -46.333 -7.66699 -75 -23s-56.167 -39.333 -82.5 -72s-48.666 -74 -66.999 -124s-27.5 -109.667 -27.5 -179c0 -68.667 12.167 -121 36.5 -157
s57.166 -54 98.499 -54c20.667 0 40.5 5.83301 59.5 17.5s36.5 27.167 52.5 46.5s30.333 41.833 43 67.5s23.667 52.167 33 79.5c0 21.333 2.5 46.5 7.5 75.5s12.833 58.5 23.5 88.5l61 -20c-3.33301 -8.66699 -6.66602 -20 -9.99902 -34s-6.5 -29.333 -9.5 -46
s-5.5 -33.834 -7.5 -51.501s-3 -34.834 -3 -51.501c0 -52 5.16699 -87.833 15.5 -107.5s28.166 -29.5 53.499 -29.5c14.667 0 29.167 5.33301 43.5 16s29.833 29.334 46.5 56.001s35 62.834 55 108.501s43.333 103.5 70 173.5z" />
    <glyph glyph-name="b" unicode="b" horiz-adv-x="760" 
d="M385 61c23.333 0 44.834 5.66504 64.501 16.998s37.167 26.333 52.5 45c-28 8 -54.167 20.5 -78.5 37.5s-45.833 38.167 -64.5 63.5s-33.334 54.5 -44.001 87.5s-16 69.167 -16 108.5c0 31.333 4 60 12 86s19.333 48.167 34 66.5s32 32.666 52 42.999s42 15.5 66 15.5
c18 0 37 -4 57 -12s38.333 -21.5 55 -40.5s30.5 -44 41.5 -75s16.5 -69.833 16.5 -116.5c0 -37.333 -5.16699 -76.166 -15.5 -116.499s-25.166 -78.5 -44.499 -114.5h7c34 0 63.667 7.83301 89 23.5s48.166 37.834 68.499 66.501s39.666 63.5 57.999 104.5
s37.833 87.167 58.5 138.5l39 -10c-22.667 -60 -44.667 -112.667 -66 -158s-44.333 -83.166 -69 -113.499s-52.167 -53.333 -82.5 -69s-65.833 -23.5 -106.5 -23.5h-20c-22.667 -32 -49.167 -57.833 -79.5 -77.5s-64.5 -29.5 -102.5 -29.5
c-49.333 0 -91.833 11.5 -127.5 34.5s-65.167 56.5 -88.5 100.5s-40.666 97.667 -51.999 161s-17 135.333 -17 216c0 134.667 7.16699 251.667 21.5 351s33.5 181.5 57.5 246.5s52 113 84 144s65.667 46.167 101 45.5c25.333 -1.33301 44.666 -12.833 57.999 -34.5
s20 -53.167 20 -94.5c0 -44.667 -6.33301 -94 -19 -148s-30.334 -112.167 -53.001 -174.5s-49.667 -128.5 -81 -198.5s-65.666 -143 -102.999 -219c1.33301 -27.333 3.83301 -55.5 7.5 -84.5s9 -57.5 16 -85.5s15.833 -54.5 26.5 -79.5s23.834 -47 39.501 -66s34 -34 55 -45
s45.167 -16.5 72.5 -16.5zM334.001 1266c-24 0 -44.832 -10.502 -62.499 -31.502s-32.667 -49.667 -45 -86s-22.5 -78.666 -30.5 -126.999s-14.167 -99.666 -18.5 -153.999s-7.33301 -110.5 -9 -168.5s-2.5 -114.333 -2.5 -169c32 67.333 61.167 132.5 87.5 195.5
s49.166 122.333 68.499 178s34.333 106.834 45 153.501s16 87.667 16 123c0 10 -0.5 20 -1.5 30s-3.33301 19.167 -7 27.5s-8.66699 15.166 -15 20.499s-14.833 8 -25.5 8zM371.002 429.996c0 -32 3.83301 -62.501 11.5 -91.501s18.334 -55.167 32.001 -78.5
s30.167 -43.5 49.5 -60.5s40.666 -29.5 63.999 -37.5c10.667 18 20 36.833 28 56.5s14.667 39.334 20 59.001s9.33301 38.667 12 57s4 34.5 4 48.5c0 32 -3.5 60.833 -10.5 86.5s-16.333 47.5 -28 65.5s-25.167 31.667 -40.5 41s-31.333 14 -48 14
c-15.333 0 -28.833 -4.33301 -40.5 -13s-21.5 -20.5 -29.5 -35.5s-14 -32.167 -18 -51.5s-6 -39.333 -6 -60z" />
    <glyph glyph-name="c" unicode="c" horiz-adv-x="655" 
d="M334 520c0 40 9.50195 74.6689 28.502 104.002s43.5 57.666 73.5 84.999c-9.33301 6 -19.333 10.5 -30 13.5s-21 4.5 -31 4.5c-22 0 -45.5 -5.5 -70.5 -16.5s-48 -29.5 -69 -55.5s-38.5 -60.833 -52.5 -104.5s-21 -98.167 -21 -163.5c0 -54 6.5 -100.333 19.5 -139
s30.833 -70.5 53.5 -95.5s49 -43.333 79 -55s62 -17.5 96 -17.5c40.667 0 77 10.5 109 31.5s61.333 50 88 87s51.5 80.333 74.5 130s45.833 103.167 68.5 160.5l38 -10l-41.5 -101c-14.333 -34.667 -30 -68.834 -47 -102.501s-35.667 -65.5 -56 -95.5
s-43.666 -56.333 -69.999 -79s-55.833 -40.667 -88.5 -54s-69.334 -20 -110.001 -20c-41.333 0 -80.5 6.83301 -117.5 20.5s-69.5 34.334 -97.5 62.001s-50.333 62.5 -67 104.5s-25 91.333 -25 148c0 57.333 9.5 110.666 28.5 159.999s43.167 92 72.5 128
s61.666 64.333 96.999 85s69 31 101 31c37.333 0 70.666 -9.66699 99.999 -29c5.33301 4 10.5 8.16699 15.5 12.5s10.167 9.16602 15.5 14.499l22 -31c-4 -4 -8 -7.66699 -12 -11s-8 -7 -12 -11c12 -14.667 21.833 -32 29.5 -52s11.5 -42.333 11.5 -67
c0 -27.333 -3.16699 -51.5 -9.5 -72.5s-15 -38.833 -26 -53.5s-23.5 -25.667 -37.5 -33s-28.667 -11 -44 -11c-8 0 -17 1.83301 -27 5.5s-19.333 9.33398 -28 17.001s-16 17.667 -22 30s-9 27.5 -9 45.5zM496.002 592.002c0 19.333 -2.83203 36.666 -8.49902 51.999
s-13.167 28.666 -22.5 39.999c-24.667 -21.333 -45.834 -45.166 -63.501 -71.499s-26.5 -57.166 -26.5 -92.499c0 -18.667 4.66699 -33.167 14 -43.5s20.333 -15.5 33 -15.5c14.667 0 26.834 4.66699 36.501 14s17.167 20.833 22.5 34.5s9.16602 28 11.499 43
s3.5 28.167 3.5 39.5z" />
    <glyph glyph-name="d" unicode="d" horiz-adv-x="834" 
d="M391 709c29.333 0 54.4941 -3.83203 75.4941 -11.499s38.167 -15.5 51.5 -23.5c4.66699 87.333 12.334 164.833 23.001 232.5s23.167 126.667 37.5 177s29.833 92.666 46.5 126.999s33.667 62 51 83s34.166 36 50.499 45s31.5 13.5 45.5 13.5
c30 0 52.833 -12.667 68.5 -38s23.5 -62.666 23.5 -111.999c0 -26 -2.83301 -59.167 -8.5 -99.5s-14 -85.333 -25 -135s-24.333 -102.834 -40 -159.501s-33.667 -113.667 -54 -171s-42.5 -114 -66.5 -170s-50 -108.667 -78 -158c2.66699 -38 6.83398 -68.667 12.501 -92
s12.834 -41.5 21.501 -54.5s18.667 -21.833 30 -26.5s24 -7 38 -7c19.333 0 38 6.5 56 19.5s36.333 33.833 55 62.5s38 65.834 58 111.501s41.667 101.167 65 166.5l39 -10l-58 -149.5c-19.333 -48.333 -40.166 -91.333 -62.499 -129s-46.833 -67.834 -73.5 -90.501
s-57 -34 -91 -34c-42 0 -74.667 12.5 -98 37.5s-40.666 59.5 -51.999 103.5c-38.667 -56.667 -80.167 -101.834 -124.5 -135.501s-90.833 -50.5 -139.5 -50.5c-27.333 0 -53.666 5.16699 -78.999 15.5s-47.666 26.333 -66.999 48s-35 49.334 -47 83.001
s-18 74.167 -18 121.5c0 49.333 7.83301 98.333 23.5 147s38 92.5 67 131.5s64 70.667 105 95s87.167 36.5 138.5 36.5zM302.994 88.001c37.333 0 74.832 16.4951 112.499 49.4951s73.834 76.5 108.501 130.5c-4 31.333 -6.66699 64.666 -8 99.999s-2 73 -2 113v75.5
c0 25 0.666992 49.167 2 72.5c-3.33301 2.66699 -8.16602 6.33398 -14.499 11.001s-14.333 9.33398 -24 14.001s-20.667 8.5 -33 11.5s-26.166 4.5 -41.499 4.5c-22.667 0 -48.334 -6.33301 -77.001 -19s-55.834 -33.167 -81.501 -61.5s-47.167 -65.166 -64.5 -110.499
s-26 -100.666 -26 -165.999c0 -31.333 3.5 -60.666 10.5 -87.999s17 -51.166 30 -71.499s28.667 -36.333 47 -48s38.833 -17.5 61.5 -17.5zM824.993 1202c0 10 -0.503906 21.3301 -1.50391 33.9971s-3.16699 24.5 -6.5 35.5s-8.16602 20.333 -14.499 28
s-15.166 11.5 -26.499 11.5c-27.333 0 -52.5 -22.667 -75.5 -68s-42.833 -107.833 -59.5 -187.5s-29.667 -173.167 -39 -280.5s-14 -223 -14 -347v-45c22.667 44.667 44.334 92.334 65.001 143.001s39.834 101.667 57.501 153s33.5 102.333 47.5 153s26 98.834 36 144.501
s17.667 87.834 23 126.501s8 71.667 8 99z" />
    <glyph glyph-name="e" unicode="e" horiz-adv-x="573" 
d="M313 14c-34 0 -66.6641 5.99219 -97.9971 17.9922s-58.833 30.167 -82.5 54.5s-42.5 54.833 -56.5 91.5s-21 79.667 -21 129c0 60 8.66699 113.5 26 160.5s39.5 86.667 66.5 119s57.167 57 90.5 74s66 25.5 98 25.5c41.333 0 74.166 -13.667 98.499 -41
s36.5 -62.666 36.5 -105.999c0 -37.333 -7 -71.166 -21 -101.499s-32.5 -56.333 -55.5 -78s-49.333 -38.5 -79 -50.5s-60.5 -18 -92.5 -18c-15.333 0 -29.833 0.833008 -43.5 2.5s-25.834 3.5 -36.501 5.5c4 -41.333 12 -77 24 -107s27 -54.667 45 -74
s38.167 -33.666 60.5 -42.999s45.5 -14 69.5 -14c30 0 57.667 7.33301 83 22s48.666 33.834 69.999 57.501s40.833 50.834 58.5 81.501s33.5 61.834 47.5 93.501s26.5 62.667 37.5 93l29.5 80.5l39 -10l-30.5 -80c-11.667 -31.333 -25.167 -64.166 -40.5 -98.499
s-33.333 -68.666 -54 -102.999s-44 -65 -70 -92s-55.5 -49 -88.5 -66s-69.833 -25.5 -110.5 -25.5zM338.003 646.992c-24.667 0 -48.833 -7.83301 -72.5 -23.5s-44.834 -37.167 -63.501 -64.5s-33.834 -59.666 -45.501 -96.999s-17.5 -77.333 -17.5 -120
c8.66699 -3.33301 20.834 -6.16602 36.501 -8.49902s34.834 -3.5 57.501 -3.5c24 0 47.833 5.16699 71.5 15.5s45 24.666 64 42.999s34.333 40.166 46 65.499s17.5 53 17.5 83c0 14.667 -2 28.667 -6 42s-10 25 -18 35s-17.833 18 -29.5 24s-25.167 9 -40.5 9z" />
    <glyph glyph-name="f" unicode="f" horiz-adv-x="477" 
d="M485 1227c0 -50.667 -9.16992 -104.674 -27.5029 -162.007s-42.166 -116.666 -71.499 -177.999s-62.5 -123.833 -99.5 -187.5l-110.5 -189.5c-7.33301 -62 -14.166 -123.667 -20.499 -185s-11.666 -119.5 -15.999 -174.5s-7.83301 -105.5 -10.5 -151.5
s-4 -84.667 -4 -116c0 -64 3.16699 -121.5 9.5 -172.5s16 -94.333 29 -130s29 -63 48 -82s41.5 -28.5 67.5 -28.5c14.667 0 27 4.66699 37 14s18.333 21.333 25 36s11.667 31.334 15 50.001s5.83301 37.334 7.5 56.001s2.66699 36.334 3 53.001s0.5 30.667 0.5 42
c0 74.667 -5 145.834 -15 213.501s-22.333 125.834 -37 174.501h-8c-16 0 -31.167 2.16699 -45.5 6.5s-27.166 10.5 -38.499 18.5s-20.333 17.333 -27 28s-10 22.334 -10 35.001c0 18 5.5 33.333 16.5 46s24.833 19 41.5 19c20.667 0 40.334 -9.83301 59.001 -29.5
s35.667 -45.834 51 -78.501c26.667 10.667 51.167 29.334 73.5 56.001s42.5 56.5 60.5 89.5s33.833 66.5 47.5 100.5l35.5 89l39 -10l-38 -97.5c-14.667 -36.333 -31.667 -71.666 -51 -105.999s-41.5 -65.666 -66.5 -93.999s-53.5 -48.5 -85.5 -60.5
c10.667 -28 20.334 -58.167 29.001 -90.5s16.167 -65.5 22.5 -99.5s11.166 -68 14.499 -102s5 -67 5 -99c0 -42.667 -3.5 -82.334 -10.5 -119.001s-17.333 -68.5 -31 -95.5s-30.667 -48.167 -51 -63.5s-44.166 -23 -71.499 -23c-36.667 0 -67.834 8.83301 -93.501 26.5
s-47.167 41.167 -64.5 70.5s-31 62.5 -41 99.5s-17.5 74.833 -22.5 113.5s-8.16699 76.5 -9.5 113.5s-2 69.833 -2 98.5c0 66 3 140 9 222s14 166 24 252s21.167 171.167 33.5 255.5s24.666 162.333 36.999 234s24.166 134.167 35.499 187.5s21 91.666 29 114.999
c5.33301 16.667 12.5 33.667 21.5 51s19.833 33 32.5 47s27.167 25.333 43.5 34s35.166 13 56.499 13c36.667 0 65.834 -12 87.501 -36s32.5 -57 32.5 -99zM259.997 1144.99c-3.33301 -17.333 -7.83203 -43.501 -13.499 -78.501s-11.667 -76.333 -18 -124l-20.5 -158
l-22 -178.5l102 179.5c31.333 57 58.5 111.333 81.5 163s41.167 100.334 54.5 146.001s20 89.167 20 130.5c0 26.667 -5.83301 49.667 -17.5 69s-30.834 29 -57.501 29c-19.333 0 -35.5 -6.66699 -48.5 -20s-23.5 -29.333 -31.5 -48s-14.167 -38.167 -18.5 -58.5
s-7.83301 -37.5 -10.5 -51.5zM226.998 198.992c0 -12.667 7.83105 -24.499 23.498 -35.499s33.834 -17.167 54.501 -18.5c-9.33301 25.333 -18.833 44.666 -28.5 57.999s-19.167 20 -28.5 20c-5.33301 0 -10.166 -2 -14.499 -6s-6.5 -10 -6.5 -18z" />
    <glyph glyph-name="g" unicode="g" horiz-adv-x="686" 
d="M268 -473c-38.667 0 -72.835 5.66992 -102.502 17.0029s-54.5 26.833 -74.5 46.5s-35 43 -45 70s-15 56.167 -15 87.5c0 28 5 54.333 15 79s23.5 46 40.5 64s36.667 32.167 59 42.5s45.5 15.5 69.5 15.5c23.333 0 46.166 -6.5 68.499 -19.5s43.833 -31.167 64.5 -54.5
l-33 -25c-15.333 19.333 -31.833 33.833 -49.5 43.5s-35.167 14.5 -52.5 14.5c-19.333 0 -37.5 -4.16699 -54.5 -12.5s-32.167 -19.5 -45.5 -33.5s-23.833 -30.333 -31.5 -49s-11.5 -38.334 -11.5 -59.001c0 -26.667 4 -51.334 12 -74.001s20.333 -42.5 37 -59.5
s37.334 -30.333 62.001 -40s53.667 -14.5 87 -14.5c46 0 85 10.833 117 32.5s58 49.834 78 84.501s34.5 73.834 43.5 117.501s13.5 87.5 13.5 131.5v156v76c-28.667 -39.333 -64.5 -71.333 -107.5 -96s-93.833 -37 -152.5 -37c-25.333 0 -50.666 4.16699 -75.999 12.5
s-48.166 22.5 -68.499 42.5s-36.833 47 -49.5 81s-19 76.667 -19 128c0 35.333 4.83301 70.833 14.5 106.5s23.167 70.167 40.5 103.5s38 64.666 62 93.999s50.333 54.833 79 76.5s59.167 38.667 91.5 51s65.5 18.5 99.5 18.5c21.333 0 40.5 -3.33301 57.5 -10
s32 -15.334 45 -26.001s24.333 -22.5 34 -35.5s17.5 -25.833 23.5 -38.5c9.33301 26.667 17.833 48.834 25.5 66.501s14.167 31.5 19.5 41.5l37 -18c-2 -4 -7.16699 -17.667 -15.5 -41s-17.166 -56 -26.499 -98s-17.666 -93 -24.999 -153s-11 -128.667 -11 -206
c0 -17.333 0.166992 -36.333 0.5 -57s0.5 -41.667 0.5 -63s0.166992 -42.333 0.5 -63s0.5 -39.334 0.5 -56.001c0 -92 -10 -167.833 -30 -227.5s-45.833 -106.834 -77.5 -141.501s-67.334 -58.667 -107.001 -72s-78.834 -20 -117.501 -20zM325.999 92.0029
c22.667 0 43.8369 3.66504 63.5039 10.998s37.667 17.166 54 29.499s31.333 27 45 44s25.5 35.167 35.5 54.5c4 78.667 11.167 146.834 21.5 204.501s21.166 107.167 32.499 148.5c-4.66699 16 -11 31.333 -19 46s-17.833 27.667 -29.5 39s-25.334 20.5 -41.001 27.5
s-33.834 10.5 -54.501 10.5c-25.333 0 -55 -8.16699 -89 -24.5s-66.333 -41 -97 -74s-56.5 -74.167 -77.5 -123.5s-31.5 -106.666 -31.5 -171.999c0 -32 3.66699 -61.667 11 -89s18.666 -50.666 33.999 -69.999s34.833 -34.5 58.5 -45.5s51.5 -16.5 83.5 -16.5z" />
    <glyph glyph-name="h" unicode="h" horiz-adv-x="758" 
d="M426 1128c0 -42 -7.16602 -89.002 -21.499 -141.002s-33.833 -108.667 -58.5 -170s-53.5 -127.166 -86.5 -197.499l-105.5 -222.5c-3.33301 -32 -6.16602 -64.167 -8.49902 -96.5s-4.5 -64.833 -6.5 -97.5c8.66699 22 19.5 47.5 32.5 76.5s27.667 59 44 90
s34.166 61.5 53.499 91.5s39.833 56.833 61.5 80.5s44.667 42.834 69 57.501s49.5 22 75.5 22c18 0 34.333 -3.33301 49 -10s27.167 -16 37.5 -28s18.333 -26 24 -42s8.5 -33.333 8.5 -52c0 -24 -3.16699 -49.833 -9.5 -77.5s-13.5 -55.834 -21.5 -84.501
s-15.167 -57.334 -21.5 -86.001s-9.5 -55.667 -9.5 -81c0 -20.667 5 -38.167 15 -52.5s28.333 -21.5 55 -21.5c18.667 0 37 7.66699 55 23s35.333 35.166 52 59.499s32.167 51.666 46.5 81.999s27.666 60.5 39.999 90.5s23.333 58.167 33 84.5l23.5 63.5l39 -10l-35 -95
c-12 -33.333 -24.833 -66.5 -38.5 -99.5s-28.5 -64.5 -44.5 -94.5s-33.5 -56.5 -52.5 -79.5s-39.833 -41.333 -62.5 -55s-48 -20.5 -76 -20.5c-25.333 0 -46.333 3.66699 -63 11s-29.834 17.333 -39.501 30s-16.5 27.834 -20.5 45.501s-6 37.167 -6 58.5
c0 22.667 3.33301 48.5 10 77.5s14.167 59 22.5 90s15.833 62 22.5 93s10 59.5 10 85.5c0 14.667 -3.5 27.667 -10.5 39s-19.167 17 -36.5 17c-27.333 0 -53.666 -9.83301 -78.999 -29.5s-49.333 -45.167 -72 -76.5s-44 -66.666 -64 -105.999s-38.333 -78.5 -55 -117.5
s-31.5 -76.167 -44.5 -111.5l-33.5 -88l-39 6c0 3.33301 -0.166992 7.83301 -0.5 13.5s-0.5 13.5 -0.5 23.5s-0.166992 22.5 -0.5 37.5s-0.5 33.167 -0.5 54.5c0 62.667 1.66699 145.334 5 248.001s11.333 225.667 24 369c5.33301 70 13.333 129.833 24 179.5
s22.667 91.334 36 125.001s27.5 60.5 42.5 80.5s29.5 35.167 43.5 45.5s27 17 39 20s22 4.5 30 4.5c30.667 0 55 -12 73 -36s27 -56 27 -96zM328.001 1219c-17.333 0 -32.835 -8.5 -46.502 -25.5s-26 -41 -37 -72s-20.5 -68.167 -28.5 -111.5s-15.333 -91.5 -22 -144.5
s-12.5 -110 -17.5 -171s-9.83301 -124.5 -14.5 -190.5c31.333 60 60.5 119.5 87.5 178.5s50.5 115.5 70.5 169.5s35.833 104.5 47.5 151.5s17.5 88.5 17.5 124.5c0 10.667 -0.833008 21.5 -2.5 32.5s-4.66699 20.833 -9 29.5s-10.166 15.667 -17.499 21s-16.666 8 -27.999 8
z" />
    <glyph glyph-name="i" unicode="i" horiz-adv-x="371" 
d="M209 104c-42 0 -76.834 17 -104.501 51s-41.5 85.333 -41.5 154c0 45.333 9.16699 103.166 27.5 173.499s50.166 149.833 95.499 238.5l37 -10c-4 -17.333 -10.5 -41 -19.5 -71s-18 -63.5 -27 -100.5s-16.833 -75.667 -23.5 -116s-10 -79.166 -10 -116.499
c0 -31.333 2.33301 -56.833 7 -76.5s10.834 -35 18.501 -46s16.667 -18.5 27 -22.5s21.5 -6 33.5 -6c19.333 0 37.666 6 54.999 18s33.833 27.833 49.5 47.5s30.334 41.667 44.001 66s26 48.833 37 73.5s20.833 48.167 29.5 70.5s15.667 41.5 21 57.5l39 -10l-25.5 -69.5
c-9.66699 -26.333 -20.667 -53.5 -33 -81.5s-26.166 -55.333 -41.499 -82s-32.666 -50.5 -51.999 -71.5s-40.833 -38 -64.5 -51s-49.834 -19.5 -78.501 -19.5zM370.999 1036c0 -23.333 -8.99902 -41.334 -26.999 -54.001s-40.667 -19 -68 -19
c-14 0 -27.167 2.16699 -39.5 6.5s-23 10 -32 17s-16 15.333 -21 25s-7.5 19.834 -7.5 30.501c0 22.667 8.83301 41 26.5 55s38.167 21 61.5 21c16.667 0 31.667 -2.5 45 -7.5s24.666 -11.5 33.999 -19.5s16.333 -16.833 21 -26.5s7 -19.167 7 -28.5zM317 1036
c0 6.66699 -2.83301 12.833 -8.5 18.5s-14.167 8.5 -25.5 8.5c-20.667 0 -31 -7.66699 -31 -23c0 -7.33301 3.16699 -13.5 9.5 -18.5s14.833 -7.5 25.5 -7.5c10 0 17.5 2.16699 22.5 6.5s7.5 9.5 7.5 15.5z" />
    <glyph glyph-name="j" unicode="j" horiz-adv-x="348" 
d="M190 696c-1.33301 -10.667 -4.83008 -33.834 -10.4971 -69.501s-11.834 -83.5 -18.501 -143.5s-13.5 -132.167 -20.5 -216.5s-12.833 -180.833 -17.5 -289.5c30 30 60 64.167 90 102.5s59 79.333 87 123s54.167 89.667 78.5 138s45.5 97.833 63.5 148.5l39 -10
c-21.333 -57.333 -45.833 -113.166 -73.5 -167.499s-57.334 -106 -89.001 -155s-64.5 -94.5 -98.5 -136.5s-67.667 -79.333 -101 -112v-41c-3.33301 -90 -14 -166.5 -32 -229.5s-39.5 -114.333 -64.5 -154s-52 -68.667 -81 -87s-55.833 -27.5 -80.5 -27.5
c-20.667 0 -40.167 3.66699 -58.5 11s-34.5 17.666 -48.5 30.999s-25 29.666 -33 48.999s-12 41 -12 65c0 42 7.33301 79.5 22 112.5s34.5 62.833 59.5 89.5s54 51 87 73s67.833 43 104.5 63c7.33301 4 14.5 8.33301 21.5 13l21.5 15c4 86.667 8.5 162 13.5 226
s10.5 120.167 16.5 168.5s12.667 90.833 20 127.5s15.166 70.834 23.499 102.501s17 62.834 26 93.501l29.5 100zM0.00292969 -395c7.33301 25.333 12.665 55.333 15.998 90s5.66602 73 6.99902 115v14l-20.5 -14.5l-18.5 -12.5
c-33.333 -19.333 -63.666 -39.5 -90.999 -60.5s-50.666 -43.333 -69.999 -67s-34.333 -49 -45 -76s-16 -56.167 -16 -87.5c0 -12 2.16699 -23.667 6.5 -35s10.333 -21.5 18 -30.5s16.834 -16.333 27.501 -22s22.667 -8.5 36 -8.5c29.333 0 56.833 16 82.5 48
s48.167 81 67.5 147zM332.002 1036c0 -23.333 -8.99902 -41.334 -26.999 -54.001s-40.333 -19 -67 -19c-14.667 0 -28.167 2.16699 -40.5 6.5s-23 10 -32 17s-16 15.333 -21 25s-7.5 19.834 -7.5 30.501c0 22.667 8.83301 41 26.5 55s38.167 21 61.5 21
c16.667 0 31.667 -2.5 45 -7.5s24.666 -11.5 33.999 -19.5s16.333 -16.833 21 -26.5s7 -19.167 7 -28.5zM279.003 1036c0 6.66699 -3 12.833 -9 18.5s-14.667 8.5 -26 8.5c-20.667 0 -31 -7.66699 -31 -23c0 -7.33301 3.16699 -13.5 9.5 -18.5s14.833 -7.5 25.5 -7.5
c10 0 17.667 2.16699 23 6.5s8 9.5 8 15.5z" />
    <glyph glyph-name="k" unicode="k" horiz-adv-x="729" 
d="M444 1229c0 -47.333 -8.5 -99.4941 -25.5 -156.494s-39 -117.833 -66 -182.5s-57.333 -132 -91 -202l-99.5 -215c-4 -49.333 -8.16699 -96 -12.5 -140l-12.5 -122l34.5 81.5c13 31 27.5 62.833 43.5 95.5s33.5 64.834 52.5 96.501s39.333 60 61 85s44.667 45.167 69 60.5
s50.166 23 77.499 23c18.667 0 36.5 -4 53.5 -12s31.833 -18.833 44.5 -32.5s22.667 -29.5 30 -47.5s11 -37 11 -57c0 -33.333 -7.66699 -62.833 -23 -88.5s-34.833 -47.834 -58.5 -66.501s-50.167 -34.334 -79.5 -47.001s-58 -22.667 -86 -30
c2.66699 -12.667 8.33398 -27.667 17.001 -45s20.167 -33.833 34.5 -49.5s31.5 -29 51.5 -40s42.333 -16.5 67 -16.5c52 0 101 30.5 147 91.5s91.667 153.167 137 276.5l39 -10c-22 -60 -44.667 -115.167 -68 -165.5s-48.5 -93.833 -75.5 -130.5
s-56.167 -65.334 -87.5 -86.001s-65.666 -31 -102.999 -31c-14.667 0 -31.5 2 -50.5 6s-38.667 12.5 -59 25.5s-40.5 31.5 -60.5 55.5s-38.333 56.333 -55 97c-2 4 -3.83301 9 -5.5 15s-2.5 10.667 -2.5 14c0 12.667 3 21.5 9 26.5s13.5 8.5 22.5 10.5s18.833 3.5 29.5 4.5
s21 3.5 31 7.5c49.333 19.333 85.833 47.166 109.5 83.499s35.5 77.5 35.5 123.5c0 29.333 -6.33301 49.833 -19 61.5s-27.334 17.5 -44.001 17.5c-13.333 0 -26.666 -3.5 -39.999 -10.5s-25.333 -15.5 -36 -25.5c-27.333 -27.333 -52.833 -59.166 -76.5 -95.499
s-45.334 -74 -65.001 -113s-37.334 -77.333 -53.001 -115s-29 -71.334 -40 -101.001s-19.333 -53.834 -25 -72.501l-8.5 -28l-39 6c-0.666992 7.33301 -1 16.333 -1 27c-0.666992 9.33301 -1 20.333 -1 33v45c0 38 0.666992 84.833 2 140.5s3.83301 118 7.5 187
s9 143.833 16 224.5s16.167 165 27.5 253c9.33301 72 21.5 132.667 36.5 182s31.833 89.166 50.5 119.499s38.334 52.166 59.001 65.499s41.667 20 63 20c17.333 0 32.333 -3.33301 45 -10s23 -15.834 31 -27.501s14 -25.167 18 -40.5s6 -31.666 6 -48.999zM354 1315.01
c-16.667 0 -31.8311 -9.66602 -45.498 -28.999s-26.167 -46 -37.5 -80s-21.833 -73.833 -31.5 -119.5s-18.334 -95 -26.001 -148s-14.834 -108.333 -21.501 -166s-12.667 -115.167 -18 -172.5l51 109l52.5 116l49 116.5c15.667 38.333 29.334 75.166 41.001 110.499
s21 68 28 98s10.5 56.333 10.5 79c0 8 -0.5 17 -1.5 27s-3.33301 19.333 -7 28s-8.83398 16 -15.501 22s-16 9 -28 9z" />
    <glyph glyph-name="l" unicode="l" horiz-adv-x="430" 
d="M440 1260c0 -42 -4.83398 -86.668 -14.501 -134.001s-22.334 -95.333 -38.001 -144s-33.667 -97.667 -54 -147s-40.833 -96.666 -61.5 -141.999l-61 -129l-53 -109c2.66699 -54.667 7.33398 -104 14.001 -148s15 -81.5 25 -112.5s22 -54.833 36 -71.5s30 -25 48 -25
c20 0 39.833 9.33301 59.5 28s39.5 45 59.5 79s40.333 75 61 123s41.667 101.667 63 161l39 -10c-16 -46 -34 -94.5 -54 -145.5s-42.333 -97.833 -67 -140.5s-51.5 -78 -80.5 -106s-60.167 -42 -93.5 -42s-61.333 10.333 -84 31s-41.334 47.834 -56.001 81.501
s-26 72 -34 115s-14 86.833 -18 131.5s-6.33301 88.167 -7 130.5s-1 79.833 -1 112.5c0 60.667 2.5 121 7.5 181s12.667 117.333 23 172s22.833 105.5 37.5 152.5s31.834 87.667 51.501 122s41.334 61.166 65.001 80.499s49.5 29 77.5 29c20 0 37 -3.33301 51 -10
s25.333 -15.667 34 -27s15 -24.5 19 -39.5s6 -30.833 6 -47.5zM151.999 683.999l-0.00195312 -74.501c0 -24.333 0.666992 -47.833 2 -70.5l53 109.5l55.5 123c18.333 42.333 35.833 85.166 52.5 128.499s31.334 85.833 44.001 127.5s22.834 81.334 30.501 119.001
s11.5 71.834 11.5 102.501c0 10 -0.833008 20.667 -2.5 32s-4.66699 21.833 -9 31.5s-10.5 17.667 -18.5 24s-18.333 9.5 -31 9.5c-25.333 0 -49.5 -16.5 -72.5 -49.5s-43 -78.833 -60 -137.5s-30.5 -128.5 -40.5 -209.5s-15 -169.5 -15 -265.5z" />
    <glyph glyph-name="m" unicode="m" horiz-adv-x="1141" 
d="M94 489c21.333 62.667 44.334 109.492 69.001 140.492s53.667 46.5 87 46.5c14.667 0 28.5 -3.33301 41.5 -10s24.5 -17.5 34.5 -32.5s17.833 -34.5 23.5 -58.5s8.5 -53.333 8.5 -88c30 76.667 60.333 131.334 91 164.001s64 49 100 49c13.333 0 26.833 -2.66699 40.5 -8
s26 -14.833 37 -28.5s20.167 -32.167 27.5 -55.5s11.333 -52.666 12 -87.999c18 35.333 40.5 64 67.5 86s56.833 33 89.5 33c16 0 32 -2.83301 48 -8.5s30.167 -15.167 42.5 -28.5s22.5 -30.833 30.5 -52.5s12 -48.5 12 -80.5c0 -9.33301 -0.666992 -21.5 -2 -36.5
s-3 -31.5 -5 -49.5l-6 -55c-2 -18.667 -4 -36.167 -6 -52.5s-3.66699 -30.666 -5 -42.999s-2 -20.833 -2 -25.5c0 -39.333 4.66699 -68 14 -86s26.333 -27 51 -27c18.667 0 37.667 11.167 57 33.5s39 51.833 59 88.5s40.333 78.667 61 126l63 147l39 -10l-60 -146
c-20.667 -51.333 -43.167 -98.666 -67.5 -141.999s-50.5 -79.166 -78.5 -107.499s-59 -42.5 -93 -42.5c-39.333 0 -69.333 11.667 -90 35s-31 62.333 -31 117c0 24 1.66699 49.5 5 76.5s7.16602 54 11.499 81s8.16602 53.333 11.499 79s5 49.167 5 70.5c0 12 -1 24 -3 36
s-5.5 22.833 -10.5 32.5s-11.667 17.334 -20 23.001s-19.166 8.5 -32.499 8.5c-16.667 0 -32.667 -8 -48 -24s-30 -37.333 -44 -64s-27 -57.167 -39 -91.5s-22.667 -69.666 -32 -105.999s-17.666 -72.333 -24.999 -108s-13 -68.167 -17 -97.5l-71 12l5 24.5
c3.33301 16.333 7.16602 37.333 11.499 63l14.5 87c5.33301 32.333 10.166 64.833 14.499 97.5s8 64 11 94s4.5 55.333 4.5 76c0 28 -5.33301 51 -16 69s-26.334 27 -47.001 27c-19.333 0 -37.833 -11 -55.5 -33s-34.167 -50.833 -49.5 -86.5s-29.666 -76 -42.999 -121
s-25.666 -90.333 -36.999 -136s-21.333 -89.5 -30 -131.5l-23 -108l-67 16c9.33301 46 17.666 92.667 24.999 140c6.66699 40.667 12.667 85.334 18 134.001s8 96 8 142c0 29.333 -0.666992 53.833 -2 73.5s-4 35.5 -8 47.5s-9.5 20.5 -16.5 25.5s-15.833 7.5 -26.5 7.5
c-16.667 0 -33.667 -12 -51 -36s-34.666 -62 -51.999 -114z" />
    <glyph glyph-name="n" unicode="n" horiz-adv-x="864" 
d="M94 489c10 26 20.833 50.834 32.5 74.501s24.167 44.5 37.5 62.5s27.833 32.5 43.5 43.5s33.167 16.5 52.5 16.5c9.33301 0 20 -2 32 -6s23.5 -12 34.5 -24s20.167 -29.333 27.5 -52s11 -52.667 11 -90c0 -19.333 -1 -40.666 -3 -63.999l-6 -69
c20.667 44 41.167 81.167 61.5 111.5s40.333 54.666 60 72.999s39.167 31.666 58.5 39.999s38.666 12.5 57.999 12.5c8.66699 0 18.834 -2 30.501 -6s22.667 -11 33 -21s19 -23.667 26 -41s10.5 -39.666 10.5 -66.999c0 -22 -1.66699 -44 -5 -66s-7 -43.333 -11 -64
l-11 -58.5c-3.33301 -18.333 -5 -34.5 -5 -48.5c0 -33.333 6 -58.833 18 -76.5s30.333 -26.5 55 -26.5c20 0 39 7.5 57 22.5s34.833 34.167 50.5 57.5s30 49 43 77s24.333 54.833 34 80.5s17.834 48.334 24.501 68.001l14 40.5l39 -10l-29.5 -77.5
c-10.333 -28.333 -21.833 -56.833 -34.5 -85.5s-26.334 -56.5 -41.001 -83.5s-31 -50.833 -49 -71.5s-37.5 -37.334 -58.5 -50.001s-44.167 -19 -69.5 -19c-21.333 0 -39.833 4.16699 -55.5 12.5s-28.834 19.5 -39.501 33.5s-18.667 30.667 -24 50s-8 40 -8 62
c0 24.667 2.16699 50 6.5 76s9 51 14 75l14 66.5c4.33301 20.333 6.5 37.166 6.5 50.499c0 20.667 -4 36.167 -12 46.5s-19 15.5 -33 15.5c-19.333 0 -38.166 -7 -56.499 -21s-36 -32.667 -53 -56s-33.167 -50 -48.5 -80s-29.5 -60.833 -42.5 -92.5s-25 -63.167 -36 -94.5
s-20.5 -59.666 -28.5 -84.999l-20.5 -64.5c-5.66699 -17.667 -9.5 -28.834 -11.5 -33.501l-58 10c8 39.333 15.333 80.833 22 124.5s12.5 86.667 17.5 129s9 82.833 12 121.5s4.5 73 4.5 103c0 40.667 -2.66699 68.167 -8 82.5s-15 21.5 -29 21.5
c-12 0 -23.333 -4.5 -34 -13.5s-20.5 -21 -29.5 -36s-17.833 -32.5 -26.5 -52.5s-17 -41.333 -25 -64z" />
    <glyph glyph-name="o" unicode="o" horiz-adv-x="690" 
d="M344 90c37.333 0 73.1689 13.668 107.502 41.001s61.166 67 80.499 119h-8c-41.333 0 -79.5 7 -114.5 21s-65.333 33.5 -91 58.5s-45.834 55 -60.501 90s-22 73.5 -22 115.5c0 23.333 3.16699 47 9.5 71s16.166 45.5 29.499 64.5s30.666 34.5 51.999 46.5
s46.666 18 75.999 18c24 0 47.667 -4.83301 71 -14.5s44.333 -26.167 63 -49.5s33.834 -54.833 45.501 -94.5s17.5 -89.834 17.5 -150.501c0 -22.667 -1 -45.167 -3 -67.5s-5.66699 -44.166 -11 -65.499c26 4.66699 49.167 13 69.5 25s38.333 26.5 54 43.5
s29.5 36.333 41.5 58s23 44.834 33 69.501l39 -10c-14 -38 -30.167 -70.333 -48.5 -97s-38 -49 -59 -67s-43 -31.833 -66 -41.5s-46.833 -16.167 -71.5 -19.5c-9.33301 -32.667 -21.666 -63.334 -36.999 -92.001s-34 -53.667 -56 -75s-47.5 -38.166 -76.5 -50.499
s-61.5 -18.5 -97.5 -18.5c-30 0 -60.167 6.16699 -90.5 18.5s-57.666 31.333 -81.999 57s-44 58 -59 97s-22.5 85.5 -22.5 139.5c0 35.333 4.16699 70 12.5 104s20 66.167 35 96.5s32.833 58.666 53.5 84.999s43 49.166 67 68.499l15 -25c-15.333 -14 -30 -31.333 -44 -52
s-26.667 -43.5 -38 -68.5s-20.333 -51.333 -27 -79s-10 -55.167 -10 -82.5c0 -54 6.83301 -99.333 20.5 -136s31.167 -66.167 52.5 -88.5s45.333 -38.333 72 -48s52.667 -14.5 78 -14.5zM401.003 696.001c-18 0 -34.668 -3.83496 -50.001 -11.502
s-28.666 -18.167 -39.999 -31.5s-20.333 -29.333 -27 -48s-10 -39.334 -10 -62.001c0 -39.333 6.66699 -74.666 20 -105.999s31.5 -58 54.5 -80s49.833 -38.833 80.5 -50.5s63.667 -17.5 99 -17.5h19c5.33301 20.667 9 42.334 11 65.001s3 47.334 3 74.001
c-1.33301 51.333 -6.5 94.166 -15.5 128.499s-20.5 61.833 -34.5 82.5s-30.5 35.334 -49.5 44.001s-39.167 13 -60.5 13z" />
    <glyph glyph-name="p" unicode="p" horiz-adv-x="768" 
d="M588 135c22 0 42.832 6.16699 62.499 18.5s38.334 28.666 56.001 48.999s34.334 43.333 50.001 69s30 51.667 43 78s24.667 51.666 35 75.999l27.5 63.5l39 -10l-29.5 -74c-11 -27.333 -23.667 -55.333 -38 -84s-30 -56.5 -47 -83.5s-35.833 -51.167 -56.5 -72.5
s-43 -38.5 -67 -51.5s-49.667 -19.5 -77 -19.5c-26.667 0 -53.334 5.66699 -80.001 17c-22.667 -17.333 -47.667 -31 -75 -41s-57.666 -15 -90.999 -15c-20.667 0 -37.334 2.66699 -50.001 8s-22.5 11.833 -29.5 19.5s-11.833 15.5 -14.5 23.5s-4 15 -4 21
c0 13.333 3 25.166 9 35.499s14 19.166 24 26.499s21.5 12.833 34.5 16.5s26.5 5.5 40.5 5.5c22.667 0 44.334 -4.16699 65.001 -12.5s40.667 -17.166 60 -26.499c15.333 19.333 29 41 41 65s22 48.833 30 74.5s14.167 51.167 18.5 76.5s6.5 49 6.5 71
c0 51.333 -8.5 88.333 -25.5 111s-37.167 34 -60.5 34c-26 0 -51.167 -8 -75.5 -24s-49 -41 -74 -75s-50.667 -77.167 -77 -129.5s-54.5 -114.833 -84.5 -187.5c-3.33301 -6 -6 -12.333 -8 -19s-4.66699 -13 -8 -19c6 -78.667 12.167 -154.167 18.5 -226.5
s9.5 -136.833 9.5 -193.5c0 -107.333 -12.333 -186.833 -37 -238.5s-62.667 -77.5 -114 -77.5c-20 0 -37.333 4.66699 -52 14s-26.834 22 -36.501 38s-16.834 34.833 -21.501 56.5s-7 44.834 -7 69.501c0 38.667 4.83301 81.334 14.5 128.001s22.5 95.167 38.5 145.5
s34.667 102.166 56 155.499s43.666 106.333 66.999 159c-6 66.667 -11.167 132.167 -15.5 196.5s-6.5 126.5 -6.5 186.5c0 52 3.66699 92.667 11 122s18.666 44 33.999 44c4.66699 0 10.834 -1.33301 18.501 -4s14.834 -6.83398 21.501 -12.501s12.5 -12.5 17.5 -20.5
s7.5 -17.333 7.5 -28c0 -27.333 -3.66699 -55.333 -11 -84s-17.333 -57.334 -30 -86.001c0 -31.333 0.5 -63.333 1.5 -96s2.5 -65.667 4.5 -99c29.333 61.333 58 113.833 86 157.5s56 79.334 84 107.001s55.833 47.834 83.5 60.501s55.834 19 84.501 19
c24.667 0 47 -5.33301 67 -16s37 -25.167 51 -43.5s24.833 -40.166 32.5 -65.499s11.5 -52.666 11.5 -81.999c0 -54 -8.66699 -107 -26 -159s-43.333 -96.667 -78 -134c12.667 -5.33301 27.667 -8 45 -8zM128.999 -340c0 58.667 -2.00098 119.168 -6.00098 181.501
s-8.66699 124.833 -14 187.5c-39.333 -95.333 -71.5 -181.333 -96.5 -258s-37.5 -146.334 -37.5 -209.001c0 -30 5.66699 -55.667 17 -77s28.333 -32 51 -32c12 0 23.167 3.33301 33.5 10s19.333 18 27 34s13.834 37.333 18.501 64s7 59.667 7 99zM335.998 94.001
c20.667 0 40.001 3.99902 58.001 11.999s34.667 19 50 33c-18 8.66699 -34.833 16.334 -50.5 23.001s-30.834 10 -45.501 10c-25.333 0 -42.833 -4.83301 -52.5 -14.5s-14.5 -19.167 -14.5 -28.5c0 -7.33301 4.33301 -15 13 -23s22.667 -12 42 -12z" />
    <glyph glyph-name="q" unicode="q" horiz-adv-x="766" 
d="M899 479c-26 -67.333 -49.4932 -123.994 -70.4932 -169.994s-42.5 -85.667 -64.5 -119s-45.833 -62.166 -71.5 -86.499s-56.5 -47.833 -92.5 -70.5c47.333 -109.333 85.166 -206.333 113.499 -291s42.5 -158.334 42.5 -221.001c0 -50.667 -13.167 -90.334 -39.5 -119.001
s-63.166 -43 -110.499 -43c-32 0 -58.833 8.5 -80.5 25.5s-39.334 40.667 -53.001 71s-23.5 66.333 -29.5 108s-9 87.5 -9 137.5c0 58 4.16699 122.833 12.5 194.5s19.166 146.167 32.499 223.5c-24.667 -32 -52.334 -56.833 -83.001 -74.5s-63 -26.5 -97 -26.5
c-31.333 0 -61.5 5.33301 -90.5 16s-54.833 27.167 -77.5 49.5s-40.667 50.5 -54 84.5s-20 74.333 -20 121c0 72 11.667 134.5 35 187.5s52.666 96.667 87.999 131s73.666 59.833 114.999 76.5s80.333 25 117 25c24.667 0 46.5 -2.83301 65.5 -8.5s35.833 -13 50.5 -22
s27.167 -19 37.5 -30s19.166 -21.833 26.499 -32.5c2 7.33301 4 14.166 6 20.499s4 13.166 6 20.499l39 -6c-3.33301 -18 -7.33301 -41.167 -12 -69.5l-15 -94.5l-17 -110c-6 -38.667 -11.667 -77.167 -17 -115.5l-15 -110.5c-4.66699 -35.333 -8.66699 -67.333 -12 -96
c34 17.333 63.833 36.666 89.5 57.999s50 48.166 73 80.499s45.667 72.166 68 119.499s47.166 106 74.499 176zM496.007 201.006c12 62.667 24.8281 124.499 38.4951 185.499s28.167 119.167 43.5 174.5c-4.66699 10 -11.167 21.5 -19.5 34.5s-18.666 25.167 -30.999 36.5
s-27 20.833 -44 28.5s-36.833 11.5 -59.5 11.5c-30.667 0 -58.5 -6.16699 -83.5 -18.5s-47.667 -28.666 -68 -48.999s-38.166 -43.666 -53.499 -69.999s-28.166 -53.833 -38.499 -82.5s-18 -57.5 -23 -86.5s-7.5 -55.833 -7.5 -80.5c0 -32 3.83301 -61.833 11.5 -89.5
s18.334 -51.667 32.001 -72s30.334 -36.5 50.001 -48.5s41.5 -18 65.5 -18c35.333 0 68.833 12.667 100.5 38s60.5 60.666 86.5 105.999zM717.002 -474.995c0 53.333 -14.834 124 -44.501 212s-69.5 190 -119.5 306c-1.33301 -4 -2 -8 -2 -12v-11
c-6 -44 -11 -86.333 -15 -127s-7.33301 -77.834 -10 -111.501s-4.66699 -63.167 -6 -88.5s-2 -44.666 -2 -57.999c0 -74 9.33301 -131.333 28 -172s45.667 -61 81 -61c28.667 0 50.834 11 66.501 33s23.5 52 23.5 90z" />
    <glyph glyph-name="r" unicode="r" horiz-adv-x="594" 
d="M152 532c-6.66699 -23.333 -13.3311 -43.335 -19.998 -60.002s-14 -32.167 -22 -46.5s-16.833 -28 -26.5 -41l-32.5 -42.5l-8 8c15.333 39.333 28.833 76.333 40.5 111s22.167 69.334 31.5 104.001c-10.667 15.333 -19.834 34.5 -27.501 57.5s-11.5 50.5 -11.5 82.5
c0 28.667 4.5 52.5 13.5 71.5s20.833 28.5 35.5 28.5c8 0 15.5 -3.66699 22.5 -11s12.833 -17 17.5 -29s8.33398 -25.833 11.001 -41.5s4 -32.167 4 -49.5c0 -8 -0.5 -16.667 -1.5 -26s-2.16699 -18.833 -3.5 -28.5s-3 -19 -5 -28s-4 -16.5 -6 -22.5
c4 -3.33301 10.5 -6.16602 19.5 -8.49902s20.833 -3.5 35.5 -3.5c25.333 0 47.666 3.66699 66.999 11s34.666 16.666 45.999 27.999l23.5 37c5.66699 8.66699 10.167 15.167 13.5 19.5s5.83301 7 7.5 8s3.83398 1.5 6.50098 1.5c7.33301 0 13.333 -2 18 -6s7 -9.66699 7 -17
c0 -2 -1 -4.66699 -3 -8l-8 -13c-28 -40.667 -50 -85.334 -66 -134.001s-24 -102.667 -24 -162c0 -68.667 11.167 -118.334 33.5 -149.001s54.166 -46 95.499 -46c22.667 0 44.334 6.83301 65.001 20.5s41 35 61 64s40.167 66.333 60.5 112s42.166 100.834 65.499 165.501
l39 -10c-28.667 -84.667 -55.667 -154.167 -81 -208.5s-50.333 -97.333 -75 -129s-50 -53.667 -76 -66s-54.333 -18.5 -85 -18.5c-19.333 0 -39.333 4.33301 -60 13s-39.5 22.334 -56.5 41.001s-30.833 42.834 -41.5 72.501s-16 65.5 -16 107.5
c0 20.667 1.83301 42.167 5.5 64.5s8.5 44 14.5 65s12.667 41.333 20 61s15 37.5 23 53.5c-24 -11.333 -50 -17 -78 -17c-27.333 0 -50.333 4.66699 -69 14z" />
    <glyph glyph-name="s" unicode="s" horiz-adv-x="522" 
d="M166 565l-21.498 -57.002c-7 -18.667 -14.667 -37.334 -23 -56.001s-18.166 -37 -29.499 -55s-25 -36.333 -41 -55l-8 8c17.333 42 32.666 85 45.999 129s26.666 93.333 39.999 148c-3.33301 9.33301 -6.33301 17.333 -9 24s-5 12.834 -7 18.501s-3.66699 11.667 -5 18
s-2 13.5 -2 21.5c0 10.667 1.5 22.5 4.5 35.5s7.33301 25.167 13 36.5s12.167 20.833 19.5 28.5s15 11.5 23 11.5c9.33301 0 16.833 -2.16699 22.5 -6.5s10.167 -9.83301 13.5 -16.5s5.66602 -13.667 6.99902 -21s2 -14.333 2 -21c0 -10 -1.16699 -21.5 -3.5 -34.5
s-5 -25.667 -8 -38l-8 -32.5c-2.33301 -9.33301 -3.5 -15.333 -3.5 -18c5.33301 -18 14.5 -36.333 27.5 -55s27.833 -37.667 44.5 -57l52.5 -60.5c18.333 -21 35 -43.167 50 -66.5s27.333 -48.166 37 -74.499s14.5 -54.166 14.5 -83.499c0 -42 -6.16699 -76 -18.5 -102
s-28.833 -46 -49.5 -60c30 12 58.167 33.333 84.5 64s50.666 65.834 72.999 105.501s43 81.167 62 124.5s35.833 83.666 50.5 120.999l39 -10c-22.667 -58 -46.667 -114.667 -72 -170s-54 -104.666 -86 -147.999s-68.167 -78.333 -108.5 -105s-86.5 -40 -138.5 -40
c-14 0 -28.167 1.16699 -42.5 3.5s-28.333 6 -42 11s-26.5 11.833 -38.5 20.5s-22.333 19 -31 31l33 22c6 -9.33301 15.333 -18 28 -26s29.334 -12 50.001 -12c20 0 37.5 4.16699 52.5 12.5s27.667 19.666 38 33.999s18 31.166 23 50.499s7.5 40 7.5 62
c0 45.333 -6.5 84.333 -19.5 117s-28.333 61.834 -46 87.501s-35.667 49.167 -54 70.5s-32.5 43 -42.5 65z" />
    <glyph glyph-name="t" unicode="t" horiz-adv-x="471" 
d="M-117 842l36 -21c14 -8 30.333 -15.667 49 -23s39.5 -14.166 62.5 -20.499s48.167 -10.833 75.5 -13.5c9.33301 60 21.333 114.167 36 162.5s30.834 89.666 48.501 123.999s36 60.666 55 78.999s37.5 27.5 55.5 27.5c20.667 0 35.334 -8 44.001 -24s13 -37.333 13 -64
c0 -19.333 -2 -40.666 -6 -63.999s-9.33301 -48.166 -16 -74.499s-14.667 -53.666 -24 -81.999l-29 -84.5c66.667 6 128.167 17 184.5 33s105.166 32.333 146.499 49l19 -37c-54.667 -20.667 -111.334 -39.167 -170.001 -55.5s-124.334 -26.5 -197.001 -30.5
c-16.667 -43.333 -33.834 -84.5 -51.501 -123.5s-33.834 -72.833 -48.501 -101.5c0.666992 -37.333 2.83398 -77.833 6.50098 -121.5s11 -84.5 22 -122.5s26.667 -69.667 47 -95s47.166 -38 80.499 -38c28 0 53.667 11.833 77 35.5s44.833 53.667 64.5 90
s37.834 76.166 54.501 119.499l47 123l39 -10l-30 -81c-10.667 -30 -22.667 -60.5 -36 -91.5s-28 -61 -44 -90s-33.667 -55 -53 -78s-40.666 -41.333 -63.999 -55s-48.666 -20.5 -75.999 -20.5c-29.333 0 -56.833 6.66699 -82.5 20s-48 37.166 -67 71.499s-34 81 -45 140
s-16.5 134.167 -16.5 225.5c0 73.333 4 141.666 12 204.999c-57.333 7.33301 -105.5 18.833 -144.5 34.5s-69.167 30.834 -90.5 45.501zM307 1104c-6 0 -15.002 -5.99902 -27.002 -17.999s-24.667 -31.5 -38 -58.5s-26.166 -62.333 -38.499 -106
s-22.166 -97.5 -29.499 -161.5h19h49c12 33.333 22.5 65.666 31.5 96.999s16.833 60.5 23.5 87.5s11.667 51.333 15 73s5 39.5 5 53.5c0 22 -3.33301 33 -10 33zM165.998 578.001c11.333 23.333 22 46.832 32 70.499s19.667 47.834 29 72.501h-37h-20
c-1.33301 -21.333 -2.33301 -43.833 -3 -67.5s-1 -48.167 -1 -73.5v-2z" />
    <glyph glyph-name="u" unicode="u" horiz-adv-x="776" 
d="M477 231c-20.667 -37.333 -40.6631 -68.3359 -59.9961 -93.0029s-38.5 -44.334 -57.5 -59.001s-38.167 -25 -57.5 -31s-39.333 -9 -60 -9c-16.667 0 -35.667 2.66699 -57 8s-41.5 16.5 -60.5 33.5s-35 41.5 -48 73.5s-19.5 75 -19.5 129s6.33301 104.833 19 152.5
s26.667 89.5 42 125.5c18 41.333 38.667 79.666 62 114.999l37 -12c-0.666992 -0.666992 -2.83398 -6.66699 -6.50098 -18s-8.33398 -26.666 -14.001 -45.999s-11.667 -41.666 -18 -66.999s-12.333 -52.166 -18 -80.499s-10.334 -57.166 -14.001 -86.499
s-5.5 -57.666 -5.5 -84.999c0 -62.667 11.167 -112.167 33.5 -148.5s51.5 -54.5 87.5 -54.5c40 0 78.667 23.167 116 69.5s73 111.166 107 194.499c6 38.667 14.167 74.667 24.5 108s20.666 63 30.999 89s19.833 47.667 28.5 65s15 29 19 35l35 -8
c-10.667 -50 -19.834 -94.833 -27.501 -134.5s-13.834 -75.5 -18.501 -107.5s-8.16699 -60.5 -10.5 -85.5s-3.5 -47.5 -3.5 -67.5c0 -40 6.33301 -72 19 -96s32.334 -36 59.001 -36c18 0 35.333 6.66699 52 20s34 35.333 52 66s37 70.334 57 119.001s42.667 108.667 68 180
l39 -10c-11.333 -28 -22.666 -58 -33.999 -90s-23.5 -64 -36.5 -96s-26.667 -62.667 -41 -92s-30.333 -55.333 -48 -78s-36.834 -40.667 -57.501 -54s-43.667 -20 -69 -20c-24 0 -45 4.66699 -63 14s-33.167 22 -45.5 38s-21.666 35.167 -27.999 57.5s-9.5 46.5 -9.5 72.5z
" />
    <glyph glyph-name="v" unicode="v" horiz-adv-x="666" 
d="M799 479c-20.667 -49.333 -40.1641 -91.665 -58.4971 -126.998s-36.5 -64.5 -54.5 -87.5s-36.5 -40 -55.5 -51s-39.5 -16.5 -61.5 -16.5c-30 0 -55.5 9.5 -76.5 28.5s-33.5 42.833 -37.5 71.5c-18.667 -43.333 -38.334 -82.166 -59.001 -116.499
s-41.334 -63.5 -62.001 -87.5s-40.667 -42.5 -60 -55.5s-36.333 -19.5 -51 -19.5c-12 0 -26.833 5 -44.5 15s-34.5 26.667 -50.5 50s-29.667 54.166 -41 92.499s-17 85.5 -17 141.5c0 36.667 2.5 70.5 7.5 101.5s10.5 57.833 16.5 80.5
c7.33301 26.667 15.666 50.667 24.999 72l39 -4c-3.33301 -28.667 -5.5 -56.5 -6.5 -83.5s-1.5 -52.833 -1.5 -77.5c0 -55.333 2.66699 -104.666 8 -147.999s11.833 -79.833 19.5 -109.5s16.167 -52.334 25.5 -68.001s18 -23.5 26 -23.5c9.33301 0 22.333 7.5 39 22.5
s35 35.833 55 62.5s40.333 58 61 94s39.334 74.667 56.001 116c-2 12.667 -4.16699 28.167 -6.5 46.5s-3.5 34.166 -3.5 47.499c0 44 3.83301 79.333 11.5 106s16.667 47 27 61s20.833 23.167 31.5 27.5s18.667 6.5 24 6.5c18 0 27 -13.667 27 -41
c0 -14 -1.83301 -31 -5.5 -51s-8.33398 -41 -14.001 -63s-12.167 -44 -19.5 -66s-15 -42.333 -23 -61c0 -23.333 2.5 -42.833 7.5 -58.5s11.667 -28.334 20 -38.001s17.833 -16.5 28.5 -20.5s21.667 -6 33 -6c28.667 0 57.667 20.167 87 60.5s61 102.5 95 186.5z" />
    <glyph glyph-name="w" unicode="w" horiz-adv-x="958" 
d="M365 324c0 25.333 1.49805 49.3408 4.49805 72.0078s6.5 43 10.5 61s7.83301 33 11.5 45s6.16699 20.667 7.5 26h41c-5.33301 -70.667 -5.83301 -133.834 -1.5 -189.501s13 -103 26 -142s30 -68.833 51 -89.5s45.833 -31 74.5 -31s53.334 10.5 74.001 31.5
s37.667 47.833 51 80.5c-30 27.333 -52.5 63.666 -67.5 108.999s-22.5 93.666 -22.5 144.999c0 40.667 3.33301 73.667 10 99s14.834 45.333 24.501 60s20 24.667 31 30s20.5 8 28.5 8c25.333 0 45.333 -17.667 60 -53s22 -85.333 22 -150
c0 -39.333 -2.66699 -78.666 -8 -117.999s-14.333 -76.333 -27 -111c9.33301 -7.33301 20 -13 32 -17s25.333 -6 40 -6c28.667 0 53.667 10.5 75 31.5s40.5 46.833 57.5 77.5s32 63.667 45 99s25.5 67.666 37.5 96.999l39 -10l-25.5 -68c-9 -24.667 -19 -49.5 -30 -74.5
s-23 -49.167 -36 -72.5s-27.667 -44 -44 -62s-34.5 -32.333 -54.5 -43s-42 -16 -66 -16c-16.667 0 -32.167 2 -46.5 6s-27.5 9 -39.5 15c-18.667 -38 -42.5 -69 -71.5 -93s-64.167 -36 -105.5 -36c-46 0 -83.667 11.5 -113 34.5s-51.666 53.167 -66.999 90.5
c-10.667 -23.333 -22.5 -42.666 -35.5 -57.999s-26.5 -27.333 -40.5 -36s-28.333 -14.667 -43 -18s-29 -5 -43 -5c-15.333 0 -33 4.33301 -53 13s-39 23.5 -57 44.5s-33.167 49 -45.5 84s-18.5 79.167 -18.5 132.5c0 27.333 2.66699 54.666 8 81.999
s12.666 53.666 21.999 78.999s20.833 49.166 34.5 71.499s29.167 41.833 46.5 58.5l35 -22c0 -0.666992 -3.5 -7.83398 -10.5 -21.501s-14.833 -33 -23.5 -58s-16.5 -55.333 -23.5 -91s-10.5 -75.834 -10.5 -120.501c0 -27.333 2 -53.666 6 -78.999
s10.167 -47.833 18.5 -67.5s19 -35.334 32 -47.001s28.5 -17.5 46.5 -17.5c25.333 0 50 10.667 74 32s44.333 57.666 61 108.999c-3.33301 15.333 -5.5 31.333 -6.5 48s-1.5 33.667 -1.5 51zM693.998 473.008c0 -16 0.333008 -33.833 1 -53.5s2.5 -39.667 5.5 -60
s7.16699 -40.333 12.5 -60s12.666 -37.5 21.999 -53.5c8.66699 30.667 15 62.5 19 95.5s6 63.833 6 92.5v27.5c0 9 -0.666992 18.167 -2 27.5c-4 40.667 -10.167 69 -18.5 85s-14.5 24 -18.5 24c-3.33301 0 -8.66602 -9.66699 -15.999 -29s-11 -51.333 -11 -96z" />
    <glyph glyph-name="x" unicode="x" horiz-adv-x="735" 
d="M647 651l-126.997 -168.501l-129 -175.5c15.333 -28 30.5 -54.333 45.5 -79s30 -46.167 45 -64.5s30.167 -32.833 45.5 -43.5s31.333 -16 48 -16c28 0 54 12 78 36s46.333 54.667 67 92s40 78.666 58 123.999l51 133l39 -10l-64.5 -164
c-21 -51.333 -43.333 -96.5 -67 -135.5s-50 -69.833 -79 -92.5s-62.5 -34 -100.5 -34c-12.667 0 -25.834 1 -39.501 3s-28 7.16699 -43 15.5s-31 20.833 -48 37.5s-35.5 39.667 -55.5 69c-6.66699 8.66699 -12.667 17.334 -18 26.001l-17 27l-88 -124.5l-86 -126.5l-33 22
l92 134l94 132l-52.5 97.5l-47 90c-14.333 27 -27 49 -38 66s-18.833 25.5 -23.5 25.5c-4.66699 -13.333 -8.83398 -26 -12.501 -38s-8.5 -25.333 -14.5 -40l-37 14c7.33301 18.667 13.666 37.5 18.999 56.5s10 37.833 14 56.5c2 7.33301 6.66699 13.333 14 18
s14.333 7 21 7c4 0 10.167 -1.5 18.5 -4.5s19.5 -11.667 33.5 -26s31.5 -36.166 52.5 -65.499s46.167 -70 75.5 -122c5.33301 -10 10.833 -19.667 16.5 -29l16.5 -28l123 167l122 163z" />
    <glyph glyph-name="y" unicode="y" horiz-adv-x="743" 
d="M455 23c0 85.333 3.99805 165.002 11.998 239.002c-20.667 -37.333 -40.667 -68 -60 -92s-38.5 -43 -57.5 -57s-38.167 -23.667 -57.5 -29s-39 -8 -59 -8c-16 0 -34.167 2.5 -54.5 7.5s-39.5 15.167 -57.5 30.5s-33.167 37.166 -45.5 65.499s-18.5 66.166 -18.5 113.499
c0 49.333 6 96.166 18 140.499s25.667 83.5 41 117.5c17.333 40 37.333 77 60 111l37 -13c-1.33301 -2 -5.66602 -14.167 -12.999 -36.5s-15.166 -50.333 -23.499 -84s-16 -70.667 -23 -111s-10.5 -79.166 -10.5 -116.499c0 -56 10.167 -100.667 30.5 -134
s49.166 -50 86.499 -50c20 0 39.667 6.66699 59 20s38.333 31.833 57 55.5s37.334 51.667 56.001 84s37 67.833 55 106.5c12.667 66 27.834 124.667 45.501 176s36.167 95 55.5 131l37 -10c-13.333 -58 -25 -115.5 -35 -172.5s-18.5 -112.5 -25.5 -166.5
s-12.5 -106.167 -16.5 -156.5s-7 -97.5 -9 -141.5c28.667 20.667 55.5 43.667 80.5 69s49.5 55.333 73.5 90s47.833 75.334 71.5 122.001s48.167 101.667 73.5 165l39 -10c-26 -67.333 -51.167 -125.833 -75.5 -175.5s-49.666 -93.334 -75.999 -131.001
s-54.5 -71.167 -84.5 -100.5s-64 -57.333 -102 -84c-2 -73.333 -8.66699 -138 -20 -194s-25.333 -104.833 -42 -146.5s-35.334 -76.5 -56.001 -104.5s-41.334 -50.667 -62.001 -68s-40.834 -29.666 -60.501 -36.999s-36.5 -11 -50.5 -11
c-24.667 0 -46.834 5.16699 -66.501 15.5s-36.5 23.833 -50.5 40.5s-24.667 35.667 -32 57s-11 43 -11 65c0 38 9.16699 73.833 27.5 107.5s42.833 65.5 73.5 95.5s65.834 58.167 105.501 84.5s80.834 51.166 123.501 74.499c12.667 8.66699 25 15.667 37 21v35z
M249.998 -531.998c21.333 0 43.166 8.49805 65.499 25.498s43 44 62 81s35.333 84.667 49 143s22.5 128.5 26.5 210.5c-2 -1.33301 -4.16699 -2.5 -6.5 -3.5s-4.5 -2.5 -6.5 -4.5c-34 -21.333 -67.667 -44.833 -101 -70.5s-63.166 -53.167 -89.499 -82.5
s-47.833 -60.166 -64.5 -92.499s-25 -65.833 -25 -100.5c0 -12 2.16699 -24.333 6.5 -37s10.5 -24.167 18.5 -34.5s17.5 -18.666 28.5 -24.999s23.167 -9.5 36.5 -9.5z" />
    <glyph glyph-name="z" unicode="z" horiz-adv-x="666" 
d="M94 489c4 13.333 7.83398 27.4941 11.501 42.4941s7.5 35.167 11.5 60.5c1.33301 10 8 18.333 20 25s25.5 11.667 40.5 15s29.667 5.66602 44 6.99902s24.5 2 30.5 2c22.667 0 44.5 -1.33301 65.5 -4s42.833 -4 65.5 -4c25.333 0 51.5 4.16699 78.5 12.5
s56.167 25.833 87.5 52.5c2 2 4 3.16699 6 3.5s4 0.5 6 0.5c5.33301 0 10.166 -2 14.499 -6s6.5 -8 6.5 -12c0 -37.333 -4.66699 -74.666 -14 -111.999s-21.5 -73.666 -36.5 -108.999s-32 -68.833 -51 -100.5s-38.167 -60.667 -57.5 -87s-37.833 -49.333 -55.5 -69
s-32.834 -35.167 -45.501 -46.5c7.33301 -5.33301 15 -11.666 23 -18.999s15.833 -16.666 23.5 -27.999s14.5 -25.5 20.5 -42.5s10.667 -37.833 14 -62.5c44.667 32 84.667 65.333 120 100s67.166 71.5 95.499 110.5s54 80.833 77 125.5s44.5 93 64.5 145l39 -10
c-24 -61.333 -48.667 -116.166 -74 -164.499s-53.166 -92.666 -83.499 -132.999s-64.5 -78 -102.5 -113s-81.667 -70.167 -131 -105.5v-31c0 -88 -10.333 -164.667 -31 -230s-45.667 -119.666 -75 -162.999s-60.666 -75.666 -93.999 -96.999s-62.333 -32 -87 -32
c-40 0 -71.167 13.667 -93.5 41s-33.5 63.666 -33.5 108.999c0 34.667 8.5 69.334 25.5 104.001s40.167 68.667 69.5 102s64.166 65.833 104.499 97.5s83.833 62.167 130.5 91.5c0 1.33301 0.333008 2 1 2s1.66699 0.666992 3 2c0 33.333 -3.83301 64.333 -11.5 93
s-20.167 52.334 -37.5 71.001c-13.333 -9.33301 -25.333 -15.833 -36 -19.5s-20 -5.5 -28 -5.5c-16.667 0 -28.667 4 -36 12s-11 17 -11 27c0 2 0.5 5.33301 1.5 10s3.83301 9.5 8.5 14.5s11.667 9.33301 21 13s22.333 5.5 39 5.5c5.33301 0 10.833 -0.333008 16.5 -1
s11.5 -1.66699 17.5 -3c36.667 37.333 67.667 77.5 93 120.5s46 84.5 62 124.5s27.667 76.333 35 109s11.666 58 12.999 76c-5.33301 -3.33301 -12.166 -5.83301 -20.499 -7.5s-17 -3 -26 -4s-17.667 -1.66699 -26 -2s-14.833 -0.5 -19.5 -0.5c-12.667 0 -28 0.333008 -46 1
s-36 1 -54 1s-33.5 -1.5 -46.5 -4.5s-23.833 -6.83301 -32.5 -11.5s-15.5 -9.33398 -20.5 -14.001l-11.5 -11c-9.33301 -11.333 -16.666 -22.333 -21.999 -33s-11 -24.334 -17 -41.001zM96.001 -535.006c22.667 0 46.5 11.667 71.5 35s48.5 55.166 70.5 95.499
s41.167 87.333 57.5 141s26.5 110.834 30.5 171.501c-4 -2 -7 -4 -9 -6c-42 -27.333 -80.333 -55.166 -115 -83.499s-64.5 -56.833 -89.5 -85.5s-44.5 -57.5 -58.5 -86.5s-21 -57.833 -21 -86.5c0 -8.66699 1 -18.5 3 -29.5s5.5 -21.333 10.5 -31s11.5 -17.834 19.5 -24.501
s18 -10 30 -10z" />
    <glyph glyph-name="braceleft" unicode="{" horiz-adv-x="637" 
d="M532 1458c-12 -4.66699 -30.1641 -13.3369 -54.4971 -26.0039s-48.833 -31 -73.5 -55s-46.334 -54 -65.001 -90s-28 -79.333 -28 -130c0 -53.333 4.33301 -100 13 -140s18.334 -76.167 29.001 -108.5l29 -89c8.66699 -27 13 -53.833 13 -80.5
c0 -24 -7.66699 -45.167 -23 -63.5s-34 -34.5 -56 -48.5s-45.5 -26 -70.5 -36l-65.5 -26l57 -36c23.333 -14.667 45.666 -32 66.999 -52s39.833 -42.667 55.5 -68s23.5 -53.666 23.5 -84.999c0 -40.667 -4.83301 -81.5 -14.5 -122.5s-20.5 -80.833 -32.5 -119.5l-32.5 -109
c-9.66699 -34 -14.5 -64 -14.5 -90c0 -22.667 4 -42.5 12 -59.5s18.167 -31.667 30.5 -44s26.166 -22.666 41.499 -30.999s30.166 -15.166 44.499 -20.499s27.333 -9.5 39 -12.5s20.5 -5.16699 26.5 -6.5l-10 -37c-1.33301 0 -9.33301 1.66699 -24 5
s-32.834 8.5 -54.501 15.5s-44.667 15.833 -69 26.5s-47 23.667 -68 39s-38.5 33 -52.5 53s-21 42.667 -21 68c0 26.667 5 57 15 91s21.167 70 33.5 108s23.5 77.5 33.5 118.5s15 81.833 15 122.5c0 30 -3.83301 56.333 -11.5 79s-17.167 42.5 -28.5 59.5
s-23.666 31.333 -36.999 43s-25.833 21.334 -37.5 29.001s-21.667 13.334 -30 17.001s-12.833 5.83398 -13.5 6.50098l2 37c13.333 2.66699 29.5 7 48.5 13s37.167 14.167 54.5 24.5s32.166 23.666 44.499 39.999s18.5 36.166 18.5 59.499c0 24 -4.33301 49.333 -13 76
l-28 89.5c-10 33 -19.333 70.167 -28 111.5s-13 89 -13 143c0 38 7.33301 72.833 22 104.5s32.834 60 54.501 85s45.5 46.833 71.5 65.5s50.333 34.5 73 47.5s42 23 58 30s25.333 11.5 28 13.5z" />
    <glyph glyph-name="bar" unicode="|" horiz-adv-x="512" 
d="M283 1536v-1638h-56v1638h56z" />
    <glyph glyph-name="braceright" unicode="}" horiz-adv-x="637" 
d="M162 1493c2 -2 11.1699 -6.5 27.5029 -13.5s35.833 -17 58.5 -30s47 -28.833 73 -47.5s49.833 -40.5 71.5 -65.5s39.834 -53.333 54.501 -85s22 -66.5 22 -104.5c0 -54 -4.33301 -101.667 -13 -143s-18 -78.5 -28 -111.5l-28 -89.5c-8.66699 -26.667 -13 -52 -13 -76
c0 -23.333 6.16699 -43.166 18.5 -59.499s27.166 -29.666 44.499 -39.999s35.5 -18.5 54.5 -24.5s35.167 -10.333 48.5 -13l2 -37c-1.33301 -1.33301 -6 -3.66602 -14 -6.99902s-17.833 -8.83301 -29.5 -16.5s-24.167 -17.334 -37.5 -29.001s-25.666 -26 -36.999 -43
s-20.833 -36.833 -28.5 -59.5s-11.5 -49 -11.5 -79c0 -40.667 5 -81.5 15 -122.5s21.167 -80.5 33.5 -118.5s23.5 -74 33.5 -108s15 -64.333 15 -91c0 -25.333 -7 -48 -21 -68s-31.5 -37.667 -52.5 -53s-43.667 -28.333 -68 -39s-47.333 -19.5 -69 -26.5
s-39.834 -12.167 -54.501 -15.5s-22.667 -5 -24 -5l-10 37l26 6.5c12 3 25.167 7.16699 39.5 12.5s29.166 12.166 44.499 20.499s29.166 18.666 41.499 30.999s22.5 27 30.5 44s12 36.833 12 59.5c0 26 -4.83301 56 -14.5 90l-32.5 109c-12 38.667 -22.833 78.5 -32.5 119.5
s-14.5 81.833 -14.5 122.5c0 31.333 7.83301 59.666 23.5 84.999s34.167 48 55.5 68s43.5 37.333 66.5 52l57.5 36l-66 26c-24.667 10 -48 22 -70 36s-40.667 30.167 -56 48.5s-23 39.5 -23 63.5c0 26.667 4.33301 53.5 13 80.5l29 89
c10.667 32.333 20.334 68.5 29.001 108.5s13 86.667 13 140c0 50.667 -9.33301 94 -28 130s-40.334 66 -65.001 90s-49.334 42.333 -74.001 55s-43 21.334 -55 26.001z" />
    <glyph glyph-name="asciitilde" unicode="~" horiz-adv-x="819" 
d="M715 588l-27.9971 -23c-10.667 -8.66699 -22.667 -17 -36 -25s-27.833 -14.667 -43.5 -20s-31.834 -8 -48.501 -8c-28 0 -54.667 3.83301 -80 11.5s-49.666 16.167 -72.999 25.5s-46.166 17.833 -68.499 25.5s-44.833 11.5 -67.5 11.5c-14 0 -28 -2.33301 -42 -7
s-27.5 -10.5 -40.5 -17.5s-25 -14.667 -36 -23s-20.5 -16.5 -28.5 -24.5v47l27 23c10 8.66699 21.5 17 34.5 25s27.667 14.667 44 20s35.166 8 56.499 8c24 0 46.667 -3.83301 68 -11.5s42.666 -16.167 63.999 -25.5s43.666 -17.833 66.999 -25.5s49 -11.5 77 -11.5
c17.333 0 33.666 2.33301 48.999 7s29.5 10.5 42.5 17.5s24.667 14.667 35 23s19.5 16.5 27.5 24.5v-47z" />
    <glyph glyph-name="nonbreakingspace" unicode="&#xa0;" horiz-adv-x="451" 
 />
    <glyph glyph-name="exclamdown" unicode="&#xa1;" horiz-adv-x="430" 
d="M31 -385c30 70.667 56.999 156.669 80.999 258.002c20 86.667 38.5 195.167 55.5 325.5s25.5 283.166 25.5 458.499l34 -4c2 -69.333 2.66699 -137.833 2 -205.5s-2.16699 -133.334 -4.5 -197.001s-5.66602 -124.667 -9.99902 -183s-8.83301 -112.5 -13.5 -162.5
c-11.333 -118 -25 -229 -41 -333zM132.999 866.002c0 20.667 7.16699 38.167 21.5 52.5s31.833 21.5 52.5 21.5c10 0 19.333 -2 28 -6s16.5 -9.33301 23.5 -16s12.5 -14.5 16.5 -23.5s6 -18.5 6 -28.5c0 -19.333 -7.5 -36 -22.5 -50s-32.167 -21 -51.5 -21
c-20.667 0 -38.167 7 -52.5 21s-21.5 30.667 -21.5 50z" />
    <glyph glyph-name="cent" unicode="&#xa2;" horiz-adv-x="682" 
d="M369 -61c-1.33301 13.333 -3.66113 41.833 -6.99414 85.5s-6.66602 99.834 -9.99902 168.501c-37.333 3.33301 -72.333 12.666 -105 27.999s-61.334 36.833 -86.001 64.5s-44 61.5 -58 101.5s-21 86.333 -21 139c0 52 8.5 100.5 25.5 145.5s39.167 85 66.5 120
s57.666 64 90.999 87s66.666 38.167 99.999 45.5l14.5 123c4.33301 36.667 8.16602 67.334 11.499 92.001h27c-2 -41.333 -4 -78.833 -6 -112.5l-6 -96.5h2c26.667 0 51.5 -4 74.5 -12s42.667 -19.5 59 -34.5s29.166 -33.333 38.499 -55s14 -45.834 14 -72.501
c0 -27.333 -4 -51.5 -12 -72.5s-18.5 -38.833 -31.5 -53.5s-28 -25.667 -45 -33s-34.5 -11 -52.5 -11c-8.66699 0 -17.667 1 -27 3s-18.333 5.66699 -27 11v-39v-317h25c39.333 0 74.166 9.5 104.499 28.5s58.166 44.833 83.499 77.5l29 -24
c-30 -40 -64.667 -72.333 -104 -97s-85.333 -37.667 -138 -39v-136c0 -42.667 0.666992 -81 2 -115h-32zM176.005 551c0 -43.333 4.33301 -81.833 13 -115.5s20.667 -62.834 36 -87.501s33.5 -44.667 54.5 -60s43.833 -26.666 68.5 -33.999
c-1.33301 43.333 -2.33301 89.333 -3 138s-1 100.334 -1 155.001c0 55.333 1.33301 112 4 170s6.66699 113.333 12 166c-22 -6 -44 -16.667 -66 -32s-41.667 -36.333 -59 -63s-31.5 -59.334 -42.5 -98.001s-16.5 -85 -16.5 -139zM406.005 891
c-2.66699 -39.333 -4.5 -78.002 -5.5 -116.002s-1.5 -80 -1.5 -126c6.66699 -8 14.667 -14 24 -18s19.333 -6 30 -6c20.667 0 37.5 4.66699 50.5 14s23.167 20.833 30.5 34.5s12.333 28 15 43s4 28.167 4 39.5c0 22 -4 41.333 -12 58s-18.5 30.834 -31.5 42.501
s-27.667 20.334 -44 26.001s-32.833 8.5 -49.5 8.5h-10z" />
    <glyph glyph-name="sterling" unicode="&#xa3;" horiz-adv-x="1149" 
d="M111 547l202 -0.00195312c-9.33301 38 -17.833 75.167 -25.5 111.5s-11.5 71.5 -11.5 105.5c0 65.333 7.33301 123.833 22 175.5s34.334 96.834 59.001 135.501s53.167 71.667 85.5 99s66.166 49.666 101.499 66.999s70.833 29.833 106.5 37.5s69.5 11.5 101.5 11.5
c38 0 72.5 -6 103.5 -18s57.167 -28.333 78.5 -49s37.833 -44.667 49.5 -72s17.5 -56 17.5 -86c0 -25.333 -3 -49.166 -9 -71.499s-12.667 -42.166 -20 -59.499s-14.333 -31.333 -21 -42s-10.334 -16.667 -11.001 -18l-33 21c10.667 15.333 20 31.666 28 48.999
c7.33301 15.333 13.833 32.833 19.5 52.5s8.5 40.5 8.5 62.5c0 26 -4.83301 50.667 -14.5 74s-23.5 43.666 -41.5 60.999s-40 31.166 -66 41.499s-55 15.5 -87 15.5c-58.667 0 -110.5 -11 -155.5 -33s-82.833 -52 -113.5 -90s-54 -82.167 -70 -132.5s-24 -103.5 -24 -159.5
c0 -50.667 4 -99.5 12 -146.5s15.667 -94.5 23 -142.5h293v-39h-289c4 -33.333 6 -66.666 6 -99.999c0 -52 -4.16699 -102.167 -12.5 -150.5s-21.833 -92.5 -40.5 -132.5l97.5 -52.5c33 -18.333 66.833 -35.333 101.5 -51s70.834 -28.667 108.501 -39
s77.167 -15.5 118.5 -15.5c32 0 61.5 3 88.5 9s50.167 15.833 69.5 29.5s34.333 31.834 45 54.501s16 51 16 85c0 14.667 -2.33301 28.334 -7 41.001s-11.334 27 -20.001 43l35 19c11.333 -16.667 19.333 -33.167 24 -49.5s7 -32.5 7 -48.5c0 -69.333 -20.333 -124 -61 -164
s-105 -60 -193 -60c-45.333 0 -88.5 5.16699 -129.5 15.5s-80 23.5 -117 39.5s-72.333 33.5 -106 52.5l-98.5 54.5c-22.667 -39.333 -50.667 -70.333 -84 -93s-72.666 -34 -117.999 -34c-52.667 0 -92.5 10.333 -119.5 31s-40.5 46.667 -40.5 78c0 15.333 3.16699 30 9.5 44
s16.333 26.5 30 37.5s31 19.833 52 26.5s46.5 10 76.5 10c28.667 0 57.167 -4 85.5 -12s56.5 -18.333 84.5 -31c5.33301 22.667 9.33301 47.167 12 73.5s4 54.5 4 84.5c0 33.333 -3.33301 67 -10 101s-14 68.667 -22 104h-211v39zM164 -0.00195312
c41.333 0 75 9.16699 101 27.5s45.667 44.5 59 78.5c-27.333 12.667 -53.833 23.167 -79.5 31.5s-51.167 12.5 -76.5 12.5c-11.333 0 -23.333 -1.33301 -36 -4s-24.167 -7 -34.5 -13s-19 -14 -26 -24s-10.5 -22.333 -10.5 -37c0 -12 3.16699 -22.5 9.5 -31.5
s14.5 -16.5 24.5 -22.5s21 -10.5 33 -13.5s24 -4.5 36 -4.5z" />
    <glyph glyph-name="currency" unicode="&#xa4;" horiz-adv-x="887" 
d="M115 305l126.999 125c-21.333 24.667 -38.333 52.5 -51 83.5s-19 64.5 -19 100.5s6.33301 70.333 19 103s30.334 61.334 53.001 86.001l-125 127l26 28l125 -129c24.667 21.333 52.834 38.333 84.501 51s65.167 19 100.5 19c36 0 70 -6.33301 102 -19
s60.667 -30.334 86 -53.001l127 127l27 -28l-127 -125c21.333 -25.333 38.166 -53.833 50.499 -85.5s18.5 -65.5 18.5 -101.5s-6.16699 -69.5 -18.5 -100.5s-29.166 -58.833 -50.499 -83.5l125 -127l-29 -27l-125 125c-24.667 -21.333 -52.834 -38.166 -84.501 -50.499
s-65.5 -18.5 -101.5 -18.5s-70 6.16699 -102 18.5s-60.333 29.166 -85 50.499l-125 -122zM210.999 614c0 -34 6.33301 -65.667 19 -95s30 -55 52 -77s47.833 -39.333 77.5 -52s61.5 -19 95.5 -19s66 6.33301 96 19s56 30 78 52s39.333 47.667 52 77s19 61 19 95
c0 34.667 -6.33301 67 -19 97s-30 56 -52 78s-48 39.333 -78 52s-62 19 -96 19s-65.833 -6.33301 -95.5 -19s-55.5 -30 -77.5 -52s-39.333 -48 -52 -78s-19 -62.333 -19 -97z" />
    <glyph glyph-name="yen" unicode="&#xa5;" horiz-adv-x="1141" 
d="M440 147l322.003 -0.00292969c4 50.667 7.5 102.334 10.5 155.001l9.5 161c-45.333 -52.667 -95.833 -95.167 -151.5 -127.5s-117.167 -48.5 -184.5 -48.5c-39.333 0 -77.166 6.5 -113.499 19.5s-68.5 33.333 -96.5 61s-50.5 63 -67.5 106s-25.5 94.167 -25.5 153.5
c0 66 8.66699 127.833 26 185.5s39.666 111.167 66.999 160.5s57.5 94 90.5 134s65.167 75 96.5 105s59.833 54.833 85.5 74.5l56.5 42.5l17 -22c-0.666992 -0.666992 -9 -8.16699 -25 -22.5s-36.167 -34.666 -60.5 -60.999s-50.666 -58.166 -78.999 -95.499
s-54.666 -79 -78.999 -125s-44.5 -96 -60.5 -150s-24 -111 -24 -171c0 -112 19.833 -195.667 59.5 -251s97.5 -83 173.5 -83c28.667 0 56.667 4.66699 84 14s53.5 22.333 78.5 39s49.167 36.5 72.5 59.5s45.333 48.5 66 76.5c9.33301 96 20.166 180 32.499 252
s25.666 134 39.999 186s29.166 95.167 44.499 129.5s30.666 61.666 45.999 81.999s30 34.5 44 42.5s27 12 39 12c2.66699 0 6.5 -0.333008 11.5 -1s10 -2.83398 15 -6.50098s9.33301 -9.33398 13 -17.001s5.5 -18.5 5.5 -32.5c0 -23.333 -3.66699 -55 -11 -95
s-18.333 -84.833 -33 -134.5s-33 -102.167 -55 -157.5s-47.667 -109.333 -77 -162c-1.33301 -28.667 -2.5 -61.667 -3.5 -99s-2.83301 -77.166 -5.5 -119.499s-6.16699 -86.333 -10.5 -132s-10.166 -91.5 -17.499 -137.5h203v-38h-209
c-4 -21.333 -8.16699 -42.333 -12.5 -63s-9.83301 -40.667 -16.5 -60h238v-39h-248c-13.333 -43.333 -29.333 -83.333 -48 -120s-40.667 -68.667 -66 -96s-54.333 -48.666 -87 -63.999s-69.334 -23 -110.001 -23c-43.333 0 -82.333 5.83301 -117 17.5
s-63.334 26.834 -86.001 45.501l23 33c19.333 -17.333 43.833 -31.166 73.5 -41.499s65.167 -15.5 106.5 -15.5c32 0 60.167 6.5 84.5 19.5s45.333 31 63 54s32.667 50.667 45 83s22.5 68.166 30.5 107.499h-293v39h301c4.66699 19.333 8.16699 39.333 10.5 60
s4.5 41.667 6.5 63h-318v38zM1028 1202c-10 0 -20.499 -9.83301 -31.499 -29.5s-22 -49 -33 -88s-21.333 -87.333 -31 -145s-17.5 -124.5 -23.5 -200.5c20.667 43.333 39.167 87 55.5 131s30.166 85.833 41.499 125.5s19.833 76 25.5 109s8.5 60.167 8.5 81.5
c0 4 -1 7.66699 -3 11s-5 5 -9 5z" />
    <glyph glyph-name="brokenbar" unicode="&#xa6;" horiz-adv-x="512" 
d="M227 819v717h56v-717h-56zM283 567v-669h-56v669h56z" />
    <glyph glyph-name="section" unicode="&#xa7;" horiz-adv-x="1047" 
d="M944 430c0 -23.333 -2.6709 -46.167 -8.00391 -68.5s-12.333 -43.666 -21 -63.999s-18.5 -39.333 -29.5 -57s-22.167 -33.5 -33.5 -47.5c34 -33.333 57.833 -66.833 71.5 -100.5s20.5 -65.834 20.5 -96.501c0 -63.333 -12.167 -118.666 -36.5 -165.999
s-57.333 -87 -99 -119s-89.834 -56 -144.501 -72s-112 -24 -172 -24c-58.667 0 -112 6.66699 -160 20s-89 32.166 -123 56.499s-60.333 53.5 -79 87.5s-28 71.333 -28 112c0 35.333 5.83301 65.666 17.5 90.999s24.667 46.166 39 62.499s27.833 28.333 40.5 36
s20 11.5 22 11.5l17 -45c-3.33301 -2 -9.66602 -6.5 -18.999 -13.5s-19 -16.667 -29 -29s-18.833 -27.833 -26.5 -46.5s-11.5 -41 -11.5 -67c0 -42.667 10.833 -78.5 32.5 -107.5s49.334 -52.5 83.001 -70.5s70.5 -31 110.5 -39s78.667 -12 116 -12c64 0 119 7.33301 165 22
s83.667 34.334 113 59.001s51 53.167 65 85.5s21 66.166 21 101.499c0 36 -6 67.333 -18 94s-30 50.834 -54 72.501s-53.833 42.334 -89.5 62.001s-76.834 40.5 -123.501 62.5l-134.5 67c-42.333 22 -79.333 46.667 -111 74s-56.667 58.666 -75 93.999
s-27.5 77.333 -27.5 126c0 46 7 89 21 129s33.667 76 59 108c-25.333 26.667 -45 57.834 -59 93.501s-21 78.167 -21 127.5c0 52 9.83301 99 29.5 141s45.834 77.5 78.501 106.5s70.167 51.333 112.5 67s86.5 23.5 132.5 23.5c49.333 0 92.833 -5.83301 130.5 -17.5
s69.334 -28 95.001 -49s45 -46.167 58 -75.5s19.5 -61.666 19.5 -96.999c0 -29.333 -3.33301 -57.833 -10 -85.5s-14.167 -52.334 -22.5 -74.001s-16.166 -39.5 -23.499 -53.5l-12 -23l-43 23c2 8 6.16699 19 12.5 33s13 30.333 20 49s13.167 39.167 18.5 61.5
s8 45.5 8 69.5c0 28.667 -5 54.5 -15 77.5s-25.5 42.667 -46.5 59s-47.333 29 -79 38s-69.5 13.5 -113.5 13.5c-43.333 0 -82.5 -7.33301 -117.5 -22s-64.833 -33.834 -89.5 -57.501s-43.667 -50.667 -57 -81s-20 -61.5 -20 -93.5c0 -33.333 5.16699 -62.666 15.5 -87.999
s29 -50 56 -74s64.333 -48.667 112 -74s108.5 -54.333 182.5 -87c52 -23.333 96.333 -47.833 133 -73.5s66.334 -52.167 89.001 -79.5s39.167 -55 49.5 -83s15.5 -56 15.5 -84zM572.996 654.999c-47.333 21.333 -91.667 43 -133 65s-77.333 47 -108 75
c-15.333 -19.333 -26 -41.833 -32 -67.5s-9 -60.5 -9 -104.5c0 -25.333 5 -49.833 15 -73.5s28.5 -47.834 55.5 -72.501s64.167 -50.167 111.5 -76.5s108.666 -54.833 183.999 -85.5c34 -14 64.333 -28.667 91 -44s50.334 -31.333 71.001 -48
c12.667 21.333 22.334 44 29.001 68s10 48.667 10 74c0 36 -6 67.167 -18 93.5s-30 50.333 -54 72s-53.833 42.334 -89.5 62.001s-76.834 40.5 -123.501 62.5z" />
    <glyph glyph-name="dieresis" unicode="&#xa8;" 
d="M162 913c0 13.333 4.16699 24.666 12.5 33.999s19.166 14 32.499 14s24.5 -4.66699 33.5 -14s13.5 -20.666 13.5 -33.999c0 -12 -4.5 -22.5 -13.5 -31.5s-20.167 -13.5 -33.5 -13.5s-24.166 4.5 -32.499 13.5s-12.5 19.5 -12.5 31.5zM360 913
c0 13.333 4.5 24.666 13.5 33.999s19.833 14 32.5 14c13.333 0 24.5 -4.66699 33.5 -14s13.5 -20.666 13.5 -33.999c0 -12 -4.5 -22.5 -13.5 -31.5s-20.167 -13.5 -33.5 -13.5c-12.667 0 -23.5 4.5 -32.5 13.5s-13.5 19.5 -13.5 31.5z" />
    <glyph glyph-name="copyright" unicode="&#xa9;" horiz-adv-x="1737" 
d="M123 676c0 68.667 8.83301 134.667 26.5 198s42.667 122.666 75 177.999s71.166 105.666 116.499 150.999s95.666 84.166 150.999 116.499s114.666 57.333 177.999 75s129.333 26.5 198 26.5s134.834 -8.83301 198.501 -26.5s123 -42.667 178 -75
s105.333 -71.166 151 -116.499s84.667 -95.666 117 -150.999s57.333 -114.666 75 -177.999s26.5 -129.333 26.5 -198s-8.83301 -134.834 -26.5 -198.501s-42.667 -123 -75 -178s-71.333 -105.333 -117 -151s-96 -84.667 -151 -117s-114.333 -57.333 -178 -75
s-129.834 -26.5 -198.501 -26.5s-134.667 8.83301 -198 26.5s-122.666 42.667 -177.999 75s-105.666 71.333 -150.999 117s-84.166 96 -116.499 151s-57.333 114.333 -75 178s-26.5 129.834 -26.5 198.501zM184 676c0 -63.333 8.16699 -124.166 24.5 -182.499
s39.333 -112.833 69 -163.5s65.167 -96.667 106.5 -138s87.333 -76.833 138 -106.5s105.167 -52.667 163.5 -69s119.166 -24.5 182.499 -24.5s124.166 8.16699 182.499 24.5s112.833 39.333 163.5 69s96.667 65.167 138 106.5s76.833 87.333 106.5 138
s52.667 105.167 69 163.5s24.5 119.166 24.5 182.499s-8.16699 124.166 -24.5 182.499s-39.333 112.833 -69 163.5s-65.167 96.667 -106.5 138s-87.333 76.833 -138 106.5s-105.167 52.667 -163.5 69s-119.166 24.5 -182.499 24.5s-124.166 -8.16699 -182.499 -24.5
s-112.833 -39.333 -163.5 -69s-96.667 -65.167 -138 -106.5s-76.833 -87.333 -106.5 -138s-52.667 -105.167 -69 -163.5s-24.5 -119.166 -24.5 -182.499zM1139 1143c-28 -8 -54.6602 -19.001 -79.9932 -33.001c24.667 -18.667 44.5 -42 59.5 -70s22.5 -60.667 22.5 -98
c0 -30 -4.16699 -57.833 -12.5 -83.5s-20 -47.834 -35 -66.501s-32.667 -33.167 -53 -43.5s-42.833 -15.5 -67.5 -15.5c-18 0 -35.833 2.83301 -53.5 8.5s-33.5 14.334 -47.5 26.001s-25.333 26.334 -34 44.001s-13 38.5 -13 62.5c0 25.333 4.5 49.5 13.5 72.5
s21.333 44.667 37 65s33.667 39 54 56s42.166 31.833 65.499 44.5c-11.333 4 -23.333 7.33301 -36 10s-25.667 4 -39 4c-39.333 0 -81.333 -9.83301 -126 -29.5s-85.834 -49.167 -123.501 -88.5s-69 -88.666 -94 -147.999s-37.5 -128.333 -37.5 -207
c0 -53.333 7.66699 -103.5 23 -150.5s38.333 -88 69 -123s69 -62.667 115 -83s99.667 -30.5 161 -30.5c36 0 70.667 4.83301 104 14.5s64.666 23 93.999 40s56.5 37.5 81.5 61.5s47.167 50.333 66.5 79l27 -19c-21.333 -35.333 -46.666 -67 -75.999 -95
s-61.833 -51.833 -97.5 -71.5s-73.667 -34.667 -114 -45s-81.833 -15.5 -124.5 -15.5c-61.333 0 -117.833 9.83301 -169.5 29.5s-96.334 47.667 -134.001 84s-67.167 80 -88.5 131s-32 108.167 -32 171.5c0 56.667 6.83301 109.167 20.5 157.5s32.167 92.166 55.5 131.499
s50.666 73.833 81.999 103.5s64.666 54.5 99.999 74.5s71.666 35.167 108.999 45.5s73.666 15.5 108.999 15.5c19.333 0 38.5 -2.5 57.5 -7.5s37.167 -12.833 54.5 -23.5c34 16.667 68.333 27 103 31zM1106.01 943.999c0 30 -6.83008 58.1689 -20.4971 84.502
s-32.834 48.166 -57.501 65.499c-39.333 -25.333 -71.666 -56.833 -96.999 -94.5s-38 -83.5 -38 -137.5c0 -28.667 7.66699 -51.834 23 -69.501s35.666 -26.5 60.999 -26.5c22 0 41.167 5.83301 57.5 17.5s29.666 26.5 39.999 44.5s18.166 37.333 23.499 58s8 40 8 58z" />
    <glyph glyph-name="ordfeminine" unicode="&#xaa;" 
d="M631 840c-16.667 -23.333 -33.166 -40.167 -49.499 -50.5s-34.166 -15.5 -53.499 -15.5c-23.333 0 -44.5 8.33301 -63.5 25s-30.5 42.667 -34.5 78c-16.667 -37.333 -37.834 -67.5 -63.501 -90.5s-59.167 -34.5 -100.5 -34.5c-21.333 0 -42.166 4 -62.499 12
s-38.333 20.333 -54 37s-28.167 37.667 -37.5 63s-14 55.333 -14 90c0 53.333 9.5 101.5 28.5 144.5s42.5 79.667 70.5 110s57.833 53.666 89.5 69.999s60.5 24.5 86.5 24.5c40 0 70.167 -10.333 90.5 -31s30.5 -47.334 30.5 -80.001c0 -24.667 -5 -45.834 -15 -63.501
s-21.833 -32.5 -35.5 -44.5s-27.5 -21.667 -41.5 -29l-33 -17l-15 35c1.33301 0 7.5 2 18.5 6s22.667 10.667 35 20s23.666 21.5 33.999 36.5s15.5 33.833 15.5 56.5c0 25.333 -7.33301 44 -22 56s-33.334 18 -56.001 18c-18 0 -38.333 -6.33301 -61 -19
s-44.167 -32 -64.5 -58s-37.333 -58.5 -51 -97.5s-20.5 -84.833 -20.5 -137.5c0 -55.333 9.16699 -95.666 27.5 -120.999s44.166 -38 77.499 -38c16 0 31.333 4.33301 46 13s28 20.5 40 35.5s23 32.667 33 53s18.667 41.833 26 64.5l10.5 57
c3.66699 20 9.83398 42.333 18.501 67l49 -16c-2.66699 -7.33301 -5.5 -16.666 -8.5 -27.999s-5.66699 -23.5 -8 -36.5s-4.33301 -26.667 -6 -41s-2.5 -28.166 -2.5 -41.499c0 -41.333 4.16699 -69.833 12.5 -85.5s22.833 -23.5 43.5 -23.5c20 0 41 15.667 63 47z
M125.001 656.999c40 2 81.666 3.33301 124.999 4c36.667 0.666992 77.667 0.833984 123 0.500977s90.333 -1.83301 135 -4.5v-41c-35.333 -1.33301 -73.666 -2.33301 -114.999 -3c-35.333 -0.666992 -76 -0.833984 -122 -0.500977s-94.667 1.5 -146 3.5v41z" />
    <glyph glyph-name="guillemotleft" unicode="&#xab;" horiz-adv-x="883" 
d="M164 489l356 295l35 -45l-303 -250l303 -249l-35 -45zM451 489l356 295l35 -45l-303 -250l303 -249l-35 -45z" />
    <glyph glyph-name="logicalnot" unicode="&#xac;" horiz-adv-x="819" 
d="M694 684c0 -40 -0.164062 -79.5 -0.49707 -118.5s-1.5 -77.833 -3.5 -116.5h-41l-4 103.5c-1.33301 35 -2 71.5 -2 109.5c-74.667 -3.33301 -153.834 -5.16602 -237.501 -5.49902s-177.834 2.16699 -282.501 7.5v41c50.667 0.666992 100 1.5 148 2.5
s95.5 1.66699 142.5 2s93.667 0.166016 140 -0.500977s93.166 -2 140.499 -4v-21z" />
    <glyph glyph-name="uni00AD" unicode="&#xad;" horiz-adv-x="676" 
d="M633 422c-27.333 -1.33301 -51.4961 -2.33203 -72.4961 -2.99902s-40.833 -1.33398 -59.5 -2.00098s-37.334 -1 -56.001 -1s-39.334 0.166992 -62.001 0.5s-48.334 0.833008 -77.001 1.5s-62.334 2 -101.001 4v70c34 0.666992 63.667 1.33398 89 2.00098
s48.5 1.16699 69.5 1.5s41 0.666016 60 0.999023s38.667 0.333008 59 0s42.5 -0.833008 66.5 -1.5s52 -1.66699 84 -3v-70z" />
    <glyph glyph-name="registered" unicode="&#xae;" horiz-adv-x="1157" 
d="M102 829c0 66 12.5 128 37.5 186s59 108.667 102 152s93.333 77.5 151 102.5s119.5 37.5 185.5 37.5c65.333 0 127 -12.5 185 -37.5s108.667 -59.167 152 -102.5s77.5 -94 102.5 -152s37.5 -120 37.5 -186c0 -65.333 -12.5 -126.833 -37.5 -184.5
s-59.167 -108 -102.5 -151s-94 -77 -152 -102s-119.667 -37.5 -185 -37.5c-66 0 -127.833 12.5 -185.5 37.5s-108 59 -151 102s-77 93.333 -102 151s-37.5 119.167 -37.5 184.5zM164 829c0 -57.333 10.833 -111 32.5 -161s51.167 -93.667 88.5 -131
s81.166 -66.833 131.499 -88.5s104.166 -32.5 161.499 -32.5s111.166 10.833 161.499 32.5s94.333 51.167 132 88.5s67.334 81 89.001 131s32.5 103.667 32.5 161s-10.833 111.333 -32.5 162s-51.334 94.834 -89.001 132.501s-81.667 67.334 -132 89.001
s-104.166 32.5 -161.499 32.5s-111.166 -10.833 -161.499 -32.5s-94.166 -51.334 -131.499 -89.001s-66.833 -81.834 -88.5 -132.501s-32.5 -104.667 -32.5 -162zM807 952c0 -28 -5.83105 -51.9971 -17.498 -71.9971s-26.834 -36.5 -45.501 -49.5s-39.167 -22.5 -61.5 -28.5
s-43.833 -9 -64.5 -9c8.66699 -13.333 17 -31 25 -53s17.167 -43.5 27.5 -64.5s23 -39.167 38 -54.5s34.167 -23 57.5 -23c10 0 21.833 3 35.5 9s27.834 15.333 42.501 28l16 -17c-18.667 -16 -37.167 -30.167 -55.5 -42.5s-38.833 -18.5 -61.5 -18.5
c-28.667 0 -51.834 8.66699 -69.501 26s-32.5 38.166 -44.5 62.499s-22.167 49.833 -30.5 76.5s-17.5 49.667 -27.5 69c-12 0 -25.667 0.5 -41 1.5s-30.333 3.16699 -45 6.5c1.33301 -9.33301 2 -18.5 2 -27.5v-21.5c0 -50.667 -8.66699 -91 -26 -121s-44 -45 -80 -45
c-6 0 -12.167 0.166992 -18.5 0.5s-14.5 2.16602 -24.5 5.49902l6 26c8 -3.33301 14.833 -5.5 20.5 -6.5s11.167 -1.5 16.5 -1.5c12.667 0 22.5 2.16699 29.5 6.5s12 10.166 15 17.499s4.83301 15.666 5.5 24.999s1 19 1 29c0 10.667 -0.333008 21.5 -1 32.5
s-1.66699 22.833 -3 35.5c-1.33301 13.333 -2.33301 27.5 -3 42.5s-1 30.167 -1 45.5c0 28 3.83301 54.833 11.5 80.5s16 48.334 25 68.001s17.5 35.334 25.5 47.001s12.667 17.5 14 17.5l14 -15l-7.5 -19.5c-3.66699 -9.66699 -7.33398 -21.667 -11.001 -36
s-7 -30.833 -10 -49.5s-4.5 -39 -4.5 -61v-4h8c20.667 0 42.334 -4.83301 65.001 -14.5s40 -23.834 52 -42.501c19.333 2 37.5 6 54.5 12s31.667 14.667 44 26s22.166 25.5 29.499 42.5s11 37.167 11 60.5c0 26 -5.5 47.833 -16.5 65.5s-24.667 31.667 -41 42
s-33.833 17.666 -52.5 21.999s-35.667 6.5 -51 6.5c-42.667 0 -79.167 -4.83301 -109.5 -14.5s-55.166 -20.167 -74.499 -31.5c-22.667 -13.333 -41.334 -28.333 -56.001 -45l-16 17l20.5 20c11 10.667 26.833 21.834 47.5 33.501s46.5 22 77.5 31s67.833 13.5 110.5 13.5
c30 0 58.5 -3.66699 85.5 -11s50.667 -17.833 71 -31.5s36.5 -30.5 48.5 -50.5s18 -43 18 -69zM481.002 848.003l-0.000976562 -7.5c0 -3 0.666992 -6.16699 2 -9.5v-8c8.66699 -3.33301 18.834 -5.83301 30.501 -7.5s26.167 -2.5 43.5 -2.5
c-9.33301 10.667 -19.5 19.167 -30.5 25.5s-22.5 9.5 -34.5 9.5h-11z" />
    <glyph glyph-name="macron" unicode="&#xaf;" 
d="M172 889v43h270v-43h-270z" />
    <glyph glyph-name="degree" unicode="&#xb0;" horiz-adv-x="295" 
d="M254 1145c0 -14.667 -2.66699 -28.499 -8 -41.499s-12.833 -24.333 -22.5 -34s-21 -17.334 -34 -23.001s-27.167 -8.5 -42.5 -8.5c-30 0 -55.167 10 -75.5 30s-30.5 45.667 -30.5 77c0 30 10.167 55.167 30.5 75.5s45.5 30.5 75.5 30.5c31.333 0 57 -10 77 -30
s30 -45.333 30 -76zM215 1145c0 19.333 -6.5 35.333 -19.5 48s-29.167 19 -48.5 19s-35.333 -6.33301 -48 -19s-19 -28.667 -19 -48s6.33301 -35.5 19 -48.5s28.667 -19.5 48 -19.5s35.5 6.66699 48.5 20s19.5 29.333 19.5 48z" />
    <glyph glyph-name="plusminus" unicode="&#xb1;" horiz-adv-x="819" 
d="M401 276c-4 84 -6 174.333 -6 271c-83.333 0 -174 2 -272 6v41c46 1.33301 91.5 2.33301 136.5 3s90.167 1 135.5 1c0 43.333 0.5 87.166 1.5 131.499s2.5 90.5 4.5 138.5h41c1.33301 -46 2.33301 -91.167 3 -135.5s1 -89.166 1 -134.499
c46.667 0 92.167 -0.166992 136.5 -0.5s88.5 -1.5 132.5 -3.5v-41c-82 -4 -171.667 -6 -269 -6c0 -46 -0.166992 -91.5 -0.5 -136.5s-1.5 -89.833 -3.5 -134.5h-41zM715 133c-82.667 -3.33301 -172.668 -5.5 -270.001 -6.5s-204.666 1.16699 -321.999 6.5v41
c102 2 202.167 3.5 300.5 4.5s195.5 -0.5 291.5 -4.5v-41z" />
    <glyph glyph-name="twosuperior" unicode="&#xb2;" horiz-adv-x="764" 
d="M211 477c-41.333 0 -71.8311 6.8291 -91.498 20.4961s-29.5 30.167 -29.5 49.5c0 20.667 11 37.667 33 51s50.667 20 86 20c32 0 63.333 -5.5 94 -16.5s62 -23.167 94 -36.5c36.667 22.667 70.167 51.334 100.5 86.001s56.333 72.667 78 114s38.334 84.833 50.001 130.5
s17.5 91.167 17.5 136.5c0 42.667 -7.33301 79 -22 109s-33.834 54.5 -57.501 73.5s-50 32.667 -79 41s-57.5 12.5 -85.5 12.5c-36.667 0 -70.667 -6.16699 -102 -18.5s-58.333 -28.5 -81 -48.5s-40.167 -43 -52.5 -69s-17.833 -52.333 -16.5 -79
c1.33301 -18.667 4.5 -38 9.5 -58s14.167 -39.667 27.5 -59c-3.33301 -2 -8.33301 -4.66699 -15 -8l-20 -10l-24 -11c-10.667 17.333 -18.834 36.333 -24.501 57s-8.5 41.334 -8.5 62.001c0 37.333 7.66699 72.833 23 106.5s36.666 63.167 63.999 88.5
s59.666 45.333 96.999 60s78.333 22 123 22c36.667 0 74.667 -4.5 114 -13.5s75.166 -24.333 107.499 -46s58.833 -50.5 79.5 -86.5s31 -81 31 -135c0 -43.333 -7.66699 -87.666 -23 -132.999s-36.166 -88.833 -62.499 -130.5s-57.5 -80.667 -93.5 -117
s-74.667 -67.166 -116 -92.499c28 -11.333 56.167 -21.333 84.5 -30s56.833 -13 85.5 -13c20 0 40.667 2 62 6l8 -33c-12.667 -3.33301 -24.667 -5.83301 -36 -7.5s-22.666 -2.5 -33.999 -2.5c-36 0 -71 6 -105 18s-68 25 -102 39c-30.667 -15.333 -61.667 -27.333 -93 -36
s-63 -13 -95 -13zM213.002 511.996c25.333 0 50.168 2.66699 74.501 8s47.833 13.666 70.5 24.999c-25.333 10 -50.333 19 -75 27s-49.334 12 -74.001 12c-17.333 0 -32.333 -3.5 -45 -10.5s-19 -16.5 -19 -28.5c0 -9.33301 5.66699 -17.166 17 -23.499s28.333 -9.5 51 -9.5
z" />
    <glyph glyph-name="threesuperior" unicode="&#xb3;" horiz-adv-x="750" 
d="M70 674l35.999 1.99902c2 -24 9 -47.167 21 -69.5s28.333 -42.333 49 -60s45.5 -31.667 74.5 -42s61.5 -15.5 97.5 -15.5c26.667 0 55.5 3.33301 86.5 10s59.667 18.334 86 35.001s48.166 39.334 65.499 68.001s26 65 26 109c0 32 -5.83301 61.167 -17.5 87.5
s-28.667 49.166 -51 68.499s-49.833 34.333 -82.5 45s-70.334 16 -113.001 16c-13.333 0 -27.5 -0.833008 -42.5 -2.5s-30.167 -3.5 -45.5 -5.5l-10 41c48.667 35.333 96.834 75.833 144.501 121.5s91.5 101.167 131.5 166.5c-36.667 -9.33301 -84.167 -17.833 -142.5 -25.5
s-124.166 -11.5 -197.499 -11.5l-12 78c0.666992 -0.666992 5.83398 -1.33398 15.501 -2.00098s22.667 -1.5 39 -2.5s35.333 -1.83301 57 -2.5s45.167 -1 70.5 -1c41.333 0 83.833 1.5 127.5 4.5s83.167 9.16699 118.5 18.5l16 -17c-20 -34 -44 -67.333 -72 -100
s-56.833 -63.5 -86.5 -92.5s-58.167 -55.167 -85.5 -78.5s-50.333 -42 -69 -56c11.333 4 24.833 7 40.5 9s32.167 3 49.5 3c32.667 0 66.667 -3.83301 102 -11.5s67.833 -20.834 97.5 -39.501s54 -43.667 73 -75s28.5 -70.666 28.5 -117.999
c0 -42.667 -8.16699 -81.167 -24.5 -115.5s-39.166 -63.5 -68.499 -87.5s-64 -42.5 -104 -55.5s-83.333 -19.5 -130 -19.5c-37.333 0 -73.333 4.66699 -108 14s-65.834 23.333 -93.501 42s-50.167 41.834 -67.5 69.501s-27.333 60.167 -30 97.5z" />
    <glyph glyph-name="acute" unicode="&#xb4;" 
d="M436 983l-239 -145l-19 24l219 180z" />
    <glyph glyph-name="mu" unicode="&#xb5;" horiz-adv-x="776" 
d="M780 172c-20.667 -36 -43.4902 -65.501 -68.4902 -88.501s-54.5 -34.5 -88.5 -34.5c-24 0 -45 4.66699 -63 14s-33.167 22 -45.5 38s-21.666 35.167 -27.999 57.5s-9.5 46.5 -9.5 72.5c-14 -38 -27.833 -69.333 -41.5 -94s-28 -44.167 -43 -58.5s-30.667 -24.5 -47 -30.5
s-33.833 -9 -52.5 -9c-11.333 0 -22.833 2 -34.5 6s-23 9.83301 -34 17.5s-21 17.334 -30 29.001s-16.5 25.5 -22.5 41.5c-2.66699 -61.333 -5.33398 -119.166 -8.00098 -173.499s-5.66699 -104.166 -9 -149.499s-6.83301 -85.333 -10.5 -120s-7.5 -62.334 -11.5 -83.001
l-88 -25c18.667 88.667 32.167 188.167 40.5 298.5s12.5 226.5 12.5 348.5c0 54 1 105.5 3 154.5s4.66699 92.167 8 129.5c3.33301 43.333 7.33301 84 12 122h76c-0.666992 -0.666992 -1.83398 -11.834 -3.50098 -33.501s-3.33398 -49.5 -5.00098 -83.5
s-3.16699 -71.833 -4.5 -113.5s-2 -82.834 -2 -123.501c0 -31.333 2.66699 -57.666 8 -78.999s12.666 -38.666 21.999 -51.999s20.166 -22.833 32.499 -28.5s25.833 -8.5 40.5 -8.5c28.667 0 53.667 7.5 75 22.5s39.666 35.5 54.999 61.5s28.166 56.167 38.499 90.5
s19.166 71 26.499 110s13.5 79.167 18.5 120.5s9.5 81.666 13.5 120.999l70 -8c-6 -50.667 -10.833 -94.5 -14.5 -131.5l-9.5 -98c-2.66699 -28.333 -4.5 -53.5 -5.5 -75.5s-1.5 -43.333 -1.5 -64c0 -20 1.83301 -40.167 5.5 -60.5s9.16699 -38.5 16.5 -54.5
s16.666 -29.167 27.999 -39.5s24.666 -15.5 39.999 -15.5c39.333 0 77.666 32 114.999 96z" />
    <glyph glyph-name="paragraph" unicode="&#xb6;" horiz-adv-x="752" 
d="M543 -31c0 64 -0.495117 132.168 -1.49512 204.501s-2.33301 147 -4 224s-3 155 -4 234s-1.66699 157 -2 234s0.166992 151.667 1.5 224s4 140.5 8 204.5c-12.667 1.33301 -25.5 2 -38.5 2h-39.5c-3.33301 -102.667 -5.66602 -211 -6.99902 -325
s-1.66602 -228.667 -0.999023 -344s2.16699 -228.833 4.5 -340.5s6.16602 -216.834 11.499 -315.501h-51c-0.666992 32 -1.16699 68.167 -1.5 108.5l-1 127l-1 136.5l-1 137c-0.333008 44.667 -0.833008 87.334 -1.5 128.001s-1.33398 77 -2.00098 109h-17
c-28.667 0 -60 4.66699 -94 14s-65.833 25.5 -95.5 48.5s-54.334 54.167 -74.001 93.5s-29.5 89 -29.5 149c0 47.333 11.167 90.666 33.5 129.999s51.666 73.166 87.999 101.499s77.333 50.333 123 66s91.834 23.5 138.501 23.5c54 0 100.333 -6.33301 139 -19
s75 -33.334 109 -62.001l-33 -31c-11.333 9.33301 -21.333 17 -30 23s-17.334 11.167 -26.001 15.5s-17.334 7.83301 -26.001 10.5s-18.667 5.33398 -30 8.00098c-4.66699 -62.667 -8.33398 -129.667 -11.001 -201s-4.16699 -145 -4.5 -221s0 -153.167 1 -231.5
s2.5 -155.833 4.5 -232.5s4.66699 -151.667 8 -225s6.66602 -142.666 9.99902 -207.999h-53z" />
    <glyph glyph-name="periodcentered" unicode="&#xb7;" horiz-adv-x="307" 
d="M231 596c0 -20.667 -7 -38.167 -21 -52.5s-31.333 -21.5 -52 -21.5c-19.333 0 -36.166 7.16699 -50.499 21.5s-21.5 31.833 -21.5 52.5c0 19.333 7.16699 36.166 21.5 50.499s31.166 21.5 50.499 21.5c20.667 0 38 -7.16699 52 -21.5s21 -31.166 21 -50.499z" />
    <glyph glyph-name="cedilla" unicode="&#xb8;" 
d="M305 -72c14.667 0 29.168 -1.66797 43.501 -5.00098s26.833 -8.5 37.5 -15.5s19.334 -15.667 26.001 -26s10 -22.166 10 -35.499c0 -30.667 -11 -53 -33 -67s-50 -21 -84 -21c-24.667 0 -46.834 3.5 -66.501 10.5s-37.167 14.5 -52.5 22.5l15 33
c10.667 -7.33301 25.667 -14.333 45 -21s37.666 -10 54.999 -10c20.667 0 37.5 4.83301 50.5 14.5s19.5 22.5 19.5 38.5c0 10.667 -2.66699 19.5 -8 26.5s-12 12.5 -20 16.5s-16.5 6.83301 -25.5 8.5s-17.167 2.5 -24.5 2.5c-6 0 -11.833 -0.166992 -17.5 -0.5
s-11.5 -1.5 -17.5 -3.5l41 122h35z" />
    <glyph glyph-name="onesuperior" unicode="&#xb9;" horiz-adv-x="328" 
d="M205 498l-96.001 4.00293l131 721c-13.333 -22 -27.166 -42.667 -41.499 -62l-38.5 -51c-11.333 -14.667 -20.833 -26.334 -28.5 -35.001s-11.834 -13.334 -12.501 -14.001l-29 24c21.333 21.333 41.666 43.666 60.999 66.999c16.667 20 33.834 43 51.501 69
s32.834 53.333 45.501 82l37 -7z" />
    <glyph glyph-name="ordmasculine" unicode="&#xba;" 
d="M569 940c-10 -5.33301 -20.1699 -9.49316 -30.5029 -12.4932s-20.5 -5.5 -30.5 -7.5c-8 -26.667 -18.167 -51.667 -30.5 -75s-27.5 -43.5 -45.5 -60.5s-38.667 -30.5 -62 -40.5s-49.666 -15 -78.999 -15c-24.667 0 -49.167 5 -73.5 15s-46.333 25.167 -66 45.5
s-35.5 46.166 -47.5 77.499s-18 68.666 -18 111.999c0 28 3.33301 55.667 10 83s16 53.166 28 77.499s26.333 47 43 68s34.667 39.167 54 54.5l19 -25c-12.667 -11.333 -24.834 -25 -36.501 -41s-22.167 -33.667 -31.5 -53s-16.833 -39.833 -22.5 -61.5
s-8.5 -43.5 -8.5 -65.5c0 -43.333 5.16699 -79.5 15.5 -108.5s23.833 -52.167 40.5 -69.5s35.334 -29.5 56.001 -36.5s41.334 -10.5 62.001 -10.5c30 0 59 10.5 87 31.5s50.333 51.833 67 92.5h-8c-32.667 0 -63.5 5.66699 -92.5 17s-54.167 27.166 -75.5 47.499
s-38.333 44.5 -51 72.5s-19 59 -19 93c0 18.667 2.83301 37.5 8.5 56.5s14.334 36 26.001 51s26.5 27.167 44.5 36.5s39 14 63 14c18 0 36.667 -3.83301 56 -11.5s37 -21 53 -40s29 -44.333 39 -76s15 -71.834 15 -120.501c0 -17.333 -0.833008 -34.333 -2.5 -51
s-4.16699 -33.334 -7.5 -50.001c6 2 12.167 4.16699 18.5 6.5s12.5 5.16602 18.5 8.49902zM480.997 950.007c4 15.333 7.16992 31.832 9.50293 49.499s3.5 36.834 3.5 57.501c-1.33301 38 -5.5 70.333 -12.5 97s-16.333 48.5 -28 65.5s-25.334 29.333 -41.001 37
s-32.5 11.5 -50.5 11.5c-28.667 0 -52.834 -10.833 -72.501 -32.5s-29.5 -50.5 -29.5 -86.5c0 -31.333 5.83301 -59.333 17.5 -84s27 -45.5 46 -62.5s40.667 -30 65 -39s49.166 -13.5 74.499 -13.5h18zM113 657.006c40 2 81.333 3.33301 124 4
c36.667 0.666992 77.667 0.833984 123 0.500977s90.666 -1.83301 135.999 -4.5v-41c-35.333 -1.33301 -73.666 -2.33301 -114.999 -3c-35.333 -0.666992 -76 -0.833984 -122 -0.500977s-94.667 1.5 -146 3.5v41z" />
    <glyph glyph-name="guillemotright" unicode="&#xbb;" horiz-adv-x="883" 
d="M178 195l-35 45l303 249l-303 250l35 45l357 -295zM465 195l-35 45l303 249l-303 250l35 45l356 -295z" />
    <glyph glyph-name="onequarter" unicode="&#xbc;" horiz-adv-x="1223" 
d="M1034 6l-110 1.99707c11.333 43.333 21.333 86.5 30 129.5s17 86.5 25 130.5c-21.333 0.666992 -41.5 2.16699 -60.5 4.5s-37.5 4.83301 -55.5 7.5l-53 7.5c-17.333 2.33301 -34.666 3.5 -51.999 3.5c-29.333 0 -57.166 -2.33301 -83.499 -7
s-51.833 -13.334 -76.5 -26.001c-4.66699 4 -10 9.16699 -16 15.5l-17.5 19l-14.5 16.5c-4 4.66699 -6.33301 7.33398 -7 8.00098c14.667 17.333 29.334 37.333 44.001 60s28.667 46.834 42 72.501s26.166 52 38.499 79s23.5 53.167 33.5 78.5c24 60 46.333 122 67 186
l37 -2c-0.666992 -3.33301 -4.5 -19.666 -11.5 -48.999s-16.833 -65.666 -29.5 -108.999s-28.167 -90.333 -46.5 -141s-39.166 -98.667 -62.499 -144c6.66699 1.33301 17 2.33301 31 3s25.667 1 35 1c26.667 0 51.167 -1.5 73.5 -4.5s43.833 -6.83301 64.5 -11.5l61.5 -14
c20.333 -4.66699 41.833 -9 64.5 -13c13.333 77.333 23.666 153 30.999 227s12.666 150.667 15.999 230h37l-22 -461c18 1.33301 36.167 3.16602 54.5 5.49902s36.166 6.16602 53.499 11.499l6 -35c-19.333 -5.33301 -38.833 -9.16602 -58.5 -11.499
s-39.167 -4.16602 -58.5 -5.49902zM227 497.997l-96 4.00293l131 721c-13.333 -22 -27 -42.667 -41 -62s-26.833 -36.333 -38.5 -51s-21.334 -26.334 -29.001 -35.001s-11.834 -13.334 -12.501 -14.001l-28 24c20.667 21.333 40.667 43.666 60 66.999
c16.667 20 33.834 43 51.501 69s32.834 53.333 45.501 82l37 -7zM61 12l204.5 318l208 317.5l215.5 323l229 336.5l32 -25l-235 -346l-216.5 -328l-203.5 -313.5l-195 -302.5z" />
    <glyph glyph-name="onehalf" unicode="&#xbd;" horiz-adv-x="1360" 
d="M778 6c-41.333 0 -71.833 6.83008 -91.5 20.4971s-29.5 30.167 -29.5 49.5c0 20.667 11.167 37.667 33.5 51s50.833 20 85.5 20c32 0 63.5 -5.5 94.5 -16.5s62.5 -23.167 94.5 -36.5c36.667 22.667 70 51.334 100 86.001s55.833 72.667 77.5 114
s38.334 84.833 50.001 130.5s17.5 91.167 17.5 136.5c0 42.667 -7.33301 79 -22 109s-33.834 54.5 -57.501 73.5s-49.834 32.667 -78.501 41s-57 12.5 -85 12.5c-37.333 0 -71.666 -6.16699 -102.999 -18.5s-58.333 -28.5 -81 -48.5s-40 -43 -52 -69
s-17.333 -52.333 -16 -79c1.33301 -18.667 4.5 -38 9.5 -58s14.167 -39.667 27.5 -59l-16 -8l-20 -10l-24 -11c-10 17.333 -18 36.333 -24 57s-9 41.334 -9 62.001c0 37.333 7.66699 72.833 23 106.5s36.666 63 63.999 88s59.833 44.833 97.5 59.5s78.834 22 123.501 22
c36.667 0 74.5 -4.5 113.5 -13.5s74.667 -24.333 107 -46s58.833 -50.334 79.5 -86.001s31 -80.5 31 -134.5c0 -43.333 -7.5 -87.666 -22.5 -132.999s-35.833 -88.833 -62.5 -130.5s-57.834 -80.667 -93.501 -117s-74.167 -67.166 -115.5 -92.499
c28 -11.333 56 -21.333 84 -30s56.667 -13 86 -13c19.333 0 39.666 2 60.999 6l8 -33c-12 -3.33301 -23.667 -5.83301 -35 -7.5s-22.666 -2.5 -33.999 -2.5c-36 0 -71 6 -105 18s-68 25 -102 39c-31.333 -15.333 -62.666 -27.333 -93.999 -36s-63 -13 -95 -13zM61 11.9971
l204.5 318l208 317.5l215.5 323l229 336.5l32 -25l-235 -346l-216.5 -328l-203.5 -313.5l-195 -302.5zM227 497.997l-96 4.00293l131 721c-13.333 -22 -27 -42.667 -41 -62s-26.833 -36.333 -38.5 -51s-21.334 -26.334 -29.001 -35.001s-11.834 -13.334 -12.501 -14.001
l-28 24c20.667 21.333 40.667 43.666 60 66.999c16.667 20 33.834 43 51.501 69s32.834 53.333 45.501 82l37 -7zM780 41c25.333 0 50.332 2.66699 74.999 8s48.334 13.666 71.001 24.999c-26 10 -51.333 19 -76 27s-49.334 12 -74.001 12
c-17.333 0 -32.166 -3.5 -44.499 -10.5s-18.5 -16.5 -18.5 -28.5c0 -9.33301 5.5 -17.166 16.5 -23.499s27.833 -9.5 50.5 -9.5z" />
    <glyph glyph-name="threequarters" unicode="&#xbe;" horiz-adv-x="1591" 
d="M1403 6l-110.997 2c11.333 43.333 21.333 86.5 30 129.5l26 130.5c-21.333 0.666992 -41.5 2.16699 -60.5 4.5s-37.5 4.83301 -55.5 7.5s-35.833 5.16699 -53.5 7.5s-35.167 3.5 -52.5 3.5c-28.667 0 -56.167 -2.33301 -82.5 -7s-51.833 -13.334 -76.5 -26.001
c-4.66699 4 -10.167 9.16699 -16.5 15.5s-12.333 12.666 -18 18.999l-14.5 16.5c-4 4.66699 -6.33301 7.33398 -7 8.00098c14.667 17.333 29.334 37.333 44.001 60s28.667 46.834 42 72.501s26.166 52 38.499 79s23.5 53.167 33.5 78.5c24 60 46.667 122 68 186l37 -2
c-0.666992 -2 -2.66699 -10.167 -6 -24.5s-8 -32.833 -14 -55.5l-21.5 -78c-8.33301 -29.333 -18 -60 -29 -92s-23.167 -64.667 -36.5 -98s-27.666 -65 -42.999 -95c6 0.666992 16.167 1.5 30.5 2.5s26.166 1.5 35.499 1.5c26.667 0 51.167 -1.5 73.5 -4.5
s43.833 -6.83301 64.5 -11.5l61.5 -14c20.333 -4.66699 41.833 -9 64.5 -13c13.333 77.333 23.666 153 30.999 227s12.666 150.667 15.999 230h37l-23 -461c18.667 1.33301 37.167 3.16602 55.5 5.49902s36.166 6.16602 53.499 11.499l6 -35
c-19.333 -5.33301 -38.833 -9.16602 -58.5 -11.499s-39.167 -4.16602 -58.5 -5.49902zM430.003 12l204 318l207.5 317.5l216 323l228.5 336.5l33 -25l-235 -346l-217 -328l-203.5 -313.5l-194.5 -302.5zM70.0029 674l35.999 1.99902c2 -24 9 -47.167 21 -69.5
s28.333 -42.333 49 -60s45.5 -31.667 74.5 -42s61.5 -15.5 97.5 -15.5c26.667 0 55.5 3.33301 86.5 10s59.667 18.334 86 35.001s48.166 39.334 65.499 68.001s26 65 26 109c0 32 -5.83301 61.167 -17.5 87.5s-28.667 49.166 -51 68.499s-49.833 34.333 -82.5 45
s-70.334 16 -113.001 16c-13.333 0 -27.5 -0.833008 -42.5 -2.5s-30.167 -3.5 -45.5 -5.5l-10 41c48.667 35.333 96.834 75.833 144.501 121.5s91.5 101.167 131.5 166.5c-36.667 -9.33301 -84.167 -17.833 -142.5 -25.5s-124.166 -11.5 -197.499 -11.5l-12 78
c0.666992 -0.666992 5.83398 -1.33398 15.501 -2.00098s22.667 -1.5 39 -2.5s35.333 -1.83301 57 -2.5s45.167 -1 70.5 -1c41.333 0 83.833 1.5 127.5 4.5s83.167 9.16699 118.5 18.5l16 -17c-20 -34 -44 -67.333 -72 -100s-56.833 -63.5 -86.5 -92.5
s-58.167 -55.167 -85.5 -78.5s-50.333 -42 -69 -56c11.333 4 24.833 7 40.5 9s32.167 3 49.5 3c32.667 0 66.667 -3.83301 102 -11.5s67.833 -20.834 97.5 -39.501s54 -43.667 73 -75s28.5 -70.666 28.5 -117.999c0 -42.667 -8.16699 -81.167 -24.5 -115.5
s-39.166 -63.5 -68.499 -87.5s-64 -42.5 -104 -55.5s-83.333 -19.5 -130 -19.5c-37.333 0 -73.333 4.66699 -108 14s-65.834 23.333 -93.501 42s-50.167 41.834 -67.5 69.501s-27.333 60.167 -30 97.5z" />
    <glyph glyph-name="questiondown" unicode="&#xbf;" horiz-adv-x="961" 
d="M608 676c19.333 -29.333 33.167 -55.999 41.5 -79.999s12.5 -46.667 12.5 -68c0 -38 -7.16699 -72 -21.5 -102s-33.166 -57.5 -56.499 -82.5s-50 -48.333 -80 -70l-92 -65l-92 -66.5c-30 -22.667 -56.667 -47.667 -80 -75s-42.166 -57.666 -56.499 -90.999
s-21.5 -71 -21.5 -113c0 -50 9.83301 -91.833 29.5 -125.5s44.167 -61 73.5 -82s61 -36 95 -45s65.667 -13.5 95 -13.5c57.333 0 109.333 7.83301 156 23.5s86.667 37.167 120 64.5s59.166 59.333 77.499 96s27.5 75.667 27.5 117c0 57.333 -18.667 101 -56 131
s-90.333 45 -159 45c-31.333 0 -59.333 -4 -84 -12s-45.334 -15.667 -62.001 -23l-16 35c20.667 9.33301 46 18.166 76 26.499s64 12.5 102 12.5c30.667 0 60.5 -4.5 89.5 -13.5s54.667 -22.5 77 -40.5s40.166 -40.667 53.499 -68s20 -59.666 20 -96.999
c0 -47.333 -10.833 -91.5 -32.5 -132.5s-51.334 -76.5 -89.001 -106.5s-82.167 -53.667 -133.5 -71s-107 -26 -167 -26c-49.333 0 -97.666 6.5 -144.999 19.5s-89.666 32.5 -126.999 58.5s-67.333 58.667 -90 98s-34 85.666 -34 138.999c0 45.333 8 86.5 24 123.5
s37.167 71 63.5 102s56.333 59.5 90 85.5s68.167 50.667 103.5 74l103.5 67.5c33.667 21.667 63.667 43.667 90 66s47.5 45.666 63.5 69.999s24 50.833 24 79.5c0 22.667 -4.83301 42.667 -14.5 60l-31.5 54zM524.001 866.001c0 20.667 7.16699 38.167 21.5 52.5
s31.833 21.5 52.5 21.5c10 0 19.333 -2 28 -6s16.5 -9.33301 23.5 -16s12.5 -14.5 16.5 -23.5s6 -18.5 6 -28.5c0 -19.333 -7.5 -36 -22.5 -50s-32.167 -21 -51.5 -21c-20.667 0 -38.167 7 -52.5 21s-21.5 30.667 -21.5 50z" />
    <glyph glyph-name="Agrave" unicode="&#xc0;" horiz-adv-x="1167" 
d="M96 414l243.998 0.000976562l105 214l100.5 203l91.5 182l76.5 151l57 110c15.667 29.333 26.5 49 32.5 59c8 14.667 16.5 24.834 25.5 30.501s20.167 8.5 33.5 8.5c15.333 0 27.666 -4.83301 36.999 -14.5s14 -23.834 14 -42.501c0 -7.33301 -0.666992 -25 -2 -53
l-5 -105l-7 -141c-2.66699 -52 -5 -105.5 -7 -160.5s-3.66699 -109.667 -5 -164s-2 -104.5 -2 -150.5v-64c0 -21.333 0.666992 -41.666 2 -60.999h118.5c37 0 67.167 0.666992 90.5 2v-39c-36 -1.33301 -71 -2 -105 -2h-102c4.66699 -86.667 14.5 -165.334 29.5 -236.001
s38 -131.167 69 -181.5s71.167 -89.333 120.5 -117s110.666 -41.5 183.999 -41.5c29.333 0 60.666 3.66699 93.999 11l7 -41c-34 -10.667 -64.833 -18.5 -92.5 -23.5s-54.167 -7.5 -79.5 -7.5c-61.333 0 -114.5 7.66699 -159.5 23s-83.333 37 -115 65
s-57.5 61.5 -77.5 100.5s-35.667 82 -47 129s-19.333 97.333 -24 151s-7 109.167 -7 166.5h-408c-4 -9.33301 -8 -18.166 -12 -26.499l-13 -26.5c-33.333 -73.333 -65.333 -136.833 -96 -190.5s-60.167 -99.5 -88.5 -137.5s-55.166 -69.333 -80.499 -94
s-49.666 -44.834 -72.999 -60.501s-45.5 -28 -66.5 -37s-40.833 -16.833 -59.5 -23.5l-17 35l19 12.5c12.667 8.33301 29.667 21.5 51 39.5s46.333 41.667 75 71s59.334 64.666 92.001 105.999s66.834 89.5 102.501 144.5s70.834 117.5 105.501 187.5h-226v39zM855.998 1329
c-7.33301 0 -23.667 -22.5 -49 -67.5s-57.833 -107.833 -97.5 -188.5l-138.5 -289l-172 -370h392c0 60.667 2 121.834 6 183.501s8.83301 122 14.5 181s11.667 115.667 18 170l17.5 150c5.33301 45.667 9.83301 86.167 13.5 121.5s5.5 63.666 5.5 84.999
c0 10 -0.833008 16.5 -2.5 19.5s-4.16699 4.5 -7.5 4.5zM779.997 1663l219 -180l-18 -24l-240 145z" />
    <glyph glyph-name="Aacute" unicode="&#xc1;" horiz-adv-x="1167" 
d="M96 414l243.998 0.000976562l105 214l100.5 203l91.5 182l76.5 151l57 110c15.667 29.333 26.5 49 32.5 59c8 14.667 16.5 24.834 25.5 30.501s20.167 8.5 33.5 8.5c15.333 0 27.666 -4.83301 36.999 -14.5s14 -23.834 14 -42.501c0 -7.33301 -0.666992 -25 -2 -53
l-5 -105l-7 -141c-2.66699 -52 -5 -105.5 -7 -160.5s-3.66699 -109.667 -5 -164s-2 -104.5 -2 -150.5v-64c0 -21.333 0.666992 -41.666 2 -60.999h118.5c37 0 67.167 0.666992 90.5 2v-39c-36 -1.33301 -71 -2 -105 -2h-102c4.66699 -86.667 14.5 -165.334 29.5 -236.001
s38 -131.167 69 -181.5s71.167 -89.333 120.5 -117s110.666 -41.5 183.999 -41.5c29.333 0 60.666 3.66699 93.999 11l7 -41c-34 -10.667 -64.833 -18.5 -92.5 -23.5s-54.167 -7.5 -79.5 -7.5c-61.333 0 -114.5 7.66699 -159.5 23s-83.333 37 -115 65
s-57.5 61.5 -77.5 100.5s-35.667 82 -47 129s-19.333 97.333 -24 151s-7 109.167 -7 166.5h-408c-4 -9.33301 -8 -18.166 -12 -26.499l-13 -26.5c-33.333 -73.333 -65.333 -136.833 -96 -190.5s-60.167 -99.5 -88.5 -137.5s-55.166 -69.333 -80.499 -94
s-49.666 -44.834 -72.999 -60.501s-45.5 -28 -66.5 -37s-40.833 -16.833 -59.5 -23.5l-17 35l19 12.5c12.667 8.33301 29.667 21.5 51 39.5s46.333 41.667 75 71s59.334 64.666 92.001 105.999s66.834 89.5 102.501 144.5s70.834 117.5 105.501 187.5h-226v39zM855.998 1329
c-7.33301 0 -23.667 -22.5 -49 -67.5s-57.833 -107.833 -97.5 -188.5l-138.5 -289l-172 -370h392c0 60.667 2 121.834 6 183.501s8.83301 122 14.5 181s11.667 115.667 18 170l17.5 150c5.33301 45.667 9.83301 86.167 13.5 121.5s5.5 63.666 5.5 84.999
c0 10 -0.833008 16.5 -2.5 19.5s-4.16699 4.5 -7.5 4.5zM998.997 1604l-239 -145l-19 24l219 180z" />
    <glyph glyph-name="Acircumflex" unicode="&#xc2;" horiz-adv-x="1167" 
d="M96 414l243.998 0.000976562l105 214l100.5 203l91.5 182l76.5 151l57 110c15.667 29.333 26.5 49 32.5 59c8 14.667 16.5 24.834 25.5 30.501s20.167 8.5 33.5 8.5c15.333 0 27.666 -4.83301 36.999 -14.5s14 -23.834 14 -42.501c0 -7.33301 -0.666992 -25 -2 -53
l-5 -105l-7 -141c-2.66699 -52 -5 -105.5 -7 -160.5s-3.66699 -109.667 -5 -164s-2 -104.5 -2 -150.5v-64c0 -21.333 0.666992 -41.666 2 -60.999h118.5c37 0 67.167 0.666992 90.5 2v-39c-36 -1.33301 -71 -2 -105 -2h-102c4.66699 -86.667 14.5 -165.334 29.5 -236.001
s38 -131.167 69 -181.5s71.167 -89.333 120.5 -117s110.666 -41.5 183.999 -41.5c29.333 0 60.666 3.66699 93.999 11l7 -41c-34 -10.667 -64.833 -18.5 -92.5 -23.5s-54.167 -7.5 -79.5 -7.5c-61.333 0 -114.5 7.66699 -159.5 23s-83.333 37 -115 65
s-57.5 61.5 -77.5 100.5s-35.667 82 -47 129s-19.333 97.333 -24 151s-7 109.167 -7 166.5h-408c-4 -9.33301 -8 -18.166 -12 -26.499l-13 -26.5c-33.333 -73.333 -65.333 -136.833 -96 -190.5s-60.167 -99.5 -88.5 -137.5s-55.166 -69.333 -80.499 -94
s-49.666 -44.834 -72.999 -60.501s-45.5 -28 -66.5 -37s-40.833 -16.833 -59.5 -23.5l-17 35l19 12.5c12.667 8.33301 29.667 21.5 51 39.5s46.333 41.667 75 71s59.334 64.666 92.001 105.999s66.834 89.5 102.501 144.5s70.834 117.5 105.501 187.5h-226v39zM855.998 1329
c-7.33301 0 -23.667 -22.5 -49 -67.5s-57.833 -107.833 -97.5 -188.5l-138.5 -289l-172 -370h392c0 60.667 2 121.834 6 183.501s8.83301 122 14.5 181s11.667 115.667 18 170l17.5 150c5.33301 45.667 9.83301 86.167 13.5 121.5s5.5 63.666 5.5 84.999
c0 10 -0.833008 16.5 -2.5 19.5s-4.16699 4.5 -7.5 4.5zM1032 1459l-164 127l-158 -127l-20 20l178 180l184 -180z" />
    <glyph glyph-name="Atilde" unicode="&#xc3;" horiz-adv-x="1167" 
d="M96 414l243.998 0.000976562l105 214l100.5 203l91.5 182l76.5 151l57 110c15.667 29.333 26.5 49 32.5 59c8 14.667 16.5 24.834 25.5 30.501s20.167 8.5 33.5 8.5c15.333 0 27.666 -4.83301 36.999 -14.5s14 -23.834 14 -42.501c0 -7.33301 -0.666992 -25 -2 -53
l-5 -105l-7 -141c-2.66699 -52 -5 -105.5 -7 -160.5s-3.66699 -109.667 -5 -164s-2 -104.5 -2 -150.5v-64c0 -21.333 0.666992 -41.666 2 -60.999h118.5c37 0 67.167 0.666992 90.5 2v-39c-36 -1.33301 -71 -2 -105 -2h-102c4.66699 -86.667 14.5 -165.334 29.5 -236.001
s38 -131.167 69 -181.5s71.167 -89.333 120.5 -117s110.666 -41.5 183.999 -41.5c29.333 0 60.666 3.66699 93.999 11l7 -41c-34 -10.667 -64.833 -18.5 -92.5 -23.5s-54.167 -7.5 -79.5 -7.5c-61.333 0 -114.5 7.66699 -159.5 23s-83.333 37 -115 65
s-57.5 61.5 -77.5 100.5s-35.667 82 -47 129s-19.333 97.333 -24 151s-7 109.167 -7 166.5h-408c-4 -9.33301 -8 -18.166 -12 -26.499l-13 -26.5c-33.333 -73.333 -65.333 -136.833 -96 -190.5s-60.167 -99.5 -88.5 -137.5s-55.166 -69.333 -80.499 -94
s-49.666 -44.834 -72.999 -60.501s-45.5 -28 -66.5 -37s-40.833 -16.833 -59.5 -23.5l-17 35l19 12.5c12.667 8.33301 29.667 21.5 51 39.5s46.333 41.667 75 71s59.334 64.666 92.001 105.999s66.834 89.5 102.501 144.5s70.834 117.5 105.501 187.5h-226v39zM855.998 1329
c-7.33301 0 -23.667 -22.5 -49 -67.5s-57.833 -107.833 -97.5 -188.5l-138.5 -289l-172 -370h392c0 60.667 2 121.834 6 183.501s8.83301 122 14.5 181s11.667 115.667 18 170l17.5 150c5.33301 45.667 9.83301 86.167 13.5 121.5s5.5 63.666 5.5 84.999
c0 10 -0.833008 16.5 -2.5 19.5s-4.16699 4.5 -7.5 4.5zM937.997 1534c12 0 21.8291 3.16602 29.4961 9.49902s13.834 13.833 18.501 22.5s7.83398 17.167 9.50098 25.5s2.83398 14.5 3.50098 18.5h31c0 -10 -1.5 -22 -4.5 -36s-8.16699 -27.333 -15.5 -40
s-17 -23.334 -29 -32.001s-27 -13 -45 -13c-14 0 -27.167 4 -39.5 12s-24 16.667 -35 26l-31.5 26c-10 8 -19.667 12 -29 12c-11.333 0 -20.666 -3.33301 -27.999 -10s-13.333 -14.167 -18 -22.5s-8 -16.666 -10 -24.999s-3.33301 -14.5 -4 -18.5h-31
c0 10 1.5 21.833 4.5 35.5s8.16699 26.834 15.5 39.501s17 23.5 29 32.5s27.333 13.5 46 13.5c14 0 26.833 -4 38.5 -12s23 -16.667 34 -26l31 -26c9.66699 -8 19.5 -12 29.5 -12z" />
    <glyph glyph-name="Adieresis" unicode="&#xc4;" horiz-adv-x="1167" 
d="M96 414l243.998 0.000976562l105 214l100.5 203l91.5 182l76.5 151l57 110c15.667 29.333 26.5 49 32.5 59c8 14.667 16.5 24.834 25.5 30.501s20.167 8.5 33.5 8.5c15.333 0 27.666 -4.83301 36.999 -14.5s14 -23.834 14 -42.501c0 -7.33301 -0.666992 -25 -2 -53
l-5 -105l-7 -141c-2.66699 -52 -5 -105.5 -7 -160.5s-3.66699 -109.667 -5 -164s-2 -104.5 -2 -150.5v-64c0 -21.333 0.666992 -41.666 2 -60.999h118.5c37 0 67.167 0.666992 90.5 2v-39c-36 -1.33301 -71 -2 -105 -2h-102c4.66699 -86.667 14.5 -165.334 29.5 -236.001
s38 -131.167 69 -181.5s71.167 -89.333 120.5 -117s110.666 -41.5 183.999 -41.5c29.333 0 60.666 3.66699 93.999 11l7 -41c-34 -10.667 -64.833 -18.5 -92.5 -23.5s-54.167 -7.5 -79.5 -7.5c-61.333 0 -114.5 7.66699 -159.5 23s-83.333 37 -115 65
s-57.5 61.5 -77.5 100.5s-35.667 82 -47 129s-19.333 97.333 -24 151s-7 109.167 -7 166.5h-408c-4 -9.33301 -8 -18.166 -12 -26.499l-13 -26.5c-33.333 -73.333 -65.333 -136.833 -96 -190.5s-60.167 -99.5 -88.5 -137.5s-55.166 -69.333 -80.499 -94
s-49.666 -44.834 -72.999 -60.501s-45.5 -28 -66.5 -37s-40.833 -16.833 -59.5 -23.5l-17 35l19 12.5c12.667 8.33301 29.667 21.5 51 39.5s46.333 41.667 75 71s59.334 64.666 92.001 105.999s66.834 89.5 102.501 144.5s70.834 117.5 105.501 187.5h-226v39zM855.998 1329
c-7.33301 0 -23.667 -22.5 -49 -67.5s-57.833 -107.833 -97.5 -188.5l-138.5 -289l-172 -370h392c0 60.667 2 121.834 6 183.501s8.83301 122 14.5 181s11.667 115.667 18 170l17.5 150c5.33301 45.667 9.83301 86.167 13.5 121.5s5.5 63.666 5.5 84.999
c0 10 -0.833008 16.5 -2.5 19.5s-4.16699 4.5 -7.5 4.5zM724.997 1534c0 13.333 4.16699 24.666 12.5 33.999s19.166 14 32.499 14s24.5 -4.66699 33.5 -14s13.5 -20.666 13.5 -33.999c0 -12 -4.5 -22.5 -13.5 -31.5s-20.167 -13.5 -33.5 -13.5s-24.166 4.5 -32.499 13.5
s-12.5 19.5 -12.5 31.5zM922.997 1534c0 13.333 4.5 24.666 13.5 33.999s19.833 14 32.5 14c13.333 0 24.5 -4.66699 33.5 -14s13.5 -20.666 13.5 -33.999c0 -12 -4.5 -22.5 -13.5 -31.5s-20.167 -13.5 -33.5 -13.5c-12.667 0 -23.5 4.5 -32.5 13.5s-13.5 19.5 -13.5 31.5z
" />
    <glyph glyph-name="Aring" unicode="&#xc5;" horiz-adv-x="1167" 
d="M96 414l243.998 0.000976562l105 214l100.5 203l91.5 182l76.5 151l57 110c15.667 29.333 26.5 49 32.5 59c8 14.667 16.5 24.834 25.5 30.501s20.167 8.5 33.5 8.5c15.333 0 27.666 -4.83301 36.999 -14.5s14 -23.834 14 -42.501c0 -7.33301 -0.666992 -25 -2 -53
l-5 -105l-7 -141c-2.66699 -52 -5 -105.5 -7 -160.5s-3.66699 -109.667 -5 -164s-2 -104.5 -2 -150.5v-64c0 -21.333 0.666992 -41.666 2 -60.999h118.5c37 0 67.167 0.666992 90.5 2v-39c-36 -1.33301 -71 -2 -105 -2h-102c4.66699 -86.667 14.5 -165.334 29.5 -236.001
s38 -131.167 69 -181.5s71.167 -89.333 120.5 -117s110.666 -41.5 183.999 -41.5c29.333 0 60.666 3.66699 93.999 11l7 -41c-34 -10.667 -64.833 -18.5 -92.5 -23.5s-54.167 -7.5 -79.5 -7.5c-61.333 0 -114.5 7.66699 -159.5 23s-83.333 37 -115 65
s-57.5 61.5 -77.5 100.5s-35.667 82 -47 129s-19.333 97.333 -24 151s-7 109.167 -7 166.5h-408c-4 -9.33301 -8 -18.166 -12 -26.499l-13 -26.5c-33.333 -73.333 -65.333 -136.833 -96 -190.5s-60.167 -99.5 -88.5 -137.5s-55.166 -69.333 -80.499 -94
s-49.666 -44.834 -72.999 -60.501s-45.5 -28 -66.5 -37s-40.833 -16.833 -59.5 -23.5l-17 35l19 12.5c12.667 8.33301 29.667 21.5 51 39.5s46.333 41.667 75 71s59.334 64.666 92.001 105.999s66.834 89.5 102.501 144.5s70.834 117.5 105.501 187.5h-226v39zM855.998 1329
c-7.33301 0 -23.667 -22.5 -49 -67.5s-57.833 -107.833 -97.5 -188.5l-138.5 -289l-172 -370h392c0 60.667 2 121.834 6 183.501s8.83301 122 14.5 181s11.667 115.667 18 170l17.5 150c5.33301 45.667 9.83301 86.167 13.5 121.5s5.5 63.666 5.5 84.999
c0 10 -0.833008 16.5 -2.5 19.5s-4.16699 4.5 -7.5 4.5zM796.997 1532c0 27.333 9 49.666 27 66.999s40.333 26 67 26s48.667 -8.66699 66 -26s26 -39.666 26 -66.999c0 -26.667 -8.66699 -49 -26 -67s-39.333 -27 -66 -27s-49 9 -67 27s-27 40.333 -27 67zM833.997 1532
c0 -16 5.33301 -29.5 16 -40.5s24.334 -16.5 41.001 -16.5s30.5 5.5 41.5 16.5s16.5 24.5 16.5 40.5c0 16.667 -5.5 30.5 -16.5 41.5s-24.833 16.5 -41.5 16.5s-30.334 -5.5 -41.001 -16.5s-16 -24.833 -16 -41.5z" />
    <glyph glyph-name="AE" unicode="&#xc6;" horiz-adv-x="2015" 
d="M96 463l243.99 0.000976562l105 214l100.5 203l91.5 182l76.5 151l57 110c15.667 29.333 26.5 49 32.5 59c8 14.667 16.5 24.834 25.5 30.501s20.167 8.5 33.5 8.5c15.333 0 27.666 -4.83301 36.999 -14.5s14 -23.834 14 -42.501c0 -7.33301 -0.666992 -25 -2 -53
l-5 -105.5l-7 -143.5c-2.66699 -53.333 -5 -108.333 -7 -165s-3.66699 -113.5 -5 -170.5s-2 -110.833 -2 -161.5c34 54.667 75 103.334 123 146.001s99.667 78 155 106c-32 28.667 -57 62.5 -75 101.5s-27 82.5 -27 130.5c0 66 12.667 123.833 38 173.5
s58.666 91 99.999 124s88.833 57.833 142.5 74.5s108.834 25 165.501 25c62.667 0 115.334 -9.83301 158.001 -29.5s77 -44.667 103 -75s44.667 -63.833 56 -100.5s17 -72 17 -106c0 -18.667 -1 -33.667 -3 -45s-3 -17.666 -3 -18.999l-39 4
c0.666992 5.33301 1.33398 11.333 2.00098 18c0.666992 5.33301 1.16699 11.666 1.5 18.999s0.5 15.666 0.5 24.999c0 30 -4.5 61 -13.5 93s-24.667 61 -47 87s-52.333 47.5 -90 64.5s-85.167 25.5 -142.5 25.5c-50 0 -96.167 -8.5 -138.5 -25.5s-78.833 -40.333 -109.5 -70
s-54.667 -64.334 -72 -104.001s-26 -82.5 -26 -128.5s7.66699 -88.167 23 -126.5s37 -71.833 65 -100.5c30 10 60.167 18 90.5 24s61.166 9 92.499 9c22.667 0 43.5 -1.83301 62.5 -5.5s35.5 -9.16699 49.5 -16.5s25 -16.166 33 -26.499s12 -22.166 12 -35.499
c0 -18.667 -6.16699 -33.334 -18.5 -44.001s-27 -18.667 -44 -24s-34.667 -8.66602 -53 -9.99902s-33.833 -2 -46.5 -2c-43.333 0 -84.333 5.83301 -123 17.5s-74 28.167 -106 49.5c-39.333 -19.333 -76.166 -43.666 -110.499 -72.999s-64.166 -63.5 -89.499 -102.5
s-45.5 -82.5 -60.5 -130.5s-22.5 -100 -22.5 -156c0 -54.667 7.5 -102.667 22.5 -144s34.667 -76.833 59 -106.5s52.333 -54.5 84 -74.5s64.167 -35.833 97.5 -47.5s66.333 -19.834 99 -24.501s62.334 -7 89.001 -7c86.667 0 164.334 13.833 233.001 41.5
s127.334 65 176.001 112s86.5 101.833 113.5 164.5s42.5 128.667 46.5 198l39 -2c-2 -58 -12.333 -112.833 -31 -164.5s-44 -99.5 -76 -143.5s-69.333 -83.5 -112 -118.5s-89 -64.833 -139 -89.5s-102.667 -43.5 -158 -56.5s-111.333 -19.5 -168 -19.5
c-86.667 0 -161.334 12.333 -224.001 37s-114.167 57.167 -154.5 97.5s-70.166 86 -89.499 137s-29 102.5 -29 154.5c0 40 2 92 6 156c-48.667 -0.666992 -92.5 -1.16699 -131.5 -1.5s-74.833 -0.5 -107.5 -0.5h-92h-85c-8 -18 -16.333 -35.667 -25 -53
c-33.333 -73.333 -65.333 -136.833 -96 -190.5s-60.167 -99.5 -88.5 -137.5s-55.166 -69.333 -80.499 -94s-49.666 -44.834 -72.999 -60.501s-45.5 -28 -66.5 -37s-40.833 -16.833 -59.5 -23.5l-17 35l19 12c12.667 8 29.667 21.167 51 39.5s46.333 42 75 71
s59.334 64.167 92.001 105.5s66.834 89.666 102.501 144.999s70.834 118 105.501 188h-226v39zM855.99 1378c-7.33301 0 -23.668 -22.502 -49.001 -67.502s-57.833 -107.833 -97.5 -188.5l-138.5 -289l-172 -370h106.5h106.5c34.667 0 68 0.166992 100 0.5
s61.667 0.833008 89 1.5c2.66699 49.333 6.33398 102.5 11.001 159.5l14 173l14 172.5l13 159.5c4 49.667 7.16699 93.834 9.5 132.501s3.5 69.334 3.5 92.001c0 10 -0.833008 16.5 -2.5 19.5s-4.16699 4.5 -7.5 4.5zM1431.99 845.999c-48.667 0 -98 -7.66602 -148 -22.999
c24.667 -18.667 53 -32.834 85 -42.501s66.667 -14.5 104 -14.5c24.667 0 43.667 3.5 57 10.5s20 15.167 20 24.5c0 10 -10.5 20 -31.5 30s-49.833 15 -86.5 15z" />
    </font>
</defs>
</svg>
