<?xml version="1.0" standalone="no"?>
<!DOCTYPE svg PUBLIC "-//W3C//DTD SVG 1.1//EN" "http://www.w3.org/Graphics/SVG/1.1/DTD/svg11.dtd" >
<svg>
<metadata>
Created by FontForge 20090914 at Sat Jul  4 10:51:42 2020
 By www-data
(c) Copyright 2001 by Tom Truong. All Rights Reserved
</metadata>
<defs>
<font id="UVNBaiSau" horiz-adv-x="1114" >
  <font-face 
    font-family="UVN Bai Sau"
    font-weight="400"
    font-stretch="normal"
    units-per-em="2048"
    panose-1="4 3 6 5 2 8 2 2 12 3"
    ascent="1638"
    descent="-410"
    x-height="981"
    cap-height="1432"
    bbox="-342 -483 2372 2276"
    underline-thickness="150"
    underline-position="-142"
    unicode-range="U+0020-U+F002"
  />
<missing-glyph horiz-adv-x="1024" 
d="M128 0v2276h768v-2276h-768zM256 128h512v2020h-512v-2020z" />
    <glyph glyph-name=".notdef" horiz-adv-x="1024" 
d="M128 0v2276h768v-2276h-768zM256 128h512v2020h-512v-2020z" />
    <glyph glyph-name="space" unicode=" " horiz-adv-x="557" 
 />
    <glyph glyph-name="exclam" unicode="!" horiz-adv-x="557" 
d="M188 326v1106h181v-1106h-181zM160 102c0 34 11.333 62.333 34 85s51 34 85 34c33.333 0 61.333 -11.5 84 -34.5s34 -51.167 34 -84.5c0 -32.667 -11.5 -60.167 -34.5 -82.5s-50.833 -33.5 -83.5 -33.5s-60.667 11.167 -84 33.5s-35 49.833 -35 82.5z" />
    <glyph glyph-name="quotedbl" unicode="&#x22;" horiz-adv-x="614" 
d="M524 1436v-555h-139v555h139zM229 1436v-555h-139v555h139z" />
    <glyph glyph-name="numbersign" unicode="#" horiz-adv-x="1575" 
d="M969 858h-260l-93 -264h261zM924 1458l-162 -454h256l164 454h164l-160 -454h301l-51 -146h-303l-93 -262h322l-51 -147h-322l-162 -453h-165l161 453h-258l-162 -453h-165l159 453h-309l53 147h310l92 262h-330l51 146h332l162 454h166z" />
    <glyph glyph-name="dollar" unicode="$" 
d="M627 336h10c98 0 147 43.667 147 131c0 72 -52.333 132 -157 180v-311zM481 922l0.000976562 286h-14c-38.667 0 -71.334 -10.333 -98.001 -31c-28.667 -22 -43 -52 -43 -90c0 -58.667 51.667 -113.667 155 -165zM481.001 -4l0.00195312 163.998h-327v176h327v387
c-97.333 50.667 -169 97.667 -215 141c-72 66.667 -108 141 -108 223c0 88.667 32.333 159.334 97 212.001c59.333 48 134.666 73 225.999 75v146h146v-146h288v-166h-288v-352c106 -57.333 183 -108.666 231 -153.999c76.667 -72.667 115 -153 115 -241
c0 -100 -33.667 -176.333 -101 -229c-60.667 -48 -142.334 -72 -245.001 -72v-164h-146z" />
    <glyph glyph-name="percent" unicode="%" horiz-adv-x="1683" 
d="M1110 322c0 -45.333 16.167 -84 48.5 -116s71.5 -48 117.5 -48c45.333 0 84 16 116 48s48 70.667 48 116c0 46 -15.833 85 -47.5 117s-70.5 48 -116.5 48s-85.167 -16 -117.5 -48s-48.5 -71 -48.5 -117zM952 322c0 90.667 31.333 167.167 94 229.5
s139.334 93.5 230.001 93.5s166.834 -31.167 228.501 -93.5s92.5 -138.833 92.5 -229.5s-30.833 -167 -92.5 -229s-137.834 -93 -228.501 -93s-167.334 31 -230.001 93s-94 138.333 -94 229zM301 0l932 1432h131l-922 -1432h-141zM250 1110c0 -45.333 16 -84 48 -116
s70.667 -48 116 -48s84.333 16 117 48s49 70.667 49 116c0 46 -16 84.833 -48 116.5s-71.333 47.5 -118 47.5c-46 0 -84.833 -15.833 -116.5 -47.5s-47.5 -70.5 -47.5 -116.5zM92 1110c0 90.667 31 167 93 229s138.333 93 229 93s167.167 -31 229.5 -93
s93.5 -138.333 93.5 -229s-31.167 -167.334 -93.5 -230.001s-138.833 -94 -229.5 -94s-167 31.333 -229 94s-93 139.334 -93 230.001z" />
    <glyph glyph-name="ampersand" unicode="&#x26;" horiz-adv-x="1421" 
d="M1026 100c-111.333 -76 -230 -114 -356 -114c-159.333 0 -295.833 54.833 -409.5 164.5s-170.5 243.834 -170.5 402.501c0 205.333 85.333 365 256 479c-42.667 58 -65.667 89.667 -69 95c-22 37.333 -33 74 -33 110c0 67.333 30 118.333 90 153c49.333 28 110 42 182 42
h504v-183h-518c-34 0 -51 -10 -51 -30c0 -10 3.33301 -19.667 10 -29l575 -793c19.333 60.667 29 116 29 166c0 113.333 -42.333 211 -127 293l123 127c126.667 -122.667 190 -263.334 190 -422.001c0 -120 -32 -229.333 -96 -328l168 -233h-227zM449 895
c-116.667 -82.667 -175.001 -192.667 -175.001 -330c0 -110.667 38.333 -204.167 115 -280.5s170.334 -114.5 281.001 -114.5c90 0 172.667 24.667 248 74z" />
    <glyph glyph-name="quotesingle" unicode="'" horiz-adv-x="317" 
d="M229 1436v-555h-139v555h139z" />
    <glyph glyph-name="parenleft" unicode="(" horiz-adv-x="786" 
d="M596 -369c-292 272 -438 573.333 -438 904c0 324 146 622.333 438 895l100 -140c-241.333 -211.333 -362 -464 -362 -758c0 -299.333 120.667 -553 362 -761z" />
    <glyph glyph-name="parenright" unicode=")" horiz-adv-x="786" 
d="M84 -229c241.333 208 362 461.667 362 761c0 295.333 -120.667 548 -362 758l102 140c291.333 -270.667 437 -569 437 -895c0 -332.667 -145.667 -634 -437 -904z" />
    <glyph glyph-name="asterisk" unicode="*" horiz-adv-x="1010" 
d="M541 1012l41 -316h-164l49 316l-252 -193l-82 142l297 114l-293 123l80 141l250 -200l-41 317h164l-49 -321l250 200l81 -141l-294 -123l299 -115l-84 -141z" />
    <glyph glyph-name="plus" unicode="+" horiz-adv-x="1706" 
d="M924 1221v-541h528v-139h-528v-541h-142v541h-528v139h528v541h142z" />
    <glyph glyph-name="comma" unicode="," horiz-adv-x="557" 
d="M117 -205l86 398h178l-107 -398h-157z" />
    <glyph glyph-name="hyphen" unicode="-" horiz-adv-x="676" 
d="M111 403v181h452v-181h-452z" />
    <glyph glyph-name="hyphen" unicode="&#x2010;" horiz-adv-x="676" 
d="M111 403v181h452v-181h-452z" />
    <glyph glyph-name="period" unicode="." horiz-adv-x="557" 
d="M160 102c0 34 11.333 62.333 34 85s51 34 85 34c33.333 0 61.333 -11.5 84 -34.5s34 -51.167 34 -84.5c0 -32.667 -11.5 -60.167 -34.5 -82.5s-50.833 -33.5 -83.5 -33.5s-60.667 11.167 -84 33.5s-35 49.833 -35 82.5z" />
    <glyph glyph-name="slash" unicode="/" horiz-adv-x="555" 
d="M109 -190h-127l489 1646h121z" />
    <glyph glyph-name="zero" unicode="0" 
d="M850 492l0.000976562 458.001c0 91.333 -25.667 168.666 -77 231.999c-54.667 68 -126.667 102 -216 102c-88 0 -159.667 -34.333 -215 -103c-52 -64 -78 -141 -78 -231v-458c0 -91.333 25.667 -169 77 -233c55.333 -68.667 127.333 -103 216 -103
c89.333 0 161.666 34.333 216.999 103c50.667 63.333 76 141 76 233zM74.001 981.001c0 136.667 46.1699 250 138.503 340s207.166 135 344.499 135s252.166 -45 344.499 -135s138.5 -203.333 138.5 -340v-530c0 -138 -45.833 -251.833 -137.5 -341.5
s-206.834 -134.5 -345.501 -134.5c-138 0 -253 44.833 -345 134.5s-138 203.5 -138 341.5v530z" />
    <glyph glyph-name="one" unicode="1" 
d="M510 0v1251h-258l61 181h392v-1432h-195z" />
    <glyph glyph-name="two" unicode="2" 
d="M322 190l721.999 0.000976562v-190h-790c-114.667 0 -172 49 -172 147c0 54.667 33.333 108.667 100 162l512 412c102.667 82.667 154 178.334 154 287.001c0 78 -26.167 141.833 -78.5 191.5s-117.833 74.5 -196.5 74.5c-80 0 -146 -26.167 -198 -78.5
s-78 -118.5 -78 -198.5c0 -82.667 23.667 -148.834 71 -198.501s112.333 -78.834 195 -87.501l-170 -136c-196.667 78.667 -295 218 -295 418c0 138 46.667 250 140 336c90.667 84.667 205.334 127 344.001 127c134 0 245 -40 333 -120
c90.667 -83.333 136 -191.333 136 -324c0 -168 -91.667 -323.667 -275 -467z" />
    <glyph glyph-name="three" unicode="3" 
d="M131 1432h598c139.333 0 209 -50 209 -150c0 -54 -22.667 -102.333 -68 -145l-290 -273c140.667 -2 250 -37.667 328 -107c82.667 -74 124 -180.333 124 -319c0 -133.333 -43.333 -240 -130 -320c-84 -78.667 -193 -118 -327 -118h-479v190h420c210 0 315 86.333 315 259
c0 81.333 -27.667 144.333 -83 189c-50.667 41.333 -117.667 62 -201 62h-254v131l448 420h-610v181z" />
    <glyph glyph-name="four" unicode="4" 
d="M678 0v336.001h-492c-91.333 0 -137 41.667 -137 125c0 39.333 12.333 81.666 37 126.999l459 844h213l-498 -910h418v606l184 332v-938h219v-186h-219v-336h-184z" />
    <glyph glyph-name="five" unicode="5" 
d="M344 885l203 -0.000976562c148 0 264.667 -35 350 -105c92.667 -76 139 -186.333 139 -331c0 -141.333 -46.333 -252.333 -139 -333c-88 -77.333 -203.333 -116 -346 -116h-449v190h441c188 0 282 84.667 282 254c0 80.667 -25 143.334 -75 188.001
c-48 42.667 -113 64 -195 64h-395v736h743v-185h-559v-362z" />
    <glyph glyph-name="six" unicode="6" 
d="M258 494c0 -92.667 28.333 -170.668 85 -234.001c59.333 -65.333 134.666 -98 225.999 -98c90.667 0 166 34.667 226 104c57.333 66.667 86 146 86 238c0 96.667 -30.333 173.667 -91 231s-139.667 86 -237 86c-9.33301 0 -34 -1.33301 -74 -4l127 174
c144.667 -4.66699 259.334 -50.167 344.001 -136.5s127 -201.833 127 -346.5c0 -152 -45.667 -277 -137 -375c-94 -100.667 -216.333 -151 -367 -151c-140 0 -258.333 46 -355 138c-98.667 93.333 -148 209 -148 347c0 94 24.333 190.667 73 290
c30.667 61.333 84.667 146.333 162 255l299 420h227l-405 -562c-112 -155.333 -168 -280.666 -168 -375.999z" />
    <glyph glyph-name="seven" unicode="7" 
d="M1044 1280c0 -36.667 -14.333 -88 -43 -154l-153 -352h128v-119h-180l-284 -655h-227l295 655h-360v119h413l215 477h-752v181h748c133.333 0 200 -50.667 200 -152z" />
    <glyph glyph-name="eight" unicode="8" 
d="M326 823c-112 74.667 -167.999 169 -167.999 283c0 106 40.667 192 122 258c76 61.333 168.333 92 277 92c109.333 0 201.666 -30.667 276.999 -92c81.333 -65.333 122 -151.333 122 -258c0 -113.333 -56 -207.666 -168 -282.999
c172.667 -72.667 259 -202.334 259 -389.001c0 -140 -47.333 -252.333 -142 -337c-90.667 -81.333 -206.667 -122 -348 -122s-257.333 40.667 -348 122c-94 84.667 -141 197 -141 337c0 187.333 86 317 258 389zM264.001 436c0 -80 28.999 -146 86.999 -198
c56 -49.333 124.667 -74 206 -74s150 24.667 206 74c58 52 87 118 87 198c0 79.333 -28.833 145 -86.5 197s-126.5 78 -206.5 78c-79.333 0 -147.666 -25.667 -204.999 -77c-58.667 -53.333 -88 -119.333 -88 -198zM365 1087c0 -54.667 18.499 -100.333 55.499 -137
s82.5 -55 136.5 -55s99.667 18.5 137 55.5s56 82.5 56 136.5c0 55.333 -18.333 101.333 -55 138s-82.667 55 -138 55s-101.166 -18.333 -137.499 -55s-54.5 -82.667 -54.5 -138z" />
    <glyph glyph-name="nine" unicode="9" 
d="M868 938c0 92.667 -28.335 170.668 -85.002 234.001c-59.333 65.333 -134.666 98 -225.999 98c-90.667 0 -165.667 -35 -225 -105c-56 -66 -84 -145 -84 -237c0 -96.667 30.167 -173.834 90.5 -231.501s139.166 -86.5 236.499 -86.5c8 0 32 1.33301 72 4l-125 -172
c-145.333 5.33301 -260.166 50.833 -344.499 136.5s-126.5 200.834 -126.5 345.501c0 151.333 45.667 276.333 137 375c94 100.667 216.333 151 367 151c138.667 0 257.334 -46.333 356.001 -139s148 -208 148 -346c0 -94.667 -24.667 -191 -74 -289
c-28.667 -56.667 -82.667 -141.334 -162 -254.001l-299 -422h-227l403 561c54.667 76 92.667 135 114 177c36 70 54 136.667 54 200z" />
    <glyph glyph-name="colon" unicode=":" horiz-adv-x="606" 
d="M184 102c0 33.333 11.5 61.5 34.5 84.5s51.167 34.5 84.5 34.5s61.5 -11.5 84.5 -34.5s34.5 -51.167 34.5 -84.5c0 -32.667 -11.667 -60.167 -35 -82.5s-51.333 -33.5 -84 -33.5s-60.667 11.167 -84 33.5s-35 49.833 -35 82.5zM184 692c0 33.333 11.5 61.5 34.5 84.5
s51.167 34.5 84.5 34.5s61.5 -11.5 84.5 -34.5s34.5 -51.167 34.5 -84.5c0 -32.667 -11.667 -60.667 -35 -84s-51.333 -35 -84 -35s-60.667 11.667 -84 35s-35 51.333 -35 84z" />
    <glyph glyph-name="semicolon" unicode=";" horiz-adv-x="606" 
d="M195 692c0 33.333 11.335 61.5 34.002 84.5s50.667 34.5 84 34.5s61.166 -11.5 83.499 -34.5s33.5 -51.167 33.5 -84.5c0 -32.667 -11.333 -60.667 -34 -84s-50.334 -35 -83.001 -35s-60.5 11.667 -83.5 35s-34.5 51.333 -34.5 84zM145.002 -205l86 398h179l-107 -398
h-158z" />
    <glyph glyph-name="less" unicode="&#x3c;" horiz-adv-x="1706" 
d="M1442 1006l-969 -396l969 -393v-154l-1178 484v129l1178 483v-153z" />
    <glyph glyph-name="equal" unicode="=" horiz-adv-x="1706" 
d="M1452 481v-139h-1198v139h1198zM1452 879v-140h-1198v140h1198z" />
    <glyph glyph-name="greater" unicode="&#x3e;" horiz-adv-x="1706" 
d="M1442 676v-129l-1178 -484v154l971 393l-971 396v153z" />
    <glyph glyph-name="question" unicode="?" horiz-adv-x="1024" 
d="M385 338v453.999c6.66699 0 16.667 -0.333008 30 -1h31c88.667 0 159.667 17.667 213 53c63.333 42 95 105.333 95 190c0 72 -22.667 130.333 -68 175s-104 67 -176 67c-77.333 0 -137.166 -23.833 -179.499 -71.5s-64.5 -110.5 -66.5 -188.5h-182
c2 132 42.667 238.333 122 319s184.666 121 315.999 121c126 0 229.5 -39.667 310.5 -119s121.5 -181.666 121.5 -306.999c0 -117.333 -36.667 -210 -110 -278c-68.667 -63.333 -163 -99 -283 -107v-307h-174zM362 101.999c0 33.333 11.5 61.5 34.5 84.5
s51.167 34.5 84.5 34.5s61.5 -11.5 84.5 -34.5s34.5 -51.167 34.5 -84.5c0 -32.667 -11.667 -60.167 -35 -82.5s-51.333 -33.5 -84 -33.5s-60.667 11.167 -84 33.5s-35 49.833 -35 82.5z" />
    <glyph glyph-name="at" unicode="@" horiz-adv-x="2048" 
d="M1284 854l57 115h132l-146 -576c-5.33301 -21.333 -8 -41 -8 -59c0 -62.667 33.333 -94 100 -94c31.333 0 65.666 9 102.999 27c86.667 41.333 155.334 110.666 206.001 207.999c46.667 89.333 70 185 70 287c0 186 -70.667 332 -212 438
c-126.667 95.333 -286 143 -478 143c-88.667 0 -170.667 -9.33301 -246 -28c-182.667 -45.333 -330.334 -141.833 -443.001 -289.5s-169 -316.167 -169 -505.5c0 -118 20.667 -220.667 62 -308c60 -128 159.667 -226.667 299 -296c125.333 -62.667 264.333 -94 417 -94
c230.667 0 437.667 63.333 621 190l55 -82c-198 -148.667 -419.333 -223 -664 -223c-126.667 0 -242.667 15.667 -348 47c-180.667 54 -323 148.333 -427 283c-106 136.667 -159 298.334 -159 485.001s49.667 356.167 149 508.5s234.666 266.833 405.999 343.5
c136.667 61.333 288.334 92 455.001 92c108.667 0 212 -15 310 -45c151.333 -46.667 274 -125 368 -235c100 -118 150 -253.333 150 -406c0 -116.667 -21 -221.667 -63 -315c-46.667 -102 -113.667 -184.667 -201 -248c-92 -66.667 -192 -100 -300 -100
c-133.333 0 -200 58.667 -200 176c-71.333 -116 -171.666 -174 -300.999 -174c-209.333 0 -314 110.667 -314 332c0 147.333 42 274 126 380c90.667 115.333 207.667 173 351 173c113.333 0 194 -50 242 -150zM1249 711c-23.333 122.667 -89.333 184.001 -198 184.001
c-104 0 -186.667 -51 -248 -153c-52 -86.667 -78 -185.334 -78 -296.001c0 -146 62 -219 186 -219c64.667 0 122.667 22.833 174 68.5s86.333 105.5 105 179.5z" />
    <glyph glyph-name="A" unicode="A" horiz-adv-x="1229" 
d="M922 0l0.000976562 657h-557v181h557v57c0 256.667 -102.667 385 -308 385c-204.667 0 -307 -128.333 -307 -385v-895h-190v899c0 162.667 41.667 294.334 125 395.001c88.667 108 212.667 162 372 162s283.666 -54 372.999 -162
c83.333 -100.667 125 -232.334 125 -395.001v-899h-190z" />
    <glyph glyph-name="B" unicode="B" horiz-adv-x="1155" 
d="M117 0v909c0 160 36 288 108 384c80.667 108.667 198.334 163 353.001 163c120 0 223 -35.333 309 -106c92.667 -75.333 139 -171.666 139 -288.999c0 -122 -54 -219.667 -162 -293c153.333 -66 230 -182 230 -348c0 -132.667 -48.333 -237.334 -145 -314.001
c-88.667 -70.667 -201 -106 -337 -106h-235v180h237c82 0 147.667 19.667 197 59c54.667 43.333 82 105 82 185c0 78 -27.667 138.333 -83 181c-50.667 38 -116 57 -196 57h-237v172h196c78.667 6 139.667 25.667 183 59c52 39.333 78 92 78 158
c0 70 -24.333 126.667 -73 170c-46.667 40.667 -105.667 61 -177 61c-92.667 0 -163.334 -31 -212.001 -93c-44.667 -56.667 -67 -132.667 -67 -228v-961h-188z" />
    <glyph glyph-name="C" unicode="C" horiz-adv-x="1020" 
d="M958 1262c-17.333 1.33301 -40.333 2.00098 -69 2.00098c-183.333 0 -331 -44.333 -443 -133c-122.667 -97.333 -184 -235.333 -184 -414c0 -176.667 61.667 -314.334 185 -413.001c112 -90 256 -135 432 -135c26 0 52.333 1 79 3v-172h-55
c-106.667 -0 -200 8.33301 -280 25c-165.333 34.667 -299.166 116.167 -401.499 244.5s-153.5 277.5 -153.5 447.5c0 169.333 51.167 317.833 153.5 445.5s236.166 209.167 401.499 244.5c80 16.667 191.667 25 335 25v-170z" />
    <glyph glyph-name="D" unicode="D" horiz-adv-x="1282" 
d="M385 174c5.33301 0 13.168 -0.333984 23.501 -1.00098s18.166 -1 23.499 -1c172.667 0 313 47.333 421 142c112.667 100 169 235 169 405c0 176 -59.333 313 -178 411c-110 90.667 -254.667 136 -434 136c-10 0 -40 -1.33301 -90 -4l-1 -1262h-188v1432h246
c110.667 0 205.334 -8.33301 284.001 -25c165.333 -35.333 299.333 -116.666 402 -243.999s154 -276 154 -446c0 -131.333 -31.833 -250.833 -95.5 -358.5s-152.834 -195.167 -267.501 -262.5c-108.667 -64 -265 -96 -469 -96v174z" />
    <glyph glyph-name="E" unicode="E" horiz-adv-x="1040" 
d="M958 1262c-16 1.33301 -37 1.99902 -63 1.99902c-354 0 -561 -147 -621 -441h684v-170h-694c48.667 -320.667 256.334 -481 623.001 -481c31.333 0 55 0.666992 71 2v-174h-55c-212 0 -373 33.333 -483 100c-234.667 142.667 -352 348.334 -352 617.001
c0 169.333 51.167 317.833 153.5 445.5s236.166 209.167 401.499 244.5c80 16.667 191.667 25 335 25v-170z" />
    <glyph glyph-name="F" unicode="F" horiz-adv-x="920" 
d="M117 0v934c0 332 168.667 498 506 498h204v-177h-237c-190 0 -285 -97.333 -285 -292v-160h522v-176h-522v-627h-188z" />
    <glyph glyph-name="G" unicode="G" horiz-adv-x="1583" 
d="M829 817l687.002 0.000976562v-49c0 -156.667 -28 -290.334 -84 -401.001c-62.667 -123.333 -150.334 -219.5 -263.001 -288.5s-238 -103.5 -376 -103.5c-201.333 0 -373.333 73.667 -516 221c-140.667 145.333 -211 319 -211 521c0 208.667 72.167 384 216.5 526
s321.166 213 530.499 213c210 0 399.667 -86 569 -258l-127 -129c-139.333 142 -288.666 213 -447.999 213c-156 0 -286.167 -54.667 -390.5 -164s-156.5 -242.333 -156.5 -399c0 -152 50.333 -283 151 -393c104 -113.333 231.333 -170 382 -170
c141.333 0 259.666 45.333 354.999 136c91.333 87.333 146.333 202.333 165 345h-484v180z" />
    <glyph glyph-name="H" unicode="H" horiz-adv-x="1255" 
d="M131 0v1432h188v-594h617v594h190v-1432h-190v657h-617v-657h-188z" />
    <glyph glyph-name="I" unicode="I" horiz-adv-x="465" 
d="M137 0v1432h191v-1432h-191z" />
    <glyph glyph-name="J" unicode="J" horiz-adv-x="825" 
d="M707 1432v-932c0 -333.333 -168.667 -500 -506 -500h-205v176h237c190 0 285 97.667 285 293v963h189z" />
    <glyph glyph-name="K" unicode="K" horiz-adv-x="1165" 
d="M131 0l-0.000976562 1432h188v-594h168c82.667 0 147.334 23.667 194.001 71c31.333 32 67 93 107 183l150 340h205l-182 -416c-52 -119.333 -115 -193.666 -189 -222.999c202 -33.333 303 -161.666 303 -384.999v-408h-190v334c0 108.667 -19 187.667 -57 237
c-43.333 57.333 -117.333 86 -222 86h-287v-657h-188z" />
    <glyph glyph-name="L" unicode="L" horiz-adv-x="848" 
d="M117 1432h190v-963c0 -195.333 95 -293 285 -293h260v-176h-227c-338.667 0 -508 166.667 -508 500v932z" />
    <glyph glyph-name="M" unicode="M" horiz-adv-x="1702" 
d="M45 0l181.999 1276c16.667 116 67.334 174 152.001 174c72 0 123 -47.667 153 -143l320 -1020l317 1020c29.333 95.333 80.666 143 153.999 143c84.667 0 135.334 -58 152.001 -174l182 -1276h-182l-164 1180l-328 -1051c-30 -96.667 -73.667 -145 -131 -145
c-58.667 0 -103 48.333 -133 145l-328 1051l-162 -1180h-184z" />
    <glyph glyph-name="N" unicode="N" horiz-adv-x="1290" 
d="M311 0h-180v1239c0 139.333 52 209 156 209c70 0 128 -47.667 174 -143l516 -1072v1199h182v-1244c0 -138.667 -50.333 -208 -151 -208c-73.333 0 -133 47.667 -179 143l-518 1079v-1202z" />
    <glyph glyph-name="O" unicode="O" horiz-adv-x="1583" 
d="M66 717c0 202.667 70.5 376.5 211.5 521.5s312.833 217.5 515.5 217.5c201.333 0 372.5 -72.667 513.5 -218s211.5 -319 211.5 -521c0 -202.667 -70 -376.667 -210 -522c-142 -146.667 -313.667 -220 -515 -220c-203.333 0 -375.333 72.667 -516 218s-211 320 -211 524z
M260 719c0 -152 50.333 -283 151 -393c104 -113.333 231.333 -170 382 -170c149.333 0 276 57 380 171c100 110 150 240.667 150 392c0 150 -50.333 280.333 -151 391c-104 113.333 -230.333 170 -379 170c-150.667 0 -278 -56.333 -382 -169
c-100.667 -109.333 -151 -240 -151 -392z" />
    <glyph glyph-name="P" unicode="P" horiz-adv-x="1110" 
d="M117 0l-0.000976562 865.999c0 94.667 5.33301 168.334 16 221.001c22.667 111.333 76.334 201 161.001 269s184 102 298 102c130 0 241 -45 333 -135s138 -200 138 -330c0 -135.333 -46.667 -246.666 -140 -333.999c-90.667 -84.667 -204.334 -127 -341.001 -127h-203
v181h178c90.667 0 164.334 24.333 221.001 73c60 51.333 90 121.666 90 210.999c0 79.333 -26.833 146 -80.5 200s-120.167 81 -199.5 81c-92 0 -163 -32 -213 -96c-45.333 -57.333 -68 -133.333 -68 -228v-954h-190z" />
    <glyph glyph-name="Q" unicode="Q" horiz-adv-x="1583" 
d="M735 -276l-0.000976562 747.003h185v-297c124.667 34 223.334 101.333 296.001 202c71.333 98 107 212.333 107 343c0 151.333 -50 281.666 -150 390.999c-103.333 113.333 -230 170 -380 170s-277 -56.333 -381 -169c-101.333 -110.667 -152 -241.334 -152 -392.001
c0 -128 35 -241.667 105 -341c72 -102 168.667 -170 290 -204v-184c-178 41.333 -320.667 127.333 -428 258s-161 287 -161 469c0 202.667 70.667 376.5 212 521.5s313 217.5 515 217.5c200.667 0 371.667 -72.833 513 -218.5s212 -319.167 212 -520.5
c0 -182.667 -55.333 -340.334 -166 -473.001c-108 -130.667 -252 -216 -432 -256v-264h-185z" />
    <glyph glyph-name="R" unicode="R" horiz-adv-x="1143" 
d="M117 0l-0.00292969 918c0 158 37.333 285 112 381c82.667 104.667 201 157 355 157c122.667 0 227.334 -36 314.001 -108c92 -76.667 138 -175 138 -295c0 -138.667 -64 -243.334 -192 -314.001c142 -38 213 -154.667 213 -350v-389h-189v317c0 112 -16.667 190 -50 234
c-39.333 50.667 -112.666 76 -219.999 76h-217v174h199c80.667 6.66699 142.334 27.667 185.001 63c51.333 42.667 77 101.334 77 176.001c0 73.333 -25.333 132.333 -76 177c-48 42 -109.333 63 -184 63c-90 0 -159.667 -31.333 -209 -94
c-45.333 -57.333 -68 -132.333 -68 -225v-961h-188z" />
    <glyph glyph-name="S" unicode="S" horiz-adv-x="1075" 
d="M72 0l0.000976562 190h489c158.667 0 238 60.333 238 181c0 55.333 -24.667 104.333 -74 147c-28 24 -77 54 -147 90l-240 123c-173.333 88.667 -260 206.667 -260 354c0 118 45.333 207.333 136 268c78 52.667 178.667 79 302 79h414v-189h-477
c-50.667 0 -92.334 -12.333 -125.001 -37c-36 -26.667 -54 -64.667 -54 -114c0 -40 14 -75.667 42 -107s96 -74.333 204 -129l209 -106c178.667 -90.667 268 -213.667 268 -369c0 -131.333 -47.667 -230 -143 -296c-82.667 -56.667 -192.667 -85 -330 -85h-452z" />
    <glyph glyph-name="T" unicode="T" horiz-adv-x="991" 
d="M399 0v1255h-366v177h923v-177h-366v-1255h-191z" />
    <glyph glyph-name="U" unicode="U" horiz-adv-x="1229" 
d="M307 1432v-891c0 -256.667 102.333 -385 307 -385c205.333 0 308 128.333 308 385v891h190v-900c0 -162 -41.667 -293.333 -125 -394c-90 -108.667 -214.333 -163 -373 -163s-282.667 54.333 -372 163c-83.333 100.667 -125 232 -125 394v900h190z" />
    <glyph glyph-name="V" unicode="V" horiz-adv-x="1049" 
d="M-39 1432h191l372 -1211l373 1211h190l-393 -1272c-38 -123.333 -94.667 -185 -170 -185s-132 61.667 -170 185z" />
    <glyph glyph-name="W" unicode="W" horiz-adv-x="1835" 
d="M121 1432l188 0.000976562v-957c0 -214 86 -321 258 -321c170.667 0 256 107 256 321v957h189v-957c0 -214 85.333 -321 256 -321s256 107 256 321v957h190v-957c0 -144.667 -37.667 -262.334 -113 -353.001c-80.667 -98 -191.667 -147 -333 -147
c-143.333 0 -260 58.333 -350 175c-89.333 -116.667 -206.333 -175 -351 -175c-142 0 -253.333 48.667 -334 146c-74.667 90.667 -112 208.667 -112 354v957z" />
    <glyph glyph-name="X" unicode="X" horiz-adv-x="1251" 
d="M1232 0c-282 6.66699 -484.333 128.334 -607 365.001c-120.667 -236.667 -322.667 -358.334 -606 -365.001l-1 172c158.667 5.33301 284 57.666 376 156.999s138 228.666 138 387.999s-46 288.666 -138 387.999s-217.333 151.666 -376 156.999v169
c282.667 -5.33301 485 -126.666 607 -363.999c124 237.333 326.667 358.666 608 363.999v-169c-158.667 -5.33301 -284 -57.666 -376 -156.999s-138 -228.666 -138 -387.999s46 -288.666 138 -387.999s217.333 -151.666 376 -156.999z" />
    <glyph glyph-name="Y" unicode="Y" horiz-adv-x="1110" 
d="M461 0v549c-238 60.667 -357 225 -357 493v390h191v-392c0 -216.667 86.667 -325 260 -325s260 108.333 260 325v392h191v-390c0 -268 -119 -432.333 -357 -493v-549h-188z" />
    <glyph glyph-name="Z" unicode="Z" horiz-adv-x="1020" 
d="M985 180v-180h-743c-139.333 -0 -209 53.333 -209 160c0 44 36.667 117 110 219l631 876h-661v177h645c139.333 0 209 -53.333 209 -160c0 -45.333 -36.333 -118.333 -109 -219l-629 -873h756z" />
    <glyph glyph-name="bracketleft" unicode="[" horiz-adv-x="668" 
d="M559 -250v-104h-356v1786h356v-105h-182v-1577h182z" />
    <glyph glyph-name="backslash" unicode="\" horiz-adv-x="555" 
d="M573 -190h-127l-483 1646h121z" />
    <glyph glyph-name="bracketright" unicode="]" horiz-adv-x="668" 
d="M109 1327v105h358v-1786h-358v104h184v1577h-184z" />
    <glyph glyph-name="asciicircum" unicode="^" horiz-adv-x="2048" 
d="M1116 1458l510 -557h-180l-422 420l-424 -420h-180l510 557h186z" />
    <glyph glyph-name="underscore" unicode="_" horiz-adv-x="1024" 
d="M1024 -340v-143h-1024v143h1024z" />
    <glyph glyph-name="grave" unicode="`" horiz-adv-x="1024" 
d="M649 1096h-106l-281 348h178z" />
    <glyph glyph-name="a" unicode="a" horiz-adv-x="1151" 
d="M870 0l0.00195312 489.001c0 98.667 -27 180 -81 244c-57.333 67.333 -134.666 101 -231.999 101c-95.333 0 -172.333 -33 -231 -99c-56 -62.667 -84 -142.334 -84 -239.001c0 -98.667 29 -180.334 87 -245.001c60 -67.333 138.667 -101 236 -101
c84.667 0 166.667 30 246 90v-189c-78.667 -44.667 -167.334 -67 -266.001 -67c-138 0 -253.333 50.667 -346 152c-90.667 98.667 -136 217.334 -136 356.001c0 146 45.667 267 137 363s209.666 144 354.999 144c117.333 0 221.166 -36.167 311.499 -108.5
s146.5 -165.5 168.5 -279.5c8 -44 12 -110.333 12 -199v-412h-177z" />
    <glyph glyph-name="b" unicode="b" horiz-adv-x="1151" 
d="M104 1432h177v-940c0 -98.667 27 -180 81 -244c57.333 -67.333 134.666 -101 231.999 -101c98.667 0 177 33.667 235 101c54.667 64 82 146 82 246c0 98 -29.667 178.667 -89 242s-137.333 95 -234 95c-87.333 0 -170 -30 -248 -90v189
c78.667 44.667 167.334 67 266.001 67c136.667 0 252 -50.333 346 -151c92 -98.667 138 -216.667 138 -354c0 -146 -45.333 -267 -136 -363c-92 -98 -210.667 -147 -356 -147c-117.333 0 -221.333 36.167 -312 108.5s-147 165.833 -169 280.5
c-8.66699 43.333 -13 109.333 -13 198v863z" />
    <glyph glyph-name="c" unicode="c" horiz-adv-x="786" 
d="M725 813l-75.999 -0.000976562c-112 0 -204.667 -25.333 -278 -76c-84.667 -58 -127 -140.667 -127 -248c0 -106.667 42.333 -189 127 -247c74 -50.667 166.667 -76 278 -76h76v-166h-88c-164 0 -298.333 40 -403 120c-115.333 88.667 -173 212.667 -173 372
c0 110.667 34.333 209.334 103 296.001s157 144 265 172c53.333 14 122.666 21 207.999 21h88v-168z" />
    <glyph glyph-name="d" unicode="d" horiz-adv-x="1151" 
d="M1051 1432l0.000976562 -862.998c0 -88.667 -4 -154.667 -12 -198c-22.667 -114.667 -79 -208.167 -169 -280.5s-193.667 -108.5 -311 -108.5c-145.333 0 -264.333 49 -357 147c-90.667 96 -136 217 -136 363c0 138 46.167 256.667 138.5 356s207.166 149 344.499 149
c98.667 0 187.334 -22.333 266.001 -67v-189c-79.333 60 -161.333 90 -246 90c-97.333 0 -176 -33.667 -236 -101c-58 -64.667 -87 -146.334 -87 -245.001c0 -96.667 28 -176.334 84 -239.001c58.667 -66 135.667 -99 231 -99c97.333 0 174.666 33.667 231.999 101
c54 64 81 145.333 81 244v940h177z" />
    <glyph glyph-name="e" unicode="e" horiz-adv-x="1110" 
d="M1051 434c-24 -134.667 -77.666 -242.667 -160.999 -324c-89.333 -86.667 -200.333 -130 -333 -130c-138.667 0 -256.334 51 -353.001 153c-95.333 100 -143 219.667 -143 359s48.333 259 145 359s214.334 150 353.001 150c205.333 0 357.666 -102.333 456.999 -307
l-643 -356l-74 133l477 266c-59.333 66 -132.333 99 -219 99c-92 0 -168 -34.333 -228 -103c-56.667 -66 -85 -145.667 -85 -239c0 -92.667 28.667 -172 86 -238c60 -69.333 135.667 -104 227 -104c88.667 0 161 30 217 90c52 55.333 84.667 128.333 98 219z" />
    <glyph glyph-name="f" unicode="f" horiz-adv-x="639" 
d="M121 0l0.000976562 1067c0 243.333 138 365 414 365h106v-168c-122.667 0 -203.334 -8.33301 -242.001 -25c-69.333 -30 -104 -97.667 -104 -203v-55h346v-166h-346v-815h-174z" />
    <glyph glyph-name="g" unicode="g" horiz-adv-x="1151" 
d="M1047 57c0 -158 -44.001 -282.666 -132.001 -373.999c-89.333 -93.333 -212.666 -140 -369.999 -140c-92.667 0 -195.667 18.667 -309 56l38 168c113.333 -37.333 205 -56 275 -56c101.333 0 180.333 30 237 90c56 58 84 138 84 240v448c0 98.667 -27 180 -81 244
c-57.333 67.333 -134.666 101 -231.999 101c-95.333 0 -172.333 -33 -231 -99c-56 -62.667 -84 -142.334 -84 -239.001c0 -98.667 29 -180.334 87 -245.001c60 -67.333 138.667 -101 236 -101c84.667 0 166.667 30 246 90v-189c-78.667 -44.667 -167.334 -67 -266.001 -67
c-138 0 -253.333 50.667 -346 152c-90.667 98.667 -136 217.334 -136 356.001c0 146 45.833 267 137.5 363s209.834 144 354.501 144c117.333 0 221.166 -36.167 311.499 -108.5s146.5 -165.5 168.5 -279.5c8 -44 12 -110.333 12 -199v-355z" />
    <glyph glyph-name="h" unicode="h" horiz-adv-x="1063" 
d="M121 0v1432h176v-545c80 76 170.667 114 272 114c131.333 0 230.333 -45.667 297 -137c58.667 -80.667 88 -189 88 -325v-539h-176v567c0 174.667 -77.667 262 -233 262c-80 0 -142.667 -30.667 -188 -92c-40 -55.333 -60 -124.333 -60 -207v-530h-176z" />
    <glyph glyph-name="i" unicode="i" horiz-adv-x="418" 
d="M121 0v981h176v-981h-176zM102 1260c0 30 10.333 55.167 31 75.5s46 30.5 76 30.5s55.167 -10.167 75.5 -30.5s30.5 -45.5 30.5 -75.5c0 -30.667 -10 -56.5 -30 -77.5s-45.333 -31.5 -76 -31.5c-30 0 -55.333 10.667 -76 32s-31 47 -31 77z" />
    <glyph glyph-name="j" unicode="j" horiz-adv-x="418" 
d="M102 1260c0 30 10.333 55.167 31 75.5s46 30.5 76 30.5s55.167 -10.167 75.5 -30.5s30.5 -45.5 30.5 -75.5c0 -30.667 -10 -56.5 -30 -77.5s-45.333 -31.5 -76 -31.5c-30 0 -55.333 10.667 -76 32s-31 47 -31 77zM297 -70c0 -244 -138 -366 -414 -366h-106v168
c122 0 202.333 8.33301 241 25c68.667 30 103 97.333 103 202v1022h176v-1051z" />
    <glyph glyph-name="k" unicode="k" horiz-adv-x="967" 
d="M121 0v1432h176v-807h78c55.333 0 100.333 13.667 135 41c26.667 20 56.667 57.333 90 112l125 203h205l-144 -233c-52.667 -85.333 -101 -139.333 -145 -162c157.333 -30 236 -135.333 236 -316v-270h-177v248c0 136.667 -64.667 205 -194 205h-209v-453h-176z" />
    <glyph glyph-name="l" unicode="l" horiz-adv-x="418" 
d="M121 0v1432h176v-1432h-176z" />
    <glyph glyph-name="m" unicode="m" horiz-adv-x="1591" 
d="M106 0v567.001c0 127.333 32.333 229.666 97 306.999c69.333 83.333 166.333 125 291 125s225 -50.333 301 -151c78 100.667 178.333 151 301 151c124 0 220.667 -42 290 -126c64.667 -78 97 -180 97 -306v-567h-174v600c0 66.667 -19 121.5 -57 164.5
s-90 64.5 -156 64.5s-118 -21.5 -156 -64.5s-57 -97.833 -57 -164.5v-600h-174v600c0 66.667 -19.333 121.5 -58 164.5s-91 64.5 -157 64.5s-118 -21.5 -156 -64.5s-57 -97.833 -57 -164.5v-600h-175z" />
    <glyph glyph-name="n" unicode="n" horiz-adv-x="1049" 
d="M106 0l0.000976562 535.001c0 136 35 246 105 330c75.333 89.333 179.666 134 312.999 134s237.333 -45 312 -135c69.333 -83.333 104 -193 104 -329v-535h-174v567c0 75.333 -21.333 137.333 -64 186c-44.667 50.667 -104 76 -178 76s-133.333 -25.667 -178 -77
c-43.333 -48.667 -65 -110.334 -65 -185.001v-567h-175z" />
    <glyph glyph-name="o" unicode="o" 
d="M244 494c0 -92 28.666 -171.333 85.999 -238c60.667 -69.333 136.334 -104 227.001 -104s166.334 34.667 227.001 104c57.333 66.667 86 146 86 238s-28.667 171 -86 237c-60.667 68.667 -136.334 103 -227.001 103s-166 -34.333 -226 -103c-58 -66 -87 -145 -87 -237z
M60.999 492c0 138 48.168 257.001 144.501 357.001s213.5 150 351.5 150c139.333 0 256.833 -49.667 352.5 -149s143.5 -218.666 143.5 -357.999c0 -140.667 -47.333 -260.334 -142 -359.001c-96 -100.667 -214 -151 -354 -151c-138.667 0 -256.334 50.667 -353.001 152
c-95.333 99.333 -143 218.666 -143 357.999z" />
    <glyph glyph-name="p" unicode="p" horiz-adv-x="1151" 
d="M104 -436l0.000976562 848c0 84 4.33301 148.667 13 194c21.333 118 76.666 213 165.999 285s194.333 108 315 108c145.333 0 263.666 -48 354.999 -144s137 -217 137 -363c0 -138.667 -45.667 -257.334 -137 -356.001c-93.333 -101.333 -209 -152 -347 -152
c-98.667 0 -187.334 22.333 -266.001 67v189c78 -60 160.667 -90 248 -90c97.333 0 176 33.667 236 101c58 64.667 87 146.334 87 245.001c0 96.667 -28.333 176.667 -85 240c-59.333 65.333 -136.666 98 -231.999 98c-97.333 0 -174.666 -33.667 -231.999 -101
c-54 -64 -81 -145.333 -81 -244v-925h-177z" />
    <glyph glyph-name="q" unicode="q" horiz-adv-x="1151" 
d="M870 -436l0.000976562 925.001c0 98.667 -27 180 -81 244c-57.333 67.333 -134.666 101 -231.999 101c-95.333 0 -172.333 -33 -231 -99c-56 -62.667 -84 -142.334 -84 -239.001c0 -98.667 29 -180.334 87 -245.001c60 -67.333 138.667 -101 236 -101
c84.667 0 166.667 30 246 90v-189c-78.667 -44.667 -167.334 -67 -266.001 -67c-138 0 -253.333 50.667 -346 152c-90.667 98.667 -136 217.334 -136 356.001c0 146 45.667 267 137 363s209.666 144 354.999 144c118.667 0 222.667 -35.667 312 -107s145.333 -165 168 -281
c8 -44 12 -110.333 12 -199v-848h-177z" />
    <glyph glyph-name="r" unicode="r" horiz-adv-x="664" 
d="M119 0l0.000976562 981h162v-145c36.667 70 91 116.667 163 140c47.333 15.333 120.666 23 219.999 23v-170c-134 0 -229 -27.5 -285 -82.5s-84 -149.5 -84 -283.5v-463h-176z" />
    <glyph glyph-name="s" unicode="s" horiz-adv-x="887" 
d="M72 168h424c91.333 0 137 31.333 137 94c0 45.333 -43.667 85.666 -131 120.999l-193 78c-87.333 38.667 -147 76.334 -179 113.001c-37.333 42 -56 95 -56 159c0 165.333 109.667 248 329 248h363v-164h-410c-70.667 0 -106 -28 -106 -84c0 -38.667 36 -72.667 108 -102
l206 -83c95.333 -42.667 160 -82.667 194 -120c38 -42.667 57 -96 57 -160c0 -178.667 -137.333 -268 -412 -268h-331v168z" />
    <glyph glyph-name="t" unicode="t" horiz-adv-x="645" 
d="M109 1241h176v-260h297v-166h-297v-420c0 -96.667 28.333 -161 85 -193c40 -22.667 110.667 -34 212 -34v-168h-58c-276.667 0 -415 121.667 -415 365v876z" />
    <glyph glyph-name="u" unicode="u" horiz-adv-x="1049" 
d="M940 981v-534.999c0 -136 -35 -246 -105 -330c-74.667 -89.333 -179 -134 -313 -134c-133.333 0 -237.333 45 -312 135c-69.333 83.333 -104 193 -104 329v535h175v-567c0 -74.667 21.667 -136.334 65 -185.001c44.667 -51.333 104 -77 178 -77s133.333 25.333 178 76
c42.667 48.667 64 110.667 64 186v567h174z" />
    <glyph glyph-name="v" unicode="v" horiz-adv-x="920" 
d="M180 981l280.999 -772l280 772h181l-328 -883c-29.333 -78.667 -74.333 -118 -135 -118c-59.333 0 -103.666 39.333 -132.999 118l-326 883h180z" />
    <glyph glyph-name="w" unicode="w" horiz-adv-x="1591" 
d="M1483 981l-0.000976562 -567.001c0 -126.667 -32.333 -229 -97 -307c-68.667 -83.333 -165.334 -125 -290.001 -125c-126 0 -226.333 50.333 -301 151c-79.333 -100.667 -179.666 -151 -300.999 -151c-124 0 -221 41.667 -291 125c-64.667 78 -97 180.333 -97 307v567
h175v-598c0 -67.333 18.333 -122 55 -164c38.667 -44.667 91.334 -67 158.001 -67c66 0 118.667 22.333 158 67c38 42.667 57 97.334 57 164.001v598h174v-598c0 -67.333 18.333 -122 55 -164c38.667 -44.667 91.334 -67 158.001 -67c65.333 0 117.666 22.333 156.999 67
c37.333 43.333 56 98 56 164v598h174z" />
    <glyph glyph-name="x" unicode="x" horiz-adv-x="901" 
d="M23 981l33.999 -0.000976562c171.333 0 302.666 -75 393.999 -225c50.667 82.667 110.334 141.334 179.001 176.001c64.667 32.667 147 49 247 49l-1 -168c-101.333 -1.33301 -183.333 -30 -246 -86c-65.333 -58.667 -98 -138 -98 -238
c0 -98.667 33 -177.334 99 -236.001c63.333 -56 145 -85 245 -87l1 -166h-23c-174.667 0 -309 74.333 -403 223c-93.333 -148.667 -236 -223 -428 -223v166c100 2 182 31 246 87c66.667 58.667 100 137.334 100 236.001c0 100 -33 179.333 -99 238
c-63.333 56 -145.666 84.667 -246.999 86v168z" />
    <glyph glyph-name="y" unicode="y" horiz-adv-x="1049" 
d="M940 981v-534.999c0 -250 -110 -402 -330 -456v-426h-176v426c-218.667 54 -328 206 -328 456v535h175v-567c0 -74.667 21.667 -136.334 65 -185.001c44.667 -51.333 104 -77 178 -77s133.333 25.333 178 76c42.667 48.667 64 110.667 64 186v567h174z" />
    <glyph glyph-name="z" unicode="z" horiz-adv-x="854" 
d="M621 981c121.333 0 182 -40.334 182 -121.001c0 -40.667 -19.333 -83 -58 -127l-495 -565h557v-168h-588c-116 0 -174 43.667 -174 131c0 36.667 24 82.334 72 137.001l479 547h-512v166h537z" />
    <glyph glyph-name="braceleft" unicode="{" horiz-adv-x="1024" 
d="M866 1327c-107.333 0 -174.664 -14.835 -201.997 -44.502s-41 -91.167 -41 -184.5v-242c0 -94.667 -11.333 -164 -34 -208c-28.667 -56.667 -84.334 -96 -167.001 -118c84 -20.667 140.333 -60.667 169 -120c21.333 -42.667 32 -111 32 -205v-242
c0 -94 13.833 -155.667 41.5 -185s94.834 -44 201.501 -44v-148h-43c-128.667 0 -219.334 16.333 -272.001 49c-45.333 28 -75 74 -89 138c-7.33301 34.667 -11 91.334 -11 170.001v245c0 94 -16 161.333 -48 202c-36.667 46 -100.667 69 -192 69
c-4.66699 0 -11.834 -0.333008 -21.501 -1s-16.834 -1 -21.501 -1v149c4.66699 0 12 -0.333008 22 -1s17.667 -1 23 -1c90.667 0 154 22.667 190 68c32 40 48 106.667 48 200v246c0 78.667 3.66699 135.334 11 170.001c14 63.333 43.667 109 89 137
c55.333 34.667 160.333 52 315 52v-150z" />
    <glyph glyph-name="bar" unicode="|" horiz-adv-x="1024" 
d="M588 1565v-2048h-150v2048h150z" />
    <glyph glyph-name="braceright" unicode="}" horiz-adv-x="1024" 
d="M858 606v-148.998c-4.66699 0 -11.834 0.333008 -21.501 1s-16.834 1 -21.501 1c-92 0 -156 -22.667 -192 -68c-32 -40.667 -48 -108.334 -48 -203.001v-245c0 -78.667 -3.66699 -135.334 -11 -170.001c-14 -64 -43.667 -110 -89 -138
c-52.667 -32.667 -157.667 -49 -315 -49v148c106 0 173 15 201 45s42 92 42 186v240c0 94.667 11.333 164 34 208c28.667 56.667 84.334 95.667 167.001 117c-82.667 22 -138.334 61.333 -167.001 118c-22.667 44 -34 113.333 -34 208v242c0 93.333 -14 154.833 -42 184.5
s-95 44.5 -201 44.5v150h37c130 0 222.667 -17.333 278 -52c36.667 -22.667 62.334 -54.167 77.001 -94.5s23 -119.5 25 -237.5c-1.33301 80.667 -2 7 -2 -221c0 -98 18 -167 54 -207c25.333 -28.667 61 -46.667 107 -54c20.667 -3.33301 61.334 -5 122.001 -5z" />
    <glyph glyph-name="asciitilde" unicode="~" horiz-adv-x="1706" 
d="M1530 614c-136 -94 -265.666 -141 -388.999 -141c-65.333 0 -161.333 22.5 -288 67.5s-223.334 67.5 -290.001 67.5c-106.667 0 -235 -52.333 -385 -157v155c141.333 96 270.333 144 387 144c74 0 174.667 -22.667 302 -68s219.333 -68 276 -68
c110.667 0 239.667 52 387 156v-156z" />
    <glyph glyph-name="euro" 
d="M1069 0l-76 -0.000976562c-214 0 -387.667 44 -521 132c-150 100 -239.667 250.667 -269 452h-187l23 80h158c0 6 -0.333008 14.833 -1 26.5s-1 20.5 -1 26.5c0 24 1 51.333 3 82h-182l23 80h170c68 368.667 331.333 553 790 553h70v-172h-86
c-330 0 -521.667 -127 -575 -381h575l-22 -80h-570c0 -8.66699 -1 -22.167 -3 -40.5s-3 -32.166 -3 -41.499c0 -23.333 0.666992 -41 2 -53h539l-23 -80h-502c26 -141.333 95.667 -247.333 209 -318c99.333 -62.667 225 -94 377 -94h82v-172z" />
    <glyph glyph-name="nonbreakingspace" unicode="&#xa0;" 
 />
    <glyph glyph-name="exclamdown" unicode="&#xa1;" horiz-adv-x="557" 
d="M369 1092v-1106h-181v1106h181zM397 1313c0 -33.333 -11.333 -61.167 -34 -83.5s-50.667 -33.5 -84 -33.5c-34 0 -62.333 11 -85 33s-34 50 -34 84c0 33.333 11.5 61.5 34.5 84.5s51.167 34.5 84.5 34.5c32.667 0 60.5 -11.667 83.5 -35s34.5 -51.333 34.5 -84z" />
    <glyph glyph-name="cent" unicode="&#xa2;" 
d="M553 51v307.002c-108 7.33301 -196 45.666 -264 114.999c-70 71.333 -105 160.666 -105 267.999c0 114 33.167 207 99.5 279s156.166 111.667 269.499 119v266h147v-266h131v-160c-150 0 -246.667 -5.66699 -290 -17c-106.667 -28.667 -160 -96.667 -160 -204
c0 -96.667 35.333 -162.667 106 -198c48.667 -24.667 125.334 -37 230.001 -37h58c25.333 0.666992 44 1 56 1v-166h-131v-307h-147z" />
    <glyph glyph-name="sterling" unicode="&#xa3;" 
d="M14 0l0.000976562 184h52c130.667 0 196 95.667 196 287v221h-121v180h121v101c0 145.333 36 261 108 347c77.333 92 187.333 138 330 138c79.333 0 151 -13 215 -39l-55 -151c-54.667 23.333 -107.334 35 -158.001 35c-86.667 0 -152 -32.333 -196 -97
c-38 -55.333 -57 -128.333 -57 -219v-115h233v-180h-233v-209c0 -145.333 -29 -245 -87 -299h228c128.667 0 210.667 49.667 246 149c17.333 48.667 26 153.334 26 314.001h189v-184c0 -136.667 -30 -245.334 -90 -326.001c-67.333 -91.333 -167 -137 -299 -137h-648z" />
    <glyph glyph-name="currency" unicode="&#xa4;" 
d="M1069 0l-76 -0.000976562c-214 0 -387.667 44 -521 132c-150 100 -239.667 250.667 -269 452h-187l23 80h158c0 6 -0.333008 14.833 -1 26.5s-1 20.5 -1 26.5c0 24 1 51.333 3 82h-182l23 80h170c68 368.667 331.333 553 790 553h70v-172h-86
c-330 0 -521.667 -127 -575 -381h575l-22 -80h-570c0 -8.66699 -1 -22.167 -3 -40.5s-3 -32.166 -3 -41.499c0 -23.333 0.666992 -41 2 -53h539l-23 -80h-502c26 -141.333 95.667 -247.333 209 -318c99.333 -62.667 225 -94 377 -94h82v-172z" />
    <glyph glyph-name="yen" unicode="&#xa5;" horiz-adv-x="1139" 
d="M862 963h232v-95h-277l-76 -153h353v-94h-398l-34 -72v-549h-185v549l-35 72h-399v94h352l-76 153h-276v95h229l-229 469h184l342 -697l342 697h183z" />
    <glyph glyph-name="brokenbar" unicode="&#xa6;" horiz-adv-x="1024" 
d="M588 408v-758h-150v758h150zM588 1432v-758h-150v758h150z" />
    <glyph glyph-name="section" unicode="&#xa7;" horiz-adv-x="1024" 
d="M229 897c-69.333 60 -104 132.332 -104 216.999c0 112.667 43 196.334 129 251.001c71.333 44.667 167 67 287 67h305v-193h-275c-168 0 -252 -39 -252 -117c0 -38.667 25.667 -78 77 -118c22 -16.667 64.667 -42.667 128 -78l203 -113c134 -74.667 201 -156 201 -244
c0 -63.333 -34.333 -122 -103 -176c72.667 -59.333 109 -133 109 -221c0 -212.667 -141.333 -319 -424 -319h-367v190h334c169.333 0 254 40.333 254 121c0 48 -67.667 110 -203 186l-202 113c-135.333 76 -203 158 -203 246c0 73.333 35.333 136 106 188zM389 796.999
c-50.667 0 -76 -26 -76 -78c0 -34.667 28.333 -71.334 85 -110.001c1.33301 -1.33301 42.666 -25.333 123.999 -72c64.667 -37.333 108.334 -56 131.001 -56c52 0 78 26.667 78 80c0 34.667 -28.333 71.334 -85 110.001c-3.33301 2 -45 25.333 -125 70
c-66.667 37.333 -110.667 56 -132 56z" />
    <glyph glyph-name="dieresis" unicode="&#xa8;" horiz-adv-x="1024" 
d="M588 1253c0 26.667 10 50.167 30 70.5s43.333 30.5 70 30.5c27.333 0 50.5 -10 69.5 -30s28.5 -43.667 28.5 -71c0 -28 -9.33301 -51.667 -28 -71s-42 -29 -70 -29s-51.667 9.66699 -71 29s-29 43 -29 71zM238 1253c0 27.333 9.5 51 28.5 71s42.167 30 69.5 30
c26.667 0 50 -10.167 70 -30.5s30 -43.833 30 -70.5c0 -28 -9.66699 -51.667 -29 -71s-43 -29 -71 -29s-51.333 9.66699 -70 29s-28 43 -28 71z" />
    <glyph glyph-name="copyright" unicode="&#xa9;" horiz-adv-x="1706" 
d="M1053 907c-18 106.667 -86.333 160.001 -205 160.001c-80.667 0 -140.667 -38.667 -180 -116c-30 -59.333 -45 -134 -45 -224c0 -90.667 16 -165 48 -223c40.667 -72.667 103 -109 187 -109c116.667 0 185 58.667 205 176h145c-6 -92 -44.667 -164.667 -116 -218
c-65.333 -49.333 -145.333 -74 -240 -74c-129.333 0 -228.333 44.333 -297 133c-61.333 80.667 -92 187.667 -92 321c0 127.333 33.333 231.666 100 312.999c72 88 170.333 132 295 132c89.333 0 165.333 -22.667 228 -68c68 -49.333 106 -117 114 -203h-147zM1493 727.001
c0 178.667 -61.832 330.168 -185.499 454.501s-274.834 186.5 -453.501 186.5c-176 0 -326.833 -62.833 -452.5 -188.5s-188.5 -276.5 -188.5 -452.5c0 -174.667 63.167 -324.834 189.5 -450.501s276.833 -188.5 451.5 -188.5c176 0 326.5 62.5 451.5 187.5
s187.5 275.5 187.5 451.5zM852.001 1464c206 0 380.667 -71.333 524 -214s215 -317 215 -523c0 -202.667 -72.5 -376.167 -217.5 -520.5s-318.833 -216.5 -521.5 -216.5c-200.667 0 -373.334 72.667 -518.001 218s-217 318.333 -217 519c0 203.333 71.833 377 215.5 521
s316.834 216 519.501 216z" />
    <glyph glyph-name="ordfeminine" unicode="&#xaa;" horiz-adv-x="864" 
d="M653 745v341.999c0 72 -21.333 130.333 -64 175s-99.667 67 -171 67c-70 0 -126.833 -22 -170.5 -66s-65.5 -101 -65.5 -171c0 -71.333 22.5 -129.5 67.5 -174.5s103.167 -67.5 174.5 -67.5c62 0 123.333 21 184 63v-131c-60 -32.667 -126 -49 -198 -49
c-100.667 0 -186.334 34.5 -257.001 103.5s-106 153.5 -106 253.5c0 105.333 35 191 105 257s158 99 264 99c85.333 0 161.333 -24 228 -72c70.667 -50.667 114.334 -116.667 131.001 -198c6 -29.333 9 -76.666 9 -141.999v-289h-131z" />
    <glyph glyph-name="guillemotleft" unicode="&#xab;" horiz-adv-x="1042" 
d="M928 184h-162l-250 322l250 317h162l-250 -317zM553 184h-162l-250 322l250 317h162l-248 -317z" />
    <glyph glyph-name="logicalnot" unicode="&#xac;" horiz-adv-x="1706" 
d="M1452 860v-502h-137v363h-1061v139h1198z" />
    <glyph glyph-name="sfthyphen" unicode="&#xad;" horiz-adv-x="676" 
d="M111 403v181h452v-181h-452z" />
    <glyph glyph-name="registered" unicode="&#xae;" horiz-adv-x="1706" 
d="M844 1057h-129v-277h133c140.667 0 211 44.333 211 133c0 96 -71.667 144 -215 144zM872 1159c232.667 0 349 -76.333 349 -229c0 -124.667 -63.667 -199.667 -191 -225l187 -381h-177l-170 356h-155v-356h-158v835h315zM1493 721c0 181.333 -61.167 334.5 -183.5 459.5
s-274.166 187.5 -455.499 187.5c-176 0 -326.833 -62.833 -452.5 -188.5s-188.5 -276.5 -188.5 -452.5c0 -172.667 62.833 -322.334 188.5 -449.001s274.5 -190 446.5 -190c177.333 0 329.166 61.333 455.499 184s189.5 272.334 189.5 449.001zM852 1464
c204.667 0 379.001 -71.668 523.001 -215.001s216 -317.333 216 -522c0 -203.333 -72.333 -377 -217 -521s-318.667 -216 -522 -216c-200.667 0 -373.334 72.667 -518.001 218s-217 318.333 -217 519c0 146 42.167 282.833 126.5 410.5s193.833 218.834 328.5 273.501
c86.667 35.333 180 53 280 53z" />
    <glyph glyph-name="macron" unicode="&#xaf;" horiz-adv-x="1024" 
d="M254 1190v127h516v-127h-516z" />
    <glyph glyph-name="macron" unicode="&#x2c9;" horiz-adv-x="1024" 
d="M254 1190v127h516v-127h-516z" />
    <glyph glyph-name="degree" unicode="&#xb0;" horiz-adv-x="674" 
d="M530 1169c0 54.667 -18.5 100.5 -55.5 137.5s-82.5 55.5 -136.5 55.5c-54.667 0 -100.834 -18.667 -138.501 -56s-56.5 -83 -56.5 -137c0 -54.667 18.833 -101 56.5 -139s83.834 -57 138.501 -57c54 0 99.5 19 136.5 57s55.5 84.333 55.5 139zM338 1456
c80 0 147.833 -28.167 203.5 -84.5s83.5 -124.5 83.5 -204.5c0 -80.667 -28 -148.5 -84 -203.5s-124.333 -82.5 -205 -82.5s-148.667 27.5 -204 82.5s-83 122.833 -83 203.5s28 149 84 205s124.333 84 205 84z" />
    <glyph glyph-name="plusminus" unicode="&#xb1;" horiz-adv-x="1706" 
d="M1452 170v-141h-1198v141h1198zM924 1192v-340h528v-139h-528v-340h-142v340h-528v139h528v340h142z" />
    <glyph glyph-name="twosuperior" unicode="&#xb2;" horiz-adv-x="735" 
d="M213 688l477 -0.000976562v-115h-522c-76.667 0 -115 29.667 -115 89c0 32.667 22.667 65.334 68 98.001l338 246c66.667 48.667 100 106 100 172c0 48.667 -18.333 87.667 -55 117c-34 28 -75.667 42 -125 42c-51.333 0 -94 -14.667 -128 -44
c-36 -30.667 -54 -71.334 -54 -122.001c0 -100.667 58.333 -158 175 -172l-112 -79c-129.333 45.333 -194 128.333 -194 249c0 85.333 32 154 96 206c60 48.667 133.667 73 221 73c85.333 0 157.333 -23 216 -69c63.333 -49.333 95 -115.666 95 -198.999
c0 -99.333 -60.667 -192.333 -182 -279z" />
    <glyph glyph-name="threesuperior" unicode="&#xb3;" horiz-adv-x="735" 
d="M86 1432l395 0.000976562c91.333 0 137 -29.667 137 -89c0 -34 -14.333 -63.333 -43 -88l-192 -163c199.333 -2.66699 299 -88 299 -256c0 -82.667 -30.333 -148.334 -91 -197.001c-56 -44 -126.667 -66 -212 -66h-316v115h277c139.333 0 209 51.333 209 154
c0 100.667 -63 151 -189 151h-167v80l296 252h-403v107z" />
    <glyph glyph-name="acute" unicode="&#xb4;" horiz-adv-x="1024" 
d="M375 1096l209 348h178l-281 -348h-106z" />
    <glyph glyph-name="mu" unicode="&#xb5;" horiz-adv-x="1151" 
d="M385 1071l-129.001 -600.002c-9.33301 -43.333 -14 -87.666 -14 -132.999c0 -138 66.667 -207 200 -207c102 0 181 44 237 132c36.667 58.667 68.334 149.334 95.001 272.001l115 536h178l-156 -732c-14.667 -68.667 -22 -112.667 -22 -132c0 -46 23.333 -69 70 -69
c9.33301 0 20.666 1 33.999 3l-31 -143c-32 -6.66699 -68 -10 -108 -10c-77.333 0 -127 43 -149 129c-59.333 -87.333 -149.666 -131 -270.999 -131c-104.667 0 -190 38.667 -256 116l-110 -530h-181l318 1499h180z" />
    <glyph glyph-name="mu" unicode="&#x3bc;" horiz-adv-x="1151" 
d="M385 1071l-129.001 -600.002c-9.33301 -43.333 -14 -87.666 -14 -132.999c0 -138 66.667 -207 200 -207c102 0 181 44 237 132c36.667 58.667 68.334 149.334 95.001 272.001l115 536h178l-156 -732c-14.667 -68.667 -22 -112.667 -22 -132c0 -46 23.333 -69 70 -69
c9.33301 0 20.666 1 33.999 3l-31 -143c-32 -6.66699 -68 -10 -108 -10c-77.333 0 -127 43 -149 129c-59.333 -87.333 -149.666 -131 -270.999 -131c-104.667 0 -190 38.667 -256 116l-110 -530h-181l318 1499h180z" />
    <glyph glyph-name="paragraph" unicode="&#xb6;" horiz-adv-x="1024" 
d="M958 1393h-120v-1393h-111v1393h-176v-1393h-113v782c-108 5.33301 -195.667 37 -263 95c-72.667 62.667 -109 147 -109 253c0 110.667 38.667 197.667 116 261c72 58.667 164.333 88 277 88h499v-86z" />
    <glyph glyph-name="ch270" unicode="&#xb7;" horiz-adv-x="557" 
d="M160 729c0 34 11.333 62.335 34 85.002s51 34 85 34c33.333 0 61.333 -11.5 84 -34.5s34 -51.167 34 -84.5c0 -32.667 -11.5 -60.334 -34.5 -83.001s-50.833 -34 -83.5 -34c-33.333 0 -61.5 11.167 -84.5 33.5s-34.5 50.166 -34.5 83.499z" />
    <glyph glyph-name="ch270" unicode="&#x2219;" horiz-adv-x="557" 
d="M160 729c0 34 11.333 62.335 34 85.002s51 34 85 34c33.333 0 61.333 -11.5 84 -34.5s34 -51.167 34 -84.5c0 -32.667 -11.5 -60.334 -34.5 -83.001s-50.833 -34 -83.5 -34c-33.333 0 -61.5 11.167 -84.5 33.5s-34.5 50.166 -34.5 83.499z" />
    <glyph glyph-name="cedilla" unicode="&#xb8;" horiz-adv-x="1024" 
d="M299 -424l-0.000976562 88c109.333 -24.667 191.333 -37 246 -37c80.667 0 121 28 121 84c0 66.667 -44.667 100 -134 100c-16 0 -35.667 -1 -59 -3l57 276h74l-41 -190c156 0 234 -59 234 -177c0 -121.333 -82.667 -182 -248 -182
c-61.333 0 -144.666 13.667 -249.999 41z" />
    <glyph glyph-name="onesuperior" unicode="&#xb9;" horiz-adv-x="735" 
d="M338 573v752h-170l39 107h260v-859h-129z" />
    <glyph glyph-name="ordmasculine" unicode="&#xba;" horiz-adv-x="836" 
d="M182 1092c0 -66.667 22.667 -123.334 68 -170.001s101.333 -70 168 -70s122.5 23.333 167.5 70s67.5 103.334 67.5 170.001c0 66 -22.667 122 -68 168s-101 69 -167 69s-121.833 -23 -167.5 -69s-68.5 -102 -68.5 -168zM47 1090c0 99.333 37.333 183.668 112 253.001
c72.667 68.667 159 103 259 103s186.667 -34 260 -102c75.333 -70 113 -154.667 113 -254c0 -100.667 -36.833 -185.334 -110.5 -254.001s-161.167 -103 -262.5 -103s-188 34 -260 102c-74 69.333 -111 154.333 -111 255z" />
    <glyph glyph-name="guillemotright" unicode="&#xbb;" horiz-adv-x="1042" 
d="M489 184l250 322l-250 317h162l252 -317l-252 -322h-162zM115 184l250 322l-250 317h161l252 -317l-252 -322h-161z" />
    <glyph glyph-name="onequarter" unicode="&#xbc;" horiz-adv-x="1745" 
d="M1473 0v188h-312c-57.333 0 -86 23.333 -86 70c0 23.333 7.66699 47.333 23 72l291 471h133l-314 -508h265v340l114 184v-524h139v-105h-139v-188h-114zM360 0l887 1432h137l-876 -1432h-148zM319 629v700h-161l39 101h245v-801h-123z" />
    <glyph glyph-name="onehalf" unicode="&#xbd;" horiz-adv-x="1745" 
d="M1247 106h454.998v-106h-498c-72 -0 -108 27.333 -108 82c0 31.333 21 62 63 92l324 229c64 45.333 96 99.333 96 162c0 46 -18 82.667 -54 110c-32.667 25.333 -72.667 38 -120 38s-87.666 -13.667 -120.999 -41c-35.333 -28.667 -53 -66.334 -53 -113.001
c0 -96.667 56 -150.667 168 -162l-107 -75c-124 44 -186 122.333 -186 235c0 80 31.667 144 95 192c57.333 44 127.333 66 210 66c80.667 0 148.334 -20.667 203.001 -62c61.333 -46 92 -108 92 -186c0 -95.333 -57.333 -182.666 -172 -261.999zM359.998 0l887 1432h137
l-876 -1432h-148zM318.998 629v700h-161l39 101h245v-801h-123z" />
    <glyph glyph-name="threequarters" unicode="&#xbe;" horiz-adv-x="1745" 
d="M1473 0v188h-312c-57.333 0 -86 23.333 -86 70c0 23.333 7.66699 47.333 23 72l291 471h133l-314 -508h265v340l114 184v-524h139v-105h-139v-188h-114zM360 0l887 1432h137l-876 -1432h-148zM82 1430h377c88.667 0 133 -27.333 133 -82c0 -30.667 -14.333 -58 -43 -82
l-184 -154c190.667 -2.66699 286 -82 286 -238c0 -78 -29.333 -139.333 -88 -184c-53.333 -40.667 -120.333 -61 -201 -61h-301v106h265c132 0 198 48.667 198 146c0 94 -60 141 -180 141h-160v72l283 235h-385v101z" />
    <glyph glyph-name="questiondown" unicode="&#xbf;" horiz-adv-x="1024" 
d="M662 1337c0 -33.333 -11.5 -61.333 -34.5 -84s-51.167 -34 -84.5 -34s-61.5 11.333 -84.5 34s-34.5 50.667 -34.5 84c0 32.667 11.667 60.667 35 84s51.333 35 84 35s60.667 -11.667 84 -35s35 -51.333 35 -84zM465 795l0.000976562 307.001h174v-452
c-6.66699 0 -16.334 0.333008 -29.001 1h-30c-88.667 0 -160.334 -18 -215.001 -54c-63.333 -42.667 -95 -106.334 -95 -191.001c0 -72 22.667 -130.333 68 -175s104 -67 176 -67c76.667 0 137 25 181 75c41.333 46.667 63 109 65 187h182
c-2 -132 -42.667 -238.667 -122 -320s-184.666 -122 -315.999 -122c-126 0 -229.5 39.667 -310.5 119s-121.5 181.666 -121.5 306.999c0 117.333 36.667 210 110 278c68.667 62.667 163 98.334 283 107.001z" />
    <glyph glyph-name="Agrave" unicode="&#xc0;" horiz-adv-x="1229" 
d="M922 0l0.000976562 657h-557v181h557v57c0 256.667 -102.667 385 -308 385c-204.667 0 -307 -128.333 -307 -385v-895h-190v899c0 162.667 41.667 294.334 125 395.001c88.667 108 212.667 162 372 162s283.666 -54 372.999 -162
c83.333 -100.667 125 -232.334 125 -395.001v-899h-190zM751.001 1567h-106l-281 348h178z" />
    <glyph glyph-name="Aacute" unicode="&#xc1;" horiz-adv-x="1229" 
d="M922 0l0.000976562 657h-557v181h557v57c0 256.667 -102.667 385 -308 385c-204.667 0 -307 -128.333 -307 -385v-895h-190v899c0 162.667 41.667 294.334 125 395.001c88.667 108 212.667 162 372 162s283.666 -54 372.999 -162
c83.333 -100.667 125 -232.334 125 -395.001v-899h-190zM477.001 1567l209 348h178l-281 -348h-106z" />
    <glyph glyph-name="Acircumflex" unicode="&#xc2;" horiz-adv-x="1229" 
d="M922 0l0.000976562 657h-557v181h557v57c0 256.667 -102.667 385 -308 385c-204.667 0 -307 -128.333 -307 -385v-895h-190v899c0 162.667 41.667 294.334 125 395.001c88.667 108 212.667 162 372 162s283.666 -54 372.999 -162
c83.333 -100.667 125 -232.334 125 -395.001v-899h-190zM327.001 1517l197 348h178l197 -348h-107l-178 243l-180 -243h-107z" />
    <glyph glyph-name="Atilde" unicode="&#xc3;" horiz-adv-x="1229" 
d="M922 0l0.000976562 657h-557v181h557v57c0 256.667 -102.667 385 -308 385c-204.667 0 -307 -128.333 -307 -385v-895h-190v899c0 162.667 41.667 294.334 125 395.001c88.667 108 212.667 162 372 162s283.666 -54 372.999 -162
c83.333 -100.667 125 -232.334 125 -395.001v-899h-190zM905.001 1835c-33.333 -128.667 -99.668 -193 -199.001 -193c-23.333 0 -56.5 7.66699 -99.5 23s-75.833 23 -98.5 23c-45.333 0 -77.666 -21.333 -96.999 -64h-88c30 124 96.333 186 199 186
c24 0 57.5 -7.83301 100.5 -23.5s75.5 -23.5 97.5 -23.5c46.667 0 79 24 97 72h88z" />
    <glyph glyph-name="Adieresis" unicode="&#xc4;" horiz-adv-x="1229" 
d="M922 0l0.000976562 657h-557v181h557v57c0 256.667 -102.667 385 -308 385c-204.667 0 -307 -128.333 -307 -385v-895h-190v899c0 162.667 41.667 294.334 125 395.001c88.667 108 212.667 162 372 162s283.666 -54 372.999 -162
c83.333 -100.667 125 -232.334 125 -395.001v-899h-190zM690.001 1724c0 26.667 10 50.167 30 70.5s43.333 30.5 70 30.5c27.333 0 50.5 -10 69.5 -30s28.5 -43.667 28.5 -71c0 -28 -9.33301 -51.667 -28 -71s-42 -29 -70 -29s-51.667 9.66699 -71 29s-29 43 -29 71z
M340.001 1724c0 27.333 9.5 51 28.5 71s42.167 30 69.5 30c26.667 0 50 -10.167 70 -30.5s30 -43.833 30 -70.5c0 -28 -9.66699 -51.667 -29 -71s-43 -29 -71 -29s-51.333 9.66699 -70 29s-28 43 -28 71z" />
    <glyph glyph-name="Aring" unicode="&#xc5;" horiz-adv-x="1229" 
d="M479 1739c0 -37.333 13.167 -68.833 39.5 -94.5s58.166 -38.5 95.499 -38.5s69 12.833 95 38.5s39 57.167 39 94.5s-13 69.166 -39 95.499s-57.667 39.5 -95 39.5s-69.166 -13.167 -95.499 -39.5s-39.5 -58.166 -39.5 -95.499zM381 1741c0 66 22.333 121 67 165
s100 66 166 66s121.167 -22 165.5 -66s66.5 -99 66.5 -165s-22.167 -121.5 -66.5 -166.5s-99.5 -67.5 -165.5 -67.5s-121.333 22.5 -166 67.5s-67 100.5 -67 166.5zM922 0l0.000976562 657h-557v181h557v57c0 256.667 -102.667 385 -308 385
c-204.667 0 -307 -128.333 -307 -385v-895h-190v899c0 162.667 41.667 294.334 125 395.001c88.667 108 212.667 162 372 162s283.666 -54 372.999 -162c83.333 -100.667 125 -232.334 125 -395.001v-899h-190z" />
    <glyph glyph-name="AE" unicode="&#xc6;" horiz-adv-x="1892" 
d="M1796 0l-26.9971 -0.000976562c-144.667 0 -263.667 13.333 -357 40c-120.667 34 -222 95 -304 183v-223h-186v653h-557v170h557v72c0 256.667 -102.667 385 -308 385c-204.667 0 -307 -128.333 -307 -385v-895h-190v899c0 162.667 41.333 294.334 124 395.001
c89.333 108 213.666 162 372.999 162c208.667 0 359 -99.667 451 -299c141.333 184.667 362.666 277 663.999 277c7.33301 0 18.666 -0.333008 33.999 -1s26.333 -1 33 -1v-170c-6.66699 0 -17 0.333008 -31 1s-24.667 1 -32 1c-361.333 0 -568.333 -147 -621 -441h684v-170
h-694c24 -164.667 93.333 -288 208 -370c103.333 -74.667 238 -112 404 -112c26.667 0 54 1 82 3v-174z" />
    <glyph glyph-name="Ccedilla" unicode="&#xc7;" horiz-adv-x="1020" 
d="M958 1262c-17.333 1.33301 -40.333 2.00098 -69 2.00098c-183.333 0 -331 -44.333 -443 -133c-122.667 -97.333 -184 -235.333 -184 -414c0 -176.667 61.667 -314.334 185 -413.001c112 -90 256 -135 432 -135c26 0 52.333 1 79 3v-172h-55
c-106.667 -0 -200 8.33301 -280 25c-165.333 34.667 -299.166 116.167 -401.499 244.5s-153.5 277.5 -153.5 447.5c0 169.333 51.167 317.833 153.5 445.5s236.166 209.167 401.499 244.5c80 16.667 191.667 25 335 25v-170zM420 -423.999l-0.000976562 88
c109.333 -24.667 191.333 -37 246 -37c80.667 0 121 28 121 84c0 66.667 -44.667 100 -134 100c-16 0 -35.667 -1 -59 -3l57 276h74l-41 -190c156 0 234 -59 234 -177c0 -121.333 -82.667 -182 -248 -182c-61.333 0 -144.666 13.667 -249.999 41z" />
    <glyph glyph-name="Egrave" unicode="&#xc8;" horiz-adv-x="1040" 
d="M958 1262c-16 1.33301 -37 1.99902 -63 1.99902c-354 0 -561 -147 -621 -441h684v-170h-694c48.667 -320.667 256.334 -481 623.001 -481c31.333 0 55 0.666992 71 2v-174h-55c-212 0 -373 33.333 -483 100c-234.667 142.667 -352 348.334 -352 617.001
c0 169.333 51.167 317.833 153.5 445.5s236.166 209.167 401.499 244.5c80 16.667 191.667 25 335 25v-170zM819 1567h-106l-281 348h178z" />
    <glyph glyph-name="Eacute" unicode="&#xc9;" horiz-adv-x="1040" 
d="M958 1262c-16 1.33301 -37 1.99902 -63 1.99902c-354 0 -561 -147 -621 -441h684v-170h-694c48.667 -320.667 256.334 -481 623.001 -481c31.333 0 55 0.666992 71 2v-174h-55c-212 0 -373 33.333 -483 100c-234.667 142.667 -352 348.334 -352 617.001
c0 169.333 51.167 317.833 153.5 445.5s236.166 209.167 401.499 244.5c80 16.667 191.667 25 335 25v-170zM545 1567l209 348h178l-281 -348h-106z" />
    <glyph glyph-name="Ecircumflex" unicode="&#xca;" horiz-adv-x="1040" 
d="M958 1262c-16 1.33301 -37 1.99902 -63 1.99902c-354 0 -561 -147 -621 -441h684v-170h-694c48.667 -320.667 256.334 -481 623.001 -481c31.333 0 55 0.666992 71 2v-174h-55c-212 0 -373 33.333 -483 100c-234.667 142.667 -352 348.334 -352 617.001
c0 169.333 51.167 317.833 153.5 445.5s236.166 209.167 401.499 244.5c80 16.667 191.667 25 335 25v-170zM397 1517l197 348h178l197 -348h-107l-178 243l-180 -243h-107z" />
    <glyph glyph-name="Edieresis" unicode="&#xcb;" horiz-adv-x="1040" 
d="M958 1262c-16 1.33301 -37 1.99902 -63 1.99902c-354 0 -561 -147 -621 -441h684v-170h-694c48.667 -320.667 256.334 -481 623.001 -481c31.333 0 55 0.666992 71 2v-174h-55c-212 0 -373 33.333 -483 100c-234.667 142.667 -352 348.334 -352 617.001
c0 169.333 51.167 317.833 153.5 445.5s236.166 209.167 401.499 244.5c80 16.667 191.667 25 335 25v-170zM758 1724c0 26.667 10 50.167 30 70.5s43.333 30.5 70 30.5c27.333 0 50.5 -10 69.5 -30s28.5 -43.667 28.5 -71c0 -28 -9.33301 -51.667 -28 -71s-42 -29 -70 -29
s-51.667 9.66699 -71 29s-29 43 -29 71zM408 1724c0 27.333 9.5 51 28.5 71s42.167 30 69.5 30c26.667 0 50 -10.167 70 -30.5s30 -43.833 30 -70.5c0 -28 -9.66699 -51.667 -29 -71s-43 -29 -71 -29s-51.333 9.66699 -70 29s-28 43 -28 71z" />
    <glyph glyph-name="Igrave" unicode="&#xcc;" horiz-adv-x="465" 
d="M137 0v1432h191v-1432h-191zM370 1567h-106l-281 348h178z" />
    <glyph glyph-name="Iacute" unicode="&#xcd;" horiz-adv-x="465" 
d="M137 0v1432h191v-1432h-191zM96 1567l209 348h178l-281 -348h-106z" />
    <glyph glyph-name="Icircumflex" unicode="&#xce;" horiz-adv-x="465" 
d="M137 0v1432h191v-1432h-191zM-54 1567l197 348h178l197 -348h-107l-178 243l-180 -243h-107z" />
    <glyph glyph-name="Idieresis" unicode="&#xcf;" horiz-adv-x="465" 
d="M137 0v1432h191v-1432h-191zM309 1724c0 26.667 10 50.167 30 70.5s43.333 30.5 70 30.5c27.333 0 50.5 -10 69.5 -30s28.5 -43.667 28.5 -71c0 -28 -9.33301 -51.667 -28 -71s-42 -29 -70 -29s-51.667 9.66699 -71 29s-29 43 -29 71zM-41 1724c0 27.333 9.5 51 28.5 71
s42.167 30 69.5 30c26.667 0 50 -10.167 70 -30.5s30 -43.833 30 -70.5c0 -28 -9.66699 -51.667 -29 -71s-43 -29 -71 -29s-51.333 9.66699 -70 29s-28 43 -28 71z" />
    <glyph glyph-name="Eth" unicode="&#xd0;" horiz-adv-x="1292" 
d="M395 174c4.66699 0 12.333 -0.331055 23 -0.998047s18.667 -1 24 -1c172.667 0 312.667 47.333 420 142c112 100 168 235 168 405c0 176 -58.667 313 -176 411c-109.333 90.667 -254 136 -434 136c-19.333 0 -49.333 -1.66699 -90 -5v-454h303v-119h-303v-688h-191v688
h-129v119h129v625h246c110.667 0 205.667 -8.33301 285 -25c166 -34.667 300 -115.834 402 -243.501s153 -276.5 153 -446.5c0 -132 -31.5 -251.833 -94.5 -359.5s-151.833 -194.834 -266.5 -261.501c-110 -64 -266.333 -96 -469 -96v174z" />
    <glyph glyph-name="Ntilde" unicode="&#xd1;" horiz-adv-x="1290" 
d="M311 0h-180v1239c0 139.333 52 209 156 209c70 0 128 -47.667 174 -143l516 -1072v1199h182v-1244c0 -138.667 -50.333 -208 -151 -208c-73.333 0 -133 47.667 -179 143l-518 1079v-1202zM936 1835c-33.333 -128.667 -99.668 -193 -199.001 -193
c-23.333 0 -56.5 7.66699 -99.5 23s-75.833 23 -98.5 23c-45.333 0 -77.666 -21.333 -96.999 -64h-88c30 124 96.333 186 199 186c24 0 57.5 -7.83301 100.5 -23.5s75.5 -23.5 97.5 -23.5c46.667 0 79 24 97 72h88z" />
    <glyph glyph-name="Ograve" unicode="&#xd2;" horiz-adv-x="1583" 
d="M66 717c0 202.667 70.5 376.5 211.5 521.5s312.833 217.5 515.5 217.5c201.333 0 372.5 -72.667 513.5 -218s211.5 -319 211.5 -521c0 -202.667 -70 -376.667 -210 -522c-142 -146.667 -313.667 -220 -515 -220c-203.333 0 -375.333 72.667 -516 218s-211 320 -211 524z
M260 719c0 -152 50.333 -283 151 -393c104 -113.333 231.333 -170 382 -170c149.333 0 276 57 380 171c100 110 150 240.667 150 392c0 150 -50.333 280.333 -151 391c-104 113.333 -230.333 170 -379 170c-150.667 0 -278 -56.333 -382 -169
c-100.667 -109.333 -151 -240 -151 -392zM930 1567h-106l-281 348h178z" />
    <glyph glyph-name="Oacute" unicode="&#xd3;" horiz-adv-x="1583" 
d="M66 717c0 202.667 70.5 376.5 211.5 521.5s312.833 217.5 515.5 217.5c201.333 0 372.5 -72.667 513.5 -218s211.5 -319 211.5 -521c0 -202.667 -70 -376.667 -210 -522c-142 -146.667 -313.667 -220 -515 -220c-203.333 0 -375.333 72.667 -516 218s-211 320 -211 524z
M260 719c0 -152 50.333 -283 151 -393c104 -113.333 231.333 -170 382 -170c149.333 0 276 57 380 171c100 110 150 240.667 150 392c0 150 -50.333 280.333 -151 391c-104 113.333 -230.333 170 -379 170c-150.667 0 -278 -56.333 -382 -169
c-100.667 -109.333 -151 -240 -151 -392zM656 1567l209 348h178l-281 -348h-106z" />
    <glyph glyph-name="Ocircumflex" unicode="&#xd4;" horiz-adv-x="1583" 
d="M66 717c0 202.667 70.5 376.5 211.5 521.5s312.833 217.5 515.5 217.5c201.333 0 372.5 -72.667 513.5 -218s211.5 -319 211.5 -521c0 -202.667 -70 -376.667 -210 -522c-142 -146.667 -313.667 -220 -515 -220c-203.333 0 -375.333 72.667 -516 218s-211 320 -211 524z
M260 719c0 -152 50.333 -283 151 -393c104 -113.333 231.333 -170 382 -170c149.333 0 276 57 380 171c100 110 150 240.667 150 392c0 150 -50.333 280.333 -151 391c-104 113.333 -230.333 170 -379 170c-150.667 0 -278 -56.333 -382 -169
c-100.667 -109.333 -151 -240 -151 -392zM507 1517l197 348h178l197 -348h-107l-178 243l-180 -243h-107z" />
    <glyph glyph-name="Otilde" unicode="&#xd5;" horiz-adv-x="1583" 
d="M66 717c0 202.667 70.5 376.5 211.5 521.5s312.833 217.5 515.5 217.5c201.333 0 372.5 -72.667 513.5 -218s211.5 -319 211.5 -521c0 -202.667 -70 -376.667 -210 -522c-142 -146.667 -313.667 -220 -515 -220c-203.333 0 -375.333 72.667 -516 218s-211 320 -211 524z
M260 719c0 -152 50.333 -283 151 -393c104 -113.333 231.333 -170 382 -170c149.333 0 276 57 380 171c100 110 150 240.667 150 392c0 150 -50.333 280.333 -151 391c-104 113.333 -230.333 170 -379 170c-150.667 0 -278 -56.333 -382 -169
c-100.667 -109.333 -151 -240 -151 -392zM1084 1835c-33.333 -128.667 -99.668 -193 -199.001 -193c-23.333 0 -56.5 7.66699 -99.5 23s-75.833 23 -98.5 23c-45.333 0 -77.666 -21.333 -96.999 -64h-88c30 124 96.333 186 199 186c24 0 57.5 -7.83301 100.5 -23.5
s75.5 -23.5 97.5 -23.5c46.667 0 79 24 97 72h88z" />
    <glyph glyph-name="Odieresis" unicode="&#xd6;" horiz-adv-x="1583" 
d="M66 717c0 202.667 70.5 376.5 211.5 521.5s312.833 217.5 515.5 217.5c201.333 0 372.5 -72.667 513.5 -218s211.5 -319 211.5 -521c0 -202.667 -70 -376.667 -210 -522c-142 -146.667 -313.667 -220 -515 -220c-203.333 0 -375.333 72.667 -516 218s-211 320 -211 524z
M260 719c0 -152 50.333 -283 151 -393c104 -113.333 231.333 -170 382 -170c149.333 0 276 57 380 171c100 110 150 240.667 150 392c0 150 -50.333 280.333 -151 391c-104 113.333 -230.333 170 -379 170c-150.667 0 -278 -56.333 -382 -169
c-100.667 -109.333 -151 -240 -151 -392zM869 1724c0 26.667 10 50.167 30 70.5s43.333 30.5 70 30.5c27.333 0 50.5 -10 69.5 -30s28.5 -43.667 28.5 -71c0 -28 -9.33301 -51.667 -28 -71s-42 -29 -70 -29s-51.667 9.66699 -71 29s-29 43 -29 71zM519 1724
c0 27.333 9.5 51 28.5 71s42.167 30 69.5 30c26.667 0 50 -10.167 70 -30.5s30 -43.833 30 -70.5c0 -28 -9.66699 -51.667 -29 -71s-43 -29 -71 -29s-51.333 9.66699 -70 29s-28 43 -28 71z" />
    <glyph glyph-name="multiply" unicode="&#xd7;" horiz-adv-x="1706" 
d="M860 709l469 469l98 -99l-469 -469l469 -469l-98 -96l-469 467l-469 -467l-98 96l469 469l-469 469l98 99z" />
    <glyph glyph-name="Oslash" unicode="&#xd8;" horiz-adv-x="1583" 
d="M459 281c94 -82 206 -122.999 336 -122.999c151.333 0 278 56.333 380 169c98.667 109.333 148 240.666 148 393.999c0 126 -37.667 240 -113 342zM371 377.001l749.001 783.999c-96.667 79.333 -205.667 119 -327 119c-150.667 0 -277.334 -55.667 -380.001 -167
c-100.667 -108 -151 -238 -151 -390c0 -131.333 36.333 -246.666 109 -345.999zM123.001 -72l-98 89.999l213 220c-113.333 138.667 -170 300.334 -170 485.001c0 198.667 70.167 370.5 210.5 515.5s309.5 217.5 507.5 217.5c170 0 323.667 -54.667 461 -164l199 209l98 -90
l-203 -211c118 -147.333 177 -308.333 177 -483c0 -203.333 -69.333 -377.333 -208 -522c-140.667 -146.667 -312.334 -220 -515.001 -220c-171.333 0 -325.666 56.667 -462.999 170z" />
    <glyph glyph-name="Ugrave" unicode="&#xd9;" horiz-adv-x="1229" 
d="M307 1432v-891c0 -256.667 102.333 -385 307 -385c205.333 0 308 128.333 308 385v891h190v-900c0 -162 -41.667 -293.333 -125 -394c-90 -108.667 -214.333 -163 -373 -163s-282.667 54.333 -372 163c-83.333 100.667 -125 232 -125 394v900h190zM751 1567h-106
l-281 348h178z" />
    <glyph glyph-name="Uacute" unicode="&#xda;" horiz-adv-x="1229" 
d="M307 1432v-891c0 -256.667 102.333 -385 307 -385c205.333 0 308 128.333 308 385v891h190v-900c0 -162 -41.667 -293.333 -125 -394c-90 -108.667 -214.333 -163 -373 -163s-282.667 54.333 -372 163c-83.333 100.667 -125 232 -125 394v900h190zM477 1567l209 348h178
l-281 -348h-106z" />
    <glyph glyph-name="Ucircumflex" unicode="&#xdb;" horiz-adv-x="1229" 
d="M307 1432v-891c0 -256.667 102.333 -385 307 -385c205.333 0 308 128.333 308 385v891h190v-900c0 -162 -41.667 -293.333 -125 -394c-90 -108.667 -214.333 -163 -373 -163s-282.667 54.333 -372 163c-83.333 100.667 -125 232 -125 394v900h190zM327 1567l197 348h178
l197 -348h-107l-178 243l-180 -243h-107z" />
    <glyph glyph-name="Udieresis" unicode="&#xdc;" horiz-adv-x="1229" 
d="M307 1432v-891c0 -256.667 102.333 -385 307 -385c205.333 0 308 128.333 308 385v891h190v-900c0 -162 -41.667 -293.333 -125 -394c-90 -108.667 -214.333 -163 -373 -163s-282.667 54.333 -372 163c-83.333 100.667 -125 232 -125 394v900h190zM690 1724
c0 26.667 10 50.167 30 70.5s43.333 30.5 70 30.5c27.333 0 50.5 -10 69.5 -30s28.5 -43.667 28.5 -71c0 -28 -9.33301 -51.667 -28 -71s-42 -29 -70 -29s-51.667 9.66699 -71 29s-29 43 -29 71zM340 1724c0 27.333 9.5 51 28.5 71s42.167 30 69.5 30
c26.667 0 50 -10.167 70 -30.5s30 -43.833 30 -70.5c0 -28 -9.66699 -51.667 -29 -71s-43 -29 -71 -29s-51.333 9.66699 -70 29s-28 43 -28 71z" />
    <glyph glyph-name="Yacute" unicode="&#xdd;" horiz-adv-x="1110" 
d="M461 0v549c-238 60.667 -357 225 -357 493v390h191v-392c0 -216.667 86.667 -325 260 -325s260 108.333 260 325v392h191v-390c0 -268 -119 -432.333 -357 -493v-549h-188zM418 1567l209 348h178l-281 -348h-106z" />
    <glyph glyph-name="Thorn" unicode="&#xde;" horiz-adv-x="1110" 
d="M117 1432h190.002v-295c80 77.333 177.667 116 293 116c132 0 242.167 -44.833 330.5 -134.5s132.5 -200.5 132.5 -332.5c0 -135.333 -46.667 -246.333 -140 -333c-90.667 -84.667 -204.334 -127 -341.001 -127h-203v180h178c91.333 0 165 24.333 221 73
c60 51.333 90 122 90 212c0 82 -27.333 149.167 -82 201.5s-123.334 78.5 -206.001 78.5c-87.333 0 -156 -33.333 -206 -100c-44.667 -60 -67 -135.333 -67 -226v-745h-190v1432z" />
    <glyph glyph-name="germandbls" unicode="&#xdf;" horiz-adv-x="1147" 
d="M123 0v776.001h-117v166h117v115c0 122 32.333 217.667 97 287c66.667 72 160.667 108 282 108c93.333 0 173.333 -24.667 240 -74c73.333 -54 110 -126.333 110 -217c0 -120 -79.333 -217.667 -238 -293l148 -63c94 -40 169 -94 225 -162
c62.667 -75.333 94 -160.666 94 -255.999c0 -133.333 -49.667 -233.333 -149 -300c-84.667 -58 -196.667 -87 -336 -87h-227v170h239c81.333 0 148 17.667 200 53c60.667 41.333 91 100.666 91 177.999c0 73.333 -33.333 136.666 -100 189.999
c-36.667 28.667 -102.667 65 -198 109c-122 56 -183 110 -183 162c0 46 51 97.333 153 154c66 36.667 99 80.334 99 131.001c0 41.333 -17.333 74.666 -52 99.999c-32 23.333 -69.333 35 -112 35c-138 0 -207 -86 -207 -258v-1024h-176z" />
    <glyph glyph-name="agrave" unicode="&#xe0;" horiz-adv-x="1151" 
d="M870 0l0.00195312 489.001c0 98.667 -27 180 -81 244c-57.333 67.333 -134.666 101 -231.999 101c-95.333 0 -172.333 -33 -231 -99c-56 -62.667 -84 -142.334 -84 -239.001c0 -98.667 29 -180.334 87 -245.001c60 -67.333 138.667 -101 236 -101
c84.667 0 166.667 30 246 90v-189c-78.667 -44.667 -167.334 -67 -266.001 -67c-138 0 -253.333 50.667 -346 152c-90.667 98.667 -136 217.334 -136 356.001c0 146 45.667 267 137 363s209.666 144 354.999 144c117.333 0 221.166 -36.167 311.499 -108.5
s146.5 -165.5 168.5 -279.5c8 -44 12 -110.333 12 -199v-412h-177zM712.002 1096h-106l-281 348h178z" />
    <glyph glyph-name="aacute" unicode="&#xe1;" horiz-adv-x="1151" 
d="M870 0l0.00195312 489.001c0 98.667 -27 180 -81 244c-57.333 67.333 -134.666 101 -231.999 101c-95.333 0 -172.333 -33 -231 -99c-56 -62.667 -84 -142.334 -84 -239.001c0 -98.667 29 -180.334 87 -245.001c60 -67.333 138.667 -101 236 -101
c84.667 0 166.667 30 246 90v-189c-78.667 -44.667 -167.334 -67 -266.001 -67c-138 0 -253.333 50.667 -346 152c-90.667 98.667 -136 217.334 -136 356.001c0 146 45.667 267 137 363s209.666 144 354.999 144c117.333 0 221.166 -36.167 311.499 -108.5
s146.5 -165.5 168.5 -279.5c8 -44 12 -110.333 12 -199v-412h-177zM438.002 1096l209 348h178l-281 -348h-106z" />
    <glyph glyph-name="acircumflex" unicode="&#xe2;" horiz-adv-x="1151" 
d="M870 0l0.00195312 489.001c0 98.667 -27 180 -81 244c-57.333 67.333 -134.666 101 -231.999 101c-95.333 0 -172.333 -33 -231 -99c-56 -62.667 -84 -142.334 -84 -239.001c0 -98.667 29 -180.334 87 -245.001c60 -67.333 138.667 -101 236 -101
c84.667 0 166.667 30 246 90v-189c-78.667 -44.667 -167.334 -67 -266.001 -67c-138 0 -253.333 50.667 -346 152c-90.667 98.667 -136 217.334 -136 356.001c0 146 45.667 267 137 363s209.666 144 354.999 144c117.333 0 221.166 -36.167 311.499 -108.5
s146.5 -165.5 168.5 -279.5c8 -44 12 -110.333 12 -199v-412h-177zM288.002 1096l197 348h178l197 -348h-107l-178 243l-180 -243h-107z" />
    <glyph glyph-name="atilde" unicode="&#xe3;" horiz-adv-x="1151" 
d="M870 0l0.00195312 489.001c0 98.667 -27 180 -81 244c-57.333 67.333 -134.666 101 -231.999 101c-95.333 0 -172.333 -33 -231 -99c-56 -62.667 -84 -142.334 -84 -239.001c0 -98.667 29 -180.334 87 -245.001c60 -67.333 138.667 -101 236 -101
c84.667 0 166.667 30 246 90v-189c-78.667 -44.667 -167.334 -67 -266.001 -67c-138 0 -253.333 50.667 -346 152c-90.667 98.667 -136 217.334 -136 356.001c0 146 45.667 267 137 363s209.666 144 354.999 144c117.333 0 221.166 -36.167 311.499 -108.5
s146.5 -165.5 168.5 -279.5c8 -44 12 -110.333 12 -199v-412h-177zM866.002 1364c-33.333 -128.667 -99.668 -193 -199.001 -193c-23.333 0 -56.5 7.66699 -99.5 23s-75.833 23 -98.5 23c-45.333 0 -77.666 -21.333 -96.999 -64h-88c30 124 96.333 186 199 186
c24 0 57.5 -7.83301 100.5 -23.5s75.5 -23.5 97.5 -23.5c46.667 0 79 24 97 72h88z" />
    <glyph glyph-name="adieresis" unicode="&#xe4;" horiz-adv-x="1151" 
d="M870 0l0.00195312 489.001c0 98.667 -27 180 -81 244c-57.333 67.333 -134.666 101 -231.999 101c-95.333 0 -172.333 -33 -231 -99c-56 -62.667 -84 -142.334 -84 -239.001c0 -98.667 29 -180.334 87 -245.001c60 -67.333 138.667 -101 236 -101
c84.667 0 166.667 30 246 90v-189c-78.667 -44.667 -167.334 -67 -266.001 -67c-138 0 -253.333 50.667 -346 152c-90.667 98.667 -136 217.334 -136 356.001c0 146 45.667 267 137 363s209.666 144 354.999 144c117.333 0 221.166 -36.167 311.499 -108.5
s146.5 -165.5 168.5 -279.5c8 -44 12 -110.333 12 -199v-412h-177zM651.002 1253c0 26.667 10 50.167 30 70.5s43.333 30.5 70 30.5c27.333 0 50.5 -10 69.5 -30s28.5 -43.667 28.5 -71c0 -28 -9.33301 -51.667 -28 -71s-42 -29 -70 -29s-51.667 9.66699 -71 29
s-29 43 -29 71zM301.002 1253c0 27.333 9.5 51 28.5 71s42.167 30 69.5 30c26.667 0 50 -10.167 70 -30.5s30 -43.833 30 -70.5c0 -28 -9.66699 -51.667 -29 -71s-43 -29 -71 -29s-51.333 9.66699 -70 29s-28 43 -28 71z" />
    <glyph glyph-name="aring" unicode="&#xe5;" horiz-adv-x="1151" 
d="M350 1315c0 70 23.833 128.833 71.5 176.5s106.5 71.5 176.5 71.5s128.833 -23.833 176.5 -71.5s71.5 -106.5 71.5 -176.5s-23.833 -128.833 -71.5 -176.5s-106.5 -71.5 -176.5 -71.5s-128.833 23.833 -176.5 71.5s-71.5 106.5 -71.5 176.5zM455 1315
c0 -40 13.833 -73.999 41.5 -101.999s61.5 -42 101.5 -42s73.5 14 100.5 42s40.5 62 40.5 102s-13.5 73.5 -40.5 100.5s-60.5 40.5 -100.5 40.5c-40.667 0 -74.667 -13.333 -102 -40s-41 -60.334 -41 -101.001zM870 0.000976562l0.00195312 489.001
c0 98.667 -27 180 -81 244c-57.333 67.333 -134.666 101 -231.999 101c-95.333 0 -172.333 -33 -231 -99c-56 -62.667 -84 -142.334 -84 -239.001c0 -98.667 29 -180.334 87 -245.001c60 -67.333 138.667 -101 236 -101c84.667 0 166.667 30 246 90v-189
c-78.667 -44.667 -167.334 -67 -266.001 -67c-138 0 -253.333 50.667 -346 152c-90.667 98.667 -136 217.334 -136 356.001c0 146 45.667 267 137 363s209.666 144 354.999 144c117.333 0 221.166 -36.167 311.499 -108.5s146.5 -165.5 168.5 -279.5
c8 -44 12 -110.333 12 -199v-412h-177z" />
    <glyph glyph-name="ae" unicode="&#xe6;" horiz-adv-x="1804" 
d="M751 553c-346.667 -55.333 -519.999 -146.001 -519.999 -272.001c0 -45.333 19.333 -80.666 58 -105.999c33.333 -21.333 73.666 -32 120.999 -32c104 0 187.667 31.333 251 94s95 146 95 250c0 14 -1.66699 36 -5 66zM1745 433.999
c-23.333 -136 -77.3359 -244.666 -162.003 -325.999c-89.333 -85.333 -201.333 -128 -336 -128c-169.333 0 -305 74.333 -407 223c-94.667 -148.667 -238.667 -223 -432 -223c-100 0 -183.333 25 -250 75c-74 54.667 -111 130.667 -111 228
c0 205.333 215.667 347.333 647 426c-50 77.333 -132.667 116 -248 116c-79.333 0 -179 -30 -299 -90l-79 137c126.667 80.667 259 121 397 121c173.333 0 303 -68.333 389 -205c96.667 140.667 228.334 211 395.001 211c110 0 204.833 -29.333 284.5 -88
s135.834 -140.334 168.501 -245.001l-633 -265l-57 144l458 192c-59.333 66 -132.333 99 -219 99c-92 0 -168 -34.333 -228 -103c-56.667 -66 -85 -145.667 -85 -239c0 -92.667 28.667 -172 86 -238c60 -69.333 135.667 -104 227 -104c88.667 0 161.334 30 218.001 90
c52 55.333 84.667 128.333 98 219z" />
    <glyph glyph-name="ccedilla" unicode="&#xe7;" horiz-adv-x="786" 
d="M725 813l-75.999 -0.000976562c-112 0 -204.667 -25.333 -278 -76c-84.667 -58 -127 -140.667 -127 -248c0 -106.667 42.333 -189 127 -247c74 -50.667 166.667 -76 278 -76h76v-166h-88c-164 0 -298.333 40 -403 120c-115.333 88.667 -173 212.667 -173 372
c0 110.667 34.333 209.334 103 296.001s157 144 265 172c53.333 14 122.666 21 207.999 21h88v-168zM246.001 -424.001l-0.000976562 88c109.333 -24.667 191.333 -37 246 -37c80.667 0 121 28 121 84c0 66.667 -44.667 100 -134 100c-16 0 -35.667 -1 -59 -3l57 276h74
l-41 -190c156 0 234 -59 234 -177c0 -121.333 -82.667 -182 -248 -182c-61.333 0 -144.666 13.667 -249.999 41z" />
    <glyph glyph-name="egrave" unicode="&#xe8;" horiz-adv-x="1110" 
d="M1051 434c-24 -134.667 -77.666 -242.667 -160.999 -324c-89.333 -86.667 -200.333 -130 -333 -130c-138.667 0 -256.334 51 -353.001 153c-95.333 100 -143 219.667 -143 359s48.333 259 145 359s214.334 150 353.001 150c205.333 0 357.666 -102.333 456.999 -307
l-643 -356l-74 133l477 266c-59.333 66 -132.333 99 -219 99c-92 0 -168 -34.333 -228 -103c-56.667 -66 -85 -145.667 -85 -239c0 -92.667 28.667 -172 86 -238c60 -69.333 135.667 -104 227 -104c88.667 0 161 30 217 90c52 55.333 84.667 128.333 98 219zM692.001 1096
h-106l-281 348h178z" />
    <glyph glyph-name="eacute" unicode="&#xe9;" horiz-adv-x="1110" 
d="M1051 434c-24 -134.667 -77.666 -242.667 -160.999 -324c-89.333 -86.667 -200.333 -130 -333 -130c-138.667 0 -256.334 51 -353.001 153c-95.333 100 -143 219.667 -143 359s48.333 259 145 359s214.334 150 353.001 150c205.333 0 357.666 -102.333 456.999 -307
l-643 -356l-74 133l477 266c-59.333 66 -132.333 99 -219 99c-92 0 -168 -34.333 -228 -103c-56.667 -66 -85 -145.667 -85 -239c0 -92.667 28.667 -172 86 -238c60 -69.333 135.667 -104 227 -104c88.667 0 161 30 217 90c52 55.333 84.667 128.333 98 219zM418.001 1096
l209 348h178l-281 -348h-106z" />
    <glyph glyph-name="ecircumflex" unicode="&#xea;" horiz-adv-x="1110" 
d="M1051 434c-24 -134.667 -77.666 -242.667 -160.999 -324c-89.333 -86.667 -200.333 -130 -333 -130c-138.667 0 -256.334 51 -353.001 153c-95.333 100 -143 219.667 -143 359s48.333 259 145 359s214.334 150 353.001 150c205.333 0 357.666 -102.333 456.999 -307
l-643 -356l-74 133l477 266c-59.333 66 -132.333 99 -219 99c-92 0 -168 -34.333 -228 -103c-56.667 -66 -85 -145.667 -85 -239c0 -92.667 28.667 -172 86 -238c60 -69.333 135.667 -104 227 -104c88.667 0 161 30 217 90c52 55.333 84.667 128.333 98 219zM268.001 1096
l197 348h178l197 -348h-107l-178 243l-180 -243h-107z" />
    <glyph glyph-name="edieresis" unicode="&#xeb;" horiz-adv-x="1110" 
d="M1051 434c-24 -134.667 -77.666 -242.667 -160.999 -324c-89.333 -86.667 -200.333 -130 -333 -130c-138.667 0 -256.334 51 -353.001 153c-95.333 100 -143 219.667 -143 359s48.333 259 145 359s214.334 150 353.001 150c205.333 0 357.666 -102.333 456.999 -307
l-643 -356l-74 133l477 266c-59.333 66 -132.333 99 -219 99c-92 0 -168 -34.333 -228 -103c-56.667 -66 -85 -145.667 -85 -239c0 -92.667 28.667 -172 86 -238c60 -69.333 135.667 -104 227 -104c88.667 0 161 30 217 90c52 55.333 84.667 128.333 98 219zM631.001 1253
c0 26.667 10 50.167 30 70.5s43.333 30.5 70 30.5c27.333 0 50.5 -10 69.5 -30s28.5 -43.667 28.5 -71c0 -28 -9.33301 -51.667 -28 -71s-42 -29 -70 -29s-51.667 9.66699 -71 29s-29 43 -29 71zM281.001 1253c0 27.333 9.5 51 28.5 71s42.167 30 69.5 30
c26.667 0 50 -10.167 70 -30.5s30 -43.833 30 -70.5c0 -28 -9.66699 -51.667 -29 -71s-43 -29 -71 -29s-51.333 9.66699 -70 29s-28 43 -28 71z" />
    <glyph glyph-name="igrave" unicode="&#xec;" horiz-adv-x="418" 
d="M121 0v981h176v-981h-176zM346 1096h-106l-281 348h178z" />
    <glyph glyph-name="iacute" unicode="&#xed;" horiz-adv-x="418" 
d="M121 0v981h176v-981h-176zM72 1096l209 348h178l-281 -348h-106z" />
    <glyph glyph-name="icircumflex" unicode="&#xee;" horiz-adv-x="418" 
d="M121 0v981h176v-981h-176zM-78 1096l197 348h178l197 -348h-107l-178 243l-180 -243h-107z" />
    <glyph glyph-name="idieresis" unicode="&#xef;" horiz-adv-x="418" 
d="M121 0v981h176v-981h-176zM285 1253c0 26.667 10 50.167 30 70.5s43.333 30.5 70 30.5c27.333 0 50.5 -10 69.5 -30s28.5 -43.667 28.5 -71c0 -28 -9.33301 -51.667 -28 -71s-42 -29 -70 -29s-51.667 9.66699 -71 29s-29 43 -29 71zM-65 1253c0 27.333 9.5 51 28.5 71
s42.167 30 69.5 30c26.667 0 50 -10.167 70 -30.5s30 -43.833 30 -70.5c0 -28 -9.66699 -51.667 -29 -71s-43 -29 -71 -29s-51.333 9.66699 -70 29s-28 43 -28 71z" />
    <glyph glyph-name="eth" unicode="&#xf0;" 
d="M702 795c-46.667 26 -95 38.999 -145 38.999c-91.333 0 -167 -34.333 -227 -103c-57.333 -65.333 -86 -144.333 -86 -237s28.667 -172 86 -238c60 -69.333 135.667 -104 227 -104c94 0 169.667 34 227 102c53.333 64 80 144 80 240c0 78.667 -28 176 -84 292l-184 381
l-256 -106l-33 80l248 106l-100 185h198l60 -117l252 106l36 -84l-241 -100l147 -291c97.333 -192.667 146 -344 146 -454c0 -140.667 -47.333 -260.334 -142 -359.001c-96 -100.667 -214 -151 -354 -151s-258 50.333 -354 151c-94.667 98.667 -142 218.334 -142 359.001
c0 92 21 175 63 249c42.667 76.667 102 138.834 178 186.501s157 71.5 243 71.5c22 0 42.333 -1.33301 61 -4z" />
    <glyph glyph-name="ntilde" unicode="&#xf1;" horiz-adv-x="1049" 
d="M106 0l0.000976562 535.001c0 136 35 246 105 330c75.333 89.333 179.666 134 312.999 134s237.333 -45 312 -135c69.333 -83.333 104 -193 104 -329v-535h-174v567c0 75.333 -21.333 137.333 -64 186c-44.667 50.667 -104 76 -178 76s-133.333 -25.667 -178 -77
c-43.333 -48.667 -65 -110.334 -65 -185.001v-567h-175zM815.001 1364c-33.333 -128.667 -99.668 -193 -199.001 -193c-23.333 0 -56.5 7.66699 -99.5 23s-75.833 23 -98.5 23c-45.333 0 -77.666 -21.333 -96.999 -64h-88c30 124 96.333 186 199 186
c24 0 57.5 -7.83301 100.5 -23.5s75.5 -23.5 97.5 -23.5c46.667 0 79 24 97 72h88z" />
    <glyph glyph-name="ograve" unicode="&#xf2;" 
d="M244 494c0 -92 28.666 -171.333 85.999 -238c60.667 -69.333 136.334 -104 227.001 -104s166.334 34.667 227.001 104c57.333 66.667 86 146 86 238s-28.667 171 -86 237c-60.667 68.667 -136.334 103 -227.001 103s-166 -34.333 -226 -103c-58 -66 -87 -145 -87 -237z
M60.999 492c0 138 48.168 257.001 144.501 357.001s213.5 150 351.5 150c139.333 0 256.833 -49.667 352.5 -149s143.5 -218.666 143.5 -357.999c0 -140.667 -47.333 -260.334 -142 -359.001c-96 -100.667 -214 -151 -354 -151c-138.667 0 -256.334 50.667 -353.001 152
c-95.333 99.333 -143 218.666 -143 357.999zM694 1096h-106l-281 348h178z" />
    <glyph glyph-name="oacute" unicode="&#xf3;" 
d="M244 494c0 -92 28.666 -171.333 85.999 -238c60.667 -69.333 136.334 -104 227.001 -104s166.334 34.667 227.001 104c57.333 66.667 86 146 86 238s-28.667 171 -86 237c-60.667 68.667 -136.334 103 -227.001 103s-166 -34.333 -226 -103c-58 -66 -87 -145 -87 -237z
M60.999 492c0 138 48.168 257.001 144.501 357.001s213.5 150 351.5 150c139.333 0 256.833 -49.667 352.5 -149s143.5 -218.666 143.5 -357.999c0 -140.667 -47.333 -260.334 -142 -359.001c-96 -100.667 -214 -151 -354 -151c-138.667 0 -256.334 50.667 -353.001 152
c-95.333 99.333 -143 218.666 -143 357.999zM420 1096l209 348h178l-281 -348h-106z" />
    <glyph glyph-name="ocircumflex" unicode="&#xf4;" 
d="M244 494c0 -92 28.666 -171.333 85.999 -238c60.667 -69.333 136.334 -104 227.001 -104s166.334 34.667 227.001 104c57.333 66.667 86 146 86 238s-28.667 171 -86 237c-60.667 68.667 -136.334 103 -227.001 103s-166 -34.333 -226 -103c-58 -66 -87 -145 -87 -237z
M60.999 492c0 138 48.168 257.001 144.501 357.001s213.5 150 351.5 150c139.333 0 256.833 -49.667 352.5 -149s143.5 -218.666 143.5 -357.999c0 -140.667 -47.333 -260.334 -142 -359.001c-96 -100.667 -214 -151 -354 -151c-138.667 0 -256.334 50.667 -353.001 152
c-95.333 99.333 -143 218.666 -143 357.999zM270 1096l197 348h178l197 -348h-107l-178 243l-180 -243h-107z" />
    <glyph glyph-name="otilde" unicode="&#xf5;" 
d="M244 494c0 -92 28.666 -171.333 85.999 -238c60.667 -69.333 136.334 -104 227.001 -104s166.334 34.667 227.001 104c57.333 66.667 86 146 86 238s-28.667 171 -86 237c-60.667 68.667 -136.334 103 -227.001 103s-166 -34.333 -226 -103c-58 -66 -87 -145 -87 -237z
M60.999 492c0 138 48.168 257.001 144.501 357.001s213.5 150 351.5 150c139.333 0 256.833 -49.667 352.5 -149s143.5 -218.666 143.5 -357.999c0 -140.667 -47.333 -260.334 -142 -359.001c-96 -100.667 -214 -151 -354 -151c-138.667 0 -256.334 50.667 -353.001 152
c-95.333 99.333 -143 218.666 -143 357.999zM848 1364c-33.333 -128.667 -99.668 -193 -199.001 -193c-23.333 0 -56.5 7.66699 -99.5 23s-75.833 23 -98.5 23c-45.333 0 -77.666 -21.333 -96.999 -64h-88c30 124 96.333 186 199 186c24 0 57.5 -7.83301 100.5 -23.5
s75.5 -23.5 97.5 -23.5c46.667 0 79 24 97 72h88z" />
    <glyph glyph-name="odieresis" unicode="&#xf6;" 
d="M244 494c0 -92 28.666 -171.333 85.999 -238c60.667 -69.333 136.334 -104 227.001 -104s166.334 34.667 227.001 104c57.333 66.667 86 146 86 238s-28.667 171 -86 237c-60.667 68.667 -136.334 103 -227.001 103s-166 -34.333 -226 -103c-58 -66 -87 -145 -87 -237z
M60.999 492c0 138 48.168 257.001 144.501 357.001s213.5 150 351.5 150c139.333 0 256.833 -49.667 352.5 -149s143.5 -218.666 143.5 -357.999c0 -140.667 -47.333 -260.334 -142 -359.001c-96 -100.667 -214 -151 -354 -151c-138.667 0 -256.334 50.667 -353.001 152
c-95.333 99.333 -143 218.666 -143 357.999zM633 1253c0 26.667 10 50.167 30 70.5s43.333 30.5 70 30.5c27.333 0 50.5 -10 69.5 -30s28.5 -43.667 28.5 -71c0 -28 -9.33301 -51.667 -28 -71s-42 -29 -70 -29s-51.667 9.66699 -71 29s-29 43 -29 71zM283 1253
c0 27.333 9.5 51 28.5 71s42.167 30 69.5 30c26.667 0 50 -10.167 70 -30.5s30 -43.833 30 -70.5c0 -28 -9.66699 -51.667 -29 -71s-43 -29 -71 -29s-51.333 9.66699 -70 29s-28 43 -28 71z" />
    <glyph glyph-name="divide" unicode="&#xf7;" horiz-adv-x="1706" 
d="M854 367c34 0 63.333 -12.333 88 -37s37 -54 37 -88c0 -34.667 -12.167 -64.167 -36.5 -88.5s-53.833 -36.5 -88.5 -36.5c-35.333 0 -65 12 -89 36s-36 53.667 -36 89c0 34 12.333 63.333 37 88s54 37 88 37zM1452 680v-139h-1198v139h1198zM854 1106
c34.667 0 64.167 -12.5 88.5 -37.5s36.5 -54.833 36.5 -89.5s-12.167 -64.167 -36.5 -88.5s-53.833 -36.5 -88.5 -36.5s-64.167 12.167 -88.5 36.5s-36.5 53.833 -36.5 88.5s12.167 64.5 36.5 89.5s53.833 37.5 88.5 37.5z" />
    <glyph glyph-name="oslash" unicode="&#xf8;" 
d="M295 307l441.998 467.001c-57.333 41.333 -116.666 62 -177.999 62c-89.333 0 -164.666 -34.667 -225.999 -104c-59.333 -66.667 -89 -145.334 -89 -236.001c0 -74 17 -137 51 -189zM22.998 20.001l145.001 154c-71.333 94 -107 199 -107 315
c0 138.667 48.167 258.667 144.5 360s213.5 152 351.5 152c111.333 0 210.333 -35.333 297 -106l139 145l88 -84l-139 -145c74 -96.667 111 -203 111 -319c0 -148 -48.833 -270 -146.5 -366s-220.834 -144 -369.501 -144c-98 0 -192.333 34.667 -283 104l-143 -149z
M818.999 682.001l-444 -467c51.333 -40.667 111.333 -61 180 -61c94 0 170.667 33.667 230 101c56.667 64 85 143.667 85 239c0 68 -17 130.667 -51 188z" />
    <glyph glyph-name="ugrave" unicode="&#xf9;" horiz-adv-x="1049" 
d="M940 981v-534.999c0 -136 -35 -246 -105 -330c-74.667 -89.333 -179 -134 -313 -134c-133.333 0 -237.333 45 -312 135c-69.333 83.333 -104 193 -104 329v535h175v-567c0 -74.667 21.667 -136.334 65 -185.001c44.667 -51.333 104 -77 178 -77s133.333 25.333 178 76
c42.667 48.667 64 110.667 64 186v567h174zM661 1096h-106l-281 348h178z" />
    <glyph glyph-name="uacute" unicode="&#xfa;" horiz-adv-x="1049" 
d="M940 981v-534.999c0 -136 -35 -246 -105 -330c-74.667 -89.333 -179 -134 -313 -134c-133.333 0 -237.333 45 -312 135c-69.333 83.333 -104 193 -104 329v535h175v-567c0 -74.667 21.667 -136.334 65 -185.001c44.667 -51.333 104 -77 178 -77s133.333 25.333 178 76
c42.667 48.667 64 110.667 64 186v567h174zM387 1096l209 348h178l-281 -348h-106z" />
    <glyph glyph-name="ucircumflex" unicode="&#xfb;" horiz-adv-x="1049" 
d="M940 981v-534.999c0 -136 -35 -246 -105 -330c-74.667 -89.333 -179 -134 -313 -134c-133.333 0 -237.333 45 -312 135c-69.333 83.333 -104 193 -104 329v535h175v-567c0 -74.667 21.667 -136.334 65 -185.001c44.667 -51.333 104 -77 178 -77s133.333 25.333 178 76
c42.667 48.667 64 110.667 64 186v567h174zM237 1096l197 348h178l197 -348h-107l-178 243l-180 -243h-107z" />
    <glyph glyph-name="udieresis" unicode="&#xfc;" horiz-adv-x="1049" 
d="M940 981v-534.999c0 -136 -35 -246 -105 -330c-74.667 -89.333 -179 -134 -313 -134c-133.333 0 -237.333 45 -312 135c-69.333 83.333 -104 193 -104 329v535h175v-567c0 -74.667 21.667 -136.334 65 -185.001c44.667 -51.333 104 -77 178 -77s133.333 25.333 178 76
c42.667 48.667 64 110.667 64 186v567h174zM600 1253c0 26.667 10 50.167 30 70.5s43.333 30.5 70 30.5c27.333 0 50.5 -10 69.5 -30s28.5 -43.667 28.5 -71c0 -28 -9.33301 -51.667 -28 -71s-42 -29 -70 -29s-51.667 9.66699 -71 29s-29 43 -29 71zM250 1253
c0 27.333 9.5 51 28.5 71s42.167 30 69.5 30c26.667 0 50 -10.167 70 -30.5s30 -43.833 30 -70.5c0 -28 -9.66699 -51.667 -29 -71s-43 -29 -71 -29s-51.333 9.66699 -70 29s-28 43 -28 71z" />
    <glyph glyph-name="yacute" unicode="&#xfd;" horiz-adv-x="1049" 
d="M940 981v-534.999c0 -250 -110 -402 -330 -456v-426h-176v426c-218.667 54 -328 206 -328 456v535h175v-567c0 -74.667 21.667 -136.334 65 -185.001c44.667 -51.333 104 -77 178 -77s133.333 25.333 178 76c42.667 48.667 64 110.667 64 186v567h174zM387 1096l209 348
h178l-281 -348h-106z" />
    <glyph glyph-name="thorn" unicode="&#xfe;" horiz-adv-x="1151" 
d="M104 1432h176.998v-553c81.333 80 187 120 317 120c144.667 0 263.334 -48.667 356.001 -146c90.667 -95.333 136 -215.666 136 -360.999c0 -138.667 -45.667 -257.334 -137 -356.001c-94 -101.333 -209.667 -152 -347 -152c-98.667 0 -187.334 22.333 -266.001 67v189
c78 -60 160.667 -90 248 -90c98.667 0 177.667 33.333 237 100c57.333 64 86 146 86 246c0 96.667 -28.333 176.667 -85 240c-59.333 65.333 -136.666 98 -231.999 98c-97.333 0 -174.666 -33.667 -231.999 -101c-54 -64 -81 -145.333 -81 -244v-925h-177v1868z" />
    <glyph glyph-name="ydieresis" unicode="&#xff;" horiz-adv-x="1049" 
d="M940 981v-534.999c0 -250 -110 -402 -330 -456v-426h-176v426c-218.667 54 -328 206 -328 456v535h175v-567c0 -74.667 21.667 -136.334 65 -185.001c44.667 -51.333 104 -77 178 -77s133.333 25.333 178 76c42.667 48.667 64 110.667 64 186v567h174zM600 1253
c0 26.667 10 50.167 30 70.5s43.333 30.5 70 30.5c27.333 0 50.5 -10 69.5 -30s28.5 -43.667 28.5 -71c0 -28 -9.33301 -51.667 -28 -71s-42 -29 -70 -29s-51.667 9.66699 -71 29s-29 43 -29 71zM250 1253c0 27.333 9.5 51 28.5 71s42.167 30 69.5 30
c26.667 0 50 -10.167 70 -30.5s30 -43.833 30 -70.5c0 -28 -9.66699 -51.667 -29 -71s-43 -29 -71 -29s-51.333 9.66699 -70 29s-28 43 -28 71z" />
    <glyph glyph-name="glyph271" unicode="&#x102;" horiz-adv-x="1229" 
d="M922 0l0.000976562 657h-557v181h557v57c0 256.667 -102.667 385 -308 385c-204.667 0 -307 -128.333 -307 -385v-895h-190v899c0 162.667 41.667 294.334 125 395.001c88.667 108 212.667 162 372 162s283.666 -54 372.999 -162
c83.333 -100.667 125 -232.334 125 -395.001v-899h-190zM331.001 1822h89c8.66699 -96.667 73 -145 193 -145s184.333 48.333 193 145h90c-14 -180 -108.333 -270 -283 -270c-176.667 0 -270.667 90 -282 270z" />
    <glyph glyph-name="glyph272" unicode="&#x103;" horiz-adv-x="1151" 
d="M870 0l0.00195312 489.001c0 98.667 -27 180 -81 244c-57.333 67.333 -134.666 101 -231.999 101c-95.333 0 -172.333 -33 -231 -99c-56 -62.667 -84 -142.334 -84 -239.001c0 -98.667 29 -180.334 87 -245.001c60 -67.333 138.667 -101 236 -101
c84.667 0 166.667 30 246 90v-189c-78.667 -44.667 -167.334 -67 -266.001 -67c-138 0 -253.333 50.667 -346 152c-90.667 98.667 -136 217.334 -136 356.001c0 146 45.667 267 137 363s209.666 144 354.999 144c117.333 0 221.166 -36.167 311.499 -108.5
s146.5 -165.5 168.5 -279.5c8 -44 12 -110.333 12 -199v-412h-177zM291.002 1405h89c8.66699 -96.667 73 -145 193 -145s184.333 48.333 193 145h90c-14 -180 -108.333 -270 -283 -270c-176.667 0 -270.667 90 -282 270z" />
    <glyph glyph-name="Cacute" unicode="&#x106;" horiz-adv-x="1020" 
d="M958 1262c-17.333 1.33301 -40.333 2.00098 -69 2.00098c-183.333 0 -331 -44.333 -443 -133c-122.667 -97.333 -184 -235.333 -184 -414c0 -176.667 61.667 -314.334 185 -413.001c112 -90 256 -135 432 -135c26 0 52.333 1 79 3v-172h-55
c-106.667 -0 -200 8.33301 -280 25c-165.333 34.667 -299.166 116.167 -401.499 244.5s-153.5 277.5 -153.5 447.5c0 169.333 51.167 317.833 153.5 445.5s236.166 209.167 401.499 244.5c80 16.667 191.667 25 335 25v-170zM547 1567l209 348h178l-281 -348h-106z" />
    <glyph glyph-name="cacute" unicode="&#x107;" horiz-adv-x="786" 
d="M725 813l-75.999 -0.000976562c-112 0 -204.667 -25.333 -278 -76c-84.667 -58 -127 -140.667 -127 -248c0 -106.667 42.333 -189 127 -247c74 -50.667 166.667 -76 278 -76h76v-166h-88c-164 0 -298.333 40 -403 120c-115.333 88.667 -173 212.667 -173 372
c0 110.667 34.333 209.334 103 296.001s157 144 265 172c53.333 14 122.666 21 207.999 21h88v-168zM367.001 1096l209 348h178l-281 -348h-106z" />
    <glyph glyph-name="Ccaron" unicode="&#x10c;" horiz-adv-x="1020" 
d="M958 1262c-17.333 1.33301 -40.333 2.00098 -69 2.00098c-183.333 0 -331 -44.333 -443 -133c-122.667 -97.333 -184 -235.333 -184 -414c0 -176.667 61.667 -314.334 185 -413.001c112 -90 256 -135 432 -135c26 0 52.333 1 79 3v-172h-55
c-106.667 -0 -200 8.33301 -280 25c-165.333 34.667 -299.166 116.167 -401.499 244.5s-153.5 277.5 -153.5 447.5c0 169.333 51.167 317.833 153.5 445.5s236.166 209.167 401.499 244.5c80 16.667 191.667 25 335 25v-170zM397 1915h107l180 -242l178 242h107l-197 -348
h-178z" />
    <glyph glyph-name="ccaron" unicode="&#x10d;" horiz-adv-x="786" 
d="M725 813l-75.999 -0.000976562c-112 0 -204.667 -25.333 -278 -76c-84.667 -58 -127 -140.667 -127 -248c0 -106.667 42.333 -189 127 -247c74 -50.667 166.667 -76 278 -76h76v-166h-88c-164 0 -298.333 40 -403 120c-115.333 88.667 -173 212.667 -173 372
c0 110.667 34.333 209.334 103 296.001s157 144 265 172c53.333 14 122.666 21 207.999 21h88v-168zM217.001 1444h107l180 -242l178 242h107l-197 -348h-178z" />
    <glyph glyph-name="Dslash" unicode="&#x110;" horiz-adv-x="1292" 
d="M395 174c4.66699 0 12.333 -0.331055 23 -0.998047s18.667 -1 24 -1c172.667 0 312.667 47.333 420 142c112 100 168 235 168 405c0 176 -58.667 313 -176 411c-109.333 90.667 -254 136 -434 136c-19.333 0 -49.333 -1.66699 -90 -5v-454h303v-119h-303v-688h-191v688
h-129v119h129v625h246c110.667 0 205.667 -8.33301 285 -25c166 -34.667 300 -115.834 402 -243.501s153 -276.5 153 -446.5c0 -132 -31.5 -251.833 -94.5 -359.5s-151.833 -194.834 -266.5 -261.501c-110 -64 -266.333 -96 -469 -96v174z" />
    <glyph glyph-name="dcroat" unicode="&#x111;" horiz-adv-x="1161" 
d="M1051 1432v-167.997h100v-97h-100v-673c0 -146.667 -45 -268 -135 -364c-92.667 -98.667 -211.667 -148 -357 -148c-144.667 0 -263.667 49 -357 147c-90.667 96 -136 217 -136 363c0 139.333 45.333 257.666 136 354.999c93.333 100 209 150 347 150
c97.333 0 186 -22.333 266 -67v-189c-81.333 60 -163.333 90 -246 90c-98 0 -177 -33.667 -237 -101c-57.333 -64.667 -86 -146.334 -86 -245.001c0 -96.667 28 -176.334 84 -239.001c58.667 -66 135.667 -99 231 -99c96.667 0 173.667 34 231 102c54.667 64 82 145 82 243
v675h-327v97h327v168h177z" />
    <glyph glyph-name="Gbreve" unicode="&#x11e;" horiz-adv-x="1583" 
d="M829 817l687.002 0.000976562v-49c0 -156.667 -28 -290.334 -84 -401.001c-62.667 -123.333 -150.334 -219.5 -263.001 -288.5s-238 -103.5 -376 -103.5c-201.333 0 -373.333 73.667 -516 221c-140.667 145.333 -211 319 -211 521c0 208.667 72.167 384 216.5 526
s321.166 213 530.499 213c210 0 399.667 -86 569 -258l-127 -129c-139.333 142 -288.666 213 -447.999 213c-156 0 -286.167 -54.667 -390.5 -164s-156.5 -242.333 -156.5 -399c0 -152 50.333 -283 151 -393c104 -113.333 231.333 -170 382 -170
c141.333 0 259.666 45.333 354.999 136c91.333 87.333 146.333 202.333 165 345h-484v180zM511.002 1876h89c8.66699 -96.667 73 -145 193 -145s184.333 48.333 193 145h90c-14 -180 -108.333 -270 -283 -270c-176.667 0 -270.667 90 -282 270z" />
    <glyph glyph-name="gbreve" unicode="&#x11f;" horiz-adv-x="1151" 
d="M1047 57c0 -158 -44.001 -282.666 -132.001 -373.999c-89.333 -93.333 -212.666 -140 -369.999 -140c-92.667 0 -195.667 18.667 -309 56l38 168c113.333 -37.333 205 -56 275 -56c101.333 0 180.333 30 237 90c56 58 84 138 84 240v448c0 98.667 -27 180 -81 244
c-57.333 67.333 -134.666 101 -231.999 101c-95.333 0 -172.333 -33 -231 -99c-56 -62.667 -84 -142.334 -84 -239.001c0 -98.667 29 -180.334 87 -245.001c60 -67.333 138.667 -101 236 -101c84.667 0 166.667 30 246 90v-189c-78.667 -44.667 -167.334 -67 -266.001 -67
c-138 0 -253.333 50.667 -346 152c-90.667 98.667 -136 217.334 -136 356.001c0 146 45.833 267 137.5 363s209.834 144 354.501 144c117.333 0 221.166 -36.167 311.499 -108.5s146.5 -165.5 168.5 -279.5c8 -44 12 -110.333 12 -199v-355zM292.999 1405h89
c8.66699 -96.667 73 -145 193 -145s184.333 48.333 193 145h90c-14 -180 -108.333 -270 -283 -270c-176.667 0 -270.667 90 -282 270z" />
    <glyph glyph-name="glyph273" unicode="&#x128;" horiz-adv-x="465" 
d="M137 0v1432h191v-1432h-191zM524 1835c-33.333 -128.667 -99.668 -193 -199.001 -193c-23.333 0 -56.5 7.66699 -99.5 23s-75.833 23 -98.5 23c-45.333 0 -77.666 -21.333 -96.999 -64h-88c30 124 96.333 186 199 186c24 0 57.5 -7.83301 100.5 -23.5
s75.5 -23.5 97.5 -23.5c46.667 0 79 24 97 72h88z" />
    <glyph glyph-name="glyph274" unicode="&#x129;" horiz-adv-x="418" 
d="M121 0v981h176v-981h-176zM508 1364c-33.333 -128.667 -99.668 -193 -199.001 -193c-23.333 0 -56.5 7.66699 -99.5 23s-75.833 23 -98.5 23c-45.333 0 -77.666 -21.333 -96.999 -64h-88c30 124 96.333 186 199 186c24 0 57.5 -7.83301 100.5 -23.5
s75.5 -23.5 97.5 -23.5c46.667 0 79 24 97 72h88z" />
    <glyph glyph-name="Idotaccent" unicode="&#x130;" horiz-adv-x="465" 
d="M137 0v1432h191v-1432h-191zM133 1741c0 26.667 10 49.667 30 69s43.333 29 70 29s50 -9.66699 70 -29s30 -42.333 30 -69c0 -28.667 -9.5 -52.667 -28.5 -72s-42.833 -29 -71.5 -29s-52.5 9.66699 -71.5 29s-28.5 43.333 -28.5 72z" />
    <glyph glyph-name="dotlessi" unicode="&#x131;" horiz-adv-x="418" 
d="M121 0v981h176v-981h-176z" />
    <glyph glyph-name="Lslash" unicode="&#x141;" horiz-adv-x="858" 
d="M127 604l-117 -80v140l117 86v682h190v-576l277 195v-146l-277 -192v-244c0 -195.333 94.333 -293 283 -293h262v-176h-229c-337.333 0 -506 166.667 -506 500v104z" />
    <glyph glyph-name="lslash" unicode="&#x142;" horiz-adv-x="436" 
d="M129 0v627l-119 -80v115l119 83v687h178v-592l119 80v-117l-119 -80v-723h-178z" />
    <glyph glyph-name="OE" unicode="&#x152;" horiz-adv-x="2290" 
d="M2207 174l1.00098 -174h-25c-180.667 0 -326.334 22 -437.001 66c-136.667 54 -246.334 149.333 -329.001 286c-142.667 -251.333 -351.334 -377 -626.001 -377c-202 0 -373.333 73 -514 219s-211 320.333 -211 523c0 202 70.5 375.667 211.5 521s312.167 218 513.5 218
c270.667 0 480 -126.333 628 -379c135.333 238 374.333 357 717 357c34 0 58 -1 72 -3v-169c-18.667 1.33301 -42 2 -70 2c-349.333 0 -554.666 -147 -615.999 -441h686v-170h-695c24.667 -164.667 94.334 -288 209.001 -370c103.333 -74.667 238 -112 404 -112
c26 0 53 1 81 3zM260.001 719c0 -152 50.333 -283 151 -393c104 -113.333 231.333 -170 382 -170c149.333 0 276 57 380 171c100 110 150 240.667 150 392c0 150 -50.333 280.333 -151 391c-104 113.333 -230.333 170 -379 170c-150.667 0 -278 -56.333 -382 -169
c-100.667 -109.333 -151 -240 -151 -392z" />
    <glyph glyph-name="oe" unicode="&#x153;" horiz-adv-x="1911" 
d="M1851 434c-23.333 -135.333 -76.667 -243.666 -160 -324.999c-88.667 -86 -199.667 -129 -333 -129c-160 0 -293.333 71.667 -400 215c-109.333 -143.333 -243 -215 -401 -215c-139.333 0 -256.833 50.333 -352.5 151s-143.5 221 -143.5 361
c0 139.333 47.833 258.666 143.5 357.999s213.167 149 352.5 149c162.667 0 296.334 -71.667 401.001 -215c105.333 143.333 233.666 215 384.999 215c214.667 0 372.667 -101.667 474 -305l-641 -356l-76 133l477 266c-59.333 64.667 -132.333 97 -219 97
c-92.667 0 -168.667 -34 -228 -102c-57.333 -64.667 -86 -144 -86 -238c0 -92.667 28.667 -172 86 -238c60.667 -69.333 136.667 -104 228 -104c88.667 0 161 30 217 90c52 55.333 84.667 128.333 98 219zM243.999 494c0 -92 28.666 -171.333 85.999 -238
c60.667 -69.333 136.334 -104 227.001 -104s166.334 34.667 227.001 104c57.333 66.667 86 146 86 238s-28.667 171 -86 237c-60.667 68.667 -136.334 103 -227.001 103s-166 -34.333 -226 -103c-58 -66 -87 -145 -87 -237z" />
    <glyph glyph-name="Scedilla" unicode="&#x15e;" horiz-adv-x="1075" 
d="M72 0l0.000976562 190h489c158.667 0 238 60.333 238 181c0 55.333 -24.667 104.333 -74 147c-28 24 -77 54 -147 90l-240 123c-173.333 88.667 -260 206.667 -260 354c0 118 45.333 207.333 136 268c78 52.667 178.667 79 302 79h414v-189h-477
c-50.667 0 -92.334 -12.333 -125.001 -37c-36 -26.667 -54 -64.667 -54 -114c0 -40 14 -75.667 42 -107s96 -74.333 204 -129l209 -106c178.667 -90.667 268 -213.667 268 -369c0 -131.333 -47.667 -230 -143 -296c-82.667 -56.667 -192.667 -85 -330 -85h-452z
M326.001 -424l-0.000976562 88c109.333 -24.667 191.333 -37 246 -37c80.667 0 121 28 121 84c0 66.667 -44.667 100 -134 100c-16 0 -35.667 -1 -59 -3l57 276h74l-41 -190c156 0 234 -59 234 -177c0 -121.333 -82.667 -182 -248 -182
c-61.333 0 -144.666 13.667 -249.999 41z" />
    <glyph glyph-name="scedilla" unicode="&#x15f;" horiz-adv-x="887" 
d="M72 168h424c91.333 0 137 31.333 137 94c0 45.333 -43.667 85.666 -131 120.999l-193 78c-87.333 38.667 -147 76.334 -179 113.001c-37.333 42 -56 95 -56 159c0 165.333 109.667 248 329 248h363v-164h-410c-70.667 0 -106 -28 -106 -84c0 -38.667 36 -72.667 108 -102
l206 -83c95.333 -42.667 160 -82.667 194 -120c38 -42.667 57 -96 57 -160c0 -178.667 -137.333 -268 -412 -268h-331v168zM231 -424l-0.000976562 88c109.333 -24.667 191.333 -37 246 -37c80.667 0 121 28 121 84c0 66.667 -44.667 100 -134 100c-16 0 -35.667 -1 -59 -3
l57 276h74l-41 -190c156 0 234 -59 234 -177c0 -121.333 -82.667 -182 -248 -182c-61.333 0 -144.666 13.667 -249.999 41z" />
    <glyph glyph-name="Scaron" unicode="&#x160;" horiz-adv-x="1075" 
d="M72 0l0.000976562 190h489c158.667 0 238 60.333 238 181c0 55.333 -24.667 104.333 -74 147c-28 24 -77 54 -147 90l-240 123c-173.333 88.667 -260 206.667 -260 354c0 118 45.333 207.333 136 268c78 52.667 178.667 79 302 79h414v-189h-477
c-50.667 0 -92.334 -12.333 -125.001 -37c-36 -26.667 -54 -64.667 -54 -114c0 -40 14 -75.667 42 -107s96 -74.333 204 -129l209 -106c178.667 -90.667 268 -213.667 268 -369c0 -131.333 -47.667 -230 -143 -296c-82.667 -56.667 -192.667 -85 -330 -85h-452z
M252.001 1915h107l180 -242l178 242h107l-197 -348h-178z" />
    <glyph glyph-name="scaron" unicode="&#x161;" horiz-adv-x="887" 
d="M72 168h424c91.333 0 137 31.333 137 94c0 45.333 -43.667 85.666 -131 120.999l-193 78c-87.333 38.667 -147 76.334 -179 113.001c-37.333 42 -56 95 -56 159c0 165.333 109.667 248 329 248h363v-164h-410c-70.667 0 -106 -28 -106 -84c0 -38.667 36 -72.667 108 -102
l206 -83c95.333 -42.667 160 -82.667 194 -120c38 -42.667 57 -96 57 -160c0 -178.667 -137.333 -268 -412 -268h-331v168zM157 1444h107l180 -242l178 242h107l-197 -348h-178z" />
    <glyph glyph-name="glyph275" unicode="&#x168;" horiz-adv-x="1229" 
d="M307 1432v-891c0 -256.667 102.333 -385 307 -385c205.333 0 308 128.333 308 385v891h190v-900c0 -162 -41.667 -293.333 -125 -394c-90 -108.667 -214.333 -163 -373 -163s-282.667 54.333 -372 163c-83.333 100.667 -125 232 -125 394v900h190zM914 1835
c-33.333 -128.667 -99.668 -193 -199.001 -193c-23.333 0 -56.5 7.66699 -99.5 23s-75.833 23 -98.5 23c-45.333 0 -77.666 -21.333 -96.999 -64h-88c30 124 96.333 186 199 186c24 0 57.5 -7.83301 100.5 -23.5s75.5 -23.5 97.5 -23.5c46.667 0 79 24 97 72h88z" />
    <glyph glyph-name="glyph276" unicode="&#x169;" horiz-adv-x="1049" 
d="M940 981v-534.999c0 -136 -35 -246 -105 -330c-74.667 -89.333 -179 -134 -313 -134c-133.333 0 -237.333 45 -312 135c-69.333 83.333 -104 193 -104 329v535h175v-567c0 -74.667 21.667 -136.334 65 -185.001c44.667 -51.333 104 -77 178 -77s133.333 25.333 178 76
c42.667 48.667 64 110.667 64 186v567h174zM818 1364c-33.333 -128.667 -99.668 -193 -199.001 -193c-23.333 0 -56.5 7.66699 -99.5 23s-75.833 23 -98.5 23c-45.333 0 -77.666 -21.333 -96.999 -64h-88c30 124 96.333 186 199 186c24 0 57.5 -7.83301 100.5 -23.5
s75.5 -23.5 97.5 -23.5c46.667 0 79 24 97 72h88z" />
    <glyph glyph-name="Ydieresis" unicode="&#x178;" horiz-adv-x="1110" 
d="M461 0v549c-238 60.667 -357 225 -357 493v390h191v-392c0 -216.667 86.667 -325 260 -325s260 108.333 260 325v392h191v-390c0 -268 -119 -432.333 -357 -493v-549h-188zM631 1724c0 26.667 10 50.167 30 70.5s43.333 30.5 70 30.5c27.333 0 50.5 -10 69.5 -30
s28.5 -43.667 28.5 -71c0 -28 -9.33301 -51.667 -28 -71s-42 -29 -70 -29s-51.667 9.66699 -71 29s-29 43 -29 71zM281 1724c0 27.333 9.5 51 28.5 71s42.167 30 69.5 30c26.667 0 50 -10.167 70 -30.5s30 -43.833 30 -70.5c0 -28 -9.66699 -51.667 -29 -71s-43 -29 -71 -29
s-51.333 9.66699 -70 29s-28 43 -28 71z" />
    <glyph glyph-name="Zcaron" unicode="&#x17d;" horiz-adv-x="1020" 
d="M985 180v-180h-743c-139.333 -0 -209 53.333 -209 160c0 44 36.667 117 110 219l631 876h-661v177h645c139.333 0 209 -53.333 209 -160c0 -45.333 -36.333 -118.333 -109 -219l-629 -873h756zM223 1915h107l180 -242l178 242h107l-197 -348h-178z" />
    <glyph glyph-name="zcaron" unicode="&#x17e;" horiz-adv-x="854" 
d="M621 981c121.333 0 182 -40.334 182 -121.001c0 -40.667 -19.333 -83 -58 -127l-495 -565h557v-168h-588c-116 0 -174 43.667 -174 131c0 36.667 24 82.334 72 137.001l479 547h-512v166h537zM141 1444h107l180 -242l178 242h107l-197 -348h-178z" />
    <glyph glyph-name="florin" unicode="&#x192;" 
d="M158 -436h-246v170h229c70 0 113 43 129 129l160 854h-256v170h283l65 293c40 180 135.667 270 287 270h209v-170h-178c-67.333 0 -110.333 -43 -129 -129l-58 -264h277v-170h-305l-164 -883c-33.333 -180 -134.333 -270 -303 -270z" />
    <glyph glyph-name="glyph277" unicode="&#x1a0;" horiz-adv-x="1583" 
d="M66 717c0 202.667 70.5 376.5 211.5 521.5s312.833 217.5 515.5 217.5c201.333 0 372.5 -72.667 513.5 -218s211.5 -319 211.5 -521c0 -202.667 -70 -376.667 -210 -522c-142 -146.667 -313.667 -220 -515 -220c-203.333 0 -375.333 72.667 -516 218s-211 320 -211 524z
M260 719c0 -152 50.333 -283 151 -393c104 -113.333 231.333 -170 382 -170c149.333 0 276 57 380 171c100 110 150 240.667 150 392c0 150 -50.333 280.333 -151 391c-104 113.333 -230.333 170 -379 170c-150.667 0 -278 -56.333 -382 -169
c-100.667 -109.333 -151 -240 -151 -392zM1208 1177l162 371h171l-201 -371h-132z" />
    <glyph glyph-name="glyph278" unicode="&#x1a1;" 
d="M244 494c0 -92 28.666 -171.333 85.999 -238c60.667 -69.333 136.334 -104 227.001 -104s166.334 34.667 227.001 104c57.333 66.667 86 146 86 238s-28.667 171 -86 237c-60.667 68.667 -136.334 103 -227.001 103s-166 -34.333 -226 -103c-58 -66 -87 -145 -87 -237z
M60.999 492c0 138 48.168 257.001 144.501 357.001s213.5 150 351.5 150c139.333 0 256.833 -49.667 352.5 -149s143.5 -218.666 143.5 -357.999c0 -140.667 -47.333 -260.334 -142 -359.001c-96 -100.667 -214 -151 -354 -151c-138.667 0 -256.334 50.667 -353.001 152
c-95.333 99.333 -143 218.666 -143 357.999zM825 718.001l162 371h171l-201 -371h-132z" />
    <glyph glyph-name="glyph279" unicode="&#x1af;" horiz-adv-x="1277" 
d="M307 1432v-891c0 -256.667 102.333 -385 307 -385c205.333 0 308 128.333 308 385v891h190v-900c0 -162 -41.667 -293.333 -125 -394c-90 -108.667 -214.333 -163 -373 -163s-282.667 54.333 -372 163c-83.333 100.667 -125 232 -125 394v900h190zM1000 1177l162 371h171
l-201 -371h-132z" />
    <glyph glyph-name="glyph280" unicode="&#x1b0;" horiz-adv-x="1099" 
d="M940 981v-534.999c0 -136 -35 -246 -105 -330c-74.667 -89.333 -179 -134 -313 -134c-133.333 0 -237.333 45 -312 135c-69.333 83.333 -104 193 -104 329v535h175v-567c0 -74.667 21.667 -136.334 65 -185.001c44.667 -51.333 104 -77 178 -77s133.333 25.333 178 76
c42.667 48.667 64 110.667 64 186v567h174zM825 718.001l162 371h171l-201 -371h-132z" />
    <glyph glyph-name="circumflex" unicode="&#x2c6;" horiz-adv-x="1024" 
d="M225 1096l197 348h178l197 -348h-107l-178 243l-180 -243h-107z" />
    <glyph glyph-name="caron" unicode="&#x2c7;" horiz-adv-x="1024" 
d="M225 1444h107l180 -242l178 242h107l-197 -348h-178z" />
    <glyph glyph-name="breve" unicode="&#x2d8;" horiz-adv-x="1024" 
d="M229 1405h89c8.66699 -96.667 73 -145 193 -145s184.333 48.333 193 145h90c-14 -180 -108.333 -270 -283 -270c-176.667 0 -270.667 90 -282 270z" />
    <glyph glyph-name="dotaccent" unicode="&#x2d9;" horiz-adv-x="1024" 
d="M412 1270c0 26.667 10 49.667 30 69s43.333 29 70 29s50 -9.66699 70 -29s30 -42.333 30 -69c0 -28.667 -9.5 -52.667 -28.5 -72s-42.833 -29 -71.5 -29s-52.5 9.66699 -71.5 29s-28.5 43.333 -28.5 72z" />
    <glyph glyph-name="ring" unicode="&#x2da;" horiz-adv-x="1024" 
d="M371 1339c0 -40 13.501 -73.832 40.501 -101.499s60.5 -41.5 100.5 -41.5s73.833 13.833 101.5 41.5s41.5 61.5 41.5 101.5s-13.833 74 -41.5 102s-61.5 42 -101.5 42c-40.667 0 -74.334 -13.833 -101.001 -41.5s-40 -61.834 -40 -102.501zM264.001 1339
c0 70 23.833 128.833 71.5 176.5s106.5 71.5 176.5 71.5s128.833 -23.833 176.5 -71.5s71.5 -106.5 71.5 -176.5s-23.833 -128.667 -71.5 -176s-106.5 -71 -176.5 -71s-128.833 23.667 -176.5 71s-71.5 106 -71.5 176z" />
    <glyph glyph-name="ogonek" unicode="&#x2db;" horiz-adv-x="1024" 
d="M614 0c-90 -82 -135.001 -156.332 -135.001 -222.999c0 -44.667 20 -71.334 60 -80.001c6.66699 -1.33301 45.334 -2 116.001 -2v-129h-77c-149.333 0 -224 54.667 -224 164c0 80 63 170 189 270h71z" />
    <glyph glyph-name="tilde" unicode="&#x2dc;" horiz-adv-x="1024" 
d="M803 1364c-33.333 -128.667 -99.668 -193 -199.001 -193c-23.333 0 -56.5 7.66699 -99.5 23s-75.833 23 -98.5 23c-45.333 0 -77.666 -21.333 -96.999 -64h-88c30 124 96.333 186 199 186c24 0 57.5 -7.83301 100.5 -23.5s75.5 -23.5 97.5 -23.5c46.667 0 79 24 97 72h88
z" />
    <glyph glyph-name="hungarumlaut" unicode="&#x2dd;" horiz-adv-x="1024" 
d="M580 1112l168 348h155l-239 -348h-84zM322 1112l147 348h158l-221 -348h-84z" />
    <glyph glyph-name="Delta" unicode="&#x394;" horiz-adv-x="1370" 
d="M684 1262l-418 -1084h836zM573 1473h224l579 -1473h-1382z" />
    <glyph glyph-name="Delta" unicode="&#x2206;" horiz-adv-x="1370" 
d="M684 1262l-418 -1084h836zM573 1473h224l579 -1473h-1382z" />
    <glyph glyph-name="Omega" unicode="&#x3a9;" horiz-adv-x="1565" 
d="M1487 178l-0.000976562 -178h-600v178c118.667 64.667 210.834 152.334 276.501 263.001s98.5 233.334 98.5 368.001c0 153.333 -41 278.333 -123 375c-87.333 103.333 -206.333 155 -357 155s-269.667 -51.667 -357 -155c-82.667 -96.667 -124 -221.667 -124 -375
c0 -134.667 33.167 -257.334 99.5 -368.001s158.833 -198.334 277.5 -263.001v-178h-600v178h319c-202 177.333 -303 384.333 -303 621c0 209.333 62 379.666 186 510.999c126.667 134 294 201 502 201c204.667 0 371 -66 499 -198c126 -130.667 189 -298.667 189 -504
c0 -132.667 -25.333 -249.667 -76 -351c-47.333 -95.333 -123 -188.666 -227 -279.999h320z" />
    <glyph glyph-name="Omega" unicode="&#x2126;" horiz-adv-x="1565" 
d="M1487 178l-0.000976562 -178h-600v178c118.667 64.667 210.834 152.334 276.501 263.001s98.5 233.334 98.5 368.001c0 153.333 -41 278.333 -123 375c-87.333 103.333 -206.333 155 -357 155s-269.667 -51.667 -357 -155c-82.667 -96.667 -124 -221.667 -124 -375
c0 -134.667 33.167 -257.334 99.5 -368.001s158.833 -198.334 277.5 -263.001v-178h-600v178h319c-202 177.333 -303 384.333 -303 621c0 209.333 62 379.666 186 510.999c126.667 134 294 201 502 201c204.667 0 371 -66 499 -198c126 -130.667 189 -298.667 189 -504
c0 -132.667 -25.333 -249.667 -76 -351c-47.333 -95.333 -123 -188.666 -227 -279.999h320z" />
    <glyph glyph-name="pi" unicode="&#x3c0;" horiz-adv-x="1206" 
d="M1159 913l-182 0.00195312l-105 -487c-20 -92.667 -30 -155.334 -30 -188.001c0 -71.333 34 -107 102 -107c17.333 0 50.666 3.33301 99.999 10l-30 -141c-40 -10.667 -77 -16 -111 -16c-159.333 0 -239 67.333 -239 202c0 61.333 18.333 178.333 55 351l80 376h-326
l-194 -913h-181l195 913h-41c-70.667 0 -111.667 -44.333 -123 -133h-160c18.667 109.333 51.834 185.166 99.501 227.499s126.5 63.5 236.5 63.5h889z" />
    <glyph glyph-name="glyph281" unicode="&#x1ea0;" horiz-adv-x="1229" 
d="M922 0l0.000976562 657h-557v181h557v57c0 256.667 -102.667 385 -308 385c-204.667 0 -307 -128.333 -307 -385v-895h-190v899c0 162.667 41.667 294.334 125 395.001c88.667 108 212.667 162 372 162s283.666 -54 372.999 -162
c83.333 -100.667 125 -232.334 125 -395.001v-899h-190zM496.001 -262c0 34 11.333 62.333 34 85s51 34 85 34c33.333 0 61.333 -11.5 84 -34.5s34 -51.167 34 -84.5c0 -32.667 -11.5 -60.167 -34.5 -82.5s-50.833 -33.5 -83.5 -33.5s-60.667 11.167 -84 33.5
s-35 49.833 -35 82.5z" />
    <glyph glyph-name="glyph282" unicode="&#x1ea1;" horiz-adv-x="1151" 
d="M870 0l0.00195312 489.001c0 98.667 -27 180 -81 244c-57.333 67.333 -134.666 101 -231.999 101c-95.333 0 -172.333 -33 -231 -99c-56 -62.667 -84 -142.334 -84 -239.001c0 -98.667 29 -180.334 87 -245.001c60 -67.333 138.667 -101 236 -101
c84.667 0 166.667 30 246 90v-189c-78.667 -44.667 -167.334 -67 -266.001 -67c-138 0 -253.333 50.667 -346 152c-90.667 98.667 -136 217.334 -136 356.001c0 146 45.667 267 137 363s209.666 144 354.999 144c117.333 0 221.166 -36.167 311.499 -108.5
s146.5 -165.5 168.5 -279.5c8 -44 12 -110.333 12 -199v-412h-177zM458.002 -261.999c0 34 11.333 62.333 34 85s51 34 85 34c33.333 0 61.333 -11.5 84 -34.5s34 -51.167 34 -84.5c0 -32.667 -11.5 -60.167 -34.5 -82.5s-50.833 -33.5 -83.5 -33.5s-60.667 11.167 -84 33.5
s-35 49.833 -35 82.5z" />
    <glyph glyph-name="glyph283" unicode="&#x1ea2;" horiz-adv-x="1229" 
d="M922 0l0.000976562 657h-557v181h557v57c0 256.667 -102.667 385 -308 385c-204.667 0 -307 -128.333 -307 -385v-895h-190v899c0 162.667 41.667 294.334 125 395.001c88.667 108 212.667 162 372 162s283.666 -54 372.999 -162
c83.333 -100.667 125 -232.334 125 -395.001v-899h-190zM432.001 1776c0 50.667 20.1689 95.168 60.502 133.501s86.166 57.5 137.499 57.5c52.667 0 99 -19.5 139 -58.5s60 -84.833 60 -137.5c0 -46 -15 -85.833 -45 -119.5s-69.333 -55.834 -118 -66.501v-67h-88v155
c38 0 71 7.66699 99 23c32 18.667 48 43.667 48 75c0 26.667 -9.33301 49.667 -28 69s-41.334 29 -68.001 29c-58 0 -90.667 -31 -98 -93h-99z" />
    <glyph glyph-name="glyph284" unicode="&#x1ea3;" horiz-adv-x="1151" 
d="M870 0l0.00195312 489.001c0 98.667 -27 180 -81 244c-57.333 67.333 -134.666 101 -231.999 101c-95.333 0 -172.333 -33 -231 -99c-56 -62.667 -84 -142.334 -84 -239.001c0 -98.667 29 -180.334 87 -245.001c60 -67.333 138.667 -101 236 -101
c84.667 0 166.667 30 246 90v-189c-78.667 -44.667 -167.334 -67 -266.001 -67c-138 0 -253.333 50.667 -346 152c-90.667 98.667 -136 217.334 -136 356.001c0 146 45.667 267 137 363s209.666 144 354.999 144c117.333 0 221.166 -36.167 311.499 -108.5
s146.5 -165.5 168.5 -279.5c8 -44 12 -110.333 12 -199v-412h-177zM381.002 1333c0 50.667 20.1689 95.168 60.502 133.501s86.166 57.5 137.499 57.5c52.667 0 99 -19.5 139 -58.5s60 -84.833 60 -137.5c0 -46 -15 -85.833 -45 -119.5s-69.333 -55.834 -118 -66.501v-67
h-88v155c38 0 71 7.66699 99 23c32 18.667 48 43.667 48 75c0 26.667 -9.33301 49.667 -28 69s-41.334 29 -68.001 29c-58 0 -90.667 -31 -98 -93h-99z" />
    <glyph glyph-name="glyph285" unicode="&#x1ea4;" horiz-adv-x="1229" 
d="M922 0l0.000976562 657h-557v181h557v57c0 256.667 -102.667 385 -308 385c-204.667 0 -307 -128.333 -307 -385v-895h-190v899c0 162.667 41.667 294.334 125 395.001c88.667 108 212.667 162 372 162s283.666 -54 372.999 -162
c83.333 -100.667 125 -232.334 125 -395.001v-899h-190zM327.001 1517l197 348h178l197 -348h-107l-178 243l-180 -243h-107zM369.001 1891l209 348h178l-281 -348h-106z" />
    <glyph glyph-name="glyph286" unicode="&#x1ea5;" horiz-adv-x="1151" 
d="M870 0l0.00195312 489.001c0 98.667 -27 180 -81 244c-57.333 67.333 -134.666 101 -231.999 101c-95.333 0 -172.333 -33 -231 -99c-56 -62.667 -84 -142.334 -84 -239.001c0 -98.667 29 -180.334 87 -245.001c60 -67.333 138.667 -101 236 -101
c84.667 0 166.667 30 246 90v-189c-78.667 -44.667 -167.334 -67 -266.001 -67c-138 0 -253.333 50.667 -346 152c-90.667 98.667 -136 217.334 -136 356.001c0 146 45.667 267 137 363s209.666 144 354.999 144c117.333 0 221.166 -36.167 311.499 -108.5
s146.5 -165.5 168.5 -279.5c8 -44 12 -110.333 12 -199v-412h-177zM288.002 1096l197 348h178l197 -348h-107l-178 243l-180 -243h-107zM330.002 1469l209 348h178l-281 -348h-106z" />
    <glyph glyph-name="glyph287" unicode="&#x1ea6;" horiz-adv-x="1229" 
d="M922 0l0.000976562 657h-557v181h557v57c0 256.667 -102.667 385 -308 385c-204.667 0 -307 -128.333 -307 -385v-895h-190v899c0 162.667 41.667 294.334 125 395.001c88.667 108 212.667 162 372 162s283.666 -54 372.999 -162
c83.333 -100.667 125 -232.334 125 -395.001v-899h-190zM327.001 1517l197 348h178l197 -348h-107l-178 243l-180 -243h-107zM862.001 1891h-106l-281 348h178z" />
    <glyph glyph-name="glyph288" unicode="&#x1ea7;" horiz-adv-x="1151" 
d="M870 0l0.00195312 489.001c0 98.667 -27 180 -81 244c-57.333 67.333 -134.666 101 -231.999 101c-95.333 0 -172.333 -33 -231 -99c-56 -62.667 -84 -142.334 -84 -239.001c0 -98.667 29 -180.334 87 -245.001c60 -67.333 138.667 -101 236 -101
c84.667 0 166.667 30 246 90v-189c-78.667 -44.667 -167.334 -67 -266.001 -67c-138 0 -253.333 50.667 -346 152c-90.667 98.667 -136 217.334 -136 356.001c0 146 45.667 267 137 363s209.666 144 354.999 144c117.333 0 221.166 -36.167 311.499 -108.5
s146.5 -165.5 168.5 -279.5c8 -44 12 -110.333 12 -199v-412h-177zM288.002 1096l197 348h178l197 -348h-107l-178 243l-180 -243h-107zM823.002 1470h-106l-281 348h178z" />
    <glyph glyph-name="glyph289" unicode="&#x1ea8;" horiz-adv-x="1229" 
d="M922 0l0.000976562 657h-557v181h557v57c0 256.667 -102.667 385 -308 385c-204.667 0 -307 -128.333 -307 -385v-895h-190v899c0 162.667 41.667 294.334 125 395.001c88.667 108 212.667 162 372 162s283.666 -54 372.999 -162
c83.333 -100.667 125 -232.334 125 -395.001v-899h-190zM327.001 1517l197 348h178l197 -348h-107l-178 243l-180 -243h-107zM670.001 2085c0 50.667 20.1689 95.167 60.502 133.5s86.166 57.5 137.499 57.5c52.667 0 99 -19.5 139 -58.5s60 -84.833 60 -137.5
c0 -46 -15 -85.833 -45 -119.5s-69.333 -55.834 -118 -66.501v-67h-88v155c38 0 71 7.66699 99 23c32 18.667 48 43.667 48 75.001c0 26.667 -9.33301 49.667 -28 69s-41.334 29 -68.001 29c-58 0 -90.667 -31 -98 -93h-99z" />
    <glyph glyph-name="glyph290" unicode="&#x1ea9;" horiz-adv-x="1151" 
d="M870 0l0.00195312 489.001c0 98.667 -27 180 -81 244c-57.333 67.333 -134.666 101 -231.999 101c-95.333 0 -172.333 -33 -231 -99c-56 -62.667 -84 -142.334 -84 -239.001c0 -98.667 29 -180.334 87 -245.001c60 -67.333 138.667 -101 236 -101
c84.667 0 166.667 30 246 90v-189c-78.667 -44.667 -167.334 -67 -266.001 -67c-138 0 -253.333 50.667 -346 152c-90.667 98.667 -136 217.334 -136 356.001c0 146 45.667 267 137 363s209.666 144 354.999 144c117.333 0 221.166 -36.167 311.499 -108.5
s146.5 -165.5 168.5 -279.5c8 -44 12 -110.333 12 -199v-412h-177zM288.002 1096l197 348h178l197 -348h-107l-178 243l-180 -243h-107zM631.002 1664c0 50.667 20.1689 95.168 60.502 133.501s86.166 57.5 137.499 57.5c52.667 0 99 -19.5 139 -58.5s60 -84.833 60 -137.5
c0 -46 -15 -85.833 -45 -119.5s-69.333 -55.834 -118 -66.501v-67h-88v155c38 0 71 7.66699 99 23c32 18.667 48 43.667 48 75c0 26.667 -9.33301 49.667 -28 69s-41.334 29 -68.001 29c-58 0 -90.667 -31 -98 -93h-99z" />
    <glyph glyph-name="glyph291" unicode="&#x1eaa;" horiz-adv-x="1229" 
d="M922 0l0.000976562 657h-557v181h557v57c0 256.667 -102.667 385 -308 385c-204.667 0 -307 -128.333 -307 -385v-895h-190v899c0 162.667 41.667 294.334 125 395.001c88.667 108 212.667 162 372 162s283.666 -54 372.999 -162
c83.333 -100.667 125 -232.334 125 -395.001v-899h-190zM327.001 1517l197 348h178l197 -348h-107l-178 243l-180 -243h-107zM970.001 2152c-33.333 -128.667 -99.668 -193 -199.001 -193c-23.333 0 -56.5 7.66699 -99.5 23s-75.833 23 -98.5 23
c-45.333 0 -77.666 -21.333 -96.999 -64h-88c30 124 96.333 186 199 186c24 0 57.5 -7.83301 100.5 -23.5s75.5 -23.5 97.5 -23.5c46.667 0 79 24 97 72h88z" />
    <glyph glyph-name="glyph292" unicode="&#x1eab;" horiz-adv-x="1151" 
d="M870 0l0.00195312 489.001c0 98.667 -27 180 -81 244c-57.333 67.333 -134.666 101 -231.999 101c-95.333 0 -172.333 -33 -231 -99c-56 -62.667 -84 -142.334 -84 -239.001c0 -98.667 29 -180.334 87 -245.001c60 -67.333 138.667 -101 236 -101
c84.667 0 166.667 30 246 90v-189c-78.667 -44.667 -167.334 -67 -266.001 -67c-138 0 -253.333 50.667 -346 152c-90.667 98.667 -136 217.334 -136 356.001c0 146 45.667 267 137 363s209.666 144 354.999 144c117.333 0 221.166 -36.167 311.499 -108.5
s146.5 -165.5 168.5 -279.5c8 -44 12 -110.333 12 -199v-412h-177zM288.002 1096l197 348h178l197 -348h-107l-178 243l-180 -243h-107zM931.002 1732c-33.333 -128.667 -99.668 -193 -199.001 -193c-23.333 0 -56.5 7.66699 -99.5 23s-75.833 23 -98.5 23
c-45.333 0 -77.666 -21.333 -96.999 -64h-88c30 124 96.333 186 199 186c24 0 57.5 -7.83301 100.5 -23.5s75.5 -23.5 97.5 -23.5c46.667 0 79 24 97 72h88z" />
    <glyph glyph-name="glyph293" unicode="&#x1eac;" horiz-adv-x="1229" 
d="M922 0l0.000976562 657h-557v181h557v57c0 256.667 -102.667 385 -308 385c-204.667 0 -307 -128.333 -307 -385v-895h-190v899c0 162.667 41.667 294.334 125 395.001c88.667 108 212.667 162 372 162s283.666 -54 372.999 -162
c83.333 -100.667 125 -232.334 125 -395.001v-899h-190zM327.001 1517l197 348h178l197 -348h-107l-178 243l-180 -243h-107zM496.001 -262c0 34 11.333 62.333 34 85s51 34 85 34c33.333 0 61.333 -11.5 84 -34.5s34 -51.167 34 -84.5c0 -32.667 -11.5 -60.167 -34.5 -82.5
s-50.833 -33.5 -83.5 -33.5s-60.667 11.167 -84 33.5s-35 49.833 -35 82.5z" />
    <glyph glyph-name="glyph294" unicode="&#x1ead;" horiz-adv-x="1151" 
d="M870 0l0.00195312 489.001c0 98.667 -27 180 -81 244c-57.333 67.333 -134.666 101 -231.999 101c-95.333 0 -172.333 -33 -231 -99c-56 -62.667 -84 -142.334 -84 -239.001c0 -98.667 29 -180.334 87 -245.001c60 -67.333 138.667 -101 236 -101
c84.667 0 166.667 30 246 90v-189c-78.667 -44.667 -167.334 -67 -266.001 -67c-138 0 -253.333 50.667 -346 152c-90.667 98.667 -136 217.334 -136 356.001c0 146 45.667 267 137 363s209.666 144 354.999 144c117.333 0 221.166 -36.167 311.499 -108.5
s146.5 -165.5 168.5 -279.5c8 -44 12 -110.333 12 -199v-412h-177zM288.002 1096l197 348h178l197 -348h-107l-178 243l-180 -243h-107zM458.002 -261.999c0 34 11.333 62.333 34 85s51 34 85 34c33.333 0 61.333 -11.5 84 -34.5s34 -51.167 34 -84.5
c0 -32.667 -11.5 -60.167 -34.5 -82.5s-50.833 -33.5 -83.5 -33.5s-60.667 11.167 -84 33.5s-35 49.833 -35 82.5z" />
    <glyph glyph-name="glyph295" unicode="&#x1eae;" horiz-adv-x="1229" 
d="M922 0l0.000976562 657h-557v181h557v57c0 256.667 -102.667 385 -308 385c-204.667 0 -307 -128.333 -307 -385v-895h-190v899c0 162.667 41.667 294.334 125 395.001c88.667 108 212.667 162 372 162s283.666 -54 372.999 -162
c83.333 -100.667 125 -232.334 125 -395.001v-899h-190zM331.001 1822h89c8.66699 -96.667 73 -145 193 -145s184.333 48.333 193 145h90c-14 -180 -108.333 -270 -283 -270c-176.667 0 -270.667 90 -282 270zM490.001 1886l209 348h178l-281 -348h-106z" />
    <glyph glyph-name="glyph296" unicode="&#x1eaf;" horiz-adv-x="1151" 
d="M870 0l0.00195312 489.001c0 98.667 -27 180 -81 244c-57.333 67.333 -134.666 101 -231.999 101c-95.333 0 -172.333 -33 -231 -99c-56 -62.667 -84 -142.334 -84 -239.001c0 -98.667 29 -180.334 87 -245.001c60 -67.333 138.667 -101 236 -101
c84.667 0 166.667 30 246 90v-189c-78.667 -44.667 -167.334 -67 -266.001 -67c-138 0 -253.333 50.667 -346 152c-90.667 98.667 -136 217.334 -136 356.001c0 146 45.667 267 137 363s209.666 144 354.999 144c117.333 0 221.166 -36.167 311.499 -108.5
s146.5 -165.5 168.5 -279.5c8 -44 12 -110.333 12 -199v-412h-177zM291.002 1405h89c8.66699 -96.667 73 -145 193 -145s184.333 48.333 193 145h90c-14 -180 -108.333 -270 -283 -270c-176.667 0 -270.667 90 -282 270zM450.002 1469l209 348h178l-281 -348h-106z" />
    <glyph glyph-name="glyph297" unicode="&#x1eb0;" horiz-adv-x="1229" 
d="M922 0l0.000976562 657h-557v181h557v57c0 256.667 -102.667 385 -308 385c-204.667 0 -307 -128.333 -307 -385v-895h-190v899c0 162.667 41.667 294.334 125 395.001c88.667 108 212.667 162 372 162s283.666 -54 372.999 -162
c83.333 -100.667 125 -232.334 125 -395.001v-899h-190zM331.001 1822h89c8.66699 -96.667 73 -145 193 -145s184.333 48.333 193 145h90c-14 -180 -108.333 -270 -283 -270c-176.667 0 -270.667 90 -282 270zM743.001 1886h-106l-281 348h178z" />
    <glyph glyph-name="glyph298" unicode="&#x1eb1;" horiz-adv-x="1151" 
d="M870 0l0.00195312 489.001c0 98.667 -27 180 -81 244c-57.333 67.333 -134.666 101 -231.999 101c-95.333 0 -172.333 -33 -231 -99c-56 -62.667 -84 -142.334 -84 -239.001c0 -98.667 29 -180.334 87 -245.001c60 -67.333 138.667 -101 236 -101
c84.667 0 166.667 30 246 90v-189c-78.667 -44.667 -167.334 -67 -266.001 -67c-138 0 -253.333 50.667 -346 152c-90.667 98.667 -136 217.334 -136 356.001c0 146 45.667 267 137 363s209.666 144 354.999 144c117.333 0 221.166 -36.167 311.499 -108.5
s146.5 -165.5 168.5 -279.5c8 -44 12 -110.333 12 -199v-412h-177zM291.002 1405h89c8.66699 -96.667 73 -145 193 -145s184.333 48.333 193 145h90c-14 -180 -108.333 -270 -283 -270c-176.667 0 -270.667 90 -282 270zM703.002 1470h-106l-281 348h178z" />
    <glyph glyph-name="glyph299" unicode="&#x1eb2;" horiz-adv-x="1229" 
d="M922 0l0.000976562 657h-557v181h557v57c0 256.667 -102.667 385 -308 385c-204.667 0 -307 -128.333 -307 -385v-895h-190v899c0 162.667 41.667 294.334 125 395.001c88.667 108 212.667 162 372 162s283.666 -54 372.999 -162
c83.333 -100.667 125 -232.334 125 -395.001v-899h-190zM331.001 1822h89c8.66699 -96.667 73 -145 193 -145s184.333 48.333 193 145h90c-14 -180 -108.333 -270 -283 -270c-176.667 0 -270.667 90 -282 270zM423.001 2081c0 50.667 20.1689 95.168 60.502 133.501
s86.166 57.5 137.499 57.5c52.667 0 99 -19.5 139 -58.5s60 -84.833 60 -137.5c0 -46 -15 -85.833 -45 -119.5s-69.333 -55.834 -118 -66.501v-67h-88v155c38 0 71 7.66699 99 23c32 18.667 48 43.667 48 75c0 26.667 -9.33301 49.667 -28 69s-41.334 29 -68.001 29
c-58 0 -90.667 -31 -98 -93h-99z" />
    <glyph glyph-name="glyph300" unicode="&#x1eb3;" horiz-adv-x="1151" 
d="M870 0l0.00195312 489.001c0 98.667 -27 180 -81 244c-57.333 67.333 -134.666 101 -231.999 101c-95.333 0 -172.333 -33 -231 -99c-56 -62.667 -84 -142.334 -84 -239.001c0 -98.667 29 -180.334 87 -245.001c60 -67.333 138.667 -101 236 -101
c84.667 0 166.667 30 246 90v-189c-78.667 -44.667 -167.334 -67 -266.001 -67c-138 0 -253.333 50.667 -346 152c-90.667 98.667 -136 217.334 -136 356.001c0 146 45.667 267 137 363s209.666 144 354.999 144c117.333 0 221.166 -36.167 311.499 -108.5
s146.5 -165.5 168.5 -279.5c8 -44 12 -110.333 12 -199v-412h-177zM291.002 1405h89c8.66699 -96.667 73 -145 193 -145s184.333 48.333 193 145h90c-14 -180 -108.333 -270 -283 -270c-176.667 0 -270.667 90 -282 270zM383.002 1664
c0 50.667 20.1689 95.168 60.502 133.501s86.166 57.5 137.499 57.5c52.667 0 99 -19.5 139 -58.5s60 -84.833 60 -137.5c0 -46 -15 -85.833 -45 -119.5s-69.333 -55.834 -118 -66.501v-67h-88v155c38 0 71 7.66699 99 23c32 18.667 48 43.667 48 75
c0 26.667 -9.33301 49.667 -28 69s-41.334 29 -68.001 29c-58 0 -90.667 -31 -98 -93h-99z" />
    <glyph glyph-name="glyph301" unicode="&#x1eb4;" horiz-adv-x="1229" 
d="M922 0l0.000976562 657h-557v181h557v57c0 256.667 -102.667 385 -308 385c-204.667 0 -307 -128.333 -307 -385v-895h-190v899c0 162.667 41.667 294.334 125 395.001c88.667 108 212.667 162 372 162s283.666 -54 372.999 -162
c83.333 -100.667 125 -232.334 125 -395.001v-899h-190zM331.001 1822h89c8.66699 -96.667 73 -145 193 -145s184.333 48.333 193 145h90c-14 -180 -108.333 -270 -283 -270c-176.667 0 -270.667 90 -282 270zM918.001 2149c-33.333 -128.667 -99.668 -193 -199.001 -193
c-23.333 0 -56.5 7.66699 -99.5 23s-75.833 23 -98.5 23c-45.333 0 -77.666 -21.333 -96.999 -64h-88c30 124 96.333 186 199 186c24 0 57.5 -7.83301 100.5 -23.5s75.5 -23.5 97.5 -23.5c46.667 0 79 24 97 72h88z" />
    <glyph glyph-name="glyph302" unicode="&#x1eb5;" horiz-adv-x="1151" 
d="M870 0l0.00195312 489.001c0 98.667 -27 180 -81 244c-57.333 67.333 -134.666 101 -231.999 101c-95.333 0 -172.333 -33 -231 -99c-56 -62.667 -84 -142.334 -84 -239.001c0 -98.667 29 -180.334 87 -245.001c60 -67.333 138.667 -101 236 -101
c84.667 0 166.667 30 246 90v-189c-78.667 -44.667 -167.334 -67 -266.001 -67c-138 0 -253.333 50.667 -346 152c-90.667 98.667 -136 217.334 -136 356.001c0 146 45.667 267 137 363s209.666 144 354.999 144c117.333 0 221.166 -36.167 311.499 -108.5
s146.5 -165.5 168.5 -279.5c8 -44 12 -110.333 12 -199v-412h-177zM291.002 1405h89c8.66699 -96.667 73 -145 193 -145s184.333 48.333 193 145h90c-14 -180 -108.333 -270 -283 -270c-176.667 0 -270.667 90 -282 270zM878.002 1732
c-33.333 -128.667 -99.668 -193 -199.001 -193c-23.333 0 -56.5 7.66699 -99.5 23s-75.833 23 -98.5 23c-45.333 0 -77.666 -21.333 -96.999 -64h-88c30 124 96.333 186 199 186c24 0 57.5 -7.83301 100.5 -23.5s75.5 -23.5 97.5 -23.5c46.667 0 79 24 97 72h88z" />
    <glyph glyph-name="glyph303" unicode="&#x1eb6;" horiz-adv-x="1229" 
d="M922 0l0.000976562 657h-557v181h557v57c0 256.667 -102.667 385 -308 385c-204.667 0 -307 -128.333 -307 -385v-895h-190v899c0 162.667 41.667 294.334 125 395.001c88.667 108 212.667 162 372 162s283.666 -54 372.999 -162
c83.333 -100.667 125 -232.334 125 -395.001v-899h-190zM331.001 1822h89c8.66699 -96.667 73 -145 193 -145s184.333 48.333 193 145h90c-14 -180 -108.333 -270 -283 -270c-176.667 0 -270.667 90 -282 270zM496.001 -262c0 34 11.333 62.333 34 85s51 34 85 34
c33.333 0 61.333 -11.5 84 -34.5s34 -51.167 34 -84.5c0 -32.667 -11.5 -60.167 -34.5 -82.5s-50.833 -33.5 -83.5 -33.5s-60.667 11.167 -84 33.5s-35 49.833 -35 82.5z" />
    <glyph glyph-name="glyph304" unicode="&#x1eb7;" horiz-adv-x="1151" 
d="M870 0l0.00195312 489.001c0 98.667 -27 180 -81 244c-57.333 67.333 -134.666 101 -231.999 101c-95.333 0 -172.333 -33 -231 -99c-56 -62.667 -84 -142.334 -84 -239.001c0 -98.667 29 -180.334 87 -245.001c60 -67.333 138.667 -101 236 -101
c84.667 0 166.667 30 246 90v-189c-78.667 -44.667 -167.334 -67 -266.001 -67c-138 0 -253.333 50.667 -346 152c-90.667 98.667 -136 217.334 -136 356.001c0 146 45.667 267 137 363s209.666 144 354.999 144c117.333 0 221.166 -36.167 311.499 -108.5
s146.5 -165.5 168.5 -279.5c8 -44 12 -110.333 12 -199v-412h-177zM291.002 1405h89c8.66699 -96.667 73 -145 193 -145s184.333 48.333 193 145h90c-14 -180 -108.333 -270 -283 -270c-176.667 0 -270.667 90 -282 270zM458.002 -261.999c0 34 11.333 62.333 34 85
s51 34 85 34c33.333 0 61.333 -11.5 84 -34.5s34 -51.167 34 -84.5c0 -32.667 -11.5 -60.167 -34.5 -82.5s-50.833 -33.5 -83.5 -33.5s-60.667 11.167 -84 33.5s-35 49.833 -35 82.5z" />
    <glyph glyph-name="glyph305" unicode="&#x1eb8;" horiz-adv-x="1040" 
d="M958 1262c-16 1.33301 -37 1.99902 -63 1.99902c-354 0 -561 -147 -621 -441h684v-170h-694c48.667 -320.667 256.334 -481 623.001 -481c31.333 0 55 0.666992 71 2v-174h-55c-212 0 -373 33.333 -483 100c-234.667 142.667 -352 348.334 -352 617.001
c0 169.333 51.167 317.833 153.5 445.5s236.166 209.167 401.499 244.5c80 16.667 191.667 25 335 25v-170zM565 -262.001c0 34 11.333 62.333 34 85s51 34 85 34c33.333 0 61.333 -11.5 84 -34.5s34 -51.167 34 -84.5c0 -32.667 -11.5 -60.167 -34.5 -82.5
s-50.833 -33.5 -83.5 -33.5s-60.667 11.167 -84 33.5s-35 49.833 -35 82.5z" />
    <glyph glyph-name="glyph306" unicode="&#x1eb9;" horiz-adv-x="1110" 
d="M1051 434c-24 -134.667 -77.666 -242.667 -160.999 -324c-89.333 -86.667 -200.333 -130 -333 -130c-138.667 0 -256.334 51 -353.001 153c-95.333 100 -143 219.667 -143 359s48.333 259 145 359s214.334 150 353.001 150c205.333 0 357.666 -102.333 456.999 -307
l-643 -356l-74 133l477 266c-59.333 66 -132.333 99 -219 99c-92 0 -168 -34.333 -228 -103c-56.667 -66 -85 -145.667 -85 -239c0 -92.667 28.667 -172 86 -238c60 -69.333 135.667 -104 227 -104c88.667 0 161 30 217 90c52 55.333 84.667 128.333 98 219zM438.001 -262
c0 34 11.333 62.333 34 85s51 34 85 34c33.333 0 61.333 -11.5 84 -34.5s34 -51.167 34 -84.5c0 -32.667 -11.5 -60.167 -34.5 -82.5s-50.833 -33.5 -83.5 -33.5s-60.667 11.167 -84 33.5s-35 49.833 -35 82.5z" />
    <glyph glyph-name="glyph307" unicode="&#x1eba;" horiz-adv-x="1040" 
d="M958 1262c-16 1.33301 -37 1.99902 -63 1.99902c-354 0 -561 -147 -621 -441h684v-170h-694c48.667 -320.667 256.334 -481 623.001 -481c31.333 0 55 0.666992 71 2v-174h-55c-212 0 -373 33.333 -483 100c-234.667 142.667 -352 348.334 -352 617.001
c0 169.333 51.167 317.833 153.5 445.5s236.166 209.167 401.499 244.5c80 16.667 191.667 25 335 25v-170zM562 1776c0 50.667 20.1689 95.168 60.502 133.501s86.166 57.5 137.499 57.5c52.667 0 99 -19.5 139 -58.5s60 -84.833 60 -137.5c0 -46 -15 -85.833 -45 -119.5
s-69.333 -55.834 -118 -66.501v-67h-88v155c38 0 71 7.66699 99 23c32 18.667 48 43.667 48 75c0 26.667 -9.33301 49.667 -28 69s-41.334 29 -68.001 29c-58 0 -90.667 -31 -98 -93h-99z" />
    <glyph glyph-name="glyph308" unicode="&#x1ebb;" horiz-adv-x="1110" 
d="M1051 434c-24 -134.667 -77.666 -242.667 -160.999 -324c-89.333 -86.667 -200.333 -130 -333 -130c-138.667 0 -256.334 51 -353.001 153c-95.333 100 -143 219.667 -143 359s48.333 259 145 359s214.334 150 353.001 150c205.333 0 357.666 -102.333 456.999 -307
l-643 -356l-74 133l477 266c-59.333 66 -132.333 99 -219 99c-92 0 -168 -34.333 -228 -103c-56.667 -66 -85 -145.667 -85 -239c0 -92.667 28.667 -172 86 -238c60 -69.333 135.667 -104 227 -104c88.667 0 161 30 217 90c52 55.333 84.667 128.333 98 219zM377.001 1333
c0 50.667 20.1689 95.168 60.502 133.501s86.166 57.5 137.499 57.5c52.667 0 99 -19.5 139 -58.5s60 -84.833 60 -137.5c0 -46 -15 -85.833 -45 -119.5s-69.333 -55.834 -118 -66.501v-67h-88v155c38 0 71 7.66699 99 23c32 18.667 48 43.667 48 75
c0 26.667 -9.33301 49.667 -28 69s-41.334 29 -68.001 29c-58 0 -90.667 -31 -98 -93h-99z" />
    <glyph glyph-name="glyph309" unicode="&#x1ebc;" horiz-adv-x="1040" 
d="M958 1262c-16 1.33301 -37 1.99902 -63 1.99902c-354 0 -561 -147 -621 -441h684v-170h-694c48.667 -320.667 256.334 -481 623.001 -481c31.333 0 55 0.666992 71 2v-174h-55c-212 0 -373 33.333 -483 100c-234.667 142.667 -352 348.334 -352 617.001
c0 169.333 51.167 317.833 153.5 445.5s236.166 209.167 401.499 244.5c80 16.667 191.667 25 335 25v-170zM964 1835c-33.333 -128.667 -99.668 -193 -199.001 -193c-23.333 0 -56.5 7.66699 -99.5 23s-75.833 23 -98.5 23c-45.333 0 -77.666 -21.333 -96.999 -64h-88
c30 124 96.333 186 199 186c24 0 57.5 -7.83301 100.5 -23.5s75.5 -23.5 97.5 -23.5c46.667 0 79 24 97 72h88z" />
    <glyph glyph-name="glyph310" unicode="&#x1ebd;" horiz-adv-x="1110" 
d="M1051 434c-24 -134.667 -77.666 -242.667 -160.999 -324c-89.333 -86.667 -200.333 -130 -333 -130c-138.667 0 -256.334 51 -353.001 153c-95.333 100 -143 219.667 -143 359s48.333 259 145 359s214.334 150 353.001 150c205.333 0 357.666 -102.333 456.999 -307
l-643 -356l-74 133l477 266c-59.333 66 -132.333 99 -219 99c-92 0 -168 -34.333 -228 -103c-56.667 -66 -85 -145.667 -85 -239c0 -92.667 28.667 -172 86 -238c60 -69.333 135.667 -104 227 -104c88.667 0 161 30 217 90c52 55.333 84.667 128.333 98 219zM848.001 1364
c-33.333 -128.667 -99.668 -193 -199.001 -193c-23.333 0 -56.5 7.66699 -99.5 23s-75.833 23 -98.5 23c-45.333 0 -77.666 -21.333 -96.999 -64h-88c30 124 96.333 186 199 186c24 0 57.5 -7.83301 100.5 -23.5s75.5 -23.5 97.5 -23.5c46.667 0 79 24 97 72h88z" />
    <glyph glyph-name="glyph311" unicode="&#x1ebe;" horiz-adv-x="1040" 
d="M958 1262c-16 1.33301 -37 1.99902 -63 1.99902c-354 0 -561 -147 -621 -441h684v-170h-694c48.667 -320.667 256.334 -481 623.001 -481c31.333 0 55 0.666992 71 2v-174h-55c-212 0 -373 33.333 -483 100c-234.667 142.667 -352 348.334 -352 617.001
c0 169.333 51.167 317.833 153.5 445.5s236.166 209.167 401.499 244.5c80 16.667 191.667 25 335 25v-170zM397 1517l197 348h178l197 -348h-107l-178 243l-180 -243h-107zM439 1891l209 348h178l-281 -348h-106z" />
    <glyph glyph-name="glyph312" unicode="&#x1ebf;" horiz-adv-x="1110" 
d="M1051 434c-24 -134.667 -77.666 -242.667 -160.999 -324c-89.333 -86.667 -200.333 -130 -333 -130c-138.667 0 -256.334 51 -353.001 153c-95.333 100 -143 219.667 -143 359s48.333 259 145 359s214.334 150 353.001 150c205.333 0 357.666 -102.333 456.999 -307
l-643 -356l-74 133l477 266c-59.333 66 -132.333 99 -219 99c-92 0 -168 -34.333 -228 -103c-56.667 -66 -85 -145.667 -85 -239c0 -92.667 28.667 -172 86 -238c60 -69.333 135.667 -104 227 -104c88.667 0 161 30 217 90c52 55.333 84.667 128.333 98 219zM268.001 1096
l197 348h178l197 -348h-107l-178 243l-180 -243h-107zM310.001 1469l209 348h178l-281 -348h-106z" />
    <glyph glyph-name="glyph313" unicode="&#x1ec0;" horiz-adv-x="1040" 
d="M958 1262c-16 1.33301 -37 1.99902 -63 1.99902c-354 0 -561 -147 -621 -441h684v-170h-694c48.667 -320.667 256.334 -481 623.001 -481c31.333 0 55 0.666992 71 2v-174h-55c-212 0 -373 33.333 -483 100c-234.667 142.667 -352 348.334 -352 617.001
c0 169.333 51.167 317.833 153.5 445.5s236.166 209.167 401.499 244.5c80 16.667 191.667 25 335 25v-170zM397 1517l197 348h178l197 -348h-107l-178 243l-180 -243h-107zM932 1891h-106l-281 348h178z" />
    <glyph glyph-name="glyph314" unicode="&#x1ec1;" horiz-adv-x="1110" 
d="M1051 434c-24 -134.667 -77.666 -242.667 -160.999 -324c-89.333 -86.667 -200.333 -130 -333 -130c-138.667 0 -256.334 51 -353.001 153c-95.333 100 -143 219.667 -143 359s48.333 259 145 359s214.334 150 353.001 150c205.333 0 357.666 -102.333 456.999 -307
l-643 -356l-74 133l477 266c-59.333 66 -132.333 99 -219 99c-92 0 -168 -34.333 -228 -103c-56.667 -66 -85 -145.667 -85 -239c0 -92.667 28.667 -172 86 -238c60 -69.333 135.667 -104 227 -104c88.667 0 161 30 217 90c52 55.333 84.667 128.333 98 219zM268.001 1096
l197 348h178l197 -348h-107l-178 243l-180 -243h-107zM803.001 1470h-106l-281 348h178z" />
    <glyph glyph-name="glyph315" unicode="&#x1ec2;" horiz-adv-x="1040" 
d="M958 1262c-16 1.33301 -37 1.99902 -63 1.99902c-354 0 -561 -147 -621 -441h684v-170h-694c48.667 -320.667 256.334 -481 623.001 -481c31.333 0 55 0.666992 71 2v-174h-55c-212 0 -373 33.333 -483 100c-234.667 142.667 -352 348.334 -352 617.001
c0 169.333 51.167 317.833 153.5 445.5s236.166 209.167 401.499 244.5c80 16.667 191.667 25 335 25v-170zM397 1517l197 348h178l197 -348h-107l-178 243l-180 -243h-107zM740 2085c0 50.667 20.1689 95.168 60.502 133.501s86.166 57.5 137.499 57.5
c52.667 0 99 -19.5 139 -58.5s60 -84.833 60 -137.5c0 -46 -15 -85.833 -45 -119.5s-69.333 -55.834 -118 -66.501v-67h-88v155c38 0 71 7.66699 99 23c32 18.667 48 43.667 48 75c0 26.667 -9.33301 49.667 -28 69s-41.334 29 -68.001 29c-58 0 -90.667 -31 -98 -93h-99z
" />
    <glyph glyph-name="glyph316" unicode="&#x1ec3;" horiz-adv-x="1110" 
d="M1051 434c-24 -134.667 -77.666 -242.667 -160.999 -324c-89.333 -86.667 -200.333 -130 -333 -130c-138.667 0 -256.334 51 -353.001 153c-95.333 100 -143 219.667 -143 359s48.333 259 145 359s214.334 150 353.001 150c205.333 0 357.666 -102.333 456.999 -307
l-643 -356l-74 133l477 266c-59.333 66 -132.333 99 -219 99c-92 0 -168 -34.333 -228 -103c-56.667 -66 -85 -145.667 -85 -239c0 -92.667 28.667 -172 86 -238c60 -69.333 135.667 -104 227 -104c88.667 0 161 30 217 90c52 55.333 84.667 128.333 98 219zM268.001 1096
l197 348h178l197 -348h-107l-178 243l-180 -243h-107zM611.001 1664c0 50.667 20.1689 95.168 60.502 133.501s86.166 57.5 137.499 57.5c52.667 0 99 -19.5 139 -58.5s60 -84.833 60 -137.5c0 -46 -15 -85.833 -45 -119.5s-69.333 -55.834 -118 -66.501v-67h-88v155
c38 0 71 7.66699 99 23c32 18.667 48 43.667 48 75c0 26.667 -9.33301 49.667 -28 69s-41.334 29 -68.001 29c-58 0 -90.667 -31 -98 -93h-99z" />
    <glyph glyph-name="glyph317" unicode="&#x1ec4;" horiz-adv-x="1040" 
d="M958 1262c-16 1.33301 -37 1.99902 -63 1.99902c-354 0 -561 -147 -621 -441h684v-170h-694c48.667 -320.667 256.334 -481 623.001 -481c31.333 0 55 0.666992 71 2v-174h-55c-212 0 -373 33.333 -483 100c-234.667 142.667 -352 348.334 -352 617.001
c0 169.333 51.167 317.833 153.5 445.5s236.166 209.167 401.499 244.5c80 16.667 191.667 25 335 25v-170zM397 1517l197 348h178l197 -348h-107l-178 243l-180 -243h-107zM1040 2152c-33.333 -128.667 -99.668 -193 -199.001 -193c-23.333 0 -56.5 7.66699 -99.5 23
s-75.833 23 -98.5 23c-45.333 0 -77.666 -21.333 -96.999 -64h-88c30 124 96.333 186 199 186c24 0 57.5 -7.83301 100.5 -23.5s75.5 -23.5 97.5 -23.5c46.667 0 79 24 97 72h88z" />
    <glyph glyph-name="glyph318" unicode="&#x1ec5;" horiz-adv-x="1110" 
d="M1051 434c-24 -134.667 -77.666 -242.667 -160.999 -324c-89.333 -86.667 -200.333 -130 -333 -130c-138.667 0 -256.334 51 -353.001 153c-95.333 100 -143 219.667 -143 359s48.333 259 145 359s214.334 150 353.001 150c205.333 0 357.666 -102.333 456.999 -307
l-643 -356l-74 133l477 266c-59.333 66 -132.333 99 -219 99c-92 0 -168 -34.333 -228 -103c-56.667 -66 -85 -145.667 -85 -239c0 -92.667 28.667 -172 86 -238c60 -69.333 135.667 -104 227 -104c88.667 0 161 30 217 90c52 55.333 84.667 128.333 98 219zM268.001 1096
l197 348h178l197 -348h-107l-178 243l-180 -243h-107zM911.001 1732c-33.333 -128.667 -99.668 -193 -199.001 -193c-23.333 0 -56.5 7.66699 -99.5 23s-75.833 23 -98.5 23c-45.333 0 -77.666 -21.333 -96.999 -64h-88c30 124 96.333 186 199 186
c24 0 57.5 -7.83301 100.5 -23.5s75.5 -23.5 97.5 -23.5c46.667 0 79 24 97 72h88z" />
    <glyph glyph-name="glyph319" unicode="&#x1ec6;" horiz-adv-x="1040" 
d="M958 1262c-16 1.33301 -37 1.99902 -63 1.99902c-354 0 -561 -147 -621 -441h684v-170h-694c48.667 -320.667 256.334 -481 623.001 -481c31.333 0 55 0.666992 71 2v-174h-55c-212 0 -373 33.333 -483 100c-234.667 142.667 -352 348.334 -352 617.001
c0 169.333 51.167 317.833 153.5 445.5s236.166 209.167 401.499 244.5c80 16.667 191.667 25 335 25v-170zM397 1517l197 348h178l197 -348h-107l-178 243l-180 -243h-107zM565 -262.001c0 34 11.333 62.333 34 85s51 34 85 34c33.333 0 61.333 -11.5 84 -34.5
s34 -51.167 34 -84.5c0 -32.667 -11.5 -60.167 -34.5 -82.5s-50.833 -33.5 -83.5 -33.5s-60.667 11.167 -84 33.5s-35 49.833 -35 82.5z" />
    <glyph glyph-name="glyph320" unicode="&#x1ec7;" horiz-adv-x="1110" 
d="M1051 434c-24 -134.667 -77.666 -242.667 -160.999 -324c-89.333 -86.667 -200.333 -130 -333 -130c-138.667 0 -256.334 51 -353.001 153c-95.333 100 -143 219.667 -143 359s48.333 259 145 359s214.334 150 353.001 150c205.333 0 357.666 -102.333 456.999 -307
l-643 -356l-74 133l477 266c-59.333 66 -132.333 99 -219 99c-92 0 -168 -34.333 -228 -103c-56.667 -66 -85 -145.667 -85 -239c0 -92.667 28.667 -172 86 -238c60 -69.333 135.667 -104 227 -104c88.667 0 161 30 217 90c52 55.333 84.667 128.333 98 219zM268.001 1096
l197 348h178l197 -348h-107l-178 243l-180 -243h-107zM438.001 -262c0 34 11.333 62.333 34 85s51 34 85 34c33.333 0 61.333 -11.5 84 -34.5s34 -51.167 34 -84.5c0 -32.667 -11.5 -60.167 -34.5 -82.5s-50.833 -33.5 -83.5 -33.5s-60.667 11.167 -84 33.5
s-35 49.833 -35 82.5z" />
    <glyph glyph-name="glyph321" unicode="&#x1ec8;" horiz-adv-x="465" 
d="M137 0v1432h191v-1432h-191zM47 1776c0 50.667 20.1689 95.168 60.502 133.501s86.166 57.5 137.499 57.5c52.667 0 99 -19.5 139 -58.5s60 -84.833 60 -137.5c0 -46 -15 -85.833 -45 -119.5s-69.333 -55.834 -118 -66.501v-67h-88v155c38 0 71 7.66699 99 23
c32 18.667 48 43.667 48 75c0 26.667 -9.33301 49.667 -28 69s-41.334 29 -68.001 29c-58 0 -90.667 -31 -98 -93h-99z" />
    <glyph glyph-name="glyph322" unicode="&#x1ec9;" horiz-adv-x="418" 
d="M121 0v981h176v-981h-176zM21 1333c0 50.667 20.1689 95.168 60.502 133.501s86.166 57.5 137.499 57.5c52.667 0 99 -19.5 139 -58.5s60 -84.833 60 -137.5c0 -46 -15 -85.833 -45 -119.5s-69.333 -55.834 -118 -66.501v-67h-88v155c38 0 71 7.66699 99 23
c32 18.667 48 43.667 48 75c0 26.667 -9.33301 49.667 -28 69s-41.334 29 -68.001 29c-58 0 -90.667 -31 -98 -93h-99z" />
    <glyph glyph-name="glyph323" unicode="&#x1eca;" horiz-adv-x="465" 
d="M137 0v1432h191v-1432h-191zM117 -262c0 34 11.333 62.333 34 85s51 34 85 34c33.333 0 61.333 -11.5 84 -34.5s34 -51.167 34 -84.5c0 -32.667 -11.5 -60.167 -34.5 -82.5s-50.833 -33.5 -83.5 -33.5s-60.667 11.167 -84 33.5s-35 49.833 -35 82.5z" />
    <glyph glyph-name="glyph324" unicode="&#x1ecb;" horiz-adv-x="418" 
d="M121 0v981h176v-981h-176zM102 1260c0 30 10.333 55.167 31 75.5s46 30.5 76 30.5s55.167 -10.167 75.5 -30.5s30.5 -45.5 30.5 -75.5c0 -30.667 -10 -56.5 -30 -77.5s-45.333 -31.5 -76 -31.5c-30 0 -55.333 10.667 -76 32s-31 47 -31 77zM91 -262
c0 34 11.333 62.333 34 85s51 34 85 34c33.333 0 61.333 -11.5 84 -34.5s34 -51.167 34 -84.5c0 -32.667 -11.5 -60.167 -34.5 -82.5s-50.833 -33.5 -83.5 -33.5s-60.667 11.167 -84 33.5s-35 49.833 -35 82.5z" />
    <glyph glyph-name="glyph325" unicode="&#x1ecc;" horiz-adv-x="1583" 
d="M66 717c0 202.667 70.5 376.5 211.5 521.5s312.833 217.5 515.5 217.5c201.333 0 372.5 -72.667 513.5 -218s211.5 -319 211.5 -521c0 -202.667 -70 -376.667 -210 -522c-142 -146.667 -313.667 -220 -515 -220c-203.333 0 -375.333 72.667 -516 218s-211 320 -211 524z
M260 719c0 -152 50.333 -283 151 -393c104 -113.333 231.333 -170 382 -170c149.333 0 276 57 380 171c100 110 150 240.667 150 392c0 150 -50.333 280.333 -151 391c-104 113.333 -230.333 170 -379 170c-150.667 0 -278 -56.333 -382 -169
c-100.667 -109.333 -151 -240 -151 -392zM673 -262c0 34 11.333 62.333 34 85s51 34 85 34c33.333 0 61.333 -11.5 84 -34.5s34 -51.167 34 -84.5c0 -32.667 -11.5 -60.167 -34.5 -82.5s-50.833 -33.5 -83.5 -33.5s-60.667 11.167 -84 33.5s-35 49.833 -35 82.5z" />
    <glyph glyph-name="glyph326" unicode="&#x1ecd;" 
d="M244 494c0 -92 28.666 -171.333 85.999 -238c60.667 -69.333 136.334 -104 227.001 -104s166.334 34.667 227.001 104c57.333 66.667 86 146 86 238s-28.667 171 -86 237c-60.667 68.667 -136.334 103 -227.001 103s-166 -34.333 -226 -103c-58 -66 -87 -145 -87 -237z
M60.999 492c0 138 48.168 257.001 144.501 357.001s213.5 150 351.5 150c139.333 0 256.833 -49.667 352.5 -149s143.5 -218.666 143.5 -357.999c0 -140.667 -47.333 -260.334 -142 -359.001c-96 -100.667 -214 -151 -354 -151c-138.667 0 -256.334 50.667 -353.001 152
c-95.333 99.333 -143 218.666 -143 357.999zM438 -261.999c0 34 11.333 62.333 34 85s51 34 85 34c33.333 0 61.333 -11.5 84 -34.5s34 -51.167 34 -84.5c0 -32.667 -11.5 -60.167 -34.5 -82.5s-50.833 -33.5 -83.5 -33.5s-60.667 11.167 -84 33.5s-35 49.833 -35 82.5z" />
    <glyph glyph-name="glyph327" unicode="&#x1ece;" horiz-adv-x="1583" 
d="M66 717c0 202.667 70.5 376.5 211.5 521.5s312.833 217.5 515.5 217.5c201.333 0 372.5 -72.667 513.5 -218s211.5 -319 211.5 -521c0 -202.667 -70 -376.667 -210 -522c-142 -146.667 -313.667 -220 -515 -220c-203.333 0 -375.333 72.667 -516 218s-211 320 -211 524z
M260 719c0 -152 50.333 -283 151 -393c104 -113.333 231.333 -170 382 -170c149.333 0 276 57 380 171c100 110 150 240.667 150 392c0 150 -50.333 280.333 -151 391c-104 113.333 -230.333 170 -379 170c-150.667 0 -278 -56.333 -382 -169
c-100.667 -109.333 -151 -240 -151 -392zM612 1776c0 50.667 20.1689 95.168 60.502 133.501s86.166 57.5 137.499 57.5c52.667 0 99 -19.5 139 -58.5s60 -84.833 60 -137.5c0 -46 -15 -85.833 -45 -119.5s-69.333 -55.834 -118 -66.501v-67h-88v155c38 0 71 7.66699 99 23
c32 18.667 48 43.667 48 75c0 26.667 -9.33301 49.667 -28 69s-41.334 29 -68.001 29c-58 0 -90.667 -31 -98 -93h-99z" />
    <glyph glyph-name="glyph328" unicode="&#x1ecf;" 
d="M244 494c0 -92 28.666 -171.333 85.999 -238c60.667 -69.333 136.334 -104 227.001 -104s166.334 34.667 227.001 104c57.333 66.667 86 146 86 238s-28.667 171 -86 237c-60.667 68.667 -136.334 103 -227.001 103s-166 -34.333 -226 -103c-58 -66 -87 -145 -87 -237z
M60.999 492c0 138 48.168 257.001 144.501 357.001s213.5 150 351.5 150c139.333 0 256.833 -49.667 352.5 -149s143.5 -218.666 143.5 -357.999c0 -140.667 -47.333 -260.334 -142 -359.001c-96 -100.667 -214 -151 -354 -151c-138.667 0 -256.334 50.667 -353.001 152
c-95.333 99.333 -143 218.666 -143 357.999zM381 1333c0 50.667 20.1689 95.168 60.502 133.501s86.166 57.5 137.499 57.5c52.667 0 99 -19.5 139 -58.5s60 -84.833 60 -137.5c0 -46 -15 -85.833 -45 -119.5s-69.333 -55.834 -118 -66.501v-67h-88v155
c38 0 71 7.66699 99 23c32 18.667 48 43.667 48 75c0 26.667 -9.33301 49.667 -28 69s-41.334 29 -68.001 29c-58 0 -90.667 -31 -98 -93h-99z" />
    <glyph glyph-name="glyph329" unicode="&#x1ed0;" horiz-adv-x="1583" 
d="M66 717c0 202.667 70.5 376.5 211.5 521.5s312.833 217.5 515.5 217.5c201.333 0 372.5 -72.667 513.5 -218s211.5 -319 211.5 -521c0 -202.667 -70 -376.667 -210 -522c-142 -146.667 -313.667 -220 -515 -220c-203.333 0 -375.333 72.667 -516 218s-211 320 -211 524z
M260 719c0 -152 50.333 -283 151 -393c104 -113.333 231.333 -170 382 -170c149.333 0 276 57 380 171c100 110 150 240.667 150 392c0 150 -50.333 280.333 -151 391c-104 113.333 -230.333 170 -379 170c-150.667 0 -278 -56.333 -382 -169
c-100.667 -109.333 -151 -240 -151 -392zM507 1517l197 348h178l197 -348h-107l-178 243l-180 -243h-107zM549 1891l209 348h178l-281 -348h-106z" />
    <glyph glyph-name="glyph330" unicode="&#x1ed1;" 
d="M244 494c0 -92 28.666 -171.333 85.999 -238c60.667 -69.333 136.334 -104 227.001 -104s166.334 34.667 227.001 104c57.333 66.667 86 146 86 238s-28.667 171 -86 237c-60.667 68.667 -136.334 103 -227.001 103s-166 -34.333 -226 -103c-58 -66 -87 -145 -87 -237z
M60.999 492c0 138 48.168 257.001 144.501 357.001s213.5 150 351.5 150c139.333 0 256.833 -49.667 352.5 -149s143.5 -218.666 143.5 -357.999c0 -140.667 -47.333 -260.334 -142 -359.001c-96 -100.667 -214 -151 -354 -151c-138.667 0 -256.334 50.667 -353.001 152
c-95.333 99.333 -143 218.666 -143 357.999zM270 1096l197 348h178l197 -348h-107l-178 243l-180 -243h-107zM312 1469l209 348h178l-281 -348h-106z" />
    <glyph glyph-name="glyph331" unicode="&#x1ed2;" horiz-adv-x="1583" 
d="M66 717c0 202.667 70.5 376.5 211.5 521.5s312.833 217.5 515.5 217.5c201.333 0 372.5 -72.667 513.5 -218s211.5 -319 211.5 -521c0 -202.667 -70 -376.667 -210 -522c-142 -146.667 -313.667 -220 -515 -220c-203.333 0 -375.333 72.667 -516 218s-211 320 -211 524z
M260 719c0 -152 50.333 -283 151 -393c104 -113.333 231.333 -170 382 -170c149.333 0 276 57 380 171c100 110 150 240.667 150 392c0 150 -50.333 280.333 -151 391c-104 113.333 -230.333 170 -379 170c-150.667 0 -278 -56.333 -382 -169
c-100.667 -109.333 -151 -240 -151 -392zM507 1517l197 348h178l197 -348h-107l-178 243l-180 -243h-107zM1042 1891h-106l-281 348h178z" />
    <glyph glyph-name="glyph332" unicode="&#x1ed3;" 
d="M244 494c0 -92 28.666 -171.333 85.999 -238c60.667 -69.333 136.334 -104 227.001 -104s166.334 34.667 227.001 104c57.333 66.667 86 146 86 238s-28.667 171 -86 237c-60.667 68.667 -136.334 103 -227.001 103s-166 -34.333 -226 -103c-58 -66 -87 -145 -87 -237z
M60.999 492c0 138 48.168 257.001 144.501 357.001s213.5 150 351.5 150c139.333 0 256.833 -49.667 352.5 -149s143.5 -218.666 143.5 -357.999c0 -140.667 -47.333 -260.334 -142 -359.001c-96 -100.667 -214 -151 -354 -151c-138.667 0 -256.334 50.667 -353.001 152
c-95.333 99.333 -143 218.666 -143 357.999zM270 1096l197 348h178l197 -348h-107l-178 243l-180 -243h-107zM805 1470h-106l-281 348h178z" />
    <glyph glyph-name="glyph333" unicode="&#x1ed4;" horiz-adv-x="1583" 
d="M66 717c0 202.667 70.5 376.5 211.5 521.5s312.833 217.5 515.5 217.5c201.333 0 372.5 -72.667 513.5 -218s211.5 -319 211.5 -521c0 -202.667 -70 -376.667 -210 -522c-142 -146.667 -313.667 -220 -515 -220c-203.333 0 -375.333 72.667 -516 218s-211 320 -211 524z
M260 719c0 -152 50.333 -283 151 -393c104 -113.333 231.333 -170 382 -170c149.333 0 276 57 380 171c100 110 150 240.667 150 392c0 150 -50.333 280.333 -151 391c-104 113.333 -230.333 170 -379 170c-150.667 0 -278 -56.333 -382 -169
c-100.667 -109.333 -151 -240 -151 -392zM507 1517l197 348h178l197 -348h-107l-178 243l-180 -243h-107zM850 2085c0 50.667 20.1689 95.167 60.502 133.5s86.166 57.5 137.499 57.5c52.667 0 99 -19.5 139 -58.5s60 -84.833 60 -137.5c0 -46 -15 -85.833 -45 -119.5
s-69.333 -55.834 -118 -66.501v-67h-88v155c38 0 71 7.66699 99 23c32 18.667 48 43.667 48 75.001c0 26.667 -9.33301 49.667 -28 69s-41.334 29 -68.001 29c-58 0 -90.667 -31 -98 -93h-99z" />
    <glyph glyph-name="glyph334" unicode="&#x1ed5;" 
d="M244 494c0 -92 28.666 -171.333 85.999 -238c60.667 -69.333 136.334 -104 227.001 -104s166.334 34.667 227.001 104c57.333 66.667 86 146 86 238s-28.667 171 -86 237c-60.667 68.667 -136.334 103 -227.001 103s-166 -34.333 -226 -103c-58 -66 -87 -145 -87 -237z
M60.999 492c0 138 48.168 257.001 144.501 357.001s213.5 150 351.5 150c139.333 0 256.833 -49.667 352.5 -149s143.5 -218.666 143.5 -357.999c0 -140.667 -47.333 -260.334 -142 -359.001c-96 -100.667 -214 -151 -354 -151c-138.667 0 -256.334 50.667 -353.001 152
c-95.333 99.333 -143 218.666 -143 357.999zM270 1096l197 348h178l197 -348h-107l-178 243l-180 -243h-107zM613 1664c0 50.667 20.1689 95.168 60.502 133.501s86.166 57.5 137.499 57.5c52.667 0 99 -19.5 139 -58.5s60 -84.833 60 -137.5c0 -46 -15 -85.833 -45 -119.5
s-69.333 -55.834 -118 -66.501v-67h-88v155c38 0 71 7.66699 99 23c32 18.667 48 43.667 48 75c0 26.667 -9.33301 49.667 -28 69s-41.334 29 -68.001 29c-58 0 -90.667 -31 -98 -93h-99z" />
    <glyph glyph-name="glyph335" unicode="&#x1ed6;" horiz-adv-x="1583" 
d="M66 717c0 202.667 70.5 376.5 211.5 521.5s312.833 217.5 515.5 217.5c201.333 0 372.5 -72.667 513.5 -218s211.5 -319 211.5 -521c0 -202.667 -70 -376.667 -210 -522c-142 -146.667 -313.667 -220 -515 -220c-203.333 0 -375.333 72.667 -516 218s-211 320 -211 524z
M260 719c0 -152 50.333 -283 151 -393c104 -113.333 231.333 -170 382 -170c149.333 0 276 57 380 171c100 110 150 240.667 150 392c0 150 -50.333 280.333 -151 391c-104 113.333 -230.333 170 -379 170c-150.667 0 -278 -56.333 -382 -169
c-100.667 -109.333 -151 -240 -151 -392zM507 1517l197 348h178l197 -348h-107l-178 243l-180 -243h-107zM1150 2152c-33.333 -128.667 -99.668 -193 -199.001 -193c-23.333 0 -56.5 7.66699 -99.5 23s-75.833 23 -98.5 23c-45.333 0 -77.666 -21.333 -96.999 -64h-88
c30 124 96.333 186 199 186c24 0 57.5 -7.83301 100.5 -23.5s75.5 -23.5 97.5 -23.5c46.667 0 79 24 97 72h88z" />
    <glyph glyph-name="glyph336" unicode="&#x1ed7;" 
d="M244 494c0 -92 28.666 -171.333 85.999 -238c60.667 -69.333 136.334 -104 227.001 -104s166.334 34.667 227.001 104c57.333 66.667 86 146 86 238s-28.667 171 -86 237c-60.667 68.667 -136.334 103 -227.001 103s-166 -34.333 -226 -103c-58 -66 -87 -145 -87 -237z
M60.999 492c0 138 48.168 257.001 144.501 357.001s213.5 150 351.5 150c139.333 0 256.833 -49.667 352.5 -149s143.5 -218.666 143.5 -357.999c0 -140.667 -47.333 -260.334 -142 -359.001c-96 -100.667 -214 -151 -354 -151c-138.667 0 -256.334 50.667 -353.001 152
c-95.333 99.333 -143 218.666 -143 357.999zM270 1096l197 348h178l197 -348h-107l-178 243l-180 -243h-107zM913 1732c-33.333 -128.667 -99.668 -193 -199.001 -193c-23.333 0 -56.5 7.66699 -99.5 23s-75.833 23 -98.5 23c-45.333 0 -77.666 -21.333 -96.999 -64h-88
c30 124 96.333 186 199 186c24 0 57.5 -7.83301 100.5 -23.5s75.5 -23.5 97.5 -23.5c46.667 0 79 24 97 72h88z" />
    <glyph glyph-name="glyph337" unicode="&#x1ed8;" horiz-adv-x="1583" 
d="M66 717c0 202.667 70.5 376.5 211.5 521.5s312.833 217.5 515.5 217.5c201.333 0 372.5 -72.667 513.5 -218s211.5 -319 211.5 -521c0 -202.667 -70 -376.667 -210 -522c-142 -146.667 -313.667 -220 -515 -220c-203.333 0 -375.333 72.667 -516 218s-211 320 -211 524z
M260 719c0 -152 50.333 -283 151 -393c104 -113.333 231.333 -170 382 -170c149.333 0 276 57 380 171c100 110 150 240.667 150 392c0 150 -50.333 280.333 -151 391c-104 113.333 -230.333 170 -379 170c-150.667 0 -278 -56.333 -382 -169
c-100.667 -109.333 -151 -240 -151 -392zM507 1517l197 348h178l197 -348h-107l-178 243l-180 -243h-107zM673 -262c0 34 11.333 62.333 34 85s51 34 85 34c33.333 0 61.333 -11.5 84 -34.5s34 -51.167 34 -84.5c0 -32.667 -11.5 -60.167 -34.5 -82.5
s-50.833 -33.5 -83.5 -33.5s-60.667 11.167 -84 33.5s-35 49.833 -35 82.5z" />
    <glyph glyph-name="glyph338" unicode="&#x1ed9;" 
d="M244 494c0 -92 28.666 -171.333 85.999 -238c60.667 -69.333 136.334 -104 227.001 -104s166.334 34.667 227.001 104c57.333 66.667 86 146 86 238s-28.667 171 -86 237c-60.667 68.667 -136.334 103 -227.001 103s-166 -34.333 -226 -103c-58 -66 -87 -145 -87 -237z
M60.999 492c0 138 48.168 257.001 144.501 357.001s213.5 150 351.5 150c139.333 0 256.833 -49.667 352.5 -149s143.5 -218.666 143.5 -357.999c0 -140.667 -47.333 -260.334 -142 -359.001c-96 -100.667 -214 -151 -354 -151c-138.667 0 -256.334 50.667 -353.001 152
c-95.333 99.333 -143 218.666 -143 357.999zM270 1096l197 348h178l197 -348h-107l-178 243l-180 -243h-107zM438 -261.999c0 34 11.333 62.333 34 85s51 34 85 34c33.333 0 61.333 -11.5 84 -34.5s34 -51.167 34 -84.5c0 -32.667 -11.5 -60.167 -34.5 -82.5
s-50.833 -33.5 -83.5 -33.5s-60.667 11.167 -84 33.5s-35 49.833 -35 82.5z" />
    <glyph glyph-name="glyph339" unicode="&#x1eda;" horiz-adv-x="1583" 
d="M66 717c0 202.667 70.5 376.5 211.5 521.5s312.833 217.5 515.5 217.5c201.333 0 372.5 -72.667 513.5 -218s211.5 -319 211.5 -521c0 -202.667 -70 -376.667 -210 -522c-142 -146.667 -313.667 -220 -515 -220c-203.333 0 -375.333 72.667 -516 218s-211 320 -211 524z
M260 719c0 -152 50.333 -283 151 -393c104 -113.333 231.333 -170 382 -170c149.333 0 276 57 380 171c100 110 150 240.667 150 392c0 150 -50.333 280.333 -151 391c-104 113.333 -230.333 170 -379 170c-150.667 0 -278 -56.333 -382 -169
c-100.667 -109.333 -151 -240 -151 -392zM1208 1177l162 371h171l-201 -371h-132zM656 1567l209 348h178l-281 -348h-106z" />
    <glyph glyph-name="glyph340" unicode="&#x1edb;" 
d="M244 494c0 -92 28.666 -171.333 85.999 -238c60.667 -69.333 136.334 -104 227.001 -104s166.334 34.667 227.001 104c57.333 66.667 86 146 86 238s-28.667 171 -86 237c-60.667 68.667 -136.334 103 -227.001 103s-166 -34.333 -226 -103c-58 -66 -87 -145 -87 -237z
M60.999 492c0 138 48.168 257.001 144.501 357.001s213.5 150 351.5 150c139.333 0 256.833 -49.667 352.5 -149s143.5 -218.666 143.5 -357.999c0 -140.667 -47.333 -260.334 -142 -359.001c-96 -100.667 -214 -151 -354 -151c-138.667 0 -256.334 50.667 -353.001 152
c-95.333 99.333 -143 218.666 -143 357.999zM825 718.001l162 371h171l-201 -371h-132zM420 1096l209 348h178l-281 -348h-106z" />
    <glyph glyph-name="glyph341" unicode="&#x1edc;" horiz-adv-x="1583" 
d="M66 717c0 202.667 70.5 376.5 211.5 521.5s312.833 217.5 515.5 217.5c201.333 0 372.5 -72.667 513.5 -218s211.5 -319 211.5 -521c0 -202.667 -70 -376.667 -210 -522c-142 -146.667 -313.667 -220 -515 -220c-203.333 0 -375.333 72.667 -516 218s-211 320 -211 524z
M260 719c0 -152 50.333 -283 151 -393c104 -113.333 231.333 -170 382 -170c149.333 0 276 57 380 171c100 110 150 240.667 150 392c0 150 -50.333 280.333 -151 391c-104 113.333 -230.333 170 -379 170c-150.667 0 -278 -56.333 -382 -169
c-100.667 -109.333 -151 -240 -151 -392zM1208 1177l162 371h171l-201 -371h-132zM930 1567h-106l-281 348h178z" />
    <glyph glyph-name="glyph342" unicode="&#x1edd;" 
d="M244 494c0 -92 28.666 -171.333 85.999 -238c60.667 -69.333 136.334 -104 227.001 -104s166.334 34.667 227.001 104c57.333 66.667 86 146 86 238s-28.667 171 -86 237c-60.667 68.667 -136.334 103 -227.001 103s-166 -34.333 -226 -103c-58 -66 -87 -145 -87 -237z
M60.999 492c0 138 48.168 257.001 144.501 357.001s213.5 150 351.5 150c139.333 0 256.833 -49.667 352.5 -149s143.5 -218.666 143.5 -357.999c0 -140.667 -47.333 -260.334 -142 -359.001c-96 -100.667 -214 -151 -354 -151c-138.667 0 -256.334 50.667 -353.001 152
c-95.333 99.333 -143 218.666 -143 357.999zM825 718.001l162 371h171l-201 -371h-132zM694 1096h-106l-281 348h178z" />
    <glyph glyph-name="glyph343" unicode="&#x1ede;" horiz-adv-x="1583" 
d="M66 717c0 202.667 70.5 376.5 211.5 521.5s312.833 217.5 515.5 217.5c201.333 0 372.5 -72.667 513.5 -218s211.5 -319 211.5 -521c0 -202.667 -70 -376.667 -210 -522c-142 -146.667 -313.667 -220 -515 -220c-203.333 0 -375.333 72.667 -516 218s-211 320 -211 524z
M260 719c0 -152 50.333 -283 151 -393c104 -113.333 231.333 -170 382 -170c149.333 0 276 57 380 171c100 110 150 240.667 150 392c0 150 -50.333 280.333 -151 391c-104 113.333 -230.333 170 -379 170c-150.667 0 -278 -56.333 -382 -169
c-100.667 -109.333 -151 -240 -151 -392zM1208 1177l162 371h171l-201 -371h-132zM612 1776c0 50.667 20.1689 95.168 60.502 133.501s86.166 57.5 137.499 57.5c52.667 0 99 -19.5 139 -58.5s60 -84.833 60 -137.5c0 -46 -15 -85.833 -45 -119.5
s-69.333 -55.834 -118 -66.501v-67h-88v155c38 0 71 7.66699 99 23c32 18.667 48 43.667 48 75c0 26.667 -9.33301 49.667 -28 69s-41.334 29 -68.001 29c-58 0 -90.667 -31 -98 -93h-99z" />
    <glyph glyph-name="glyph344" unicode="&#x1edf;" 
d="M244 494c0 -92 28.666 -171.333 85.999 -238c60.667 -69.333 136.334 -104 227.001 -104s166.334 34.667 227.001 104c57.333 66.667 86 146 86 238s-28.667 171 -86 237c-60.667 68.667 -136.334 103 -227.001 103s-166 -34.333 -226 -103c-58 -66 -87 -145 -87 -237z
M60.999 492c0 138 48.168 257.001 144.501 357.001s213.5 150 351.5 150c139.333 0 256.833 -49.667 352.5 -149s143.5 -218.666 143.5 -357.999c0 -140.667 -47.333 -260.334 -142 -359.001c-96 -100.667 -214 -151 -354 -151c-138.667 0 -256.334 50.667 -353.001 152
c-95.333 99.333 -143 218.666 -143 357.999zM825 718.001l162 371h171l-201 -371h-132zM381 1333c0 50.667 20.1689 95.168 60.502 133.501s86.166 57.5 137.499 57.5c52.667 0 99 -19.5 139 -58.5s60 -84.833 60 -137.5c0 -46 -15 -85.833 -45 -119.5
s-69.333 -55.834 -118 -66.501v-67h-88v155c38 0 71 7.66699 99 23c32 18.667 48 43.667 48 75c0 26.667 -9.33301 49.667 -28 69s-41.334 29 -68.001 29c-58 0 -90.667 -31 -98 -93h-99z" />
    <glyph glyph-name="glyph345" unicode="&#x1ee0;" horiz-adv-x="1583" 
d="M66 717c0 202.667 70.5 376.5 211.5 521.5s312.833 217.5 515.5 217.5c201.333 0 372.5 -72.667 513.5 -218s211.5 -319 211.5 -521c0 -202.667 -70 -376.667 -210 -522c-142 -146.667 -313.667 -220 -515 -220c-203.333 0 -375.333 72.667 -516 218s-211 320 -211 524z
M260 719c0 -152 50.333 -283 151 -393c104 -113.333 231.333 -170 382 -170c149.333 0 276 57 380 171c100 110 150 240.667 150 392c0 150 -50.333 280.333 -151 391c-104 113.333 -230.333 170 -379 170c-150.667 0 -278 -56.333 -382 -169
c-100.667 -109.333 -151 -240 -151 -392zM1208 1177l162 371h171l-201 -371h-132zM1084 1835c-33.333 -128.667 -99.668 -193 -199.001 -193c-23.333 0 -56.5 7.66699 -99.5 23s-75.833 23 -98.5 23c-45.333 0 -77.666 -21.333 -96.999 -64h-88c30 124 96.333 186 199 186
c24 0 57.5 -7.83301 100.5 -23.5s75.5 -23.5 97.5 -23.5c46.667 0 79 24 97 72h88z" />
    <glyph glyph-name="glyph346" unicode="&#x1ee1;" 
d="M244 494c0 -92 28.666 -171.333 85.999 -238c60.667 -69.333 136.334 -104 227.001 -104s166.334 34.667 227.001 104c57.333 66.667 86 146 86 238s-28.667 171 -86 237c-60.667 68.667 -136.334 103 -227.001 103s-166 -34.333 -226 -103c-58 -66 -87 -145 -87 -237z
M60.999 492c0 138 48.168 257.001 144.501 357.001s213.5 150 351.5 150c139.333 0 256.833 -49.667 352.5 -149s143.5 -218.666 143.5 -357.999c0 -140.667 -47.333 -260.334 -142 -359.001c-96 -100.667 -214 -151 -354 -151c-138.667 0 -256.334 50.667 -353.001 152
c-95.333 99.333 -143 218.666 -143 357.999zM825 718.001l162 371h171l-201 -371h-132zM848 1364c-33.333 -128.667 -99.668 -193 -199.001 -193c-23.333 0 -56.5 7.66699 -99.5 23s-75.833 23 -98.5 23c-45.333 0 -77.666 -21.333 -96.999 -64h-88
c30 124 96.333 186 199 186c24 0 57.5 -7.83301 100.5 -23.5s75.5 -23.5 97.5 -23.5c46.667 0 79 24 97 72h88z" />
    <glyph glyph-name="glyph347" unicode="&#x1ee2;" horiz-adv-x="1583" 
d="M66 717c0 202.667 70.5 376.5 211.5 521.5s312.833 217.5 515.5 217.5c201.333 0 372.5 -72.667 513.5 -218s211.5 -319 211.5 -521c0 -202.667 -70 -376.667 -210 -522c-142 -146.667 -313.667 -220 -515 -220c-203.333 0 -375.333 72.667 -516 218s-211 320 -211 524z
M260 719c0 -152 50.333 -283 151 -393c104 -113.333 231.333 -170 382 -170c149.333 0 276 57 380 171c100 110 150 240.667 150 392c0 150 -50.333 280.333 -151 391c-104 113.333 -230.333 170 -379 170c-150.667 0 -278 -56.333 -382 -169
c-100.667 -109.333 -151 -240 -151 -392zM1208 1177l162 371h171l-201 -371h-132zM673 -262c0 34 11.333 62.333 34 85s51 34 85 34c33.333 0 61.333 -11.5 84 -34.5s34 -51.167 34 -84.5c0 -32.667 -11.5 -60.167 -34.5 -82.5s-50.833 -33.5 -83.5 -33.5
s-60.667 11.167 -84 33.5s-35 49.833 -35 82.5z" />
    <glyph glyph-name="glyph348" unicode="&#x1ee3;" 
d="M244 494c0 -92 28.666 -171.333 85.999 -238c60.667 -69.333 136.334 -104 227.001 -104s166.334 34.667 227.001 104c57.333 66.667 86 146 86 238s-28.667 171 -86 237c-60.667 68.667 -136.334 103 -227.001 103s-166 -34.333 -226 -103c-58 -66 -87 -145 -87 -237z
M60.999 492c0 138 48.168 257.001 144.501 357.001s213.5 150 351.5 150c139.333 0 256.833 -49.667 352.5 -149s143.5 -218.666 143.5 -357.999c0 -140.667 -47.333 -260.334 -142 -359.001c-96 -100.667 -214 -151 -354 -151c-138.667 0 -256.334 50.667 -353.001 152
c-95.333 99.333 -143 218.666 -143 357.999zM825 718.001l162 371h171l-201 -371h-132zM438 -261.999c0 34 11.333 62.333 34 85s51 34 85 34c33.333 0 61.333 -11.5 84 -34.5s34 -51.167 34 -84.5c0 -32.667 -11.5 -60.167 -34.5 -82.5s-50.833 -33.5 -83.5 -33.5
s-60.667 11.167 -84 33.5s-35 49.833 -35 82.5z" />
    <glyph glyph-name="glyph349" unicode="&#x1ee4;" horiz-adv-x="1229" 
d="M307 1432v-891c0 -256.667 102.333 -385 307 -385c205.333 0 308 128.333 308 385v891h190v-900c0 -162 -41.667 -293.333 -125 -394c-90 -108.667 -214.333 -163 -373 -163s-282.667 54.333 -372 163c-83.333 100.667 -125 232 -125 394v900h190zM496 -262
c0 34 11.333 62.333 34 85s51 34 85 34c33.333 0 61.333 -11.5 84 -34.5s34 -51.167 34 -84.5c0 -32.667 -11.5 -60.167 -34.5 -82.5s-50.833 -33.5 -83.5 -33.5s-60.667 11.167 -84 33.5s-35 49.833 -35 82.5z" />
    <glyph glyph-name="glyph350" unicode="&#x1ee5;" horiz-adv-x="1049" 
d="M940 981v-534.999c0 -136 -35 -246 -105 -330c-74.667 -89.333 -179 -134 -313 -134c-133.333 0 -237.333 45 -312 135c-69.333 83.333 -104 193 -104 329v535h175v-567c0 -74.667 21.667 -136.334 65 -185.001c44.667 -51.333 104 -77 178 -77s133.333 25.333 178 76
c42.667 48.667 64 110.667 64 186v567h174zM408 -261.999c0 34 11.333 62.333 34 85s51 34 85 34c33.333 0 61.333 -11.5 84 -34.5s34 -51.167 34 -84.5c0 -32.667 -11.5 -60.167 -34.5 -82.5s-50.833 -33.5 -83.5 -33.5s-60.667 11.167 -84 33.5s-35 49.833 -35 82.5z" />
    <glyph glyph-name="glyph351" unicode="&#x1ee6;" horiz-adv-x="1229" 
d="M307 1432v-891c0 -256.667 102.333 -385 307 -385c205.333 0 308 128.333 308 385v891h190v-900c0 -162 -41.667 -293.333 -125 -394c-90 -108.667 -214.333 -163 -373 -163s-282.667 54.333 -372 163c-83.333 100.667 -125 232 -125 394v900h190zM428 1776
c0 50.667 20.1689 95.168 60.502 133.501s86.166 57.5 137.499 57.5c52.667 0 99 -19.5 139 -58.5s60 -84.833 60 -137.5c0 -46 -15 -85.833 -45 -119.5s-69.333 -55.834 -118 -66.501v-67h-88v155c38 0 71 7.66699 99 23c32 18.667 48 43.667 48 75
c0 26.667 -9.33301 49.667 -28 69s-41.334 29 -68.001 29c-58 0 -90.667 -31 -98 -93h-99z" />
    <glyph glyph-name="glyph352" unicode="&#x1ee7;" horiz-adv-x="1049" 
d="M940 981v-534.999c0 -136 -35 -246 -105 -330c-74.667 -89.333 -179 -134 -313 -134c-133.333 0 -237.333 45 -312 135c-69.333 83.333 -104 193 -104 329v535h175v-567c0 -74.667 21.667 -136.334 65 -185.001c44.667 -51.333 104 -77 178 -77s133.333 25.333 178 76
c42.667 48.667 64 110.667 64 186v567h174zM336 1333c0 50.667 20.1689 95.168 60.502 133.501s86.166 57.5 137.499 57.5c52.667 0 99 -19.5 139 -58.5s60 -84.833 60 -137.5c0 -46 -15 -85.833 -45 -119.5s-69.333 -55.834 -118 -66.501v-67h-88v155
c38 0 71 7.66699 99 23c32 18.667 48 43.667 48 75c0 26.667 -9.33301 49.667 -28 69s-41.334 29 -68.001 29c-58 0 -90.667 -31 -98 -93h-99z" />
    <glyph glyph-name="glyph353" unicode="&#x1ee8;" horiz-adv-x="1277" 
d="M307 1432v-891c0 -256.667 102.333 -385 307 -385c205.333 0 308 128.333 308 385v891h190v-900c0 -162 -41.667 -293.333 -125 -394c-90 -108.667 -214.333 -163 -373 -163s-282.667 54.333 -372 163c-83.333 100.667 -125 232 -125 394v900h190zM1000 1177l162 371h171
l-201 -371h-132zM477 1567l209 348h178l-281 -348h-106z" />
    <glyph glyph-name="glyph354" unicode="&#x1ee9;" horiz-adv-x="1099" 
d="M940 981v-534.999c0 -136 -35 -246 -105 -330c-74.667 -89.333 -179 -134 -313 -134c-133.333 0 -237.333 45 -312 135c-69.333 83.333 -104 193 -104 329v535h175v-567c0 -74.667 21.667 -136.334 65 -185.001c44.667 -51.333 104 -77 178 -77s133.333 25.333 178 76
c42.667 48.667 64 110.667 64 186v567h174zM825 718.001l162 371h171l-201 -371h-132zM387 1096l209 348h178l-281 -348h-106z" />
    <glyph glyph-name="glyph355" unicode="&#x1eea;" horiz-adv-x="1277" 
d="M307 1432v-891c0 -256.667 102.333 -385 307 -385c205.333 0 308 128.333 308 385v891h190v-900c0 -162 -41.667 -293.333 -125 -394c-90 -108.667 -214.333 -163 -373 -163s-282.667 54.333 -372 163c-83.333 100.667 -125 232 -125 394v900h190zM1000 1177l162 371h171
l-201 -371h-132zM751 1567h-106l-281 348h178z" />
    <glyph glyph-name="glyph356" unicode="&#x1eeb;" horiz-adv-x="1099" 
d="M940 981v-534.999c0 -136 -35 -246 -105 -330c-74.667 -89.333 -179 -134 -313 -134c-133.333 0 -237.333 45 -312 135c-69.333 83.333 -104 193 -104 329v535h175v-567c0 -74.667 21.667 -136.334 65 -185.001c44.667 -51.333 104 -77 178 -77s133.333 25.333 178 76
c42.667 48.667 64 110.667 64 186v567h174zM825 718.001l162 371h171l-201 -371h-132zM661 1096h-106l-281 348h178z" />
    <glyph glyph-name="glyph357" unicode="&#x1eec;" horiz-adv-x="1277" 
d="M307 1432v-891c0 -256.667 102.333 -385 307 -385c205.333 0 308 128.333 308 385v891h190v-900c0 -162 -41.667 -293.333 -125 -394c-90 -108.667 -214.333 -163 -373 -163s-282.667 54.333 -372 163c-83.333 100.667 -125 232 -125 394v900h190zM1000 1177l162 371h171
l-201 -371h-132zM428 1776c0 50.667 20.1689 95.168 60.502 133.501s86.166 57.5 137.499 57.5c52.667 0 99 -19.5 139 -58.5s60 -84.833 60 -137.5c0 -46 -15 -85.833 -45 -119.5s-69.333 -55.834 -118 -66.501v-67h-88v155c38 0 71 7.66699 99 23
c32 18.667 48 43.667 48 75c0 26.667 -9.33301 49.667 -28 69s-41.334 29 -68.001 29c-58 0 -90.667 -31 -98 -93h-99z" />
    <glyph glyph-name="glyph358" unicode="&#x1eed;" horiz-adv-x="1099" 
d="M940 981v-534.999c0 -136 -35 -246 -105 -330c-74.667 -89.333 -179 -134 -313 -134c-133.333 0 -237.333 45 -312 135c-69.333 83.333 -104 193 -104 329v535h175v-567c0 -74.667 21.667 -136.334 65 -185.001c44.667 -51.333 104 -77 178 -77s133.333 25.333 178 76
c42.667 48.667 64 110.667 64 186v567h174zM825 718.001l162 371h171l-201 -371h-132zM336 1333c0 50.667 20.1689 95.168 60.502 133.501s86.166 57.5 137.499 57.5c52.667 0 99 -19.5 139 -58.5s60 -84.833 60 -137.5c0 -46 -15 -85.833 -45 -119.5
s-69.333 -55.834 -118 -66.501v-67h-88v155c38 0 71 7.66699 99 23c32 18.667 48 43.667 48 75c0 26.667 -9.33301 49.667 -28 69s-41.334 29 -68.001 29c-58 0 -90.667 -31 -98 -93h-99z" />
    <glyph glyph-name="glyph359" unicode="&#x1eee;" horiz-adv-x="1277" 
d="M307 1432v-891c0 -256.667 102.333 -385 307 -385c205.333 0 308 128.333 308 385v891h190v-900c0 -162 -41.667 -293.333 -125 -394c-90 -108.667 -214.333 -163 -373 -163s-282.667 54.333 -372 163c-83.333 100.667 -125 232 -125 394v900h190zM1000 1177l162 371h171
l-201 -371h-132zM914 1835c-33.333 -128.667 -99.668 -193 -199.001 -193c-23.333 0 -56.5 7.66699 -99.5 23s-75.833 23 -98.5 23c-45.333 0 -77.666 -21.333 -96.999 -64h-88c30 124 96.333 186 199 186c24 0 57.5 -7.83301 100.5 -23.5s75.5 -23.5 97.5 -23.5
c46.667 0 79 24 97 72h88z" />
    <glyph glyph-name="glyph360" unicode="&#x1eef;" horiz-adv-x="1099" 
d="M940 981v-534.999c0 -136 -35 -246 -105 -330c-74.667 -89.333 -179 -134 -313 -134c-133.333 0 -237.333 45 -312 135c-69.333 83.333 -104 193 -104 329v535h175v-567c0 -74.667 21.667 -136.334 65 -185.001c44.667 -51.333 104 -77 178 -77s133.333 25.333 178 76
c42.667 48.667 64 110.667 64 186v567h174zM825 718.001l162 371h171l-201 -371h-132zM818 1364c-33.333 -128.667 -99.668 -193 -199.001 -193c-23.333 0 -56.5 7.66699 -99.5 23s-75.833 23 -98.5 23c-45.333 0 -77.666 -21.333 -96.999 -64h-88
c30 124 96.333 186 199 186c24 0 57.5 -7.83301 100.5 -23.5s75.5 -23.5 97.5 -23.5c46.667 0 79 24 97 72h88z" />
    <glyph glyph-name="glyph361" unicode="&#x1ef0;" horiz-adv-x="1277" 
d="M307 1432v-891c0 -256.667 102.333 -385 307 -385c205.333 0 308 128.333 308 385v891h190v-900c0 -162 -41.667 -293.333 -125 -394c-90 -108.667 -214.333 -163 -373 -163s-282.667 54.333 -372 163c-83.333 100.667 -125 232 -125 394v900h190zM1000 1177l162 371h171
l-201 -371h-132zM496 -262c0 34 11.333 62.333 34 85s51 34 85 34c33.333 0 61.333 -11.5 84 -34.5s34 -51.167 34 -84.5c0 -32.667 -11.5 -60.167 -34.5 -82.5s-50.833 -33.5 -83.5 -33.5s-60.667 11.167 -84 33.5s-35 49.833 -35 82.5z" />
    <glyph glyph-name="glyph362" unicode="&#x1ef1;" horiz-adv-x="1099" 
d="M940 981v-534.999c0 -136 -35 -246 -105 -330c-74.667 -89.333 -179 -134 -313 -134c-133.333 0 -237.333 45 -312 135c-69.333 83.333 -104 193 -104 329v535h175v-567c0 -74.667 21.667 -136.334 65 -185.001c44.667 -51.333 104 -77 178 -77s133.333 25.333 178 76
c42.667 48.667 64 110.667 64 186v567h174zM825 718.001l162 371h171l-201 -371h-132zM408 -261.999c0 34 11.333 62.333 34 85s51 34 85 34c33.333 0 61.333 -11.5 84 -34.5s34 -51.167 34 -84.5c0 -32.667 -11.5 -60.167 -34.5 -82.5s-50.833 -33.5 -83.5 -33.5
s-60.667 11.167 -84 33.5s-35 49.833 -35 82.5z" />
    <glyph glyph-name="glyph363" unicode="&#x1ef2;" horiz-adv-x="1110" 
d="M461 0v549c-238 60.667 -357 225 -357 493v390h191v-392c0 -216.667 86.667 -325 260 -325s260 108.333 260 325v392h191v-390c0 -268 -119 -432.333 -357 -493v-549h-188zM671 1567h-106l-281 348h178z" />
    <glyph glyph-name="glyph364" unicode="&#x1ef3;" horiz-adv-x="1049" 
d="M940 981v-534.999c0 -250 -110 -402 -330 -456v-426h-176v426c-218.667 54 -328 206 -328 456v535h175v-567c0 -74.667 21.667 -136.334 65 -185.001c44.667 -51.333 104 -77 178 -77s133.333 25.333 178 76c42.667 48.667 64 110.667 64 186v567h174zM661 1096h-106
l-281 348h178z" />
    <glyph glyph-name="glyph365" unicode="&#x1ef4;" horiz-adv-x="1110" 
d="M461 0v549c-238 60.667 -357 225 -357 493v390h191v-392c0 -216.667 86.667 -325 260 -325s260 108.333 260 325v392h191v-390c0 -268 -119 -432.333 -357 -493v-549h-188zM443 -262c0 34 11.333 62.333 34 85s51 34 85 34c33.333 0 61.333 -11.5 84 -34.5
s34 -51.167 34 -84.5c0 -32.667 -11.5 -60.167 -34.5 -82.5s-50.833 -33.5 -83.5 -33.5s-60.667 11.167 -84 33.5s-35 49.833 -35 82.5z" />
    <glyph glyph-name="glyph366" unicode="&#x1ef5;" horiz-adv-x="1049" 
d="M940 981v-534.999c0 -250 -110 -402 -330 -456v-426h-176v426c-218.667 54 -328 206 -328 456v535h175v-567c0 -74.667 21.667 -136.334 65 -185.001c44.667 -51.333 104 -77 178 -77s133.333 25.333 178 76c42.667 48.667 64 110.667 64 186v567h174zM666 -261.999
c0 34 11.333 62.333 34 85s51 34 85 34c33.333 0 61.333 -11.5 84 -34.5s34 -51.167 34 -84.5c0 -32.667 -11.5 -60.167 -34.5 -82.5s-50.833 -33.5 -83.5 -33.5s-60.667 11.167 -84 33.5s-35 49.833 -35 82.5z" />
    <glyph glyph-name="glyph367" unicode="&#x1ef6;" horiz-adv-x="1110" 
d="M461 0v549c-238 60.667 -357 225 -357 493v390h191v-392c0 -216.667 86.667 -325 260 -325s260 108.333 260 325v392h191v-390c0 -268 -119 -432.333 -357 -493v-549h-188zM368 1776c0 50.667 20.1689 95.168 60.502 133.501s86.166 57.5 137.499 57.5
c52.667 0 99 -19.5 139 -58.5s60 -84.833 60 -137.5c0 -46 -15 -85.833 -45 -119.5s-69.333 -55.834 -118 -66.501v-67h-88v155c38 0 71 7.66699 99 23c32 18.667 48 43.667 48 75c0 26.667 -9.33301 49.667 -28 69s-41.334 29 -68.001 29c-58 0 -90.667 -31 -98 -93h-99z
" />
    <glyph glyph-name="glyph368" unicode="&#x1ef7;" horiz-adv-x="1049" 
d="M940 981v-534.999c0 -250 -110 -402 -330 -456v-426h-176v426c-218.667 54 -328 206 -328 456v535h175v-567c0 -74.667 21.667 -136.334 65 -185.001c44.667 -51.333 104 -77 178 -77s133.333 25.333 178 76c42.667 48.667 64 110.667 64 186v567h174zM336 1333
c0 50.667 20.1689 95.168 60.502 133.501s86.166 57.5 137.499 57.5c52.667 0 99 -19.5 139 -58.5s60 -84.833 60 -137.5c0 -46 -15 -85.833 -45 -119.5s-69.333 -55.834 -118 -66.501v-67h-88v155c38 0 71 7.66699 99 23c32 18.667 48 43.667 48 75
c0 26.667 -9.33301 49.667 -28 69s-41.334 29 -68.001 29c-58 0 -90.667 -31 -98 -93h-99z" />
    <glyph glyph-name="glyph369" unicode="&#x1ef8;" horiz-adv-x="1110" 
d="M461 0v549c-238 60.667 -357 225 -357 493v390h191v-392c0 -216.667 86.667 -325 260 -325s260 108.333 260 325v392h191v-390c0 -268 -119 -432.333 -357 -493v-549h-188zM844 1835c-33.333 -128.667 -99.668 -193 -199.001 -193c-23.333 0 -56.5 7.66699 -99.5 23
s-75.833 23 -98.5 23c-45.333 0 -77.666 -21.333 -96.999 -64h-88c30 124 96.333 186 199 186c24 0 57.5 -7.83301 100.5 -23.5s75.5 -23.5 97.5 -23.5c46.667 0 79 24 97 72h88z" />
    <glyph glyph-name="glyph370" unicode="&#x1ef9;" horiz-adv-x="1049" 
d="M940 981v-534.999c0 -250 -110 -402 -330 -456v-426h-176v426c-218.667 54 -328 206 -328 456v535h175v-567c0 -74.667 21.667 -136.334 65 -185.001c44.667 -51.333 104 -77 178 -77s133.333 25.333 178 76c42.667 48.667 64 110.667 64 186v567h174zM818 1364
c-33.333 -128.667 -99.668 -193 -199.001 -193c-23.333 0 -56.5 7.66699 -99.5 23s-75.833 23 -98.5 23c-45.333 0 -77.666 -21.333 -96.999 -64h-88c30 124 96.333 186 199 186c24 0 57.5 -7.83301 100.5 -23.5s75.5 -23.5 97.5 -23.5c46.667 0 79 24 97 72h88z" />
    <glyph glyph-name="endash" unicode="&#x2013;" horiz-adv-x="1024" 
d="M0 420v149h1024v-149h-1024z" />
    <glyph glyph-name="emdash" unicode="&#x2014;" horiz-adv-x="2048" 
d="M0 569h2048v-149h-2048v149z" />
    <glyph glyph-name="quoteleft" unicode="&#x2018;" horiz-adv-x="557" 
d="M430 1432l-82 -396h-164l111 396h135z" />
    <glyph glyph-name="quoteright" unicode="&#x2019;" horiz-adv-x="557" 
d="M180 1036l82 396h164l-111 -396h-135z" />
    <glyph glyph-name="quotesinglbase" unicode="&#x201a;" horiz-adv-x="557" 
d="M129 -205l82 398h164l-111 -398h-135z" />
    <glyph glyph-name="quotedblleft" unicode="&#x201c;" horiz-adv-x="862" 
d="M733 1432l-80 -396h-166l113 396h133zM430 1432l-82 -396h-164l111 396h135z" />
    <glyph glyph-name="quotedblright" unicode="&#x201d;" horiz-adv-x="862" 
d="M487 1036l80 396h166l-112 -396h-134zM180 1036l82 396h164l-111 -396h-135z" />
    <glyph glyph-name="quotedblbase" unicode="&#x201e;" horiz-adv-x="862" 
d="M436 -205l80 398h166l-113 -398h-133zM129 -205l82 398h164l-111 -398h-135z" />
    <glyph glyph-name="dagger" unicode="&#x2020;" horiz-adv-x="1024" 
d="M408 -100v1056h-275v154h275v322h186v-322h274v-154h-274v-1056h-186z" />
    <glyph glyph-name="daggerdbl" unicode="&#x2021;" horiz-adv-x="1024" 
d="M600 -100h-176v477h-285v153h285v426h-285v154h285v322h176v-322h285v-154h-285v-426h285v-153h-285v-477z" />
    <glyph glyph-name="bullet" unicode="&#x2022;" horiz-adv-x="1208" 
d="M307 762c0 82.667 28.832 152.499 86.499 209.499s127.834 85.5 210.501 85.5c82 0 151.667 -28.667 209 -86s86 -127 86 -209s-29 -152 -87 -210s-128 -87 -210 -87c-82.667 0 -152.5 28.833 -209.5 86.5s-85.5 127.834 -85.5 210.501z" />
    <glyph glyph-name="ellipsis" unicode="&#x2026;" horiz-adv-x="2048" 
d="M223 102c0 34 11.333 62.333 34 85s51 34 85 34c33.333 0 61.333 -11.5 84 -34.5s34 -51.167 34 -84.5c0 -32.667 -11.5 -60.167 -34.5 -82.5s-50.833 -33.5 -83.5 -33.5s-60.667 11.167 -84 33.5s-35 49.833 -35 82.5zM905 102c0 34 11.333 62.333 34 85s51 34 85 34
c33.333 0 61.333 -11.5 84 -34.5s34 -51.167 34 -84.5c0 -32.667 -11.5 -60.167 -34.5 -82.5s-50.833 -33.5 -83.5 -33.5s-60.667 11.167 -84 33.5s-35 49.833 -35 82.5zM1590 102c0 34 11.333 62.333 34 85s51 34 85 34c33.333 0 61.333 -11.5 84 -34.5
s34 -51.167 34 -84.5c0 -32.667 -11.5 -60.167 -34.5 -82.5s-50.833 -33.5 -83.5 -33.5s-60.667 11.167 -84 33.5s-35 49.833 -35 82.5z" />
    <glyph glyph-name="perthousand" unicode="&#x2030;" horiz-adv-x="2456" 
d="M952 322c0 90.667 31.333 167.167 94 229.5s139.334 93.5 230.001 93.5s166.834 -31.167 228.501 -93.5s92.5 -138.833 92.5 -229.5s-30.833 -167 -92.5 -229s-137.834 -93 -228.501 -93s-167.334 31 -230.001 93s-94 138.333 -94 229zM1110 322
c0 -45.333 16.167 -84 48.5 -116s71.5 -48 117.5 -48c45.333 0 84 16 116 48s48 70.667 48 116c0 46 -15.833 85 -47.5 117s-70.5 48 -116.5 48s-85.167 -16 -117.5 -48s-48.5 -71 -48.5 -117zM1884 322c0 -45.333 16.167 -84 48.5 -116s71.5 -48 117.5 -48
c45.333 0 84 16 116 48s48 70.667 48 116c0 46 -15.833 85 -47.5 117s-70.5 48 -116.5 48s-85.167 -16 -117.5 -48s-48.5 -71 -48.5 -117zM1726 322c0 90.667 31.333 167.167 94 229.5s139.334 93.5 230.001 93.5s167 -31.167 229 -93.5s93 -138.833 93 -229.5
s-31 -167 -93 -229s-138.333 -93 -229 -93s-167.334 31 -230.001 93s-94 138.333 -94 229zM92 1110c0 90.667 31 167 93 229s138.333 93 229 93s167.167 -31 229.5 -93s93.5 -138.333 93.5 -229s-31.167 -167.334 -93.5 -230.001s-138.833 -94 -229.5 -94
s-167 31.333 -229 94s-93 139.334 -93 230.001zM250 1110c0 -45.333 16 -84 48 -116s70.667 -48 116 -48s84.333 16 117 48s49 70.667 49 116c0 46 -16 84.833 -48 116.5s-71.333 47.5 -118 47.5c-46 0 -84.833 -15.833 -116.5 -47.5s-47.5 -70.5 -47.5 -116.5zM301 0
l932 1432h131l-922 -1432h-141z" />
    <glyph glyph-name="guilsinglleft" unicode="&#x2039;" horiz-adv-x="668" 
d="M553 184h-162l-250 322l250 317h162l-248 -317z" />
    <glyph glyph-name="guilsinglright" unicode="&#x203a;" horiz-adv-x="668" 
d="M115 184l250 322l-250 317h161l252 -317l-252 -322h-161z" />
    <glyph glyph-name="fraction" unicode="&#x2044;" horiz-adv-x="342" 
d="M-342 0l887 1432h137l-877 -1432h-147z" />
    <glyph glyph-name="franc" unicode="&#x20a3;" horiz-adv-x="1583" 
d="M117 0v934c0 332 168.667 498 506 498h204v-177h-237c-190 0 -285 -97.333 -285 -292v-160h522v-176h-522v-627h-188zM1039 0l0.000976562 981h162v-145c36.667 70 91 116.667 163 140c47.333 15.333 120.666 23 219.999 23v-170c-134 0 -229 -27.5 -285 -82.5
s-84 -149.5 -84 -283.5v-463h-176z" />
    <glyph glyph-name="u20AB" unicode="&#x20ab;" horiz-adv-x="832" 
d="M741 1457l0.000976562 -119h71v-68h-71v-476c0 -103.333 -31.667 -189 -95 -257c-65.333 -70 -149.333 -105 -252 -105s-186.5 34.333 -251.5 103s-97.5 154.667 -97.5 258c0 98 32.5 181.833 97.5 251.5s146.5 104.5 244.5 104.5c68.667 0 131 -15.667 187 -47v-133
c-57.333 42 -115 63 -173 63c-69.333 0 -124.833 -23.167 -166.5 -69.5s-62.5 -104.5 -62.5 -174.5c0 -68.667 20 -125 60 -169c41.333 -46.667 95.666 -70 162.999 -70c68 0 122.667 24 164 72c38 44.667 57 102 57 172v477h-231v68h231v119h125zM677.001 317v-101h-544
v101h544z" />
    <glyph glyph-name="trademark" unicode="&#x2122;" horiz-adv-x="1706" 
d="M963 1458l151 -385l141 385h150v-538h-98v444l-166 -444h-56l-174 444v-444h-98v538h150zM694 1458v-80h-172v-458h-108v458h-172v80h452z" />
    <glyph glyph-name="partialdiff" unicode="&#x2202;" horiz-adv-x="1059" 
d="M756 621c20 116 30 224.332 30 324.999c0 173.333 -48.333 260 -145 260c-33.333 0 -75.666 -19.333 -126.999 -58s-87.333 -58 -108 -58c-22.667 0 -42.334 7 -59.001 21s-25 32 -25 54c0 50 29.667 90.333 89 121c49.333 26 101.333 39 156 39
c138 0 241.667 -64.667 311 -194c55.333 -102.667 83 -229 83 -379c0 -223.333 -48.167 -408.666 -144.5 -555.999s-215.5 -221 -357.5 -221c-104.667 0 -190.667 37.333 -258 112c-64.667 72 -97 161 -97 267c0 121.333 32.667 225.333 98 312c72 95.333 167 143 285 143
c130 0 219.667 -62.667 269 -188zM707 493.999c0 160.667 -55.333 240.999 -166 240.999c-89.333 0 -156.333 -58.667 -201 -176c-32.667 -85.333 -49 -181.666 -49 -288.999c0 -159.333 55.333 -239 166 -239c88.667 0 155.667 58.333 201 175c32.667 86 49 182 49 288z
" />
    <glyph glyph-name="product" unicode="&#x220f;" horiz-adv-x="1550" 
d="M156 1473h1237v-1866h-240v1661h-758v-1661h-239v1866z" />
    <glyph glyph-name="summation" unicode="&#x2211;" horiz-adv-x="1380" 
d="M55 1473h1258v-193h-959l672 -717l-694 -764h1007v-192h-1314v149l725 801l-695 739v177z" />
    <glyph glyph-name="minus" unicode="&#x2212;" horiz-adv-x="1706" 
d="M1452 682v-141h-1198v141h1198z" />
    <glyph glyph-name="radical" unicode="&#x221a;" horiz-adv-x="1305" 
d="M1116 1661h189v-96h-115l-594 -1606h-66l-319 883l-125 -45l-25 80l283 98l256 -709z" />
    <glyph glyph-name="infinity" unicode="&#x221e;" horiz-adv-x="1706" 
d="M915 559c66 -118.667 155 -177.999 267 -177.999c68.667 0 124 22.667 166 68s63 102.666 63 171.999c0 64 -18 118.333 -54 163c-39.333 48 -90.333 72 -153 72c-102 0 -198.333 -99 -289 -297zM793 666.001c-65.333 117.333 -154.333 176 -267 176
c-69.333 0 -124.833 -22.167 -166.5 -66.5s-62.5 -101.5 -62.5 -171.5c0 -64 18 -118.333 54 -163c39.333 -48 90.333 -72 153 -72c102.667 0 199 99 289 297zM864 483.001c-90.667 -174.667 -197.666 -262 -320.999 -262c-98.667 0 -178.334 41.333 -239.001 124
c-55.333 74.667 -83 163 -83 265c0 104.667 23.333 193 70 265c54.667 84 131.667 126 231 126c121.333 0 228 -88 320 -264c88 179.333 195.667 269 323 269c98 0 177.667 -42 239 -126c55.333 -75.333 83 -164 83 -266c0 -104.667 -23.333 -192.667 -70 -264
c-54.667 -83.333 -131.667 -125 -231 -125c-116.667 0 -224 86 -322 258z" />
    <glyph glyph-name="integral" unicode="&#x222b;" horiz-adv-x="1067" 
d="M311 -262c70 0 110 229.332 120 687.999l3 165c8.66699 344.667 44.5 590.667 107.5 738s161.833 221 296.5 221c48.667 0 90 -12.333 124 -37c37.333 -27.333 56 -64.666 56 -111.999c0 -78 -39.667 -117 -119 -117c-65.333 0 -105.333 41.333 -120 124
c-4.66699 24 -11.667 36 -21 36c-70.667 0 -111 -206.333 -121 -619l-8 -303c-12 -321.333 -49 -550 -111 -686c-63.333 -138 -160.333 -207 -291 -207c-48.667 0 -90 12.333 -124 37c-37.333 27.333 -56 64.333 -56 111c0 79.333 43 119 129 119
c39.333 0 68 -13.667 86 -41c9.33301 -14.667 18 -40 26 -76c6 -27.333 13.667 -41 23 -41z" />
    <glyph glyph-name="approxequal" unicode="&#x2248;" horiz-adv-x="1706" 
d="M1530 430c-135.333 -94 -265.001 -141 -389.001 -141c-63.333 0 -159 22.5 -287 67.5s-225 67.5 -291 67.5c-104.667 0 -233 -52.667 -385 -158v156c142.667 96.667 271.667 145 387 145c74.667 0 176.334 -22.833 305.001 -68.5s219.667 -68.5 273 -68.5
c110 0 239 52 387 156v-156zM1530 799c-136 -94.667 -265.666 -142 -388.999 -142c-63.333 0 -159 22.667 -287 68s-225 68 -291 68c-103.333 0 -231.666 -52.667 -384.999 -158v156c140 95.333 269 143 387 143c75.333 0 177.166 -22.5 305.499 -67.5
s219.166 -67.5 272.499 -67.5c109.333 0 238.333 51.667 387 155v-155z" />
    <glyph glyph-name="approxequal" unicode="&#x22f2;" horiz-adv-x="1706" 
d="M1530 430c-135.333 -94 -265.001 -141 -389.001 -141c-63.333 0 -159 22.5 -287 67.5s-225 67.5 -291 67.5c-104.667 0 -233 -52.667 -385 -158v156c142.667 96.667 271.667 145 387 145c74.667 0 176.334 -22.833 305.001 -68.5s219.667 -68.5 273 -68.5
c110 0 239 52 387 156v-156zM1530 799c-136 -94.667 -265.666 -142 -388.999 -142c-63.333 0 -159 22.667 -287 68s-225 68 -291 68c-103.333 0 -231.666 -52.667 -384.999 -158v156c140 95.333 269 143 387 143c75.333 0 177.166 -22.5 305.499 -67.5
s219.166 -67.5 272.499 -67.5c109.333 0 238.333 51.667 387 155v-155z" />
    <glyph glyph-name="notequal" unicode="&#x2260;" horiz-adv-x="1706" 
d="M1313 1112l-187 -235h326v-136h-416l-205 -262h621v-135h-709l-249 -317l-105 84l184 233h-319v135h408l204 262h-612v136h702l252 317z" />
    <glyph glyph-name="lessequal" unicode="&#x2264;" horiz-adv-x="1706" 
d="M1446 162v-139h-1184v139h1184zM1444 1059l-936 -309l936 -306v-149l-1182 395v121l1182 395v-147z" />
    <glyph glyph-name="greaterequal" unicode="&#x2265;" horiz-adv-x="1706" 
d="M1446 162v-139h-1184v139h1184zM1446 811v-121l-1184 -395v149l938 306l-938 309v147z" />
    <glyph glyph-name="SF370000" unicode="&#x255f;" horiz-adv-x="1229" 
d="M922 0l0.000976562 657h-557v181h557v57c0 256.667 -102.667 385 -308 385c-204.667 0 -307 -128.333 -307 -385v-895h-190v899c0 162.667 41.667 294.334 125 395.001c88.667 108 212.667 162 372 162s283.666 -54 372.999 -162
c83.333 -100.667 125 -232.334 125 -395.001v-899h-190z" />
    <glyph glyph-name="SF420000" unicode="&#x2560;" horiz-adv-x="1040" 
d="M958 1262c-16 1.33301 -37 1.99902 -63 1.99902c-354 0 -561 -147 -621 -441h684v-170h-694c48.667 -320.667 256.334 -481 623.001 -481c31.333 0 55 0.666992 71 2v-174h-55c-212 0 -373 33.333 -483 100c-234.667 142.667 -352 348.334 -352 617.001
c0 169.333 51.167 317.833 153.5 445.5s236.166 209.167 401.499 244.5c80 16.667 191.667 25 335 25v-170z" />
    <glyph glyph-name="SF190000" unicode="&#x2561;" horiz-adv-x="465" 
d="M137 0v1432h191v-1432h-191z" />
    <glyph glyph-name="SF200000" unicode="&#x2562;" horiz-adv-x="1583" 
d="M66 717c0 202.667 70.5 376.5 211.5 521.5s312.833 217.5 515.5 217.5c201.333 0 372.5 -72.667 513.5 -218s211.5 -319 211.5 -521c0 -202.667 -70 -376.667 -210 -522c-142 -146.667 -313.667 -220 -515 -220c-203.333 0 -375.333 72.667 -516 218s-211 320 -211 524z
M260 719c0 -152 50.333 -283 151 -393c104 -113.333 231.333 -170 382 -170c149.333 0 276 57 380 171c100 110 150 240.667 150 392c0 150 -50.333 280.333 -151 391c-104 113.333 -230.333 170 -379 170c-150.667 0 -278 -56.333 -382 -169
c-100.667 -109.333 -151 -240 -151 -392z" />
    <glyph glyph-name="SF230000" unicode="&#x2563;" horiz-adv-x="1229" 
d="M307 1432v-891c0 -256.667 102.333 -385 307 -385c205.333 0 308 128.333 308 385v891h190v-900c0 -162 -41.667 -293.333 -125 -394c-90 -108.667 -214.333 -163 -373 -163s-282.667 54.333 -372 163c-83.333 100.667 -125 232 -125 394v900h190z" />
    <glyph glyph-name="SF470000" unicode="&#x2564;" horiz-adv-x="1110" 
d="M461 0v549c-238 60.667 -357 225 -357 493v390h191v-392c0 -216.667 86.667 -325 260 -325s260 108.333 260 325v392h191v-390c0 -268 -119 -432.333 -357 -493v-549h-188z" />
    <glyph glyph-name="SF480000" unicode="&#x2565;" horiz-adv-x="1151" 
d="M870 0l0.00195312 489.001c0 98.667 -27 180 -81 244c-57.333 67.333 -134.666 101 -231.999 101c-95.333 0 -172.333 -33 -231 -99c-56 -62.667 -84 -142.334 -84 -239.001c0 -98.667 29 -180.334 87 -245.001c60 -67.333 138.667 -101 236 -101
c84.667 0 166.667 30 246 90v-189c-78.667 -44.667 -167.334 -67 -266.001 -67c-138 0 -253.333 50.667 -346 152c-90.667 98.667 -136 217.334 -136 356.001c0 146 45.667 267 137 363s209.666 144 354.999 144c117.333 0 221.166 -36.167 311.499 -108.5
s146.5 -165.5 168.5 -279.5c8 -44 12 -110.333 12 -199v-412h-177z" />
    <glyph glyph-name="SF410000" unicode="&#x2566;" horiz-adv-x="1110" 
d="M1051 434c-24 -134.667 -77.666 -242.667 -160.999 -324c-89.333 -86.667 -200.333 -130 -333 -130c-138.667 0 -256.334 51 -353.001 153c-95.333 100 -143 219.667 -143 359s48.333 259 145 359s214.334 150 353.001 150c205.333 0 357.666 -102.333 456.999 -307
l-643 -356l-74 133l477 266c-59.333 66 -132.333 99 -219 99c-92 0 -168 -34.333 -228 -103c-56.667 -66 -85 -145.667 -85 -239c0 -92.667 28.667 -172 86 -238c60 -69.333 135.667 -104 227 -104c88.667 0 161 30 217 90c52 55.333 84.667 128.333 98 219z" />
    <glyph glyph-name="SF450000" unicode="&#x2567;" horiz-adv-x="418" 
d="M121 0v981h176v-981h-176zM102 1260c0 30 10.333 55.167 31 75.5s46 30.5 76 30.5s55.167 -10.167 75.5 -30.5s30.5 -45.5 30.5 -75.5c0 -30.667 -10 -56.5 -30 -77.5s-45.333 -31.5 -76 -31.5c-30 0 -55.333 10.667 -76 32s-31 47 -31 77z" />
    <glyph glyph-name="SF460000" unicode="&#x2568;" horiz-adv-x="418" 
d="M121 0v981h176v-981h-176z" />
    <glyph glyph-name="SF400000" unicode="&#x2569;" 
d="M244 494c0 -92 28.666 -171.333 85.999 -238c60.667 -69.333 136.334 -104 227.001 -104s166.334 34.667 227.001 104c57.333 66.667 86 146 86 238s-28.667 171 -86 237c-60.667 68.667 -136.334 103 -227.001 103s-166 -34.333 -226 -103c-58 -66 -87 -145 -87 -237z
M60.999 492c0 138 48.168 257.001 144.501 357.001s213.5 150 351.5 150c139.333 0 256.833 -49.667 352.5 -149s143.5 -218.666 143.5 -357.999c0 -140.667 -47.333 -260.334 -142 -359.001c-96 -100.667 -214 -151 -354 -151c-138.667 0 -256.334 50.667 -353.001 152
c-95.333 99.333 -143 218.666 -143 357.999z" />
    <glyph glyph-name="SF540000" unicode="&#x256a;" horiz-adv-x="1049" 
d="M940 981v-534.999c0 -136 -35 -246 -105 -330c-74.667 -89.333 -179 -134 -313 -134c-133.333 0 -237.333 45 -312 135c-69.333 83.333 -104 193 -104 329v535h175v-567c0 -74.667 21.667 -136.334 65 -185.001c44.667 -51.333 104 -77 178 -77s133.333 25.333 178 76
c42.667 48.667 64 110.667 64 186v567h174z" />
    <glyph glyph-name="SF530000" unicode="&#x256b;" horiz-adv-x="1049" 
d="M940 981v-534.999c0 -250 -110 -402 -330 -456v-426h-176v426c-218.667 54 -328 206 -328 456v535h175v-567c0 -74.667 21.667 -136.334 65 -185.001c44.667 -51.333 104 -77 178 -77s133.333 25.333 178 76c42.667 48.667 64 110.667 64 186v567h174z" />
    <glyph glyph-name="lozenge" unicode="&#x25ca;" horiz-adv-x="1012" 
d="M506 1409l-385 -817l385 -825l385 825zM506 1653l500 -1061l-500 -1069l-500 1069z" />
    <glyph glyph-name="circle" unicode="&#x25cb;" horiz-adv-x="1229" 
d="M327 1517l197 348h178l197 -348h-107l-178 243l-180 -243h-107zM369 1891l209 348h178l-281 -348h-106z" />
    <glyph glyph-name="H18533" unicode="&#x25cf;" horiz-adv-x="1229" 
d="M327 1517l197 348h178l197 -348h-107l-178 243l-180 -243h-107zM862 1891h-106l-281 348h178z" />
    <glyph glyph-name="invbullet" unicode="&#x25d8;" horiz-adv-x="1229" 
d="M327 1517l197 348h178l197 -348h-107l-178 243l-180 -243h-107zM670 2085c0 50.667 20.1689 95.167 60.502 133.5s86.166 57.5 137.499 57.5c52.667 0 99 -19.5 139 -58.5s60 -84.833 60 -137.5c0 -46 -15 -85.833 -45 -119.5s-69.333 -55.834 -118 -66.501v-67h-88v155
c38 0 71 7.66699 99 23c32 18.667 48 43.667 48 75.001c0 26.667 -9.33301 49.667 -28 69s-41.334 29 -68.001 29c-58 0 -90.667 -31 -98 -93h-99z" />
    <glyph glyph-name="invcircle" unicode="&#x25d9;" horiz-adv-x="1229" 
d="M327 1517l197 348h178l197 -348h-107l-178 243l-180 -243h-107zM970 2152c-33.333 -128.667 -99.668 -193 -199.001 -193c-23.333 0 -56.5 7.66699 -99.5 23s-75.833 23 -98.5 23c-45.333 0 -77.666 -21.333 -96.999 -64h-88c30 124 96.333 186 199 186
c24 0 57.5 -7.83301 100.5 -23.5s75.5 -23.5 97.5 -23.5c46.667 0 79 24 97 72h88z" />
    <glyph glyph-name="apple" unicode="&#xf000;" horiz-adv-x="1618" 
d="M836 1216c-1.33301 8 -2 20.333 -2 37c0 88 33.667 167 101 237c64 66 140.667 107.333 230 124c1.33301 -13.333 2 -34 2 -62c0 -87.333 -34.5 -165.5 -103.5 -234.5s-139.5 -103.5 -211.5 -103.5c-2 0 -4.83301 0.333008 -8.5 1s-6.16699 1 -7.5 1zM1505 403
c-60 -130 -111.002 -223.334 -153.002 -280.001c-78.667 -105.333 -164 -158 -256 -158c-30 0 -72.667 11 -128 33s-97.333 33 -126 33c-30 0 -73.167 -11 -129.5 -33s-99.166 -33 -128.499 -33c-85.333 0 -171.666 58.667 -258.999 176c-66 89.333 -118 188 -156 296
c-37.333 103.333 -56 203.333 -56 300c0 140.667 39 256.667 117 348c82.667 97.333 193 146 331 146c38 0 88 -11.333 150 -34s105 -34 129 -34c22.667 0 64.667 11.667 126 35s110.666 35 147.999 35c144.667 0 264.334 -54.667 359.001 -164
c-134 -85.333 -201 -194.666 -201 -327.999c0 -155.333 77.667 -268 233 -338z" />
    <glyph glyph-name="fi" unicode="&#xf001;" horiz-adv-x="1044" 
d="M750 0v981h176v-981h-176zM729 1260c0 30 10.667 55.167 32 75.5s47 30.5 77 30.5s55.167 -10.167 75.5 -30.5s30.5 -45.5 30.5 -75.5s-10.167 -55.667 -30.5 -77s-45.5 -32 -75.5 -32s-55.667 10.667 -77 32s-32 47 -32 77zM121 0l0.000976562 1067
c0 243.333 138 365 414 365h106v-168c-122.667 0 -203.334 -8.33301 -242.001 -25c-69.333 -30 -104 -97.667 -104 -203v-55h346v-166h-346v-815h-174z" />
    <glyph glyph-name="fl" unicode="&#xf002;" horiz-adv-x="1044" 
d="M750 0v1432h176v-1432h-176zM121 0l0.000976562 1067c0 243.333 138 365 414 365h106v-168c-122.667 0 -203.334 -8.33301 -242.001 -25c-69.333 -30 -104 -97.667 -104 -203v-55h346v-166h-346v-815h-174z" />
    <glyph glyph-name=".null" horiz-adv-x="0" 
 />
    <glyph glyph-name="nonmarkingreturn" horiz-adv-x="557" 
 />
    <glyph glyph-name="periodcentered" horiz-adv-x="557" 
d="M160 729c0 34 11.333 62.335 34 85.002s51 34 85 34c33.333 0 61.333 -11.5 84 -34.5s34 -51.167 34 -84.5c0 -32.667 -11.5 -60.334 -34.5 -83.001s-50.833 -34 -83.5 -34c-33.333 0 -61.5 11.167 -84.5 33.5s-34.5 50.166 -34.5 83.499z" />
    <glyph glyph-name="glyph275" horiz-adv-x="557" 
 />
    <glyph glyph-name="glyph276" horiz-adv-x="557" 
 />
    <glyph glyph-name="glyph261" horiz-adv-x="557" 
d="M139 1055l162 371h171l-201 -371h-132z" />
    <glyph glyph-name="glyph262" horiz-adv-x="738" 
d="M310 1309c0 50.667 20.1689 95.168 60.502 133.501s86.166 57.5 137.499 57.5c52.667 0 99 -19.5 139 -58.5s60 -84.833 60 -137.5c0 -46 -15 -85.833 -45 -119.5s-69.333 -55.834 -118 -66.501v-67h-88v155c38 0 71 7.66699 99 23c32 18.667 48 43.667 48 75
c0 26.667 -9.33301 49.667 -28 69s-41.334 29 -68.001 29c-58 0 -90.667 -31 -98 -93h-99z" />
    <glyph glyph-name="glyph263" horiz-adv-x="1151" 
d="M288 1096l197 348h178l197 -348h-107l-178 243l-180 -243h-107zM330 1469l209 348h178l-281 -348h-106z" />
    <glyph glyph-name="glyph264" horiz-adv-x="1151" 
d="M288 1096l197 348h178l197 -348h-107l-178 243l-180 -243h-107zM823 1470h-106l-281 348h178z" />
    <glyph glyph-name="glyph265" horiz-adv-x="1151" 
d="M288 1096l197 348h178l197 -348h-107l-178 243l-180 -243h-107zM631 1664c0 50.667 20.1689 95.168 60.502 133.501s86.166 57.5 137.499 57.5c52.667 0 99 -19.5 139 -58.5s60 -84.833 60 -137.5c0 -46 -15 -85.833 -45 -119.5s-69.333 -55.834 -118 -66.501v-67h-88
v155c38 0 71 7.66699 99 23c32 18.667 48 43.667 48 75c0 26.667 -9.33301 49.667 -28 69s-41.334 29 -68.001 29c-58 0 -90.667 -31 -98 -93h-99z" />
    <glyph glyph-name="glyph266" horiz-adv-x="1151" 
d="M288 1096l197 348h178l197 -348h-107l-178 243l-180 -243h-107zM931 1732c-33.333 -128.667 -99.668 -193 -199.001 -193c-23.333 0 -56.5 7.66699 -99.5 23s-75.833 23 -98.5 23c-45.333 0 -77.666 -21.333 -96.999 -64h-88c30 124 96.333 186 199 186
c24 0 57.5 -7.83301 100.5 -23.5s75.5 -23.5 97.5 -23.5c46.667 0 79 24 97 72h88z" />
    <glyph glyph-name="glyph267" horiz-adv-x="1151" 
d="M291 1405h89c8.66699 -96.667 73 -145 193 -145s184.333 48.333 193 145h90c-14 -180 -108.333 -270 -283 -270c-176.667 0 -270.667 90 -282 270zM450 1469l209 348h178l-281 -348h-106z" />
    <glyph glyph-name="glyph268" horiz-adv-x="1151" 
d="M291 1405h89c8.66699 -96.667 73 -145 193 -145s184.333 48.333 193 145h90c-14 -180 -108.333 -270 -283 -270c-176.667 0 -270.667 90 -282 270zM703 1470h-106l-281 348h178z" />
    <glyph glyph-name="glyph269" horiz-adv-x="1151" 
d="M291 1405h89c8.66699 -96.667 73 -145 193 -145s184.333 48.333 193 145h90c-14 -180 -108.333 -270 -283 -270c-176.667 0 -270.667 90 -282 270zM383 1664c0 50.667 20.1689 95.168 60.502 133.501s86.166 57.5 137.499 57.5c52.667 0 99 -19.5 139 -58.5
s60 -84.833 60 -137.5c0 -46 -15 -85.833 -45 -119.5s-69.333 -55.834 -118 -66.501v-67h-88v155c38 0 71 7.66699 99 23c32 18.667 48 43.667 48 75c0 26.667 -9.33301 49.667 -28 69s-41.334 29 -68.001 29c-58 0 -90.667 -31 -98 -93h-99z" />
    <glyph glyph-name="glyph270" horiz-adv-x="1151" 
d="M291 1405h89c8.66699 -96.667 73 -145 193 -145s184.333 48.333 193 145h90c-14 -180 -108.333 -270 -283 -270c-176.667 0 -270.667 90 -282 270zM878 1732c-33.333 -128.667 -99.668 -193 -199.001 -193c-23.333 0 -56.5 7.66699 -99.5 23s-75.833 23 -98.5 23
c-45.333 0 -77.666 -21.333 -96.999 -64h-88c30 124 96.333 186 199 186c24 0 57.5 -7.83301 100.5 -23.5s75.5 -23.5 97.5 -23.5c46.667 0 79 24 97 72h88z" />
    </font>
</defs>
</svg>
