<?xml version="1.0" encoding="iso-8859-1"?>
<!-- Generator: Adobe Illustrator 16.0.0, SVG Export Plug-In . SVG Version: 6.00 Build 0)  -->
<!DOCTYPE svg PUBLIC "-//W3C//DTD SVG 1.1//EN" "http://www.w3.org/Graphics/SVG/1.1/DTD/svg11.dtd">
<svg version="1.1" xmlns="http://www.w3.org/2000/svg" xmlns:xlink="http://www.w3.org/1999/xlink" x="0px" y="0px" width="30px"
	 height="30px" viewBox="0 0 30 30" style="enable-background:new 0 0 30 30;" xml:space="preserve">
<g id="forum_x5F_link" style="display:none;">
	<g style="display:inline;">
		<path style="fill:#0090F5;" d="M15,2c7.168,0,13,5.832,13,13c0,7.168-5.832,13-13,13C7.832,28,2,22.168,2,15C2,7.832,7.832,2,15,2
			 M15,0C6.716,0,0,6.716,0,15s6.716,15,15,15s15-6.716,15-15S23.284,0,15,0L15,0z"/>
	</g>
	<path style="display:inline;fill:none;stroke:#1D1D1B;stroke-width:2;stroke-linecap:round;stroke-miterlimit:10;" d="
		M19.961,19.961"/>
	<path style="display:inline;fill:none;stroke:#1D1D1B;stroke-width:2;stroke-linecap:round;stroke-miterlimit:10;" d="
		M10.038,10.038"/>
	<path style="display:inline;fill:none;stroke:#1D1D1B;stroke-width:2;stroke-linecap:round;stroke-miterlimit:10;" d="
		M10.038,19.961"/>
	<path style="display:inline;fill:none;stroke:#1D1D1B;stroke-width:2;stroke-linecap:round;stroke-miterlimit:10;" d="
		M19.961,10.038"/>
	
		<line style="display:inline;fill:none;stroke:#0090F5;stroke-width:2;stroke-linecap:round;stroke-miterlimit:10;" x1="10.038" y1="15" x2="19.961" y2="15"/>
	
		<line style="display:inline;fill:none;stroke:#0090F5;stroke-width:2;stroke-linecap:round;stroke-miterlimit:10;" x1="19.961" y1="15" x2="15" y2="10.038"/>
	
		<line style="display:inline;fill:none;stroke:#0090F5;stroke-width:2;stroke-linecap:round;stroke-miterlimit:10;" x1="19.961" y1="15" x2="15" y2="19.961"/>
</g>
<g id="icon_x5F_unread_x5F_locked">
	<g>
		<path style="fill:#BD0000;" d="M15,2c7.168,0,13,5.832,13,13c0,7.168-5.832,13-13,13C7.832,28,2,22.168,2,15C2,7.832,7.832,2,15,2
			 M15,0C6.716,0,0,6.716,0,15s6.716,15,15,15s15-6.716,15-15S23.284,0,15,0L15,0z"/>
	</g>
	
		<line style="fill:none;stroke:#BD0000;stroke-width:2;stroke-linecap:round;stroke-miterlimit:10;" x1="10.038" y1="10.038" x2="19.961" y2="19.961"/>
	
		<line style="fill:none;stroke:#BD0000;stroke-width:2;stroke-linecap:round;stroke-miterlimit:10;" x1="19.961" y1="10.038" x2="10.038" y2="19.961"/>
</g>
<g id="icon_x5F_read_x5F_locked">
	<g>
		<path style="fill:#90A3C0;" d="M15,2c7.168,0,13,5.832,13,13c0,7.168-5.832,13-13,13C7.832,28,2,22.168,2,15C2,7.832,7.832,2,15,2
			 M15,0C6.716,0,0,6.716,0,15s6.716,15,15,15s15-6.716,15-15S23.284,0,15,0L15,0z"/>
	</g>
	
		<line style="fill:none;stroke:#90A3C0;stroke-width:2;stroke-linecap:round;stroke-miterlimit:10;" x1="10.038" y1="10.038" x2="19.961" y2="19.961"/>
	
		<line style="fill:none;stroke:#90A3C0;stroke-width:2;stroke-linecap:round;stroke-miterlimit:10;" x1="19.961" y1="10.038" x2="10.038" y2="19.961"/>
</g>
<g id="icon_x5F_unread" style="display:none;">
	<g style="display:inline;">
		<path style="fill:#84BD00;" d="M15,2c7.168,0,13,5.832,13,13c0,7.168-5.832,13-13,13C7.832,28,2,22.168,2,15C2,7.832,7.832,2,15,2
			 M15,0C6.716,0,0,6.716,0,15s6.716,15,15,15s15-6.716,15-15S23.284,0,15,0L15,0z"/>
	</g>
	<path style="display:inline;fill:none;stroke:#1D1D1B;stroke-width:2;stroke-linecap:round;stroke-miterlimit:10;" d="
		M19.961,19.961"/>
	<path style="display:inline;fill:none;stroke:#1D1D1B;stroke-width:2;stroke-linecap:round;stroke-miterlimit:10;" d="
		M10.038,10.038"/>
	<path style="display:inline;fill:none;stroke:#1D1D1B;stroke-width:2;stroke-linecap:round;stroke-miterlimit:10;" d="
		M10.038,19.961"/>
	<path style="display:inline;fill:none;stroke:#1D1D1B;stroke-width:2;stroke-linecap:round;stroke-miterlimit:10;" d="
		M19.961,10.038"/>
	
		<line style="display:inline;fill:none;stroke:#84BD00;stroke-width:2;stroke-linecap:round;stroke-miterlimit:10;" x1="10.038" y1="15" x2="15" y2="19.961"/>
	
		<line style="display:inline;fill:none;stroke:#84BD00;stroke-width:2;stroke-linecap:round;stroke-miterlimit:10;" x1="15" y1="19.961" x2="19.961" y2="10.038"/>
</g>
<g id="icon_x5F_read" style="display:none;">
	<g style="display:inline;">
		<path style="fill:#90A3C0;" d="M15,2c7.168,0,13,5.832,13,13c0,7.168-5.832,13-13,13C7.832,28,2,22.168,2,15C2,7.832,7.832,2,15,2
			 M15,0C6.716,0,0,6.716,0,15s6.716,15,15,15s15-6.716,15-15S23.284,0,15,0L15,0z"/>
	</g>
	<path style="display:inline;fill:none;stroke:#1D1D1B;stroke-width:2;stroke-linecap:round;stroke-miterlimit:10;" d="
		M19.961,19.961"/>
	<path style="display:inline;fill:none;stroke:#1D1D1B;stroke-width:2;stroke-linecap:round;stroke-miterlimit:10;" d="
		M10.038,10.038"/>
	<path style="display:inline;fill:none;stroke:#1D1D1B;stroke-width:2;stroke-linecap:round;stroke-miterlimit:10;" d="
		M10.038,19.961"/>
	<path style="display:inline;fill:none;stroke:#1D1D1B;stroke-width:2;stroke-linecap:round;stroke-miterlimit:10;" d="
		M19.961,10.038"/>
	
		<line style="display:inline;fill:none;stroke:#90A3C0;stroke-width:2;stroke-linecap:round;stroke-miterlimit:10;" x1="10.038" y1="15" x2="19.961" y2="15"/>
</g>
<g id="mine__x28_unread_x29_" style="display:none;">
	
		<circle style="display:inline;fill:#84BD00;stroke:#252F39;stroke-width:2;stroke-miterlimit:10;" cx="25.019" cy="5.127" r="3.4"/>
</g>
<g id="mine__x28_locked_x29_" style="display:none;">
	
		<circle style="display:inline;fill:#BD0000;stroke:#252F39;stroke-width:2;stroke-miterlimit:10;" cx="25.019" cy="5.127" r="3.4"/>
</g>
<g id="mine__x28_read_x29_">
	<circle style="fill:#90A3C0;stroke:#252F39;stroke-width:2;stroke-miterlimit:10;" cx="25.019" cy="5.127" r="3.4"/>
</g>
<g id="hot" style="display:none;">
	
		<circle style="display:inline;fill:#FFA200;stroke:#252F39;stroke-width:2;stroke-miterlimit:10;" cx="5.113" cy="24.899" r="3.401"/>
</g>
</svg>
